<?xml version="1.0" encoding="utf-8"?>
<svg xmlns="http://www.w3.org/2000/svg" xmlns:xlink="http://www.w3.org/1999/xlink" width="800" height="400" viewBox="0 0 3200 1600">
<defs>
  <clipPath id="clip750">
    <rect x="0" y="0" width="3200" height="1600"/>
  </clipPath>
</defs>
<path clip-path="url(#clip750)" d="M0 1600 L3200 1600 L3200 0 L0 0  Z" fill="#ffffff" fill-rule="evenodd" fill-opacity="1"/>
<defs>
  <clipPath id="clip751">
    <rect x="640" y="0" width="2241" height="1600"/>
  </clipPath>
</defs>
<path clip-path="url(#clip750)" d="M323.399 1380.71 L3089.76 1380.71 L3089.76 171.344 L323.399 171.344  Z" fill="#ffffff" fill-rule="evenodd" fill-opacity="1"/>
<defs>
  <clipPath id="clip752">
    <rect x="323" y="171" width="2767" height="1210"/>
  </clipPath>
</defs>
<polyline clip-path="url(#clip752)" style="stroke:#000000; stroke-linecap:round; stroke-linejoin:round; stroke-width:2; stroke-opacity:0.1; fill:none" points="951.12,1380.71 951.12,171.344 "/>
<polyline clip-path="url(#clip752)" style="stroke:#000000; stroke-linecap:round; stroke-linejoin:round; stroke-width:2; stroke-opacity:0.1; fill:none" points="1637.9,1380.71 1637.9,171.344 "/>
<polyline clip-path="url(#clip752)" style="stroke:#000000; stroke-linecap:round; stroke-linejoin:round; stroke-width:2; stroke-opacity:0.1; fill:none" points="2324.69,1380.71 2324.69,171.344 "/>
<polyline clip-path="url(#clip752)" style="stroke:#000000; stroke-linecap:round; stroke-linejoin:round; stroke-width:2; stroke-opacity:0.1; fill:none" points="3011.47,1380.71 3011.47,171.344 "/>
<polyline clip-path="url(#clip750)" style="stroke:#000000; stroke-linecap:round; stroke-linejoin:round; stroke-width:4; stroke-opacity:1; fill:none" points="323.399,1380.71 3089.76,1380.71 "/>
<polyline clip-path="url(#clip750)" style="stroke:#000000; stroke-linecap:round; stroke-linejoin:round; stroke-width:4; stroke-opacity:1; fill:none" points="951.12,1380.71 951.12,1361.81 "/>
<polyline clip-path="url(#clip750)" style="stroke:#000000; stroke-linecap:round; stroke-linejoin:round; stroke-width:4; stroke-opacity:1; fill:none" points="1637.9,1380.71 1637.9,1361.81 "/>
<polyline clip-path="url(#clip750)" style="stroke:#000000; stroke-linecap:round; stroke-linejoin:round; stroke-width:4; stroke-opacity:1; fill:none" points="2324.69,1380.71 2324.69,1361.81 "/>
<polyline clip-path="url(#clip750)" style="stroke:#000000; stroke-linecap:round; stroke-linejoin:round; stroke-width:4; stroke-opacity:1; fill:none" points="3011.47,1380.71 3011.47,1361.81 "/>
<path clip-path="url(#clip750)" d="M941.397 1414.95 L959.754 1414.95 L959.754 1418.88 L945.68 1418.88 L945.68 1427.36 Q946.698 1427.01 947.717 1426.85 Q948.735 1426.66 949.754 1426.66 Q955.541 1426.66 958.921 1429.83 Q962.3 1433 962.3 1438.42 Q962.3 1444 958.828 1447.1 Q955.356 1450.18 949.036 1450.18 Q946.86 1450.18 944.592 1449.81 Q942.347 1449.44 939.939 1448.7 L939.939 1444 Q942.022 1445.13 944.245 1445.69 Q946.467 1446.24 948.944 1446.24 Q952.948 1446.24 955.286 1444.14 Q957.624 1442.03 957.624 1438.42 Q957.624 1434.81 955.286 1432.7 Q952.948 1430.6 948.944 1430.6 Q947.069 1430.6 945.194 1431.01 Q943.342 1431.43 941.397 1432.31 L941.397 1414.95 Z" fill="#000000" fill-rule="nonzero" fill-opacity="1" /><path clip-path="url(#clip750)" d="M1612.59 1445.57 L1620.23 1445.57 L1620.23 1419.21 L1611.92 1420.87 L1611.92 1416.61 L1620.18 1414.95 L1624.86 1414.95 L1624.86 1445.57 L1632.5 1445.57 L1632.5 1449.51 L1612.59 1449.51 L1612.59 1445.57 Z" fill="#000000" fill-rule="nonzero" fill-opacity="1" /><path clip-path="url(#clip750)" d="M1651.94 1418.03 Q1648.33 1418.03 1646.5 1421.59 Q1644.7 1425.13 1644.7 1432.26 Q1644.7 1439.37 1646.5 1442.93 Q1648.33 1446.48 1651.94 1446.48 Q1655.58 1446.48 1657.38 1442.93 Q1659.21 1439.37 1659.21 1432.26 Q1659.21 1425.13 1657.38 1421.59 Q1655.58 1418.03 1651.94 1418.03 M1651.94 1414.32 Q1657.75 1414.32 1660.81 1418.93 Q1663.89 1423.51 1663.89 1432.26 Q1663.89 1440.99 1660.81 1445.6 Q1657.75 1450.18 1651.94 1450.18 Q1646.13 1450.18 1643.05 1445.6 Q1640 1440.99 1640 1432.26 Q1640 1423.51 1643.05 1418.93 Q1646.13 1414.32 1651.94 1414.32 Z" fill="#000000" fill-rule="nonzero" fill-opacity="1" /><path clip-path="url(#clip750)" d="M2299.87 1445.57 L2307.51 1445.57 L2307.51 1419.21 L2299.2 1420.87 L2299.2 1416.61 L2307.46 1414.95 L2312.14 1414.95 L2312.14 1445.57 L2319.78 1445.57 L2319.78 1449.51 L2299.87 1449.51 L2299.87 1445.57 Z" fill="#000000" fill-rule="nonzero" fill-opacity="1" /><path clip-path="url(#clip750)" d="M2329.27 1414.95 L2347.63 1414.95 L2347.63 1418.88 L2333.55 1418.88 L2333.55 1427.36 Q2334.57 1427.01 2335.59 1426.85 Q2336.61 1426.66 2337.63 1426.66 Q2343.41 1426.66 2346.79 1429.83 Q2350.17 1433 2350.17 1438.42 Q2350.17 1444 2346.7 1447.1 Q2343.23 1450.18 2336.91 1450.18 Q2334.73 1450.18 2332.46 1449.81 Q2330.22 1449.44 2327.81 1448.7 L2327.81 1444 Q2329.9 1445.13 2332.12 1445.69 Q2334.34 1446.24 2336.82 1446.24 Q2340.82 1446.24 2343.16 1444.14 Q2345.5 1442.03 2345.5 1438.42 Q2345.5 1434.81 2343.16 1432.7 Q2340.82 1430.6 2336.82 1430.6 Q2334.94 1430.6 2333.07 1431.01 Q2331.21 1431.43 2329.27 1432.31 L2329.27 1414.95 Z" fill="#000000" fill-rule="nonzero" fill-opacity="1" /><path clip-path="url(#clip750)" d="M2990.24 1445.57 L3006.56 1445.57 L3006.56 1449.51 L2984.62 1449.51 L2984.62 1445.57 Q2987.28 1442.82 2991.86 1438.19 Q2996.47 1433.54 2997.65 1432.19 Q2999.9 1429.67 3000.78 1427.93 Q3001.68 1426.17 3001.68 1424.48 Q3001.68 1421.73 2999.73 1419.99 Q2997.81 1418.26 2994.71 1418.26 Q2992.51 1418.26 2990.06 1419.02 Q2987.63 1419.79 2984.85 1421.34 L2984.85 1416.61 Q2987.67 1415.48 2990.13 1414.9 Q2992.58 1414.32 2994.62 1414.32 Q2999.99 1414.32 3003.18 1417.01 Q3006.38 1419.69 3006.38 1424.18 Q3006.38 1426.31 3005.57 1428.23 Q3004.78 1430.13 3002.67 1432.73 Q3002.1 1433.4 2998.99 1436.61 Q2995.89 1439.81 2990.24 1445.57 Z" fill="#000000" fill-rule="nonzero" fill-opacity="1" /><path clip-path="url(#clip750)" d="M3026.38 1418.03 Q3022.77 1418.03 3020.94 1421.59 Q3019.13 1425.13 3019.13 1432.26 Q3019.13 1439.37 3020.94 1442.93 Q3022.77 1446.48 3026.38 1446.48 Q3030.01 1446.48 3031.82 1442.93 Q3033.65 1439.37 3033.65 1432.26 Q3033.65 1425.13 3031.82 1421.59 Q3030.01 1418.03 3026.38 1418.03 M3026.38 1414.32 Q3032.19 1414.32 3035.24 1418.93 Q3038.32 1423.51 3038.32 1432.26 Q3038.32 1440.99 3035.24 1445.6 Q3032.19 1450.18 3026.38 1450.18 Q3020.57 1450.18 3017.49 1445.6 Q3014.43 1440.99 3014.43 1432.26 Q3014.43 1423.51 3017.49 1418.93 Q3020.57 1414.32 3026.38 1414.32 Z" fill="#000000" fill-rule="nonzero" fill-opacity="1" /><path clip-path="url(#clip750)" d="M1637.51 1490.05 L1644.42 1490.05 L1657.6 1509.59 L1670.68 1490.05 L1677.59 1490.05 L1660.78 1514.94 L1660.78 1537.57 L1654.32 1537.57 L1654.32 1514.94 L1637.51 1490.05 Z" fill="#000000" fill-rule="nonzero" fill-opacity="1" /><path clip-path="url(#clip750)" d="M1705.44 1518.28 L1705.44 1521.15 L1678.51 1521.15 Q1678.89 1527.2 1682.14 1530.38 Q1685.42 1533.53 1691.24 1533.53 Q1694.61 1533.53 1697.77 1532.7 Q1700.95 1531.87 1704.07 1530.22 L1704.07 1535.76 Q1700.92 1537.09 1697.61 1537.79 Q1694.3 1538.49 1690.89 1538.49 Q1682.36 1538.49 1677.36 1533.53 Q1672.4 1528.56 1672.4 1520.1 Q1672.4 1511.35 1677.11 1506.22 Q1681.85 1501.06 1689.87 1501.06 Q1697.06 1501.06 1701.23 1505.71 Q1705.44 1510.33 1705.44 1518.28 M1699.58 1516.56 Q1699.52 1511.76 1696.87 1508.89 Q1694.26 1506.03 1689.94 1506.03 Q1685.03 1506.03 1682.07 1508.8 Q1679.15 1511.57 1678.7 1516.6 L1699.58 1516.56 Z" fill="#000000" fill-rule="nonzero" fill-opacity="1" /><path clip-path="url(#clip750)" d="M1731.25 1519.65 Q1724.15 1519.65 1721.41 1521.28 Q1718.68 1522.9 1718.68 1526.81 Q1718.68 1529.93 1720.71 1531.78 Q1722.78 1533.59 1726.32 1533.59 Q1731.19 1533.59 1734.11 1530.16 Q1737.07 1526.69 1737.07 1520.96 L1737.07 1519.65 L1731.25 1519.65 M1742.93 1517.23 L1742.93 1537.57 L1737.07 1537.57 L1737.07 1532.16 Q1735.07 1535.41 1732.08 1536.97 Q1729.08 1538.49 1724.76 1538.49 Q1719.28 1538.49 1716.03 1535.44 Q1712.82 1532.35 1712.82 1527.2 Q1712.82 1521.18 1716.83 1518.12 Q1720.87 1515.07 1728.86 1515.07 L1737.07 1515.07 L1737.07 1514.5 Q1737.07 1510.45 1734.4 1508.26 Q1731.76 1506.03 1726.95 1506.03 Q1723.9 1506.03 1721 1506.76 Q1718.1 1507.49 1715.43 1508.96 L1715.43 1503.55 Q1718.64 1502.31 1721.67 1501.7 Q1724.69 1501.06 1727.56 1501.06 Q1735.29 1501.06 1739.11 1505.07 Q1742.93 1509.09 1742.93 1517.23 Z" fill="#000000" fill-rule="nonzero" fill-opacity="1" /><path clip-path="url(#clip750)" d="M1775.65 1507.4 Q1774.66 1506.83 1773.49 1506.57 Q1772.34 1506.28 1770.94 1506.28 Q1765.97 1506.28 1763.3 1509.53 Q1760.66 1512.75 1760.66 1518.79 L1760.66 1537.57 L1754.77 1537.57 L1754.77 1501.92 L1760.66 1501.92 L1760.66 1507.46 Q1762.5 1504.22 1765.46 1502.66 Q1768.42 1501.06 1772.66 1501.06 Q1773.26 1501.06 1773.99 1501.16 Q1774.73 1501.22 1775.62 1501.38 L1775.65 1507.4 Z" fill="#000000" fill-rule="nonzero" fill-opacity="1" /><polyline clip-path="url(#clip752)" style="stroke:#000000; stroke-linecap:round; stroke-linejoin:round; stroke-width:2; stroke-opacity:0.1; fill:none" points="323.399,1233.89 3089.76,1233.89 "/>
<polyline clip-path="url(#clip752)" style="stroke:#000000; stroke-linecap:round; stroke-linejoin:round; stroke-width:2; stroke-opacity:0.1; fill:none" points="323.399,1008.71 3089.76,1008.71 "/>
<polyline clip-path="url(#clip752)" style="stroke:#000000; stroke-linecap:round; stroke-linejoin:round; stroke-width:2; stroke-opacity:0.1; fill:none" points="323.399,783.532 3089.76,783.532 "/>
<polyline clip-path="url(#clip752)" style="stroke:#000000; stroke-linecap:round; stroke-linejoin:round; stroke-width:2; stroke-opacity:0.1; fill:none" points="323.399,558.353 3089.76,558.353 "/>
<polyline clip-path="url(#clip752)" style="stroke:#000000; stroke-linecap:round; stroke-linejoin:round; stroke-width:2; stroke-opacity:0.1; fill:none" points="323.399,333.173 3089.76,333.173 "/>
<polyline clip-path="url(#clip750)" style="stroke:#000000; stroke-linecap:round; stroke-linejoin:round; stroke-width:4; stroke-opacity:1; fill:none" points="323.399,1380.71 323.399,171.344 "/>
<polyline clip-path="url(#clip750)" style="stroke:#000000; stroke-linecap:round; stroke-linejoin:round; stroke-width:4; stroke-opacity:1; fill:none" points="323.399,1233.89 342.297,1233.89 "/>
<polyline clip-path="url(#clip750)" style="stroke:#000000; stroke-linecap:round; stroke-linejoin:round; stroke-width:4; stroke-opacity:1; fill:none" points="323.399,1008.71 342.297,1008.71 "/>
<polyline clip-path="url(#clip750)" style="stroke:#000000; stroke-linecap:round; stroke-linejoin:round; stroke-width:4; stroke-opacity:1; fill:none" points="323.399,783.532 342.297,783.532 "/>
<polyline clip-path="url(#clip750)" style="stroke:#000000; stroke-linecap:round; stroke-linejoin:round; stroke-width:4; stroke-opacity:1; fill:none" points="323.399,558.353 342.297,558.353 "/>
<polyline clip-path="url(#clip750)" style="stroke:#000000; stroke-linecap:round; stroke-linejoin:round; stroke-width:4; stroke-opacity:1; fill:none" points="323.399,333.173 342.297,333.173 "/>
<path clip-path="url(#clip750)" d="M193.27 1250.45 L193.27 1246.19 Q195.03 1247.03 196.835 1247.47 Q198.641 1247.91 200.377 1247.91 Q205.006 1247.91 207.437 1244.81 Q209.891 1241.68 210.238 1235.34 Q208.895 1237.33 206.835 1238.39 Q204.775 1239.46 202.275 1239.46 Q197.09 1239.46 194.057 1236.33 Q191.048 1233.18 191.048 1227.74 Q191.048 1222.42 194.196 1219.2 Q197.344 1215.99 202.576 1215.99 Q208.571 1215.99 211.719 1220.59 Q214.891 1225.18 214.891 1233.93 Q214.891 1242.1 211.002 1246.98 Q207.136 1251.84 200.585 1251.84 Q198.826 1251.84 197.02 1251.49 Q195.215 1251.15 193.27 1250.45 M202.576 1235.8 Q205.724 1235.8 207.553 1233.65 Q209.404 1231.49 209.404 1227.74 Q209.404 1224.02 207.553 1221.87 Q205.724 1219.69 202.576 1219.69 Q199.428 1219.69 197.576 1221.87 Q195.747 1224.02 195.747 1227.74 Q195.747 1231.49 197.576 1233.65 Q199.428 1235.8 202.576 1235.8 Z" fill="#000000" fill-rule="nonzero" fill-opacity="1" /><path clip-path="url(#clip750)" d="M233.293 1219.69 Q229.682 1219.69 227.853 1223.25 Q226.048 1226.8 226.048 1233.93 Q226.048 1241.03 227.853 1244.6 Q229.682 1248.14 233.293 1248.14 Q236.927 1248.14 238.733 1244.6 Q240.562 1241.03 240.562 1233.93 Q240.562 1226.8 238.733 1223.25 Q236.927 1219.69 233.293 1219.69 M233.293 1215.99 Q239.103 1215.99 242.159 1220.59 Q245.238 1225.18 245.238 1233.93 Q245.238 1242.65 242.159 1247.26 Q239.103 1251.84 233.293 1251.84 Q227.483 1251.84 224.404 1247.26 Q221.349 1242.65 221.349 1233.93 Q221.349 1225.18 224.404 1220.59 Q227.483 1215.99 233.293 1215.99 Z" fill="#000000" fill-rule="nonzero" fill-opacity="1" /><path clip-path="url(#clip750)" d="M263.455 1219.69 Q259.844 1219.69 258.015 1223.25 Q256.21 1226.8 256.21 1233.93 Q256.21 1241.03 258.015 1244.6 Q259.844 1248.14 263.455 1248.14 Q267.089 1248.14 268.895 1244.6 Q270.724 1241.03 270.724 1233.93 Q270.724 1226.8 268.895 1223.25 Q267.089 1219.69 263.455 1219.69 M263.455 1215.99 Q269.265 1215.99 272.321 1220.59 Q275.399 1225.18 275.399 1233.93 Q275.399 1242.65 272.321 1247.26 Q269.265 1251.84 263.455 1251.84 Q257.645 1251.84 254.566 1247.26 Q251.511 1242.65 251.511 1233.93 Q251.511 1225.18 254.566 1220.59 Q257.645 1215.99 263.455 1215.99 Z" fill="#000000" fill-rule="nonzero" fill-opacity="1" /><path clip-path="url(#clip750)" d="M163.78 1022.06 L171.419 1022.06 L171.419 995.691 L163.108 997.357 L163.108 993.098 L171.372 991.431 L176.048 991.431 L176.048 1022.06 L183.687 1022.06 L183.687 1025.99 L163.78 1025.99 L163.78 1022.06 Z" fill="#000000" fill-rule="nonzero" fill-opacity="1" /><path clip-path="url(#clip750)" d="M197.159 1022.06 L213.478 1022.06 L213.478 1025.99 L191.534 1025.99 L191.534 1022.06 Q194.196 1019.3 198.779 1014.67 Q203.386 1010.02 204.566 1008.68 Q206.812 1006.15 207.691 1004.42 Q208.594 1002.66 208.594 1000.97 Q208.594 998.214 206.65 996.478 Q204.729 994.742 201.627 994.742 Q199.428 994.742 196.974 995.505 Q194.543 996.269 191.766 997.82 L191.766 993.098 Q194.59 991.964 197.043 991.385 Q199.497 990.806 201.534 990.806 Q206.904 990.806 210.099 993.492 Q213.293 996.177 213.293 1000.67 Q213.293 1002.8 212.483 1004.72 Q211.696 1006.62 209.59 1009.21 Q209.011 1009.88 205.909 1013.1 Q202.807 1016.29 197.159 1022.06 Z" fill="#000000" fill-rule="nonzero" fill-opacity="1" /><path clip-path="url(#clip750)" d="M233.293 994.51 Q229.682 994.51 227.853 998.075 Q226.048 1001.62 226.048 1008.75 Q226.048 1015.85 227.853 1019.42 Q229.682 1022.96 233.293 1022.96 Q236.927 1022.96 238.733 1019.42 Q240.562 1015.85 240.562 1008.75 Q240.562 1001.62 238.733 998.075 Q236.927 994.51 233.293 994.51 M233.293 990.806 Q239.103 990.806 242.159 995.413 Q245.238 999.996 245.238 1008.75 Q245.238 1017.47 242.159 1022.08 Q239.103 1026.66 233.293 1026.66 Q227.483 1026.66 224.404 1022.08 Q221.349 1017.47 221.349 1008.75 Q221.349 999.996 224.404 995.413 Q227.483 990.806 233.293 990.806 Z" fill="#000000" fill-rule="nonzero" fill-opacity="1" /><path clip-path="url(#clip750)" d="M263.455 994.51 Q259.844 994.51 258.015 998.075 Q256.21 1001.62 256.21 1008.75 Q256.21 1015.85 258.015 1019.42 Q259.844 1022.96 263.455 1022.96 Q267.089 1022.96 268.895 1019.42 Q270.724 1015.85 270.724 1008.75 Q270.724 1001.62 268.895 998.075 Q267.089 994.51 263.455 994.51 M263.455 990.806 Q269.265 990.806 272.321 995.413 Q275.399 999.996 275.399 1008.75 Q275.399 1017.47 272.321 1022.08 Q269.265 1026.66 263.455 1026.66 Q257.645 1026.66 254.566 1022.08 Q251.511 1017.47 251.511 1008.75 Q251.511 999.996 254.566 995.413 Q257.645 990.806 263.455 990.806 Z" fill="#000000" fill-rule="nonzero" fill-opacity="1" /><path clip-path="url(#clip750)" d="M163.78 796.877 L171.419 796.877 L171.419 770.511 L163.108 772.178 L163.108 767.919 L171.372 766.252 L176.048 766.252 L176.048 796.877 L183.687 796.877 L183.687 800.812 L163.78 800.812 L163.78 796.877 Z" fill="#000000" fill-rule="nonzero" fill-opacity="1" /><path clip-path="url(#clip750)" d="M193.178 766.252 L211.534 766.252 L211.534 770.187 L197.46 770.187 L197.46 778.659 Q198.479 778.312 199.497 778.15 Q200.516 777.965 201.534 777.965 Q207.321 777.965 210.701 781.136 Q214.08 784.307 214.08 789.724 Q214.08 795.303 210.608 798.405 Q207.136 801.483 200.817 801.483 Q198.641 801.483 196.372 801.113 Q194.127 800.743 191.719 800.002 L191.719 795.303 Q193.803 796.437 196.025 796.993 Q198.247 797.548 200.724 797.548 Q204.729 797.548 207.066 795.442 Q209.404 793.335 209.404 789.724 Q209.404 786.113 207.066 784.006 Q204.729 781.9 200.724 781.9 Q198.849 781.9 196.974 782.317 Q195.122 782.733 193.178 783.613 L193.178 766.252 Z" fill="#000000" fill-rule="nonzero" fill-opacity="1" /><path clip-path="url(#clip750)" d="M233.293 769.331 Q229.682 769.331 227.853 772.895 Q226.048 776.437 226.048 783.567 Q226.048 790.673 227.853 794.238 Q229.682 797.78 233.293 797.78 Q236.927 797.78 238.733 794.238 Q240.562 790.673 240.562 783.567 Q240.562 776.437 238.733 772.895 Q236.927 769.331 233.293 769.331 M233.293 765.627 Q239.103 765.627 242.159 770.233 Q245.238 774.817 245.238 783.567 Q245.238 792.293 242.159 796.9 Q239.103 801.483 233.293 801.483 Q227.483 801.483 224.404 796.9 Q221.349 792.293 221.349 783.567 Q221.349 774.817 224.404 770.233 Q227.483 765.627 233.293 765.627 Z" fill="#000000" fill-rule="nonzero" fill-opacity="1" /><path clip-path="url(#clip750)" d="M263.455 769.331 Q259.844 769.331 258.015 772.895 Q256.21 776.437 256.21 783.567 Q256.21 790.673 258.015 794.238 Q259.844 797.78 263.455 797.78 Q267.089 797.78 268.895 794.238 Q270.724 790.673 270.724 783.567 Q270.724 776.437 268.895 772.895 Q267.089 769.331 263.455 769.331 M263.455 765.627 Q269.265 765.627 272.321 770.233 Q275.399 774.817 275.399 783.567 Q275.399 792.293 272.321 796.9 Q269.265 801.483 263.455 801.483 Q257.645 801.483 254.566 796.9 Q251.511 792.293 251.511 783.567 Q251.511 774.817 254.566 770.233 Q257.645 765.627 263.455 765.627 Z" fill="#000000" fill-rule="nonzero" fill-opacity="1" /><path clip-path="url(#clip750)" d="M163.78 571.697 L171.419 571.697 L171.419 545.332 L163.108 546.998 L163.108 542.739 L171.372 541.073 L176.048 541.073 L176.048 571.697 L183.687 571.697 L183.687 575.633 L163.78 575.633 L163.78 571.697 Z" fill="#000000" fill-rule="nonzero" fill-opacity="1" /><path clip-path="url(#clip750)" d="M203.131 559.221 Q199.798 559.221 197.877 561.003 Q195.979 562.785 195.979 565.91 Q195.979 569.035 197.877 570.818 Q199.798 572.6 203.131 572.6 Q206.465 572.6 208.386 570.818 Q210.307 569.012 210.307 565.91 Q210.307 562.785 208.386 561.003 Q206.488 559.221 203.131 559.221 M198.455 557.23 Q195.446 556.489 193.756 554.429 Q192.09 552.369 192.09 549.406 Q192.09 545.262 195.03 542.855 Q197.992 540.448 203.131 540.448 Q208.293 540.448 211.233 542.855 Q214.173 545.262 214.173 549.406 Q214.173 552.369 212.483 554.429 Q210.816 556.489 207.83 557.23 Q211.21 558.017 213.085 560.309 Q214.983 562.6 214.983 565.91 Q214.983 570.934 211.904 573.619 Q208.849 576.304 203.131 576.304 Q197.414 576.304 194.335 573.619 Q191.28 570.934 191.28 565.91 Q191.28 562.6 193.178 560.309 Q195.076 558.017 198.455 557.23 M196.742 549.846 Q196.742 552.531 198.409 554.035 Q200.099 555.54 203.131 555.54 Q206.141 555.54 207.83 554.035 Q209.543 552.531 209.543 549.846 Q209.543 547.161 207.83 545.656 Q206.141 544.151 203.131 544.151 Q200.099 544.151 198.409 545.656 Q196.742 547.161 196.742 549.846 Z" fill="#000000" fill-rule="nonzero" fill-opacity="1" /><path clip-path="url(#clip750)" d="M233.293 544.151 Q229.682 544.151 227.853 547.716 Q226.048 551.258 226.048 558.387 Q226.048 565.494 227.853 569.059 Q229.682 572.6 233.293 572.6 Q236.927 572.6 238.733 569.059 Q240.562 565.494 240.562 558.387 Q240.562 551.258 238.733 547.716 Q236.927 544.151 233.293 544.151 M233.293 540.448 Q239.103 540.448 242.159 545.054 Q245.238 549.637 245.238 558.387 Q245.238 567.114 242.159 571.721 Q239.103 576.304 233.293 576.304 Q227.483 576.304 224.404 571.721 Q221.349 567.114 221.349 558.387 Q221.349 549.637 224.404 545.054 Q227.483 540.448 233.293 540.448 Z" fill="#000000" fill-rule="nonzero" fill-opacity="1" /><path clip-path="url(#clip750)" d="M263.455 544.151 Q259.844 544.151 258.015 547.716 Q256.21 551.258 256.21 558.387 Q256.21 565.494 258.015 569.059 Q259.844 572.6 263.455 572.6 Q267.089 572.6 268.895 569.059 Q270.724 565.494 270.724 558.387 Q270.724 551.258 268.895 547.716 Q267.089 544.151 263.455 544.151 M263.455 540.448 Q269.265 540.448 272.321 545.054 Q275.399 549.637 275.399 558.387 Q275.399 567.114 272.321 571.721 Q269.265 576.304 263.455 576.304 Q257.645 576.304 254.566 571.721 Q251.511 567.114 251.511 558.387 Q251.511 549.637 254.566 545.054 Q257.645 540.448 263.455 540.448 Z" fill="#000000" fill-rule="nonzero" fill-opacity="1" /><path clip-path="url(#clip750)" d="M166.997 346.518 L183.317 346.518 L183.317 350.453 L161.372 350.453 L161.372 346.518 Q164.034 343.763 168.618 339.134 Q173.224 334.481 174.405 333.138 Q176.65 330.615 177.53 328.879 Q178.432 327.12 178.432 325.43 Q178.432 322.676 176.488 320.939 Q174.567 319.203 171.465 319.203 Q169.266 319.203 166.812 319.967 Q164.382 320.731 161.604 322.282 L161.604 317.56 Q164.428 316.426 166.882 315.847 Q169.335 315.268 171.372 315.268 Q176.743 315.268 179.937 317.953 Q183.131 320.639 183.131 325.129 Q183.131 327.259 182.321 329.18 Q181.534 331.078 179.428 333.671 Q178.849 334.342 175.747 337.56 Q172.645 340.754 166.997 346.518 Z" fill="#000000" fill-rule="nonzero" fill-opacity="1" /><path clip-path="url(#clip750)" d="M193.942 346.518 L201.58 346.518 L201.58 320.152 L193.27 321.819 L193.27 317.56 L201.534 315.893 L206.21 315.893 L206.21 346.518 L213.849 346.518 L213.849 350.453 L193.942 350.453 L193.942 346.518 Z" fill="#000000" fill-rule="nonzero" fill-opacity="1" /><path clip-path="url(#clip750)" d="M233.293 318.972 Q229.682 318.972 227.853 322.537 Q226.048 326.078 226.048 333.208 Q226.048 340.314 227.853 343.879 Q229.682 347.421 233.293 347.421 Q236.927 347.421 238.733 343.879 Q240.562 340.314 240.562 333.208 Q240.562 326.078 238.733 322.537 Q236.927 318.972 233.293 318.972 M233.293 315.268 Q239.103 315.268 242.159 319.875 Q245.238 324.458 245.238 333.208 Q245.238 341.935 242.159 346.541 Q239.103 351.124 233.293 351.124 Q227.483 351.124 224.404 346.541 Q221.349 341.935 221.349 333.208 Q221.349 324.458 224.404 319.875 Q227.483 315.268 233.293 315.268 Z" fill="#000000" fill-rule="nonzero" fill-opacity="1" /><path clip-path="url(#clip750)" d="M263.455 318.972 Q259.844 318.972 258.015 322.537 Q256.21 326.078 256.21 333.208 Q256.21 340.314 258.015 343.879 Q259.844 347.421 263.455 347.421 Q267.089 347.421 268.895 343.879 Q270.724 340.314 270.724 333.208 Q270.724 326.078 268.895 322.537 Q267.089 318.972 263.455 318.972 M263.455 315.268 Q269.265 315.268 272.321 319.875 Q275.399 324.458 275.399 333.208 Q275.399 341.935 272.321 346.541 Q269.265 351.124 263.455 351.124 Q257.645 351.124 254.566 346.541 Q251.511 341.935 251.511 333.208 Q251.511 324.458 254.566 319.875 Q257.645 315.268 263.455 315.268 Z" fill="#000000" fill-rule="nonzero" fill-opacity="1" /><path clip-path="url(#clip750)" d="M56.8798 1076.81 L93.8327 1076.81 L93.8327 1069.04 Q93.8327 1059.2 89.3768 1054.65 Q84.9208 1050.07 75.3085 1050.07 Q65.76 1050.07 61.3358 1054.65 Q56.8798 1059.2 56.8798 1069.04 L56.8798 1076.81 M51.5963 1083.23 L51.5963 1070.03 Q51.5963 1056.21 57.3572 1049.75 Q63.0864 1043.29 75.3085 1043.29 Q87.5944 1043.29 93.3553 1049.78 Q99.1163 1056.28 99.1163 1070.03 L99.1163 1083.23 L51.5963 1083.23 Z" fill="#000000" fill-rule="nonzero" fill-opacity="1" /><path clip-path="url(#clip750)" d="M79.8282 1002.8 L82.6928 1002.8 L82.6928 1029.73 Q88.7402 1029.35 91.923 1026.1 Q95.0741 1022.82 95.0741 1017 Q95.0741 1013.63 94.2465 1010.47 Q93.419 1007.29 91.7639 1004.17 L97.3021 1004.17 Q98.6389 1007.32 99.3391 1010.63 Q100.039 1013.94 100.039 1017.35 Q100.039 1025.88 95.0741 1030.88 Q90.1088 1035.84 81.6424 1035.84 Q72.8896 1035.84 67.7652 1031.13 Q62.609 1026.39 62.609 1018.37 Q62.609 1011.18 67.2559 1007.01 Q71.8711 1002.8 79.8282 1002.8 M78.1095 1008.66 Q73.3033 1008.72 70.4388 1011.37 Q67.5742 1013.98 67.5742 1018.3 Q67.5742 1023.21 70.3433 1026.17 Q73.1124 1029.09 78.1413 1029.54 L78.1095 1008.66 Z" fill="#000000" fill-rule="nonzero" fill-opacity="1" /><path clip-path="url(#clip750)" d="M70.3115 965.438 Q66.3647 963.241 64.4868 960.186 Q62.609 957.13 62.609 952.993 Q62.609 947.423 66.5239 944.399 Q70.4069 941.375 77.6002 941.375 L99.1163 941.375 L99.1163 947.263 L77.7912 947.263 Q72.6668 947.263 70.1841 949.078 Q67.7015 950.892 67.7015 954.616 Q67.7015 959.167 70.7252 961.809 Q73.7489 964.451 78.9688 964.451 L99.1163 964.451 L99.1163 970.339 L77.7912 970.339 Q72.6349 970.339 70.1841 972.153 Q67.7015 973.968 67.7015 977.755 Q67.7015 982.243 70.7571 984.885 Q73.7808 987.527 78.9688 987.527 L99.1163 987.527 L99.1163 993.415 L63.4683 993.415 L63.4683 987.527 L69.0065 987.527 Q65.7282 985.521 64.1686 982.72 Q62.609 979.92 62.609 976.068 Q62.609 972.185 64.5823 969.48 Q66.5557 966.743 70.3115 965.438 Z" fill="#000000" fill-rule="nonzero" fill-opacity="1" /><path clip-path="url(#clip750)" d="M81.1968 913.493 Q81.1968 920.591 82.8201 923.328 Q84.4433 926.066 88.3582 926.066 Q91.4774 926.066 93.3235 924.029 Q95.1377 921.96 95.1377 918.427 Q95.1377 913.557 91.7002 910.629 Q88.2309 907.669 82.5018 907.669 L81.1968 907.669 L81.1968 913.493 M78.7779 901.812 L99.1163 901.812 L99.1163 907.669 L93.7054 907.669 Q96.9519 909.674 98.5115 912.666 Q100.039 915.658 100.039 919.986 Q100.039 925.461 96.9838 928.707 Q93.8964 931.922 88.7402 931.922 Q82.7246 931.922 79.669 927.912 Q76.6135 923.87 76.6135 915.881 L76.6135 907.669 L76.0406 907.669 Q71.9984 907.669 69.8022 910.342 Q67.5742 912.984 67.5742 917.79 Q67.5742 920.846 68.3063 923.742 Q69.0383 926.639 70.5024 929.312 L65.0916 929.312 Q63.8503 926.098 63.2455 923.074 Q62.609 920.05 62.609 917.186 Q62.609 909.451 66.6194 905.632 Q70.6297 901.812 78.7779 901.812 Z" fill="#000000" fill-rule="nonzero" fill-opacity="1" /><path clip-path="url(#clip750)" d="M77.6002 860.117 L99.1163 860.117 L99.1163 865.973 L77.7912 865.973 Q72.7304 865.973 70.216 867.947 Q67.7015 869.92 67.7015 873.867 Q67.7015 878.609 70.7252 881.347 Q73.7489 884.084 78.9688 884.084 L99.1163 884.084 L99.1163 889.972 L63.4683 889.972 L63.4683 884.084 L69.0065 884.084 Q65.7918 881.983 64.2004 879.15 Q62.609 876.286 62.609 872.562 Q62.609 866.419 66.4284 863.268 Q70.216 860.117 77.6002 860.117 Z" fill="#000000" fill-rule="nonzero" fill-opacity="1" /><path clip-path="url(#clip750)" d="M68.8792 824.978 L49.5911 824.978 L49.5911 819.122 L99.1163 819.122 L99.1163 824.978 L93.7691 824.978 Q96.9519 826.824 98.5115 829.657 Q100.039 832.458 100.039 836.405 Q100.039 842.866 94.8831 846.94 Q89.7269 850.982 81.3241 850.982 Q72.9214 850.982 67.7652 846.94 Q62.609 842.866 62.609 836.405 Q62.609 832.458 64.1686 829.657 Q65.6963 826.824 68.8792 824.978 M81.3241 844.935 Q87.7853 844.935 91.4774 842.293 Q95.1377 839.619 95.1377 834.972 Q95.1377 830.325 91.4774 827.652 Q87.7853 824.978 81.3241 824.978 Q74.8629 824.978 71.2027 827.652 Q67.5106 830.325 67.5106 834.972 Q67.5106 839.619 71.2027 842.293 Q74.8629 844.935 81.3241 844.935 Z" fill="#000000" fill-rule="nonzero" fill-opacity="1" /><path clip-path="url(#clip750)" d="M49.5911 786.88 L49.5911 773.384 L54.1426 773.384 L54.1426 781.023 L103.159 781.023 L103.159 773.384 L107.71 773.384 L107.71 786.88 L49.5911 786.88 Z" fill="#000000" fill-rule="nonzero" fill-opacity="1" /><path clip-path="url(#clip750)" d="M64.837 735.254 L70.3115 735.254 Q68.9428 737.736 68.2744 740.251 Q67.5742 742.733 67.5742 745.28 Q67.5742 750.977 71.2027 754.128 Q74.7993 757.279 81.3241 757.279 Q87.849 757.279 91.4774 754.128 Q95.0741 750.977 95.0741 745.28 Q95.0741 742.733 94.4057 740.251 Q93.7054 737.736 92.3368 735.254 L97.7477 735.254 Q98.8935 737.704 99.4664 740.346 Q100.039 742.956 100.039 745.916 Q100.039 753.969 94.9786 758.711 Q89.9178 763.454 81.3241 763.454 Q72.6031 763.454 67.606 758.679 Q62.609 753.873 62.609 745.534 Q62.609 742.829 63.1819 740.251 Q63.723 737.673 64.837 735.254 Z" fill="#000000" fill-rule="nonzero" fill-opacity="1" /><path clip-path="url(#clip750)" d="M81.1968 708.868 Q81.1968 715.966 82.8201 718.703 Q84.4433 721.44 88.3582 721.44 Q91.4774 721.44 93.3235 719.403 Q95.1377 717.334 95.1377 713.801 Q95.1377 708.931 91.7002 706.003 Q88.2309 703.043 82.5018 703.043 L81.1968 703.043 L81.1968 708.868 M78.7779 697.187 L99.1163 697.187 L99.1163 703.043 L93.7054 703.043 Q96.9519 705.048 98.5115 708.04 Q100.039 711.032 100.039 715.361 Q100.039 720.835 96.9838 724.082 Q93.8964 727.296 88.7402 727.296 Q82.7246 727.296 79.669 723.286 Q76.6135 719.244 76.6135 711.255 L76.6135 703.043 L76.0406 703.043 Q71.9984 703.043 69.8022 705.717 Q67.5742 708.359 67.5742 713.165 Q67.5742 716.22 68.3063 719.117 Q69.0383 722.013 70.5024 724.687 L65.0916 724.687 Q63.8503 721.472 63.2455 718.448 Q62.609 715.424 62.609 712.56 Q62.609 704.826 66.6194 701.006 Q70.6297 697.187 78.7779 697.187 Z" fill="#000000" fill-rule="nonzero" fill-opacity="1" /><path clip-path="url(#clip750)" d="M68.9428 664.467 Q68.3699 665.454 68.1153 666.631 Q67.8288 667.777 67.8288 669.178 Q67.8288 674.143 71.0753 676.816 Q74.29 679.458 80.3374 679.458 L99.1163 679.458 L99.1163 685.346 L63.4683 685.346 L63.4683 679.458 L69.0065 679.458 Q65.76 677.612 64.2004 674.652 Q62.609 671.692 62.609 667.459 Q62.609 666.854 62.7044 666.122 Q62.7681 665.39 62.9272 664.499 L68.9428 664.467 Z" fill="#000000" fill-rule="nonzero" fill-opacity="1" /><path clip-path="url(#clip750)" d="M64.5187 635.598 L70.0568 635.598 Q68.7837 638.081 68.1471 640.755 Q67.5106 643.428 67.5106 646.293 Q67.5106 650.653 68.8473 652.85 Q70.1841 655.014 72.8577 655.014 Q74.8948 655.014 76.0724 653.454 Q77.2183 651.895 78.2686 647.184 L78.7142 645.179 Q80.051 638.94 82.5018 636.331 Q84.9208 633.689 89.2813 633.689 Q94.2465 633.689 97.1429 637.636 Q100.039 641.55 100.039 648.425 Q100.039 651.29 99.4664 654.409 Q98.9253 657.497 97.8113 660.934 L91.7639 660.934 Q93.4508 657.687 94.3102 654.536 Q95.1377 651.385 95.1377 648.298 Q95.1377 644.16 93.7373 641.932 Q92.305 639.704 89.7269 639.704 Q87.3397 639.704 86.0666 641.328 Q84.7934 642.919 83.6158 648.362 L83.1384 650.399 Q81.9925 655.841 79.6372 658.26 Q77.2501 660.679 73.1124 660.679 Q68.0835 660.679 65.3462 657.115 Q62.609 653.55 62.609 646.993 Q62.609 643.747 63.0864 640.882 Q63.5638 638.017 64.5187 635.598 Z" fill="#000000" fill-rule="nonzero" fill-opacity="1" /><path clip-path="url(#clip750)" d="M51.5963 613.955 L51.5963 608.544 L105.164 625.095 L105.164 630.506 L51.5963 613.955 Z" fill="#000000" fill-rule="nonzero" fill-opacity="1" /><path clip-path="url(#clip750)" d="M68.8792 578.944 L49.5911 578.944 L49.5911 573.087 L99.1163 573.087 L99.1163 578.944 L93.7691 578.944 Q96.9519 580.79 98.5115 583.623 Q100.039 586.423 100.039 590.37 Q100.039 596.831 94.8831 600.905 Q89.7269 604.948 81.3241 604.948 Q72.9214 604.948 67.7652 600.905 Q62.609 596.831 62.609 590.37 Q62.609 586.423 64.1686 583.623 Q65.6963 580.79 68.8792 578.944 M81.3241 598.9 Q87.7853 598.9 91.4774 596.258 Q95.1377 593.585 95.1377 588.938 Q95.1377 584.291 91.4774 581.617 Q87.7853 578.944 81.3241 578.944 Q74.8629 578.944 71.2027 581.617 Q67.5106 584.291 67.5106 588.938 Q67.5106 593.585 71.2027 596.258 Q74.8629 598.9 81.3241 598.9 Z" fill="#000000" fill-rule="nonzero" fill-opacity="1" /><path clip-path="url(#clip750)" d="M81.1968 544.824 Q81.1968 551.921 82.8201 554.659 Q84.4433 557.396 88.3582 557.396 Q91.4774 557.396 93.3235 555.359 Q95.1377 553.29 95.1377 549.757 Q95.1377 544.887 91.7002 541.959 Q88.2309 538.999 82.5018 538.999 L81.1968 538.999 L81.1968 544.824 M78.7779 533.142 L99.1163 533.142 L99.1163 538.999 L93.7054 538.999 Q96.9519 541.004 98.5115 543.996 Q100.039 546.988 100.039 551.317 Q100.039 556.791 96.9838 560.038 Q93.8964 563.252 88.7402 563.252 Q82.7246 563.252 79.669 559.242 Q76.6135 555.2 76.6135 547.211 L76.6135 538.999 L76.0406 538.999 Q71.9984 538.999 69.8022 541.672 Q67.5742 544.314 67.5742 549.12 Q67.5742 552.176 68.3063 555.072 Q69.0383 557.969 70.5024 560.642 L65.0916 560.642 Q63.8503 557.428 63.2455 554.404 Q62.609 551.38 62.609 548.516 Q62.609 540.781 66.6194 536.962 Q70.6297 533.142 78.7779 533.142 Z" fill="#000000" fill-rule="nonzero" fill-opacity="1" /><path clip-path="url(#clip750)" d="M102.426 506.247 Q108.792 508.73 110.734 511.085 Q112.675 513.441 112.675 517.387 L112.675 522.066 L107.774 522.066 L107.774 518.629 Q107.774 516.21 106.628 514.873 Q105.482 513.536 101.217 511.913 L98.5434 510.862 L63.4683 525.281 L63.4683 519.074 L91.3501 507.934 L63.4683 496.794 L63.4683 490.588 L102.426 506.247 Z" fill="#000000" fill-rule="nonzero" fill-opacity="1" /><path clip-path="url(#clip750)" d="M49.5911 468.817 L107.71 468.817 L107.71 482.312 L103.159 482.312 L103.159 474.705 L54.1426 474.705 L54.1426 482.312 L49.5911 482.312 L49.5911 468.817 Z" fill="#000000" fill-rule="nonzero" fill-opacity="1" /><path clip-path="url(#clip750)" d="M943.736 18.8205 L943.736 65.8515 L953.62 65.8515 Q966.137 65.8515 971.93 60.1802 Q977.763 54.509 977.763 42.2752 Q977.763 30.1225 971.93 24.4918 Q966.137 18.8205 953.62 18.8205 L943.736 18.8205 M935.553 12.096 L952.364 12.096 Q969.945 12.096 978.168 19.4281 Q986.392 26.7198 986.392 42.2752 Q986.392 57.9117 978.128 65.2439 Q969.864 72.576 952.364 72.576 L935.553 72.576 L935.553 12.096 Z" fill="#000000" fill-rule="nonzero" fill-opacity="1" /><path clip-path="url(#clip750)" d="M1037.92 48.0275 L1037.92 51.6733 L1003.65 51.6733 Q1004.13 59.3701 1008.27 63.421 Q1012.44 67.4314 1019.85 67.4314 Q1024.15 67.4314 1028.16 66.3781 Q1032.21 65.3249 1036.18 63.2184 L1036.18 70.267 Q1032.17 71.9684 1027.95 72.8596 Q1023.74 73.7508 1019.41 73.7508 Q1008.55 73.7508 1002.19 67.4314 Q995.871 61.1119 995.871 50.3365 Q995.871 39.1965 1001.87 32.6746 Q1007.9 26.1121 1018.11 26.1121 Q1027.27 26.1121 1032.57 32.0264 Q1037.92 37.9003 1037.92 48.0275 M1030.47 45.84 Q1030.38 39.7232 1027.02 36.0774 Q1023.7 32.4315 1018.19 32.4315 Q1011.95 32.4315 1008.19 35.9558 Q1004.46 39.4801 1003.89 45.8805 L1030.47 45.84 Z" fill="#000000" fill-rule="nonzero" fill-opacity="1" /><path clip-path="url(#clip750)" d="M1085.48 35.9153 Q1088.27 30.8922 1092.16 28.5022 Q1096.05 26.1121 1101.32 26.1121 Q1108.4 26.1121 1112.25 31.0947 Q1116.1 36.0368 1116.1 45.1919 L1116.1 72.576 L1108.61 72.576 L1108.61 45.4349 Q1108.61 38.913 1106.3 35.7533 Q1103.99 32.5936 1099.25 32.5936 Q1093.46 32.5936 1090.09 36.4419 Q1086.73 40.2903 1086.73 46.9338 L1086.73 72.576 L1079.24 72.576 L1079.24 45.4349 Q1079.24 38.8725 1076.93 35.7533 Q1074.62 32.5936 1069.8 32.5936 Q1064.09 32.5936 1060.73 36.4824 Q1057.36 40.3308 1057.36 46.9338 L1057.36 72.576 L1049.87 72.576 L1049.87 27.2059 L1057.36 27.2059 L1057.36 34.2544 Q1059.92 30.082 1063.48 28.0971 Q1067.05 26.1121 1071.95 26.1121 Q1076.89 26.1121 1080.33 28.6237 Q1083.82 31.1352 1085.48 35.9153 Z" fill="#000000" fill-rule="nonzero" fill-opacity="1" /><path clip-path="url(#clip750)" d="M1151.59 49.7694 Q1142.55 49.7694 1139.07 51.8354 Q1135.59 53.9013 1135.59 58.8839 Q1135.59 62.8538 1138.18 65.2034 Q1140.81 67.5124 1145.31 67.5124 Q1151.51 67.5124 1155.23 63.1374 Q1159 58.7219 1159 51.4303 L1159 49.7694 L1151.59 49.7694 M1166.45 46.6907 L1166.45 72.576 L1159 72.576 L1159 65.6895 Q1156.45 69.8214 1152.64 71.8063 Q1148.83 73.7508 1143.32 73.7508 Q1136.36 73.7508 1132.22 69.8619 Q1128.13 65.9325 1128.13 59.3701 Q1128.13 51.7138 1133.24 47.825 Q1138.38 43.9361 1148.55 43.9361 L1159 43.9361 L1159 43.2069 Q1159 38.0623 1155.6 35.2672 Q1152.24 32.4315 1146.12 32.4315 Q1142.23 32.4315 1138.54 33.3632 Q1134.86 34.295 1131.45 36.1584 L1131.45 29.2718 Q1135.55 27.692 1139.39 26.9223 Q1143.24 26.1121 1146.89 26.1121 Q1156.73 26.1121 1161.59 31.2163 Q1166.45 36.3204 1166.45 46.6907 Z" fill="#000000" fill-rule="nonzero" fill-opacity="1" /><path clip-path="url(#clip750)" d="M1219.52 45.1919 L1219.52 72.576 L1212.07 72.576 L1212.07 45.4349 Q1212.07 38.994 1209.56 35.7938 Q1207.04 32.5936 1202.02 32.5936 Q1195.99 32.5936 1192.5 36.4419 Q1189.02 40.2903 1189.02 46.9338 L1189.02 72.576 L1181.52 72.576 L1181.52 27.2059 L1189.02 27.2059 L1189.02 34.2544 Q1191.69 30.163 1195.3 28.1376 Q1198.94 26.1121 1203.68 26.1121 Q1211.5 26.1121 1215.51 30.9732 Q1219.52 35.7938 1219.52 45.1919 Z" fill="#000000" fill-rule="nonzero" fill-opacity="1" /><path clip-path="url(#clip750)" d="M1264.24 34.0924 L1264.24 9.54393 L1271.7 9.54393 L1271.7 72.576 L1264.24 72.576 L1264.24 65.7705 Q1261.89 69.8214 1258.29 71.8063 Q1254.72 73.7508 1249.7 73.7508 Q1241.48 73.7508 1236.29 67.1883 Q1231.15 60.6258 1231.15 49.9314 Q1231.15 39.2371 1236.29 32.6746 Q1241.48 26.1121 1249.7 26.1121 Q1254.72 26.1121 1258.29 28.0971 Q1261.89 30.0415 1264.24 34.0924 M1238.84 49.9314 Q1238.84 58.1548 1242.21 62.8538 Q1245.61 67.5124 1251.52 67.5124 Q1257.44 67.5124 1260.84 62.8538 Q1264.24 58.1548 1264.24 49.9314 Q1264.24 41.7081 1260.84 37.0496 Q1257.44 32.3505 1251.52 32.3505 Q1245.61 32.3505 1242.21 37.0496 Q1238.84 41.7081 1238.84 49.9314 Z" fill="#000000" fill-rule="nonzero" fill-opacity="1" /><path clip-path="url(#clip750)" d="M1354.98 63.9476 L1354.98 47.7034 L1341.62 47.7034 L1341.62 40.9789 L1363.09 40.9789 L1363.09 66.9452 Q1358.35 70.3075 1352.63 72.0494 Q1346.92 73.7508 1340.44 73.7508 Q1326.26 73.7508 1318.24 65.4869 Q1310.26 57.1826 1310.26 42.3968 Q1310.26 27.5705 1318.24 19.3066 Q1326.26 11.0023 1340.44 11.0023 Q1346.35 11.0023 1351.66 12.4606 Q1357.01 13.9189 1361.51 16.7545 L1361.51 25.464 Q1356.97 21.6156 1351.86 19.6712 Q1346.76 17.7268 1341.13 17.7268 Q1330.03 17.7268 1324.44 23.9246 Q1318.89 30.1225 1318.89 42.3968 Q1318.89 54.6305 1324.44 60.8284 Q1330.03 67.0263 1341.13 67.0263 Q1345.46 67.0263 1348.87 66.2971 Q1352.27 65.5274 1354.98 63.9476 Z" fill="#000000" fill-rule="nonzero" fill-opacity="1" /><path clip-path="url(#clip750)" d="M1404 34.1734 Q1402.74 33.4443 1401.24 33.1202 Q1399.79 32.7556 1398 32.7556 Q1391.68 32.7556 1388.28 36.8875 Q1384.92 40.9789 1384.92 48.6757 L1384.92 72.576 L1377.43 72.576 L1377.43 27.2059 L1384.92 27.2059 L1384.92 34.2544 Q1387.27 30.1225 1391.04 28.1376 Q1394.8 26.1121 1400.19 26.1121 Q1400.96 26.1121 1401.89 26.2337 Q1402.82 26.3147 1403.96 26.5172 L1404 34.1734 Z" fill="#000000" fill-rule="nonzero" fill-opacity="1" /><path clip-path="url(#clip750)" d="M1427.58 32.4315 Q1421.58 32.4315 1418.1 37.1306 Q1414.61 41.7891 1414.61 49.9314 Q1414.61 58.0738 1418.06 62.7728 Q1421.54 67.4314 1427.58 67.4314 Q1433.53 67.4314 1437.01 62.7323 Q1440.5 58.0333 1440.5 49.9314 Q1440.5 41.8701 1437.01 37.1711 Q1433.53 32.4315 1427.58 32.4315 M1427.58 26.1121 Q1437.3 26.1121 1442.85 32.4315 Q1448.4 38.7509 1448.4 49.9314 Q1448.4 61.0714 1442.85 67.4314 Q1437.3 73.7508 1427.58 73.7508 Q1417.81 73.7508 1412.26 67.4314 Q1406.75 61.0714 1406.75 49.9314 Q1406.75 38.7509 1412.26 32.4315 Q1417.81 26.1121 1427.58 26.1121 Z" fill="#000000" fill-rule="nonzero" fill-opacity="1" /><path clip-path="url(#clip750)" d="M1456.42 27.2059 L1463.87 27.2059 L1473.19 62.6108 L1482.47 27.2059 L1491.26 27.2059 L1500.57 62.6108 L1509.85 27.2059 L1517.3 27.2059 L1505.43 72.576 L1496.64 72.576 L1486.88 35.3887 L1477.08 72.576 L1468.29 72.576 L1456.42 27.2059 Z" fill="#000000" fill-rule="nonzero" fill-opacity="1" /><path clip-path="url(#clip750)" d="M1535.98 14.324 L1535.98 27.2059 L1551.33 27.2059 L1551.33 32.9987 L1535.98 32.9987 L1535.98 57.6282 Q1535.98 63.1779 1537.48 64.7578 Q1539.02 66.3376 1543.67 66.3376 L1551.33 66.3376 L1551.33 72.576 L1543.67 72.576 Q1535.05 72.576 1531.76 69.3758 Q1528.48 66.1351 1528.48 57.6282 L1528.48 32.9987 L1523.01 32.9987 L1523.01 27.2059 L1528.48 27.2059 L1528.48 14.324 L1535.98 14.324 Z" fill="#000000" fill-rule="nonzero" fill-opacity="1" /><path clip-path="url(#clip750)" d="M1598.85 45.1919 L1598.85 72.576 L1591.39 72.576 L1591.39 45.4349 Q1591.39 38.994 1588.88 35.7938 Q1586.37 32.5936 1581.35 32.5936 Q1575.31 32.5936 1571.83 36.4419 Q1568.34 40.2903 1568.34 46.9338 L1568.34 72.576 L1560.85 72.576 L1560.85 9.54393 L1568.34 9.54393 L1568.34 34.2544 Q1571.02 30.163 1574.62 28.1376 Q1578.27 26.1121 1583.01 26.1121 Q1590.83 26.1121 1594.84 30.9732 Q1598.85 35.7938 1598.85 45.1919 Z" fill="#000000" fill-rule="nonzero" fill-opacity="1" /><path clip-path="url(#clip750)" d="M1669.09 44.2197 Q1671.72 45.1109 1674.19 48.0275 Q1676.71 50.9442 1679.22 56.0483 L1687.52 72.576 L1678.73 72.576 L1670.99 57.061 Q1668 50.9847 1665.16 48.9997 Q1662.37 47.0148 1657.5 47.0148 L1648.59 47.0148 L1648.59 72.576 L1640.41 72.576 L1640.41 12.096 L1658.88 12.096 Q1669.25 12.096 1674.36 16.4305 Q1679.46 20.7649 1679.46 29.5149 Q1679.46 35.2267 1676.79 38.994 Q1674.15 42.7613 1669.09 44.2197 M1648.59 18.8205 L1648.59 40.2903 L1658.88 40.2903 Q1664.8 40.2903 1667.79 37.5762 Q1670.83 34.8216 1670.83 29.5149 Q1670.83 24.2082 1667.79 21.5346 Q1664.8 18.8205 1658.88 18.8205 L1648.59 18.8205 Z" fill="#000000" fill-rule="nonzero" fill-opacity="1" /><path clip-path="url(#clip750)" d="M1716.53 49.7694 Q1707.49 49.7694 1704.01 51.8354 Q1700.53 53.9013 1700.53 58.8839 Q1700.53 62.8538 1703.12 65.2034 Q1705.75 67.5124 1710.25 67.5124 Q1716.45 67.5124 1720.17 63.1374 Q1723.94 58.7219 1723.94 51.4303 L1723.94 49.7694 L1716.53 49.7694 M1731.39 46.6907 L1731.39 72.576 L1723.94 72.576 L1723.94 65.6895 Q1721.39 69.8214 1717.58 71.8063 Q1713.77 73.7508 1708.26 73.7508 Q1701.3 73.7508 1697.16 69.8619 Q1693.07 65.9325 1693.07 59.3701 Q1693.07 51.7138 1698.18 47.825 Q1703.32 43.9361 1713.49 43.9361 L1723.94 43.9361 L1723.94 43.2069 Q1723.94 38.0623 1720.54 35.2672 Q1717.17 32.4315 1711.06 32.4315 Q1707.17 32.4315 1703.48 33.3632 Q1699.8 34.295 1696.39 36.1584 L1696.39 29.2718 Q1700.49 27.692 1704.33 26.9223 Q1708.18 26.1121 1711.83 26.1121 Q1721.67 26.1121 1726.53 31.2163 Q1731.39 36.3204 1731.39 46.6907 Z" fill="#000000" fill-rule="nonzero" fill-opacity="1" /><path clip-path="url(#clip750)" d="M1754.12 14.324 L1754.12 27.2059 L1769.47 27.2059 L1769.47 32.9987 L1754.12 32.9987 L1754.12 57.6282 Q1754.12 63.1779 1755.62 64.7578 Q1757.16 66.3376 1761.82 66.3376 L1769.47 66.3376 L1769.47 72.576 L1761.82 72.576 Q1753.19 72.576 1749.91 69.3758 Q1746.62 66.1351 1746.62 57.6282 L1746.62 32.9987 L1741.16 32.9987 L1741.16 27.2059 L1746.62 27.2059 L1746.62 14.324 L1754.12 14.324 Z" fill="#000000" fill-rule="nonzero" fill-opacity="1" /><path clip-path="url(#clip750)" d="M1818.08 48.0275 L1818.08 51.6733 L1783.81 51.6733 Q1784.3 59.3701 1788.43 63.421 Q1792.6 67.4314 1800.02 67.4314 Q1804.31 67.4314 1808.32 66.3781 Q1812.37 65.3249 1816.34 63.2184 L1816.34 70.267 Q1812.33 71.9684 1808.12 72.8596 Q1803.9 73.7508 1799.57 73.7508 Q1788.71 73.7508 1782.35 67.4314 Q1776.03 61.1119 1776.03 50.3365 Q1776.03 39.1965 1782.03 32.6746 Q1788.07 26.1121 1798.27 26.1121 Q1807.43 26.1121 1812.74 32.0264 Q1818.08 37.9003 1818.08 48.0275 M1810.63 45.84 Q1810.55 39.7232 1807.19 36.0774 Q1803.86 32.4315 1798.35 32.4315 Q1792.12 32.4315 1788.35 35.9558 Q1784.62 39.4801 1784.06 45.8805 L1810.63 45.84 Z" fill="#000000" fill-rule="nonzero" fill-opacity="1" /><path clip-path="url(#clip750)" d="M1832.22 62.2867 L1840.77 62.2867 L1840.77 72.576 L1832.22 72.576 L1832.22 62.2867 M1832.22 29.6769 L1840.77 29.6769 L1840.77 39.9662 L1832.22 39.9662 L1832.22 29.6769 Z" fill="#000000" fill-rule="nonzero" fill-opacity="1" /><path clip-path="url(#clip750)" d="M1903.19 43.8551 Q1897.36 43.8551 1894 46.9743 Q1890.67 50.0935 1890.67 55.5622 Q1890.67 61.0309 1894 64.1501 Q1897.36 67.2693 1903.19 67.2693 Q1909.03 67.2693 1912.39 64.1501 Q1915.75 60.9904 1915.75 55.5622 Q1915.75 50.0935 1912.39 46.9743 Q1909.07 43.8551 1903.19 43.8551 M1895.01 40.3713 Q1889.74 39.075 1886.79 35.4697 Q1883.87 31.8644 1883.87 26.6793 Q1883.87 19.4281 1889.01 15.2152 Q1894.2 11.0023 1903.19 11.0023 Q1912.23 11.0023 1917.37 15.2152 Q1922.52 19.4281 1922.52 26.6793 Q1922.52 31.8644 1919.56 35.4697 Q1916.64 39.075 1911.42 40.3713 Q1917.33 41.7486 1920.61 45.759 Q1923.93 49.7694 1923.93 55.5622 Q1923.93 64.3527 1918.55 69.0517 Q1913.2 73.7508 1903.19 73.7508 Q1893.19 73.7508 1887.8 69.0517 Q1882.45 64.3527 1882.45 55.5622 Q1882.45 49.7694 1885.77 45.759 Q1889.1 41.7486 1895.01 40.3713 M1892.01 27.4489 Q1892.01 32.148 1894.93 34.7811 Q1897.89 37.4142 1903.19 37.4142 Q1908.46 37.4142 1911.42 34.7811 Q1914.41 32.148 1914.41 27.4489 Q1914.41 22.7499 1911.42 20.1168 Q1908.46 17.4837 1903.19 17.4837 Q1897.89 17.4837 1894.93 20.1168 Q1892.01 22.7499 1892.01 27.4489 Z" fill="#000000" fill-rule="nonzero" fill-opacity="1" /><path clip-path="url(#clip750)" d="M1955.98 17.4837 Q1949.66 17.4837 1946.46 23.7221 Q1943.3 29.92 1943.3 42.3968 Q1943.3 54.833 1946.46 61.0714 Q1949.66 67.2693 1955.98 67.2693 Q1962.34 67.2693 1965.5 61.0714 Q1968.7 54.833 1968.7 42.3968 Q1968.7 29.92 1965.5 23.7221 Q1962.34 17.4837 1955.98 17.4837 M1955.98 11.0023 Q1966.14 11.0023 1971.49 19.0636 Q1976.88 27.0843 1976.88 42.3968 Q1976.88 57.6687 1971.49 65.73 Q1966.14 73.7508 1955.98 73.7508 Q1945.81 73.7508 1940.42 65.73 Q1935.07 57.6687 1935.07 42.3968 Q1935.07 27.0843 1940.42 19.0636 Q1945.81 11.0023 1955.98 11.0023 Z" fill="#000000" fill-rule="nonzero" fill-opacity="1" /><path clip-path="url(#clip750)" d="M1991.26 62.2867 L1999.81 62.2867 L1999.81 72.576 L1991.26 72.576 L1991.26 62.2867 Z" fill="#000000" fill-rule="nonzero" fill-opacity="1" /><path clip-path="url(#clip750)" d="M2035.13 17.4837 Q2028.81 17.4837 2025.61 23.7221 Q2022.45 29.92 2022.45 42.3968 Q2022.45 54.833 2025.61 61.0714 Q2028.81 67.2693 2035.13 67.2693 Q2041.49 67.2693 2044.65 61.0714 Q2047.85 54.833 2047.85 42.3968 Q2047.85 29.92 2044.65 23.7221 Q2041.49 17.4837 2035.13 17.4837 M2035.13 11.0023 Q2045.3 11.0023 2050.65 19.0636 Q2056.03 27.0843 2056.03 42.3968 Q2056.03 57.6687 2050.65 65.73 Q2045.3 73.7508 2035.13 73.7508 Q2024.96 73.7508 2019.57 65.73 Q2014.23 57.6687 2014.23 42.3968 Q2014.23 27.0843 2019.57 19.0636 Q2024.96 11.0023 2035.13 11.0023 Z" fill="#000000" fill-rule="nonzero" fill-opacity="1" /><path clip-path="url(#clip750)" d="M2141.34 16.7545 L2141.34 25.383 Q2137.21 21.5346 2132.51 19.6307 Q2127.86 17.7268 2122.59 17.7268 Q2112.22 17.7268 2106.71 24.0867 Q2101.2 30.4061 2101.2 42.3968 Q2101.2 54.3469 2106.71 60.7069 Q2112.22 67.0263 2122.59 67.0263 Q2127.86 67.0263 2132.51 65.1223 Q2137.21 63.2184 2141.34 59.3701 L2141.34 67.9175 Q2137.05 70.8341 2132.23 72.2924 Q2127.45 73.7508 2122.1 73.7508 Q2108.37 73.7508 2100.47 65.3654 Q2092.57 56.9395 2092.57 42.3968 Q2092.57 27.8135 2100.47 19.4281 Q2108.37 11.0023 2122.1 11.0023 Q2127.53 11.0023 2132.31 12.4606 Q2137.13 13.8784 2141.34 16.7545 Z" fill="#000000" fill-rule="nonzero" fill-opacity="1" /><path clip-path="url(#clip750)" d="M2174.28 49.7694 Q2165.25 49.7694 2161.76 51.8354 Q2158.28 53.9013 2158.28 58.8839 Q2158.28 62.8538 2160.87 65.2034 Q2163.5 67.5124 2168 67.5124 Q2174.2 67.5124 2177.92 63.1374 Q2181.69 58.7219 2181.69 51.4303 L2181.69 49.7694 L2174.28 49.7694 M2189.15 46.6907 L2189.15 72.576 L2181.69 72.576 L2181.69 65.6895 Q2179.14 69.8214 2175.33 71.8063 Q2171.52 73.7508 2166.01 73.7508 Q2159.05 73.7508 2154.92 69.8619 Q2150.82 65.9325 2150.82 59.3701 Q2150.82 51.7138 2155.93 47.825 Q2161.07 43.9361 2171.24 43.9361 L2181.69 43.9361 L2181.69 43.2069 Q2181.69 38.0623 2178.29 35.2672 Q2174.93 32.4315 2168.81 32.4315 Q2164.92 32.4315 2161.23 33.3632 Q2157.55 34.295 2154.15 36.1584 L2154.15 29.2718 Q2158.24 27.692 2162.09 26.9223 Q2165.93 26.1121 2169.58 26.1121 Q2179.42 26.1121 2184.28 31.2163 Q2189.15 36.3204 2189.15 46.6907 Z" fill="#000000" fill-rule="nonzero" fill-opacity="1" /><path clip-path="url(#clip750)" d="M2230.79 34.1734 Q2229.53 33.4443 2228.03 33.1202 Q2226.58 32.7556 2224.79 32.7556 Q2218.47 32.7556 2215.07 36.8875 Q2211.71 40.9789 2211.71 48.6757 L2211.71 72.576 L2204.21 72.576 L2204.21 27.2059 L2211.71 27.2059 L2211.71 34.2544 Q2214.06 30.1225 2217.83 28.1376 Q2221.59 26.1121 2226.98 26.1121 Q2227.75 26.1121 2228.68 26.2337 Q2229.61 26.3147 2230.75 26.5172 L2230.79 34.1734 Z" fill="#000000" fill-rule="nonzero" fill-opacity="1" /><path clip-path="url(#clip750)" d="M2267.53 28.5427 L2267.53 35.5912 Q2264.37 33.9709 2260.97 33.1607 Q2257.57 32.3505 2253.92 32.3505 Q2248.37 32.3505 2245.57 34.0519 Q2242.82 35.7533 2242.82 39.156 Q2242.82 41.7486 2244.81 43.2475 Q2246.79 44.7058 2252.79 46.0426 L2255.34 46.6097 Q2263.28 48.3111 2266.6 51.4303 Q2269.96 54.509 2269.96 60.0587 Q2269.96 66.3781 2264.94 70.0644 Q2259.96 73.7508 2251.21 73.7508 Q2247.56 73.7508 2243.59 73.0216 Q2239.66 72.3329 2235.29 70.9151 L2235.29 63.2184 Q2239.42 65.3654 2243.43 66.4591 Q2247.44 67.5124 2251.37 67.5124 Q2256.63 67.5124 2259.47 65.73 Q2262.3 63.9071 2262.3 60.6258 Q2262.3 57.5877 2260.24 55.9673 Q2258.21 54.3469 2251.29 52.8481 L2248.69 52.2405 Q2241.77 50.7821 2238.69 47.7845 Q2235.61 44.7463 2235.61 39.4801 Q2235.61 33.0797 2240.15 29.5959 Q2244.68 26.1121 2253.03 26.1121 Q2257.16 26.1121 2260.81 26.7198 Q2264.45 27.3274 2267.53 28.5427 Z" fill="#000000" fill-rule="nonzero" fill-opacity="1" /><path clip-path="url(#clip750)" d="M2295.08 12.096 L2301.96 12.096 L2280.9 80.2727 L2274.01 80.2727 L2295.08 12.096 Z" fill="#000000" fill-rule="nonzero" fill-opacity="1" /><path clip-path="url(#clip750)" d="M2301.8 12.096 L2310.59 12.096 L2327.36 36.9686 L2344.01 12.096 L2352.8 12.096 L2331.41 43.7741 L2331.41 72.576 L2323.19 72.576 L2323.19 43.7741 L2301.8 12.096 Z" fill="#000000" fill-rule="nonzero" fill-opacity="1" /><path clip-path="url(#clip750)" d="M2388.25 48.0275 L2388.25 51.6733 L2353.98 51.6733 Q2354.46 59.3701 2358.59 63.421 Q2362.77 67.4314 2370.18 67.4314 Q2374.47 67.4314 2378.48 66.3781 Q2382.54 65.3249 2386.51 63.2184 L2386.51 70.267 Q2382.5 71.9684 2378.28 72.8596 Q2374.07 73.7508 2369.73 73.7508 Q2358.88 73.7508 2352.52 67.4314 Q2346.2 61.1119 2346.2 50.3365 Q2346.2 39.1965 2352.19 32.6746 Q2358.23 26.1121 2368.44 26.1121 Q2377.59 26.1121 2382.9 32.0264 Q2388.25 37.9003 2388.25 48.0275 M2380.79 45.84 Q2380.71 39.7232 2377.35 36.0774 Q2374.03 32.4315 2368.52 32.4315 Q2362.28 32.4315 2358.51 35.9558 Q2354.79 39.4801 2354.22 45.8805 L2380.79 45.84 Z" fill="#000000" fill-rule="nonzero" fill-opacity="1" /><path clip-path="url(#clip750)" d="M2421.1 49.7694 Q2412.07 49.7694 2408.58 51.8354 Q2405.1 53.9013 2405.1 58.8839 Q2405.1 62.8538 2407.69 65.2034 Q2410.32 67.5124 2414.82 67.5124 Q2421.02 67.5124 2424.75 63.1374 Q2428.51 58.7219 2428.51 51.4303 L2428.51 49.7694 L2421.1 49.7694 M2435.97 46.6907 L2435.97 72.576 L2428.51 72.576 L2428.51 65.6895 Q2425.96 69.8214 2422.15 71.8063 Q2418.35 73.7508 2412.84 73.7508 Q2405.87 73.7508 2401.74 69.8619 Q2397.65 65.9325 2397.65 59.3701 Q2397.65 51.7138 2402.75 47.825 Q2407.89 43.9361 2418.06 43.9361 L2428.51 43.9361 L2428.51 43.2069 Q2428.51 38.0623 2425.11 35.2672 Q2421.75 32.4315 2415.63 32.4315 Q2411.74 32.4315 2408.06 33.3632 Q2404.37 34.295 2400.97 36.1584 L2400.97 29.2718 Q2405.06 27.692 2408.91 26.9223 Q2412.76 26.1121 2416.4 26.1121 Q2426.25 26.1121 2431.11 31.2163 Q2435.97 36.3204 2435.97 46.6907 Z" fill="#000000" fill-rule="nonzero" fill-opacity="1" /><path clip-path="url(#clip750)" d="M2477.61 34.1734 Q2476.35 33.4443 2474.86 33.1202 Q2473.4 32.7556 2471.62 32.7556 Q2465.3 32.7556 2461.89 36.8875 Q2458.53 40.9789 2458.53 48.6757 L2458.53 72.576 L2451.04 72.576 L2451.04 27.2059 L2458.53 27.2059 L2458.53 34.2544 Q2460.88 30.1225 2464.65 28.1376 Q2468.41 26.1121 2473.8 26.1121 Q2474.57 26.1121 2475.5 26.2337 Q2476.44 26.3147 2477.57 26.5172 L2477.61 34.1734 Z" fill="#000000" fill-rule="nonzero" fill-opacity="1" /><polyline clip-path="url(#clip752)" style="stroke:#009af9; stroke-linecap:round; stroke-linejoin:round; stroke-width:4; stroke-opacity:1; fill:none" points="401.693,1346.48 539.049,1286.43 676.406,1226.38 813.763,1166.34 951.12,1106.29 1088.48,1046.24 1225.83,986.193 1363.19,926.146 1500.55,866.098 1637.9,806.05 1775.26,746.002 1912.62,685.954 2049.97,625.906 2187.33,565.859 2324.69,505.811 2462.04,445.763 2599.4,385.715 2736.76,325.667 2874.11,265.619 3011.47,205.572 "/>
<circle clip-path="url(#clip752)" cx="401.693" cy="1346.48" r="14.4" fill="#009af9" fill-rule="evenodd" fill-opacity="1" stroke="#000000" stroke-opacity="1" stroke-width="3.2"/>
<circle clip-path="url(#clip752)" cx="539.049" cy="1286.43" r="14.4" fill="#009af9" fill-rule="evenodd" fill-opacity="1" stroke="#000000" stroke-opacity="1" stroke-width="3.2"/>
<circle clip-path="url(#clip752)" cx="676.406" cy="1226.38" r="14.4" fill="#009af9" fill-rule="evenodd" fill-opacity="1" stroke="#000000" stroke-opacity="1" stroke-width="3.2"/>
<circle clip-path="url(#clip752)" cx="813.763" cy="1166.34" r="14.4" fill="#009af9" fill-rule="evenodd" fill-opacity="1" stroke="#000000" stroke-opacity="1" stroke-width="3.2"/>
<circle clip-path="url(#clip752)" cx="951.12" cy="1106.29" r="14.4" fill="#009af9" fill-rule="evenodd" fill-opacity="1" stroke="#000000" stroke-opacity="1" stroke-width="3.2"/>
<circle clip-path="url(#clip752)" cx="1088.48" cy="1046.24" r="14.4" fill="#009af9" fill-rule="evenodd" fill-opacity="1" stroke="#000000" stroke-opacity="1" stroke-width="3.2"/>
<circle clip-path="url(#clip752)" cx="1225.83" cy="986.193" r="14.4" fill="#009af9" fill-rule="evenodd" fill-opacity="1" stroke="#000000" stroke-opacity="1" stroke-width="3.2"/>
<circle clip-path="url(#clip752)" cx="1363.19" cy="926.146" r="14.4" fill="#009af9" fill-rule="evenodd" fill-opacity="1" stroke="#000000" stroke-opacity="1" stroke-width="3.2"/>
<circle clip-path="url(#clip752)" cx="1500.55" cy="866.098" r="14.4" fill="#009af9" fill-rule="evenodd" fill-opacity="1" stroke="#000000" stroke-opacity="1" stroke-width="3.2"/>
<circle clip-path="url(#clip752)" cx="1637.9" cy="806.05" r="14.4" fill="#009af9" fill-rule="evenodd" fill-opacity="1" stroke="#000000" stroke-opacity="1" stroke-width="3.2"/>
<circle clip-path="url(#clip752)" cx="1775.26" cy="746.002" r="14.4" fill="#009af9" fill-rule="evenodd" fill-opacity="1" stroke="#000000" stroke-opacity="1" stroke-width="3.2"/>
<circle clip-path="url(#clip752)" cx="1912.62" cy="685.954" r="14.4" fill="#009af9" fill-rule="evenodd" fill-opacity="1" stroke="#000000" stroke-opacity="1" stroke-width="3.2"/>
<circle clip-path="url(#clip752)" cx="2049.97" cy="625.906" r="14.4" fill="#009af9" fill-rule="evenodd" fill-opacity="1" stroke="#000000" stroke-opacity="1" stroke-width="3.2"/>
<circle clip-path="url(#clip752)" cx="2187.33" cy="565.859" r="14.4" fill="#009af9" fill-rule="evenodd" fill-opacity="1" stroke="#000000" stroke-opacity="1" stroke-width="3.2"/>
<circle clip-path="url(#clip752)" cx="2324.69" cy="505.811" r="14.4" fill="#009af9" fill-rule="evenodd" fill-opacity="1" stroke="#000000" stroke-opacity="1" stroke-width="3.2"/>
<circle clip-path="url(#clip752)" cx="2462.04" cy="445.763" r="14.4" fill="#009af9" fill-rule="evenodd" fill-opacity="1" stroke="#000000" stroke-opacity="1" stroke-width="3.2"/>
<circle clip-path="url(#clip752)" cx="2599.4" cy="385.715" r="14.4" fill="#009af9" fill-rule="evenodd" fill-opacity="1" stroke="#000000" stroke-opacity="1" stroke-width="3.2"/>
<circle clip-path="url(#clip752)" cx="2736.76" cy="325.667" r="14.4" fill="#009af9" fill-rule="evenodd" fill-opacity="1" stroke="#000000" stroke-opacity="1" stroke-width="3.2"/>
<circle clip-path="url(#clip752)" cx="2874.11" cy="265.619" r="14.4" fill="#009af9" fill-rule="evenodd" fill-opacity="1" stroke="#000000" stroke-opacity="1" stroke-width="3.2"/>
<circle clip-path="url(#clip752)" cx="3011.47" cy="205.572" r="14.4" fill="#009af9" fill-rule="evenodd" fill-opacity="1" stroke="#000000" stroke-opacity="1" stroke-width="3.2"/>
</svg>
