<?xml version="1.0" encoding="utf-8"?>
<svg xmlns="http://www.w3.org/2000/svg" xmlns:xlink="http://www.w3.org/1999/xlink" width="800" height="400" viewBox="0 0 3200 1600">
<defs>
  <clipPath id="clip890">
    <rect x="0" y="0" width="3200" height="1600"/>
  </clipPath>
</defs>
<path clip-path="url(#clip890)" d="M0 1600 L3200 1600 L3200 0 L0 0  Z" fill="#ffffff" fill-rule="evenodd" fill-opacity="1"/>
<defs>
  <clipPath id="clip891">
    <rect x="640" y="0" width="2241" height="1600"/>
  </clipPath>
</defs>
<path clip-path="url(#clip890)" d="M301.247 1380.71 L3089.76 1380.71 L3089.76 171.344 L301.247 171.344  Z" fill="#ffffff" fill-rule="evenodd" fill-opacity="1"/>
<defs>
  <clipPath id="clip892">
    <rect x="301" y="171" width="2790" height="1210"/>
  </clipPath>
</defs>
<polyline clip-path="url(#clip892)" style="stroke:#000000; stroke-linecap:round; stroke-linejoin:round; stroke-width:2; stroke-opacity:0.1; fill:none" points="380.167,1380.71 380.167,171.344 "/>
<polyline clip-path="url(#clip892)" style="stroke:#000000; stroke-linecap:round; stroke-linejoin:round; stroke-width:2; stroke-opacity:0.1; fill:none" points="643.235,1380.71 643.235,171.344 "/>
<polyline clip-path="url(#clip892)" style="stroke:#000000; stroke-linecap:round; stroke-linejoin:round; stroke-width:2; stroke-opacity:0.1; fill:none" points="906.302,1380.71 906.302,171.344 "/>
<polyline clip-path="url(#clip892)" style="stroke:#000000; stroke-linecap:round; stroke-linejoin:round; stroke-width:2; stroke-opacity:0.1; fill:none" points="1169.37,1380.71 1169.37,171.344 "/>
<polyline clip-path="url(#clip892)" style="stroke:#000000; stroke-linecap:round; stroke-linejoin:round; stroke-width:2; stroke-opacity:0.1; fill:none" points="1432.44,1380.71 1432.44,171.344 "/>
<polyline clip-path="url(#clip892)" style="stroke:#000000; stroke-linecap:round; stroke-linejoin:round; stroke-width:2; stroke-opacity:0.1; fill:none" points="1695.51,1380.71 1695.51,171.344 "/>
<polyline clip-path="url(#clip892)" style="stroke:#000000; stroke-linecap:round; stroke-linejoin:round; stroke-width:2; stroke-opacity:0.1; fill:none" points="1958.57,1380.71 1958.57,171.344 "/>
<polyline clip-path="url(#clip892)" style="stroke:#000000; stroke-linecap:round; stroke-linejoin:round; stroke-width:2; stroke-opacity:0.1; fill:none" points="2221.64,1380.71 2221.64,171.344 "/>
<polyline clip-path="url(#clip892)" style="stroke:#000000; stroke-linecap:round; stroke-linejoin:round; stroke-width:2; stroke-opacity:0.1; fill:none" points="2484.71,1380.71 2484.71,171.344 "/>
<polyline clip-path="url(#clip892)" style="stroke:#000000; stroke-linecap:round; stroke-linejoin:round; stroke-width:2; stroke-opacity:0.1; fill:none" points="2747.78,1380.71 2747.78,171.344 "/>
<polyline clip-path="url(#clip892)" style="stroke:#000000; stroke-linecap:round; stroke-linejoin:round; stroke-width:2; stroke-opacity:0.1; fill:none" points="3010.84,1380.71 3010.84,171.344 "/>
<polyline clip-path="url(#clip890)" style="stroke:#000000; stroke-linecap:round; stroke-linejoin:round; stroke-width:4; stroke-opacity:1; fill:none" points="301.247,1380.71 3089.76,1380.71 "/>
<polyline clip-path="url(#clip890)" style="stroke:#000000; stroke-linecap:round; stroke-linejoin:round; stroke-width:4; stroke-opacity:1; fill:none" points="380.167,1380.71 380.167,1361.81 "/>
<polyline clip-path="url(#clip890)" style="stroke:#000000; stroke-linecap:round; stroke-linejoin:round; stroke-width:4; stroke-opacity:1; fill:none" points="643.235,1380.71 643.235,1361.81 "/>
<polyline clip-path="url(#clip890)" style="stroke:#000000; stroke-linecap:round; stroke-linejoin:round; stroke-width:4; stroke-opacity:1; fill:none" points="906.302,1380.71 906.302,1361.81 "/>
<polyline clip-path="url(#clip890)" style="stroke:#000000; stroke-linecap:round; stroke-linejoin:round; stroke-width:4; stroke-opacity:1; fill:none" points="1169.37,1380.71 1169.37,1361.81 "/>
<polyline clip-path="url(#clip890)" style="stroke:#000000; stroke-linecap:round; stroke-linejoin:round; stroke-width:4; stroke-opacity:1; fill:none" points="1432.44,1380.71 1432.44,1361.81 "/>
<polyline clip-path="url(#clip890)" style="stroke:#000000; stroke-linecap:round; stroke-linejoin:round; stroke-width:4; stroke-opacity:1; fill:none" points="1695.51,1380.71 1695.51,1361.81 "/>
<polyline clip-path="url(#clip890)" style="stroke:#000000; stroke-linecap:round; stroke-linejoin:round; stroke-width:4; stroke-opacity:1; fill:none" points="1958.57,1380.71 1958.57,1361.81 "/>
<polyline clip-path="url(#clip890)" style="stroke:#000000; stroke-linecap:round; stroke-linejoin:round; stroke-width:4; stroke-opacity:1; fill:none" points="2221.64,1380.71 2221.64,1361.81 "/>
<polyline clip-path="url(#clip890)" style="stroke:#000000; stroke-linecap:round; stroke-linejoin:round; stroke-width:4; stroke-opacity:1; fill:none" points="2484.71,1380.71 2484.71,1361.81 "/>
<polyline clip-path="url(#clip890)" style="stroke:#000000; stroke-linecap:round; stroke-linejoin:round; stroke-width:4; stroke-opacity:1; fill:none" points="2747.78,1380.71 2747.78,1361.81 "/>
<polyline clip-path="url(#clip890)" style="stroke:#000000; stroke-linecap:round; stroke-linejoin:round; stroke-width:4; stroke-opacity:1; fill:none" points="3010.84,1380.71 3010.84,1361.81 "/>
<path clip-path="url(#clip890)" d="M374.82 1445.57 L391.139 1445.57 L391.139 1449.51 L369.195 1449.51 L369.195 1445.57 Q371.857 1442.82 376.44 1438.19 Q381.047 1433.54 382.227 1432.19 Q384.473 1429.67 385.352 1427.93 Q386.255 1426.17 386.255 1424.48 Q386.255 1421.73 384.311 1419.99 Q382.389 1418.26 379.287 1418.26 Q377.088 1418.26 374.635 1419.02 Q372.204 1419.79 369.426 1421.34 L369.426 1416.61 Q372.25 1415.48 374.704 1414.9 Q377.158 1414.32 379.195 1414.32 Q384.565 1414.32 387.76 1417.01 Q390.954 1419.69 390.954 1424.18 Q390.954 1426.31 390.144 1428.23 Q389.357 1430.13 387.25 1432.73 Q386.672 1433.4 383.57 1436.61 Q380.468 1439.81 374.82 1445.57 Z" fill="#000000" fill-rule="nonzero" fill-opacity="1" /><path clip-path="url(#clip890)" d="M647.482 1430.87 Q650.839 1431.59 652.714 1433.86 Q654.612 1436.13 654.612 1439.46 Q654.612 1444.58 651.093 1447.38 Q647.575 1450.18 641.094 1450.18 Q638.918 1450.18 636.603 1449.74 Q634.311 1449.32 631.857 1448.47 L631.857 1443.95 Q633.802 1445.09 636.117 1445.67 Q638.432 1446.24 640.955 1446.24 Q645.353 1446.24 647.644 1444.51 Q649.959 1442.77 649.959 1439.46 Q649.959 1436.41 647.806 1434.69 Q645.677 1432.96 641.857 1432.96 L637.83 1432.96 L637.83 1429.11 L642.043 1429.11 Q645.492 1429.11 647.32 1427.75 Q649.149 1426.36 649.149 1423.77 Q649.149 1421.11 647.251 1419.69 Q645.376 1418.26 641.857 1418.26 Q639.936 1418.26 637.737 1418.67 Q635.538 1419.09 632.899 1419.97 L632.899 1415.8 Q635.561 1415.06 637.876 1414.69 Q640.214 1414.32 642.274 1414.32 Q647.598 1414.32 650.7 1416.75 Q653.802 1419.16 653.802 1423.28 Q653.802 1426.15 652.158 1428.14 Q650.515 1430.11 647.482 1430.87 Z" fill="#000000" fill-rule="nonzero" fill-opacity="1" /><path clip-path="url(#clip890)" d="M909.312 1419.02 L897.506 1437.47 L909.312 1437.47 L909.312 1419.02 M908.085 1414.95 L913.964 1414.95 L913.964 1437.47 L918.895 1437.47 L918.895 1441.36 L913.964 1441.36 L913.964 1449.51 L909.312 1449.51 L909.312 1441.36 L893.71 1441.36 L893.71 1436.85 L908.085 1414.95 Z" fill="#000000" fill-rule="nonzero" fill-opacity="1" /><path clip-path="url(#clip890)" d="M1159.65 1414.95 L1178 1414.95 L1178 1418.88 L1163.93 1418.88 L1163.93 1427.36 Q1164.95 1427.01 1165.97 1426.85 Q1166.99 1426.66 1168 1426.66 Q1173.79 1426.66 1177.17 1429.83 Q1180.55 1433 1180.55 1438.42 Q1180.55 1444 1177.08 1447.1 Q1173.61 1450.18 1167.29 1450.18 Q1165.11 1450.18 1162.84 1449.81 Q1160.6 1449.44 1158.19 1448.7 L1158.19 1444 Q1160.27 1445.13 1162.5 1445.69 Q1164.72 1446.24 1167.19 1446.24 Q1171.2 1446.24 1173.54 1444.14 Q1175.87 1442.03 1175.87 1438.42 Q1175.87 1434.81 1173.54 1432.7 Q1171.2 1430.6 1167.19 1430.6 Q1165.32 1430.6 1163.44 1431.01 Q1161.59 1431.43 1159.65 1432.31 L1159.65 1414.95 Z" fill="#000000" fill-rule="nonzero" fill-opacity="1" /><path clip-path="url(#clip890)" d="M1432.84 1430.36 Q1429.69 1430.36 1427.84 1432.52 Q1426.01 1434.67 1426.01 1438.42 Q1426.01 1442.15 1427.84 1444.32 Q1429.69 1446.48 1432.84 1446.48 Q1435.99 1446.48 1437.82 1444.32 Q1439.67 1442.15 1439.67 1438.42 Q1439.67 1434.67 1437.82 1432.52 Q1435.99 1430.36 1432.84 1430.36 M1442.13 1415.71 L1442.13 1419.97 Q1440.37 1419.14 1438.56 1418.7 Q1436.78 1418.26 1435.02 1418.26 Q1430.39 1418.26 1427.94 1421.38 Q1425.5 1424.51 1425.16 1430.83 Q1426.52 1428.81 1428.58 1427.75 Q1430.64 1426.66 1433.12 1426.66 Q1438.33 1426.66 1441.34 1429.83 Q1444.37 1432.98 1444.37 1438.42 Q1444.37 1443.74 1441.22 1446.96 Q1438.07 1450.18 1432.84 1450.18 Q1426.85 1450.18 1423.68 1445.6 Q1420.5 1440.99 1420.5 1432.26 Q1420.5 1424.07 1424.39 1419.21 Q1428.28 1414.32 1434.83 1414.32 Q1436.59 1414.32 1438.38 1414.67 Q1440.18 1415.02 1442.13 1415.71 Z" fill="#000000" fill-rule="nonzero" fill-opacity="1" /><path clip-path="url(#clip890)" d="M1684.39 1414.95 L1706.62 1414.95 L1706.62 1416.94 L1694.07 1449.51 L1689.19 1449.51 L1700.99 1418.88 L1684.39 1418.88 L1684.39 1414.95 Z" fill="#000000" fill-rule="nonzero" fill-opacity="1" /><path clip-path="url(#clip890)" d="M1958.57 1433.1 Q1955.24 1433.1 1953.32 1434.88 Q1951.42 1436.66 1951.42 1439.79 Q1951.42 1442.91 1953.32 1444.69 Q1955.24 1446.48 1958.57 1446.48 Q1961.91 1446.48 1963.83 1444.69 Q1965.75 1442.89 1965.75 1439.79 Q1965.75 1436.66 1963.83 1434.88 Q1961.93 1433.1 1958.57 1433.1 M1953.9 1431.11 Q1950.89 1430.36 1949.2 1428.3 Q1947.53 1426.24 1947.53 1423.28 Q1947.53 1419.14 1950.47 1416.73 Q1953.43 1414.32 1958.57 1414.32 Q1963.73 1414.32 1966.67 1416.73 Q1969.61 1419.14 1969.61 1423.28 Q1969.61 1426.24 1967.92 1428.3 Q1966.26 1430.36 1963.27 1431.11 Q1966.65 1431.89 1968.53 1434.18 Q1970.42 1436.48 1970.42 1439.79 Q1970.42 1444.81 1967.35 1447.49 Q1964.29 1450.18 1958.57 1450.18 Q1952.86 1450.18 1949.78 1447.49 Q1946.72 1444.81 1946.72 1439.79 Q1946.72 1436.48 1948.62 1434.18 Q1950.52 1431.89 1953.9 1431.11 M1952.18 1423.72 Q1952.18 1426.41 1953.85 1427.91 Q1955.54 1429.42 1958.57 1429.42 Q1961.58 1429.42 1963.27 1427.91 Q1964.98 1426.41 1964.98 1423.72 Q1964.98 1421.04 1963.27 1419.53 Q1961.58 1418.03 1958.57 1418.03 Q1955.54 1418.03 1953.85 1419.53 Q1952.18 1421.04 1952.18 1423.72 Z" fill="#000000" fill-rule="nonzero" fill-opacity="1" /><path clip-path="url(#clip890)" d="M2211.94 1448.79 L2211.94 1444.53 Q2213.7 1445.36 2215.51 1445.8 Q2217.31 1446.24 2219.05 1446.24 Q2223.68 1446.24 2226.11 1443.14 Q2228.56 1440.02 2228.91 1433.67 Q2227.57 1435.67 2225.51 1436.73 Q2223.45 1437.79 2220.95 1437.79 Q2215.76 1437.79 2212.73 1434.67 Q2209.72 1431.52 2209.72 1426.08 Q2209.72 1420.76 2212.87 1417.54 Q2216.02 1414.32 2221.25 1414.32 Q2227.24 1414.32 2230.39 1418.93 Q2233.56 1423.51 2233.56 1432.26 Q2233.56 1440.43 2229.67 1445.32 Q2225.81 1450.18 2219.26 1450.18 Q2217.5 1450.18 2215.69 1449.83 Q2213.89 1449.48 2211.94 1448.79 M2221.25 1434.14 Q2224.4 1434.14 2226.22 1431.98 Q2228.08 1429.83 2228.08 1426.08 Q2228.08 1422.36 2226.22 1420.2 Q2224.4 1418.03 2221.25 1418.03 Q2218.1 1418.03 2216.25 1420.2 Q2214.42 1422.36 2214.42 1426.08 Q2214.42 1429.83 2216.25 1431.98 Q2218.1 1434.14 2221.25 1434.14 Z" fill="#000000" fill-rule="nonzero" fill-opacity="1" /><path clip-path="url(#clip890)" d="M2459.4 1445.57 L2467.03 1445.57 L2467.03 1419.21 L2458.72 1420.87 L2458.72 1416.61 L2466.99 1414.95 L2471.66 1414.95 L2471.66 1445.57 L2479.3 1445.57 L2479.3 1449.51 L2459.4 1449.51 L2459.4 1445.57 Z" fill="#000000" fill-rule="nonzero" fill-opacity="1" /><path clip-path="url(#clip890)" d="M2498.75 1418.03 Q2495.14 1418.03 2493.31 1421.59 Q2491.5 1425.13 2491.5 1432.26 Q2491.5 1439.37 2493.31 1442.93 Q2495.14 1446.48 2498.75 1446.48 Q2502.38 1446.48 2504.19 1442.93 Q2506.02 1439.37 2506.02 1432.26 Q2506.02 1425.13 2504.19 1421.59 Q2502.38 1418.03 2498.75 1418.03 M2498.75 1414.32 Q2504.56 1414.32 2507.61 1418.93 Q2510.69 1423.51 2510.69 1432.26 Q2510.69 1440.99 2507.61 1445.6 Q2504.56 1450.18 2498.75 1450.18 Q2492.94 1450.18 2489.86 1445.6 Q2486.8 1440.99 2486.8 1432.26 Q2486.8 1423.51 2489.86 1418.93 Q2492.94 1414.32 2498.75 1414.32 Z" fill="#000000" fill-rule="nonzero" fill-opacity="1" /><path clip-path="url(#clip890)" d="M2723.08 1445.57 L2730.72 1445.57 L2730.72 1419.21 L2722.41 1420.87 L2722.41 1416.61 L2730.67 1414.95 L2735.35 1414.95 L2735.35 1445.57 L2742.98 1445.57 L2742.98 1449.51 L2723.08 1449.51 L2723.08 1445.57 Z" fill="#000000" fill-rule="nonzero" fill-opacity="1" /><path clip-path="url(#clip890)" d="M2753.24 1445.57 L2760.88 1445.57 L2760.88 1419.21 L2752.57 1420.87 L2752.57 1416.61 L2760.83 1414.95 L2765.51 1414.95 L2765.51 1445.57 L2773.15 1445.57 L2773.15 1449.51 L2753.24 1449.51 L2753.24 1445.57 Z" fill="#000000" fill-rule="nonzero" fill-opacity="1" /><path clip-path="url(#clip890)" d="M2986.33 1445.57 L2993.97 1445.57 L2993.97 1419.21 L2985.66 1420.87 L2985.66 1416.61 L2993.92 1414.95 L2998.6 1414.95 L2998.6 1445.57 L3006.24 1445.57 L3006.24 1449.51 L2986.33 1449.51 L2986.33 1445.57 Z" fill="#000000" fill-rule="nonzero" fill-opacity="1" /><path clip-path="url(#clip890)" d="M3019.71 1445.57 L3036.03 1445.57 L3036.03 1449.51 L3014.08 1449.51 L3014.08 1445.57 Q3016.75 1442.82 3021.33 1438.19 Q3025.94 1433.54 3027.12 1432.19 Q3029.36 1429.67 3030.24 1427.93 Q3031.14 1426.17 3031.14 1424.48 Q3031.14 1421.73 3029.2 1419.99 Q3027.28 1418.26 3024.18 1418.26 Q3021.98 1418.26 3019.52 1419.02 Q3017.09 1419.79 3014.32 1421.34 L3014.32 1416.61 Q3017.14 1415.48 3019.59 1414.9 Q3022.05 1414.32 3024.08 1414.32 Q3029.45 1414.32 3032.65 1417.01 Q3035.84 1419.69 3035.84 1424.18 Q3035.84 1426.31 3035.03 1428.23 Q3034.25 1430.13 3032.14 1432.73 Q3031.56 1433.4 3028.46 1436.61 Q3025.36 1439.81 3019.71 1445.57 Z" fill="#000000" fill-rule="nonzero" fill-opacity="1" /><path clip-path="url(#clip890)" d="M1422.75 1490.05 L1431.41 1490.05 L1452.48 1529.81 L1452.48 1490.05 L1458.72 1490.05 L1458.72 1537.57 L1450.06 1537.57 L1428.99 1497.82 L1428.99 1537.57 L1422.75 1537.57 L1422.75 1490.05 Z" fill="#000000" fill-rule="nonzero" fill-opacity="1" /><path clip-path="url(#clip890)" d="M1470.65 1523.5 L1470.65 1501.92 L1476.51 1501.92 L1476.51 1523.28 Q1476.51 1528.34 1478.48 1530.89 Q1480.46 1533.4 1484.4 1533.4 Q1489.14 1533.4 1491.88 1530.38 Q1494.65 1527.35 1494.65 1522.13 L1494.65 1501.92 L1500.51 1501.92 L1500.51 1537.57 L1494.65 1537.57 L1494.65 1532.1 Q1492.52 1535.34 1489.69 1536.94 Q1486.89 1538.49 1483.16 1538.49 Q1477.02 1538.49 1473.84 1534.68 Q1470.65 1530.86 1470.65 1523.5 M1485.39 1501.06 L1485.39 1501.06 Z" fill="#000000" fill-rule="nonzero" fill-opacity="1" /><path clip-path="url(#clip890)" d="M1540.33 1508.77 Q1542.52 1504.82 1545.58 1502.94 Q1548.63 1501.06 1552.77 1501.06 Q1558.34 1501.06 1561.36 1504.98 Q1564.39 1508.86 1564.39 1516.06 L1564.39 1537.57 L1558.5 1537.57 L1558.5 1516.25 Q1558.5 1511.12 1556.69 1508.64 Q1554.87 1506.16 1551.15 1506.16 Q1546.6 1506.16 1543.95 1509.18 Q1541.31 1512.2 1541.31 1517.42 L1541.31 1537.57 L1535.42 1537.57 L1535.42 1516.25 Q1535.42 1511.09 1533.61 1508.64 Q1531.8 1506.16 1528.01 1506.16 Q1523.52 1506.16 1520.88 1509.21 Q1518.24 1512.24 1518.24 1517.42 L1518.24 1537.57 L1512.35 1537.57 L1512.35 1501.92 L1518.24 1501.92 L1518.24 1507.46 Q1520.24 1504.18 1523.04 1502.62 Q1525.84 1501.06 1529.69 1501.06 Q1533.58 1501.06 1536.28 1503.04 Q1539.02 1505.01 1540.33 1508.77 Z" fill="#000000" fill-rule="nonzero" fill-opacity="1" /><path clip-path="url(#clip890)" d="M1601.66 1519.78 Q1601.66 1513.32 1598.99 1509.66 Q1596.34 1505.97 1591.7 1505.97 Q1587.05 1505.97 1584.38 1509.66 Q1581.73 1513.32 1581.73 1519.78 Q1581.73 1526.24 1584.38 1529.93 Q1587.05 1533.59 1591.7 1533.59 Q1596.34 1533.59 1598.99 1529.93 Q1601.66 1526.24 1601.66 1519.78 M1581.73 1507.33 Q1583.58 1504.15 1586.38 1502.62 Q1589.21 1501.06 1593.13 1501.06 Q1599.62 1501.06 1603.66 1506.22 Q1607.74 1511.38 1607.74 1519.78 Q1607.74 1528.18 1603.66 1533.34 Q1599.62 1538.49 1593.13 1538.49 Q1589.21 1538.49 1586.38 1536.97 Q1583.58 1535.41 1581.73 1532.22 L1581.73 1537.57 L1575.85 1537.57 L1575.85 1488.05 L1581.73 1488.05 L1581.73 1507.33 Z" fill="#000000" fill-rule="nonzero" fill-opacity="1" /><path clip-path="url(#clip890)" d="M1647.94 1518.28 L1647.94 1521.15 L1621.01 1521.15 Q1621.39 1527.2 1624.64 1530.38 Q1627.92 1533.53 1633.74 1533.53 Q1637.12 1533.53 1640.27 1532.7 Q1643.45 1531.87 1646.57 1530.22 L1646.57 1535.76 Q1643.42 1537.09 1640.11 1537.79 Q1636.8 1538.49 1633.39 1538.49 Q1624.86 1538.49 1619.86 1533.53 Q1614.9 1528.56 1614.9 1520.1 Q1614.9 1511.35 1619.61 1506.22 Q1624.35 1501.06 1632.37 1501.06 Q1639.57 1501.06 1643.74 1505.71 Q1647.94 1510.33 1647.94 1518.28 M1642.08 1516.56 Q1642.02 1511.76 1639.38 1508.89 Q1636.77 1506.03 1632.44 1506.03 Q1627.54 1506.03 1624.58 1508.8 Q1621.65 1511.57 1621.2 1516.6 L1642.08 1516.56 Z" fill="#000000" fill-rule="nonzero" fill-opacity="1" /><path clip-path="url(#clip890)" d="M1678.21 1507.4 Q1677.22 1506.83 1676.04 1506.57 Q1674.9 1506.28 1673.5 1506.28 Q1668.53 1506.28 1665.86 1509.53 Q1663.22 1512.75 1663.22 1518.79 L1663.22 1537.57 L1657.33 1537.57 L1657.33 1501.92 L1663.22 1501.92 L1663.22 1507.46 Q1665.06 1504.22 1668.02 1502.66 Q1670.98 1501.06 1675.21 1501.06 Q1675.82 1501.06 1676.55 1501.16 Q1677.28 1501.22 1678.17 1501.38 L1678.21 1507.4 Z" fill="#000000" fill-rule="nonzero" fill-opacity="1" /><path clip-path="url(#clip890)" d="M1718.88 1506.03 Q1714.17 1506.03 1711.44 1509.72 Q1708.7 1513.38 1708.7 1519.78 Q1708.7 1526.18 1711.4 1529.87 Q1714.14 1533.53 1718.88 1533.53 Q1723.56 1533.53 1726.3 1529.84 Q1729.04 1526.15 1729.04 1519.78 Q1729.04 1513.45 1726.3 1509.75 Q1723.56 1506.03 1718.88 1506.03 M1718.88 1501.06 Q1726.52 1501.06 1730.88 1506.03 Q1735.24 1510.99 1735.24 1519.78 Q1735.24 1528.53 1730.88 1533.53 Q1726.52 1538.49 1718.88 1538.49 Q1711.21 1538.49 1706.85 1533.53 Q1702.52 1528.53 1702.52 1519.78 Q1702.52 1510.99 1706.85 1506.03 Q1711.21 1501.06 1718.88 1501.06 Z" fill="#000000" fill-rule="nonzero" fill-opacity="1" /><path clip-path="url(#clip890)" d="M1763 1488.05 L1763 1492.92 L1757.4 1492.92 Q1754.24 1492.92 1753 1494.19 Q1751.79 1495.46 1751.79 1498.77 L1751.79 1501.92 L1761.44 1501.92 L1761.44 1506.48 L1751.79 1506.48 L1751.79 1537.57 L1745.91 1537.57 L1745.91 1506.48 L1740.3 1506.48 L1740.3 1501.92 L1745.91 1501.92 L1745.91 1499.44 Q1745.91 1493.49 1748.67 1490.78 Q1751.44 1488.05 1757.46 1488.05 L1763 1488.05 Z" fill="#000000" fill-rule="nonzero" fill-opacity="1" /><path clip-path="url(#clip890)" d="M1788.62 1488.05 L1794.48 1488.05 L1794.48 1537.57 L1788.62 1537.57 L1788.62 1488.05 Z" fill="#000000" fill-rule="nonzero" fill-opacity="1" /><path clip-path="url(#clip890)" d="M1837.22 1518.28 L1837.22 1521.15 L1810.29 1521.15 Q1810.68 1527.2 1813.92 1530.38 Q1817.2 1533.53 1823.03 1533.53 Q1826.4 1533.53 1829.55 1532.7 Q1832.73 1531.87 1835.85 1530.22 L1835.85 1535.76 Q1832.7 1537.09 1829.39 1537.79 Q1826.08 1538.49 1822.68 1538.49 Q1814.15 1538.49 1809.15 1533.53 Q1804.18 1528.56 1804.18 1520.1 Q1804.18 1511.35 1808.89 1506.22 Q1813.64 1501.06 1821.66 1501.06 Q1828.85 1501.06 1833.02 1505.71 Q1837.22 1510.33 1837.22 1518.28 M1831.37 1516.56 Q1831.3 1511.76 1828.66 1508.89 Q1826.05 1506.03 1821.72 1506.03 Q1816.82 1506.03 1813.86 1508.8 Q1810.93 1511.57 1810.49 1516.6 L1831.37 1516.56 Z" fill="#000000" fill-rule="nonzero" fill-opacity="1" /><path clip-path="url(#clip890)" d="M1842.63 1501.92 L1848.84 1501.92 L1859.98 1531.84 L1871.12 1501.92 L1877.33 1501.92 L1863.96 1537.57 L1856 1537.57 L1842.63 1501.92 Z" fill="#000000" fill-rule="nonzero" fill-opacity="1" /><path clip-path="url(#clip890)" d="M1915.9 1518.28 L1915.9 1521.15 L1888.98 1521.15 Q1889.36 1527.2 1892.6 1530.38 Q1895.88 1533.53 1901.71 1533.53 Q1905.08 1533.53 1908.23 1532.7 Q1911.41 1531.87 1914.53 1530.22 L1914.53 1535.76 Q1911.38 1537.09 1908.07 1537.79 Q1904.76 1538.49 1901.36 1538.49 Q1892.83 1538.49 1887.83 1533.53 Q1882.86 1528.56 1882.86 1520.1 Q1882.86 1511.35 1887.57 1506.22 Q1892.32 1501.06 1900.34 1501.06 Q1907.53 1501.06 1911.7 1505.71 Q1915.9 1510.33 1915.9 1518.28 M1910.05 1516.56 Q1909.98 1511.76 1907.34 1508.89 Q1904.73 1506.03 1900.4 1506.03 Q1895.5 1506.03 1892.54 1508.8 Q1889.61 1511.57 1889.17 1516.6 L1910.05 1516.56 Z" fill="#000000" fill-rule="nonzero" fill-opacity="1" /><path clip-path="url(#clip890)" d="M1925.51 1488.05 L1931.37 1488.05 L1931.37 1537.57 L1925.51 1537.57 L1925.51 1488.05 Z" fill="#000000" fill-rule="nonzero" fill-opacity="1" /><path clip-path="url(#clip890)" d="M1966.35 1502.97 L1966.35 1508.51 Q1963.87 1507.24 1961.19 1506.6 Q1958.52 1505.97 1955.66 1505.97 Q1951.3 1505.97 1949.1 1507.3 Q1946.93 1508.64 1946.93 1511.31 Q1946.93 1513.35 1948.49 1514.53 Q1950.05 1515.67 1954.76 1516.72 L1956.77 1517.17 Q1963.01 1518.51 1965.62 1520.96 Q1968.26 1523.38 1968.26 1527.74 Q1968.26 1532.7 1964.31 1535.6 Q1960.4 1538.49 1953.52 1538.49 Q1950.66 1538.49 1947.54 1537.92 Q1944.45 1537.38 1941.01 1536.27 L1941.01 1530.22 Q1944.26 1531.91 1947.41 1532.77 Q1950.56 1533.59 1953.65 1533.59 Q1957.79 1533.59 1960.02 1532.19 Q1962.24 1530.76 1962.24 1528.18 Q1962.24 1525.8 1960.62 1524.52 Q1959.03 1523.25 1953.59 1522.07 L1951.55 1521.59 Q1946.11 1520.45 1943.69 1518.09 Q1941.27 1515.71 1941.27 1511.57 Q1941.27 1506.54 1944.83 1503.8 Q1948.4 1501.06 1954.96 1501.06 Q1958.2 1501.06 1961.07 1501.54 Q1963.93 1502.02 1966.35 1502.97 Z" fill="#000000" fill-rule="nonzero" fill-opacity="1" /><polyline clip-path="url(#clip892)" style="stroke:#000000; stroke-linecap:round; stroke-linejoin:round; stroke-width:2; stroke-opacity:0.1; fill:none" points="301.247,1270.3 3089.76,1270.3 "/>
<polyline clip-path="url(#clip892)" style="stroke:#000000; stroke-linecap:round; stroke-linejoin:round; stroke-width:2; stroke-opacity:0.1; fill:none" points="301.247,1090.91 3089.76,1090.91 "/>
<polyline clip-path="url(#clip892)" style="stroke:#000000; stroke-linecap:round; stroke-linejoin:round; stroke-width:2; stroke-opacity:0.1; fill:none" points="301.247,911.529 3089.76,911.529 "/>
<polyline clip-path="url(#clip892)" style="stroke:#000000; stroke-linecap:round; stroke-linejoin:round; stroke-width:2; stroke-opacity:0.1; fill:none" points="301.247,732.144 3089.76,732.144 "/>
<polyline clip-path="url(#clip892)" style="stroke:#000000; stroke-linecap:round; stroke-linejoin:round; stroke-width:2; stroke-opacity:0.1; fill:none" points="301.247,552.759 3089.76,552.759 "/>
<polyline clip-path="url(#clip892)" style="stroke:#000000; stroke-linecap:round; stroke-linejoin:round; stroke-width:2; stroke-opacity:0.1; fill:none" points="301.247,373.374 3089.76,373.374 "/>
<polyline clip-path="url(#clip892)" style="stroke:#000000; stroke-linecap:round; stroke-linejoin:round; stroke-width:2; stroke-opacity:0.1; fill:none" points="301.247,193.989 3089.76,193.989 "/>
<polyline clip-path="url(#clip890)" style="stroke:#000000; stroke-linecap:round; stroke-linejoin:round; stroke-width:4; stroke-opacity:1; fill:none" points="301.247,1380.71 301.247,171.344 "/>
<polyline clip-path="url(#clip890)" style="stroke:#000000; stroke-linecap:round; stroke-linejoin:round; stroke-width:4; stroke-opacity:1; fill:none" points="301.247,1270.3 320.144,1270.3 "/>
<polyline clip-path="url(#clip890)" style="stroke:#000000; stroke-linecap:round; stroke-linejoin:round; stroke-width:4; stroke-opacity:1; fill:none" points="301.247,1090.91 320.144,1090.91 "/>
<polyline clip-path="url(#clip890)" style="stroke:#000000; stroke-linecap:round; stroke-linejoin:round; stroke-width:4; stroke-opacity:1; fill:none" points="301.247,911.529 320.144,911.529 "/>
<polyline clip-path="url(#clip890)" style="stroke:#000000; stroke-linecap:round; stroke-linejoin:round; stroke-width:4; stroke-opacity:1; fill:none" points="301.247,732.144 320.144,732.144 "/>
<polyline clip-path="url(#clip890)" style="stroke:#000000; stroke-linecap:round; stroke-linejoin:round; stroke-width:4; stroke-opacity:1; fill:none" points="301.247,552.759 320.144,552.759 "/>
<polyline clip-path="url(#clip890)" style="stroke:#000000; stroke-linecap:round; stroke-linejoin:round; stroke-width:4; stroke-opacity:1; fill:none" points="301.247,373.374 320.144,373.374 "/>
<polyline clip-path="url(#clip890)" style="stroke:#000000; stroke-linecap:round; stroke-linejoin:round; stroke-width:4; stroke-opacity:1; fill:none" points="301.247,193.989 320.144,193.989 "/>
<path clip-path="url(#clip890)" d="M162.368 1270.75 L192.043 1270.75 L192.043 1274.69 L162.368 1274.69 L162.368 1270.75 Z" fill="#000000" fill-rule="nonzero" fill-opacity="1" /><path clip-path="url(#clip890)" d="M206.164 1283.64 L222.483 1283.64 L222.483 1287.58 L200.539 1287.58 L200.539 1283.64 Q203.201 1280.89 207.784 1276.26 Q212.391 1271.61 213.571 1270.26 Q215.816 1267.74 216.696 1266 Q217.599 1264.25 217.599 1262.56 Q217.599 1259.8 215.654 1258.07 Q213.733 1256.33 210.631 1256.33 Q208.432 1256.33 205.979 1257.09 Q203.548 1257.86 200.77 1259.41 L200.77 1254.69 Q203.594 1253.55 206.048 1252.97 Q208.502 1252.39 210.539 1252.39 Q215.909 1252.39 219.103 1255.08 Q222.298 1257.76 222.298 1262.25 Q222.298 1264.38 221.488 1266.31 Q220.701 1268.2 218.594 1270.8 Q218.015 1271.47 214.914 1274.69 Q211.812 1277.88 206.164 1283.64 Z" fill="#000000" fill-rule="nonzero" fill-opacity="1" /><path clip-path="url(#clip890)" d="M232.344 1253.02 L250.701 1253.02 L250.701 1256.95 L236.627 1256.95 L236.627 1265.43 Q237.645 1265.08 238.664 1264.92 Q239.682 1264.73 240.701 1264.73 Q246.488 1264.73 249.867 1267.9 Q253.247 1271.07 253.247 1276.49 Q253.247 1282.07 249.775 1285.17 Q246.302 1288.25 239.983 1288.25 Q237.807 1288.25 235.539 1287.88 Q233.293 1287.51 230.886 1286.77 L230.886 1282.07 Q232.969 1283.2 235.191 1283.76 Q237.414 1284.31 239.89 1284.31 Q243.895 1284.31 246.233 1282.21 Q248.571 1280.1 248.571 1276.49 Q248.571 1272.88 246.233 1270.77 Q243.895 1268.67 239.89 1268.67 Q238.015 1268.67 236.14 1269.08 Q234.289 1269.5 232.344 1270.38 L232.344 1253.02 Z" fill="#000000" fill-rule="nonzero" fill-opacity="1" /><path clip-path="url(#clip890)" d="M161.372 1091.37 L191.048 1091.37 L191.048 1095.3 L161.372 1095.3 L161.372 1091.37 Z" fill="#000000" fill-rule="nonzero" fill-opacity="1" /><path clip-path="url(#clip890)" d="M205.168 1104.26 L221.488 1104.26 L221.488 1108.19 L199.543 1108.19 L199.543 1104.26 Q202.205 1101.5 206.789 1096.87 Q211.395 1092.22 212.576 1090.88 Q214.821 1088.36 215.701 1086.62 Q216.603 1084.86 216.603 1083.17 Q216.603 1080.42 214.659 1078.68 Q212.738 1076.94 209.636 1076.94 Q207.437 1076.94 204.983 1077.71 Q202.553 1078.47 199.775 1080.02 L199.775 1075.3 Q202.599 1074.17 205.053 1073.59 Q207.506 1073.01 209.543 1073.01 Q214.914 1073.01 218.108 1075.69 Q221.303 1078.38 221.303 1082.87 Q221.303 1085 220.492 1086.92 Q219.705 1088.82 217.599 1091.41 Q217.02 1092.08 213.918 1095.3 Q210.816 1098.49 205.168 1104.26 Z" fill="#000000" fill-rule="nonzero" fill-opacity="1" /><path clip-path="url(#clip890)" d="M241.302 1076.71 Q237.691 1076.71 235.863 1080.28 Q234.057 1083.82 234.057 1090.95 Q234.057 1098.06 235.863 1101.62 Q237.691 1105.16 241.302 1105.16 Q244.937 1105.16 246.742 1101.62 Q248.571 1098.06 248.571 1090.95 Q248.571 1083.82 246.742 1080.28 Q244.937 1076.71 241.302 1076.71 M241.302 1073.01 Q247.113 1073.01 250.168 1077.62 Q253.247 1082.2 253.247 1090.95 Q253.247 1099.68 250.168 1104.28 Q247.113 1108.87 241.302 1108.87 Q235.492 1108.87 232.414 1104.28 Q229.358 1099.68 229.358 1090.95 Q229.358 1082.2 232.414 1077.62 Q235.492 1073.01 241.302 1073.01 Z" fill="#000000" fill-rule="nonzero" fill-opacity="1" /><path clip-path="url(#clip890)" d="M162.368 911.98 L192.043 911.98 L192.043 915.915 L162.368 915.915 L162.368 911.98 Z" fill="#000000" fill-rule="nonzero" fill-opacity="1" /><path clip-path="url(#clip890)" d="M202.946 924.874 L210.585 924.874 L210.585 898.508 L202.275 900.175 L202.275 895.916 L210.539 894.249 L215.215 894.249 L215.215 924.874 L222.853 924.874 L222.853 928.809 L202.946 928.809 L202.946 924.874 Z" fill="#000000" fill-rule="nonzero" fill-opacity="1" /><path clip-path="url(#clip890)" d="M232.344 894.249 L250.701 894.249 L250.701 898.184 L236.627 898.184 L236.627 906.656 Q237.645 906.309 238.664 906.147 Q239.682 905.962 240.701 905.962 Q246.488 905.962 249.867 909.133 Q253.247 912.304 253.247 917.721 Q253.247 923.3 249.775 926.402 Q246.302 929.48 239.983 929.48 Q237.807 929.48 235.539 929.11 Q233.293 928.74 230.886 927.999 L230.886 923.3 Q232.969 924.434 235.191 924.99 Q237.414 925.545 239.89 925.545 Q243.895 925.545 246.233 923.439 Q248.571 921.332 248.571 917.721 Q248.571 914.11 246.233 912.003 Q243.895 909.897 239.89 909.897 Q238.015 909.897 236.14 910.314 Q234.289 910.73 232.344 911.61 L232.344 894.249 Z" fill="#000000" fill-rule="nonzero" fill-opacity="1" /><path clip-path="url(#clip890)" d="M161.372 732.595 L191.048 732.595 L191.048 736.531 L161.372 736.531 L161.372 732.595 Z" fill="#000000" fill-rule="nonzero" fill-opacity="1" /><path clip-path="url(#clip890)" d="M201.951 745.489 L209.59 745.489 L209.59 719.123 L201.279 720.79 L201.279 716.531 L209.543 714.864 L214.219 714.864 L214.219 745.489 L221.858 745.489 L221.858 749.424 L201.951 749.424 L201.951 745.489 Z" fill="#000000" fill-rule="nonzero" fill-opacity="1" /><path clip-path="url(#clip890)" d="M241.302 717.943 Q237.691 717.943 235.863 721.508 Q234.057 725.049 234.057 732.179 Q234.057 739.285 235.863 742.85 Q237.691 746.392 241.302 746.392 Q244.937 746.392 246.742 742.85 Q248.571 739.285 248.571 732.179 Q248.571 725.049 246.742 721.508 Q244.937 717.943 241.302 717.943 M241.302 714.239 Q247.113 714.239 250.168 718.845 Q253.247 723.429 253.247 732.179 Q253.247 740.906 250.168 745.512 Q247.113 750.095 241.302 750.095 Q235.492 750.095 232.414 745.512 Q229.358 740.906 229.358 732.179 Q229.358 723.429 232.414 718.845 Q235.492 714.239 241.302 714.239 Z" fill="#000000" fill-rule="nonzero" fill-opacity="1" /><path clip-path="url(#clip890)" d="M192.53 553.211 L222.205 553.211 L222.205 557.146 L192.53 557.146 L192.53 553.211 Z" fill="#000000" fill-rule="nonzero" fill-opacity="1" /><path clip-path="url(#clip890)" d="M232.344 535.479 L250.701 535.479 L250.701 539.414 L236.627 539.414 L236.627 547.886 Q237.645 547.539 238.664 547.377 Q239.682 547.192 240.701 547.192 Q246.488 547.192 249.867 550.363 Q253.247 553.535 253.247 558.951 Q253.247 564.53 249.775 567.632 Q246.302 570.71 239.983 570.71 Q237.807 570.71 235.539 570.34 Q233.293 569.97 230.886 569.229 L230.886 564.53 Q232.969 565.664 235.191 566.22 Q237.414 566.775 239.89 566.775 Q243.895 566.775 246.233 564.669 Q248.571 562.562 248.571 558.951 Q248.571 555.34 246.233 553.234 Q243.895 551.127 239.89 551.127 Q238.015 551.127 236.14 551.544 Q234.289 551.961 232.344 552.84 L232.344 535.479 Z" fill="#000000" fill-rule="nonzero" fill-opacity="1" /><path clip-path="url(#clip890)" d="M241.302 359.173 Q237.691 359.173 235.863 362.738 Q234.057 366.279 234.057 373.409 Q234.057 380.515 235.863 384.08 Q237.691 387.622 241.302 387.622 Q244.937 387.622 246.742 384.08 Q248.571 380.515 248.571 373.409 Q248.571 366.279 246.742 362.738 Q244.937 359.173 241.302 359.173 M241.302 355.469 Q247.113 355.469 250.168 360.076 Q253.247 364.659 253.247 373.409 Q253.247 382.136 250.168 386.742 Q247.113 391.326 241.302 391.326 Q235.492 391.326 232.414 386.742 Q229.358 382.136 229.358 373.409 Q229.358 364.659 232.414 360.076 Q235.492 355.469 241.302 355.469 Z" fill="#000000" fill-rule="nonzero" fill-opacity="1" /><path clip-path="url(#clip890)" d="M232.344 176.709 L250.701 176.709 L250.701 180.644 L236.627 180.644 L236.627 189.117 Q237.645 188.769 238.664 188.607 Q239.682 188.422 240.701 188.422 Q246.488 188.422 249.867 191.593 Q253.247 194.765 253.247 200.181 Q253.247 205.76 249.775 208.862 Q246.302 211.941 239.983 211.941 Q237.807 211.941 235.539 211.57 Q233.293 211.2 230.886 210.459 L230.886 205.76 Q232.969 206.894 235.191 207.45 Q237.414 208.005 239.89 208.005 Q243.895 208.005 246.233 205.899 Q248.571 203.793 248.571 200.181 Q248.571 196.57 246.233 194.464 Q243.895 192.357 239.89 192.357 Q238.015 192.357 236.14 192.774 Q234.289 193.191 232.344 194.07 L232.344 176.709 Z" fill="#000000" fill-rule="nonzero" fill-opacity="1" /><path clip-path="url(#clip890)" d="M57.9302 1294.82 L81.5788 1303.54 L81.5788 1286.06 L57.9302 1294.82 M51.5963 1298.44 L51.5963 1291.15 L99.1163 1273.04 L99.1163 1279.73 L86.926 1284.06 L86.926 1305.48 L99.1163 1309.81 L99.1163 1316.59 L51.5963 1298.44 Z" fill="#000000" fill-rule="nonzero" fill-opacity="1" /><path clip-path="url(#clip890)" d="M63.4683 1274.38 L63.4683 1268.17 L93.3871 1257.03 L63.4683 1245.89 L63.4683 1239.69 L99.1163 1253.06 L99.1163 1261.01 L63.4683 1274.38 Z" fill="#000000" fill-rule="nonzero" fill-opacity="1" /><path clip-path="url(#clip890)" d="M79.8282 1201.11 L82.6928 1201.11 L82.6928 1228.04 Q88.7402 1227.66 91.923 1224.41 Q95.0741 1221.13 95.0741 1215.31 Q95.0741 1211.93 94.2465 1208.78 Q93.419 1205.6 91.7639 1202.48 L97.3021 1202.48 Q98.6389 1205.63 99.3391 1208.94 Q100.039 1212.25 100.039 1215.66 Q100.039 1224.19 95.0741 1229.18 Q90.1088 1234.15 81.6424 1234.15 Q72.8896 1234.15 67.7652 1229.44 Q62.609 1224.7 62.609 1216.68 Q62.609 1209.48 67.2559 1205.31 Q71.8711 1201.11 79.8282 1201.11 M78.1095 1206.97 Q73.3033 1207.03 70.4388 1209.67 Q67.5742 1212.28 67.5742 1216.61 Q67.5742 1221.51 70.3433 1224.47 Q73.1124 1227.4 78.1413 1227.85 L78.1095 1206.97 Z" fill="#000000" fill-rule="nonzero" fill-opacity="1" /><path clip-path="url(#clip890)" d="M68.9428 1170.84 Q68.3699 1171.83 68.1153 1173.01 Q67.8288 1174.15 67.8288 1175.55 Q67.8288 1180.52 71.0753 1183.19 Q74.29 1185.83 80.3374 1185.83 L99.1163 1185.83 L99.1163 1191.72 L63.4683 1191.72 L63.4683 1185.83 L69.0065 1185.83 Q65.76 1183.99 64.2004 1181.03 Q62.609 1178.07 62.609 1173.83 Q62.609 1173.23 62.7044 1172.5 Q62.7681 1171.77 62.9272 1170.87 L68.9428 1170.84 Z" fill="#000000" fill-rule="nonzero" fill-opacity="1" /><path clip-path="url(#clip890)" d="M81.1968 1148.5 Q81.1968 1155.6 82.8201 1158.33 Q84.4433 1161.07 88.3582 1161.07 Q91.4774 1161.07 93.3235 1159.03 Q95.1377 1156.97 95.1377 1153.43 Q95.1377 1148.56 91.7002 1145.63 Q88.2309 1142.67 82.5018 1142.67 L81.1968 1142.67 L81.1968 1148.5 M78.7779 1136.82 L99.1163 1136.82 L99.1163 1142.67 L93.7054 1142.67 Q96.9519 1144.68 98.5115 1147.67 Q100.039 1150.66 100.039 1154.99 Q100.039 1160.47 96.9838 1163.71 Q93.8964 1166.93 88.7402 1166.93 Q82.7246 1166.93 79.669 1162.92 Q76.6135 1158.88 76.6135 1150.89 L76.6135 1142.67 L76.0406 1142.67 Q71.9984 1142.67 69.8022 1145.35 Q67.5742 1147.99 67.5742 1152.8 Q67.5742 1155.85 68.3063 1158.75 Q69.0383 1161.64 70.5024 1164.32 L65.0916 1164.32 Q63.8503 1161.1 63.2455 1158.08 Q62.609 1155.06 62.609 1152.19 Q62.609 1144.46 66.6194 1140.64 Q70.6297 1136.82 78.7779 1136.82 Z" fill="#000000" fill-rule="nonzero" fill-opacity="1" /><path clip-path="url(#clip890)" d="M80.8785 1101.3 Q74.5128 1101.3 71.0117 1103.94 Q67.5106 1106.55 67.5106 1111.29 Q67.5106 1116 71.0117 1118.64 Q74.5128 1121.25 80.8785 1121.25 Q87.2124 1121.25 90.7136 1118.64 Q94.2147 1116 94.2147 1111.29 Q94.2147 1106.55 90.7136 1103.94 Q87.2124 1101.3 80.8785 1101.3 M94.6921 1095.44 Q103.795 1095.44 108.219 1099.48 Q112.675 1103.53 112.675 1111.86 Q112.675 1114.95 112.198 1117.69 Q111.752 1120.43 110.797 1123 L105.1 1123 Q106.501 1120.43 107.169 1117.91 Q107.837 1115.4 107.837 1112.79 Q107.837 1107.03 104.814 1104.16 Q101.822 1101.3 95.7425 1101.3 L92.8461 1101.3 Q95.9971 1103.11 97.5567 1105.94 Q99.1163 1108.78 99.1163 1112.72 Q99.1163 1119.28 94.1192 1123.29 Q89.1221 1127.3 80.8785 1127.3 Q72.6031 1127.3 67.606 1123.29 Q62.609 1119.28 62.609 1112.72 Q62.609 1108.78 64.1686 1105.94 Q65.7282 1103.11 68.8792 1101.3 L63.4683 1101.3 L63.4683 1095.44 L94.6921 1095.44 Z" fill="#000000" fill-rule="nonzero" fill-opacity="1" /><path clip-path="url(#clip890)" d="M79.8282 1052.89 L82.6928 1052.89 L82.6928 1079.81 Q88.7402 1079.43 91.923 1076.18 Q95.0741 1072.91 95.0741 1067.08 Q95.0741 1063.71 94.2465 1060.56 Q93.419 1057.37 91.7639 1054.26 L97.3021 1054.26 Q98.6389 1057.41 99.3391 1060.72 Q100.039 1064.03 100.039 1067.43 Q100.039 1075.96 95.0741 1080.96 Q90.1088 1085.92 81.6424 1085.92 Q72.8896 1085.92 67.7652 1081.21 Q62.609 1076.47 62.609 1068.45 Q62.609 1061.26 67.2559 1057.09 Q71.8711 1052.89 79.8282 1052.89 M78.1095 1058.74 Q73.3033 1058.81 70.4388 1061.45 Q67.5742 1064.06 67.5742 1068.39 Q67.5742 1073.29 70.3433 1076.25 Q73.1124 1079.18 78.1413 1079.62 L78.1095 1058.74 Z" fill="#000000" fill-rule="nonzero" fill-opacity="1" /><path clip-path="url(#clip890)" d="M51.5963 1022.3 L51.5963 1013.64 L91.3501 992.571 L51.5963 992.571 L51.5963 986.333 L99.1163 986.333 L99.1163 994.99 L59.3624 1016.06 L99.1163 1016.06 L99.1163 1022.3 L51.5963 1022.3 Z" fill="#000000" fill-rule="nonzero" fill-opacity="1" /><path clip-path="url(#clip890)" d="M56.8798 967.109 L74.7356 967.109 L74.7356 959.024 Q74.7356 954.536 72.4121 952.086 Q70.0887 949.635 65.7918 949.635 Q61.5268 949.635 59.2033 952.086 Q56.8798 954.536 56.8798 959.024 L56.8798 967.109 M51.5963 973.538 L51.5963 959.024 Q51.5963 951.035 55.2247 946.961 Q58.8214 942.855 65.7918 942.855 Q72.8259 942.855 76.4225 946.961 Q80.0192 951.035 80.0192 959.024 L80.0192 967.109 L99.1163 967.109 L99.1163 973.538 L51.5963 973.538 Z" fill="#000000" fill-rule="nonzero" fill-opacity="1" /><path clip-path="url(#clip890)" d="M99.1163 921.976 L51.5963 940.118 L51.5963 933.402 L91.6047 918.347 L51.5963 903.261 L51.5963 896.577 L99.1163 914.687 L99.1163 921.976 Z" fill="#000000" fill-rule="nonzero" fill-opacity="1" /><path clip-path="url(#clip890)" d="M56.8798 862.488 L74.7356 862.488 L74.7356 854.404 Q74.7356 849.916 72.4121 847.465 Q70.0887 845.014 65.7918 845.014 Q61.5268 845.014 59.2033 847.465 Q56.8798 849.916 56.8798 854.404 L56.8798 862.488 M51.5963 868.918 L51.5963 854.404 Q51.5963 846.415 55.2247 842.341 Q58.8214 838.235 65.7918 838.235 Q72.8259 838.235 76.4225 842.341 Q80.0192 846.415 80.0192 854.404 L80.0192 862.488 L99.1163 862.488 L99.1163 868.918 L51.5963 868.918 Z" fill="#000000" fill-rule="nonzero" fill-opacity="1" /><path clip-path="url(#clip890)" d="M68.9428 810.353 Q68.3699 811.34 68.1153 812.517 Q67.8288 813.663 67.8288 815.064 Q67.8288 820.029 71.0753 822.703 Q74.29 825.344 80.3374 825.344 L99.1163 825.344 L99.1163 831.233 L63.4683 831.233 L63.4683 825.344 L69.0065 825.344 Q65.76 823.498 64.2004 820.538 Q62.609 817.578 62.609 813.345 Q62.609 812.74 62.7044 812.008 Q62.7681 811.276 62.9272 810.385 L68.9428 810.353 Z" fill="#000000" fill-rule="nonzero" fill-opacity="1" /><path clip-path="url(#clip890)" d="M67.5742 791.829 Q67.5742 796.539 71.2663 799.277 Q74.9266 802.014 81.3241 802.014 Q87.7217 802.014 91.4138 799.309 Q95.0741 796.571 95.0741 791.829 Q95.0741 787.15 91.3819 784.413 Q87.6898 781.676 81.3241 781.676 Q74.9903 781.676 71.2981 784.413 Q67.5742 787.15 67.5742 791.829 M62.609 791.829 Q62.609 784.19 67.5742 779.829 Q72.5395 775.469 81.3241 775.469 Q90.077 775.469 95.0741 779.829 Q100.039 784.19 100.039 791.829 Q100.039 799.5 95.0741 803.86 Q90.077 808.189 81.3241 808.189 Q72.5395 808.189 67.5742 803.86 Q62.609 799.5 62.609 791.829 Z" fill="#000000" fill-rule="nonzero" fill-opacity="1" /><path clip-path="url(#clip890)" d="M49.5911 747.715 L54.4609 747.715 L54.4609 753.316 Q54.4609 756.467 55.734 757.709 Q57.0071 758.918 60.3173 758.918 L63.4683 758.918 L63.4683 749.274 L68.0198 749.274 L68.0198 758.918 L99.1163 758.918 L99.1163 764.806 L68.0198 764.806 L68.0198 770.408 L63.4683 770.408 L63.4683 764.806 L60.9857 764.806 Q55.0338 764.806 52.3283 762.037 Q49.5911 759.268 49.5911 753.253 L49.5911 747.715 Z" fill="#000000" fill-rule="nonzero" fill-opacity="1" /><path clip-path="url(#clip890)" d="M63.4683 742.813 L63.4683 736.956 L99.1163 736.956 L99.1163 742.813 L63.4683 742.813 M49.5911 742.813 L49.5911 736.956 L57.0071 736.956 L57.0071 742.813 L49.5911 742.813 Z" fill="#000000" fill-rule="nonzero" fill-opacity="1" /><path clip-path="url(#clip890)" d="M53.3469 718.91 L63.4683 718.91 L63.4683 706.847 L68.0198 706.847 L68.0198 718.91 L87.3716 718.91 Q91.7321 718.91 92.9734 717.732 Q94.2147 716.523 94.2147 712.862 L94.2147 706.847 L99.1163 706.847 L99.1163 712.862 Q99.1163 719.642 96.6018 722.22 Q94.0555 724.798 87.3716 724.798 L68.0198 724.798 L68.0198 729.095 L63.4683 729.095 L63.4683 724.798 L53.3469 724.798 L53.3469 718.91 Z" fill="#000000" fill-rule="nonzero" fill-opacity="1" /><path clip-path="url(#clip890)" d="M64.5187 676.419 L70.0568 676.419 Q68.7837 678.901 68.1471 681.575 Q67.5106 684.248 67.5106 687.113 Q67.5106 691.473 68.8473 693.67 Q70.1841 695.834 72.8577 695.834 Q74.8948 695.834 76.0724 694.274 Q77.2183 692.715 78.2686 688.004 L78.7142 685.999 Q80.051 679.761 82.5018 677.151 Q84.9208 674.509 89.2813 674.509 Q94.2465 674.509 97.1429 678.456 Q100.039 682.371 100.039 689.245 Q100.039 692.11 99.4664 695.229 Q98.9253 698.317 97.8113 701.754 L91.7639 701.754 Q93.4508 698.508 94.3102 695.357 Q95.1377 692.206 95.1377 689.118 Q95.1377 684.98 93.7373 682.752 Q92.305 680.524 89.7269 680.524 Q87.3397 680.524 86.0666 682.148 Q84.7934 683.739 83.6158 689.182 L83.1384 691.219 Q81.9925 696.662 79.6372 699.081 Q77.2501 701.499 73.1124 701.499 Q68.0835 701.499 65.3462 697.935 Q62.609 694.37 62.609 687.813 Q62.609 684.567 63.0864 681.702 Q63.5638 678.838 64.5187 676.419 Z" fill="#000000" fill-rule="nonzero" fill-opacity="1" /><path clip-path="url(#clip890)" d="M49.5911 645.004 L49.5911 631.509 L54.1426 631.509 L54.1426 639.147 L103.159 639.147 L103.159 631.509 L107.71 631.509 L107.71 645.004 L49.5911 645.004 Z" fill="#000000" fill-rule="nonzero" fill-opacity="1" /><path clip-path="url(#clip890)" d="M51.5963 618.777 L51.5963 609.197 L83.9341 597.07 L51.5963 584.88 L51.5963 575.299 L99.1163 575.299 L99.1163 581.57 L57.3891 581.57 L89.9815 593.824 L89.9815 600.285 L57.3891 612.539 L99.1163 612.539 L99.1163 618.777 L51.5963 618.777 Z" fill="#000000" fill-rule="nonzero" fill-opacity="1" /><path clip-path="url(#clip890)" d="M63.4683 562.791 L63.4683 556.934 L99.1163 556.934 L99.1163 562.791 L63.4683 562.791 M49.5911 562.791 L49.5911 556.934 L57.0071 556.934 L57.0071 562.791 L49.5911 562.791 Z" fill="#000000" fill-rule="nonzero" fill-opacity="1" /><path clip-path="url(#clip890)" d="M49.5911 544.68 L49.5911 538.824 L99.1163 538.824 L99.1163 544.68 L49.5911 544.68 Z" fill="#000000" fill-rule="nonzero" fill-opacity="1" /><path clip-path="url(#clip890)" d="M49.5911 526.57 L49.5911 520.713 L99.1163 520.713 L99.1163 526.57 L49.5911 526.57 Z" fill="#000000" fill-rule="nonzero" fill-opacity="1" /><path clip-path="url(#clip890)" d="M63.4683 508.459 L63.4683 502.603 L99.1163 502.603 L99.1163 508.459 L63.4683 508.459 M49.5911 508.459 L49.5911 502.603 L57.0071 502.603 L57.0071 508.459 L49.5911 508.459 Z" fill="#000000" fill-rule="nonzero" fill-opacity="1" /><path clip-path="url(#clip890)" d="M67.5742 476.535 Q67.5742 481.246 71.2663 483.983 Q74.9266 486.721 81.3241 486.721 Q87.7217 486.721 91.4138 484.015 Q95.0741 481.278 95.0741 476.535 Q95.0741 471.857 91.3819 469.119 Q87.6898 466.382 81.3241 466.382 Q74.9903 466.382 71.2981 469.119 Q67.5742 471.857 67.5742 476.535 M62.609 476.535 Q62.609 468.897 67.5742 464.536 Q72.5395 460.176 81.3241 460.176 Q90.077 460.176 95.0741 464.536 Q100.039 468.897 100.039 476.535 Q100.039 484.206 95.0741 488.567 Q90.077 492.895 81.3241 492.895 Q72.5395 492.895 67.5742 488.567 Q62.609 484.206 62.609 476.535 Z" fill="#000000" fill-rule="nonzero" fill-opacity="1" /><path clip-path="url(#clip890)" d="M77.6002 420.835 L99.1163 420.835 L99.1163 426.692 L77.7912 426.692 Q72.7304 426.692 70.216 428.665 Q67.7015 430.639 67.7015 434.585 Q67.7015 439.328 70.7252 442.065 Q73.7489 444.802 78.9688 444.802 L99.1163 444.802 L99.1163 450.691 L63.4683 450.691 L63.4683 444.802 L69.0065 444.802 Q65.7918 442.702 64.2004 439.869 Q62.609 437.004 62.609 433.28 Q62.609 427.138 66.4284 423.986 Q70.216 420.835 77.6002 420.835 Z" fill="#000000" fill-rule="nonzero" fill-opacity="1" /><path clip-path="url(#clip890)" d="M51.5963 388.911 L51.5963 382.45 L80.4648 382.45 Q88.1036 382.45 91.4774 379.681 Q94.8194 376.912 94.8194 370.706 Q94.8194 364.531 91.4774 361.762 Q88.1036 358.993 80.4648 358.993 L51.5963 358.993 L51.5963 352.531 L81.2605 352.531 Q90.5544 352.531 95.2969 357.147 Q100.039 361.73 100.039 370.706 Q100.039 379.713 95.2969 384.328 Q90.5544 388.911 81.2605 388.911 L51.5963 388.911 Z" fill="#000000" fill-rule="nonzero" fill-opacity="1" /><path clip-path="url(#clip890)" d="M53.1559 311.982 L59.4261 311.982 Q57.6755 315.642 56.8162 318.889 Q55.9568 322.135 55.9568 325.159 Q55.9568 330.411 57.9938 333.275 Q60.0308 336.108 63.7866 336.108 Q66.9376 336.108 68.5609 334.23 Q70.1523 332.32 71.139 327.037 L71.9347 323.154 Q73.3033 315.96 76.7727 312.555 Q80.2101 309.117 86.0029 309.117 Q92.9097 309.117 96.4745 313.764 Q100.039 318.379 100.039 327.323 Q100.039 330.697 99.2754 334.516 Q98.5115 338.304 97.0156 342.378 L90.3953 342.378 Q92.5914 338.463 93.7054 334.707 Q94.8194 330.952 94.8194 327.323 Q94.8194 321.817 92.6551 318.825 Q90.4908 315.833 86.4804 315.833 Q82.9792 315.833 81.0058 317.997 Q79.0325 320.13 78.0458 325.032 L77.2819 328.946 Q75.8496 336.14 72.7941 339.354 Q69.7385 342.569 64.2959 342.569 Q57.9938 342.569 54.3654 338.145 Q50.7369 333.689 50.7369 325.891 Q50.7369 322.549 51.3417 319.08 Q51.9464 315.61 53.1559 311.982 Z" fill="#000000" fill-rule="nonzero" fill-opacity="1" /><path clip-path="url(#clip890)" d="M56.8798 292.662 L93.8327 292.662 L93.8327 284.896 Q93.8327 275.061 89.3768 270.509 Q84.9208 265.926 75.3085 265.926 Q65.76 265.926 61.3358 270.509 Q56.8798 275.061 56.8798 284.896 L56.8798 292.662 M51.5963 299.091 L51.5963 285.882 Q51.5963 272.069 57.3572 265.608 Q63.0864 259.147 75.3085 259.147 Q87.5944 259.147 93.3553 265.64 Q99.1163 272.133 99.1163 285.882 L99.1163 299.091 L51.5963 299.091 Z" fill="#000000" fill-rule="nonzero" fill-opacity="1" /><path clip-path="url(#clip890)" d="M49.5911 235.466 L107.71 235.466 L107.71 248.961 L103.159 248.961 L103.159 241.354 L54.1426 241.354 L54.1426 248.961 L49.5911 248.961 L49.5911 235.466 Z" fill="#000000" fill-rule="nonzero" fill-opacity="1" /><path clip-path="url(#clip890)" d="M537.169 72.576 L514.079 12.096 L522.627 12.096 L541.788 63.0159 L560.989 12.096 L569.496 12.096 L546.446 72.576 L537.169 72.576 Z" fill="#000000" fill-rule="nonzero" fill-opacity="1" /><path clip-path="url(#clip890)" d="M592.181 49.7694 Q583.147 49.7694 579.663 51.8354 Q576.18 53.9013 576.18 58.8839 Q576.18 62.8538 578.772 65.2034 Q581.405 67.5124 585.902 67.5124 Q592.1 67.5124 595.827 63.1374 Q599.594 58.7219 599.594 51.4303 L599.594 49.7694 L592.181 49.7694 M607.048 46.6907 L607.048 72.576 L599.594 72.576 L599.594 65.6895 Q597.042 69.8214 593.234 71.8063 Q589.426 73.7508 583.917 73.7508 Q576.949 73.7508 572.817 69.8619 Q568.726 65.9325 568.726 59.3701 Q568.726 51.7138 573.83 47.825 Q578.975 43.9361 589.143 43.9361 L599.594 43.9361 L599.594 43.2069 Q599.594 38.0623 596.191 35.2672 Q592.829 32.4315 586.712 32.4315 Q582.823 32.4315 579.137 33.3632 Q575.451 34.295 572.048 36.1584 L572.048 29.2718 Q576.139 27.692 579.988 26.9223 Q583.836 26.1121 587.482 26.1121 Q597.325 26.1121 602.186 31.2163 Q607.048 36.3204 607.048 46.6907 Z" fill="#000000" fill-rule="nonzero" fill-opacity="1" /><path clip-path="url(#clip890)" d="M648.691 34.1734 Q647.435 33.4443 645.936 33.1202 Q644.478 32.7556 642.696 32.7556 Q636.376 32.7556 632.973 36.8875 Q629.611 40.9789 629.611 48.6757 L629.611 72.576 L622.117 72.576 L622.117 27.2059 L629.611 27.2059 L629.611 34.2544 Q631.961 30.1225 635.728 28.1376 Q639.495 26.1121 644.883 26.1121 Q645.653 26.1121 646.584 26.2337 Q647.516 26.3147 648.65 26.5172 L648.691 34.1734 Z" fill="#000000" fill-rule="nonzero" fill-opacity="1" /><path clip-path="url(#clip890)" d="M675.386 76.7889 Q672.227 84.8907 669.229 87.3618 Q666.231 89.8329 661.208 89.8329 L655.253 89.8329 L655.253 83.5945 L659.628 83.5945 Q662.707 83.5945 664.408 82.1361 Q666.11 80.6778 668.176 75.2496 L669.513 71.8468 L651.162 27.2059 L659.061 27.2059 L673.239 62.6918 L687.418 27.2059 L695.317 27.2059 L675.386 76.7889 Z" fill="#000000" fill-rule="nonzero" fill-opacity="1" /><path clip-path="url(#clip890)" d="M705.606 27.2059 L713.06 27.2059 L713.06 72.576 L705.606 72.576 L705.606 27.2059 M705.606 9.54393 L713.06 9.54393 L713.06 18.9825 L705.606 18.9825 L705.606 9.54393 Z" fill="#000000" fill-rule="nonzero" fill-opacity="1" /><path clip-path="url(#clip890)" d="M766.37 45.1919 L766.37 72.576 L758.916 72.576 L758.916 45.4349 Q758.916 38.994 756.404 35.7938 Q753.893 32.5936 748.87 32.5936 Q742.834 32.5936 739.35 36.4419 Q735.866 40.2903 735.866 46.9338 L735.866 72.576 L728.372 72.576 L728.372 27.2059 L735.866 27.2059 L735.866 34.2544 Q738.54 30.163 742.145 28.1376 Q745.791 26.1121 750.531 26.1121 Q758.349 26.1121 762.359 30.9732 Q766.37 35.7938 766.37 45.1919 Z" fill="#000000" fill-rule="nonzero" fill-opacity="1" /><path clip-path="url(#clip890)" d="M811.092 49.3643 Q811.092 41.2625 807.729 36.8065 Q804.408 32.3505 798.372 32.3505 Q792.376 32.3505 789.014 36.8065 Q785.692 41.2625 785.692 49.3643 Q785.692 57.4256 789.014 61.8816 Q792.376 66.3376 798.372 66.3376 Q804.408 66.3376 807.729 61.8816 Q811.092 57.4256 811.092 49.3643 M818.545 66.9452 Q818.545 78.5308 813.401 84.1616 Q808.256 89.8329 797.643 89.8329 Q793.713 89.8329 790.229 89.2252 Q786.746 88.6581 783.464 87.4428 L783.464 80.1917 Q786.746 81.9741 789.946 82.8248 Q793.146 83.6755 796.468 83.6755 Q803.8 83.6755 807.446 79.8271 Q811.092 76.0193 811.092 68.282 L811.092 64.5957 Q808.783 68.6061 805.177 70.5911 Q801.572 72.576 796.549 72.576 Q788.204 72.576 783.1 66.2161 Q777.996 59.8562 777.996 49.3643 Q777.996 38.832 783.1 32.472 Q788.204 26.1121 796.549 26.1121 Q801.572 26.1121 805.177 28.0971 Q808.783 30.082 811.092 34.0924 L811.092 27.2059 L818.545 27.2059 L818.545 66.9452 Z" fill="#000000" fill-rule="nonzero" fill-opacity="1" /><path clip-path="url(#clip890)" d="M868.776 18.8205 L868.776 65.8515 L878.661 65.8515 Q891.178 65.8515 896.971 60.1802 Q902.804 54.509 902.804 42.2752 Q902.804 30.1225 896.971 24.4918 Q891.178 18.8205 878.661 18.8205 L868.776 18.8205 M860.594 12.096 L877.405 12.096 Q894.986 12.096 903.209 19.4281 Q911.433 26.7198 911.433 42.2752 Q911.433 57.9117 903.169 65.2439 Q894.905 72.576 877.405 72.576 L860.594 72.576 L860.594 12.096 Z" fill="#000000" fill-rule="nonzero" fill-opacity="1" /><path clip-path="url(#clip890)" d="M962.96 48.0275 L962.96 51.6733 L928.689 51.6733 Q929.175 59.3701 933.307 63.421 Q937.48 67.4314 944.893 67.4314 Q949.187 67.4314 953.197 66.3781 Q957.248 65.3249 961.218 63.2184 L961.218 70.267 Q957.208 71.9684 952.995 72.8596 Q948.782 73.7508 944.447 73.7508 Q933.591 73.7508 927.231 67.4314 Q920.912 61.1119 920.912 50.3365 Q920.912 39.1965 926.907 32.6746 Q932.943 26.1121 943.151 26.1121 Q952.306 26.1121 957.613 32.0264 Q962.96 37.9003 962.96 48.0275 M955.506 45.84 Q955.425 39.7232 952.063 36.0774 Q948.741 32.4315 943.232 32.4315 Q936.994 32.4315 933.226 35.9558 Q929.5 39.4801 928.932 45.8805 L955.506 45.84 Z" fill="#000000" fill-rule="nonzero" fill-opacity="1" /><path clip-path="url(#clip890)" d="M1010.52 35.9153 Q1013.31 30.8922 1017.2 28.5022 Q1021.09 26.1121 1026.36 26.1121 Q1033.45 26.1121 1037.29 31.0947 Q1041.14 36.0368 1041.14 45.1919 L1041.14 72.576 L1033.65 72.576 L1033.65 45.4349 Q1033.65 38.913 1031.34 35.7533 Q1029.03 32.5936 1024.29 32.5936 Q1018.5 32.5936 1015.14 36.4419 Q1011.77 40.2903 1011.77 46.9338 L1011.77 72.576 L1004.28 72.576 L1004.28 45.4349 Q1004.28 38.8725 1001.97 35.7533 Q999.661 32.5936 994.841 32.5936 Q989.129 32.5936 985.767 36.4824 Q982.404 40.3308 982.404 46.9338 L982.404 72.576 L974.91 72.576 L974.91 27.2059 L982.404 27.2059 L982.404 34.2544 Q984.956 30.082 988.521 28.0971 Q992.086 26.1121 996.988 26.1121 Q1001.93 26.1121 1005.37 28.6237 Q1008.86 31.1352 1010.52 35.9153 Z" fill="#000000" fill-rule="nonzero" fill-opacity="1" /><path clip-path="url(#clip890)" d="M1076.63 49.7694 Q1067.59 49.7694 1064.11 51.8354 Q1060.63 53.9013 1060.63 58.8839 Q1060.63 62.8538 1063.22 65.2034 Q1065.85 67.5124 1070.35 67.5124 Q1076.55 67.5124 1080.27 63.1374 Q1084.04 58.7219 1084.04 51.4303 L1084.04 49.7694 L1076.63 49.7694 M1091.5 46.6907 L1091.5 72.576 L1084.04 72.576 L1084.04 65.6895 Q1081.49 69.8214 1077.68 71.8063 Q1073.87 73.7508 1068.36 73.7508 Q1061.4 73.7508 1057.27 69.8619 Q1053.17 65.9325 1053.17 59.3701 Q1053.17 51.7138 1058.28 47.825 Q1063.42 43.9361 1073.59 43.9361 L1084.04 43.9361 L1084.04 43.2069 Q1084.04 38.0623 1080.64 35.2672 Q1077.28 32.4315 1071.16 32.4315 Q1067.27 32.4315 1063.58 33.3632 Q1059.9 34.295 1056.5 36.1584 L1056.5 29.2718 Q1060.59 27.692 1064.44 26.9223 Q1068.28 26.1121 1071.93 26.1121 Q1081.77 26.1121 1086.63 31.2163 Q1091.5 36.3204 1091.5 46.6907 Z" fill="#000000" fill-rule="nonzero" fill-opacity="1" /><path clip-path="url(#clip890)" d="M1144.56 45.1919 L1144.56 72.576 L1137.11 72.576 L1137.11 45.4349 Q1137.11 38.994 1134.6 35.7938 Q1132.09 32.5936 1127.06 32.5936 Q1121.03 32.5936 1117.54 36.4419 Q1114.06 40.2903 1114.06 46.9338 L1114.06 72.576 L1106.56 72.576 L1106.56 27.2059 L1114.06 27.2059 L1114.06 34.2544 Q1116.73 30.163 1120.34 28.1376 Q1123.98 26.1121 1128.72 26.1121 Q1136.54 26.1121 1140.55 30.9732 Q1144.56 35.7938 1144.56 45.1919 Z" fill="#000000" fill-rule="nonzero" fill-opacity="1" /><path clip-path="url(#clip890)" d="M1189.28 34.0924 L1189.28 9.54393 L1196.74 9.54393 L1196.74 72.576 L1189.28 72.576 L1189.28 65.7705 Q1186.93 69.8214 1183.33 71.8063 Q1179.76 73.7508 1174.74 73.7508 Q1166.52 73.7508 1161.33 67.1883 Q1156.19 60.6258 1156.19 49.9314 Q1156.19 39.2371 1161.33 32.6746 Q1166.52 26.1121 1174.74 26.1121 Q1179.76 26.1121 1183.33 28.0971 Q1186.93 30.0415 1189.28 34.0924 M1163.88 49.9314 Q1163.88 58.1548 1167.25 62.8538 Q1170.65 67.5124 1176.56 67.5124 Q1182.48 67.5124 1185.88 62.8538 Q1189.28 58.1548 1189.28 49.9314 Q1189.28 41.7081 1185.88 37.0496 Q1182.48 32.3505 1176.56 32.3505 Q1170.65 32.3505 1167.25 37.0496 Q1163.88 41.7081 1163.88 49.9314 Z" fill="#000000" fill-rule="nonzero" fill-opacity="1" /><path clip-path="url(#clip890)" d="M1280.02 63.9476 L1280.02 47.7034 L1266.66 47.7034 L1266.66 40.9789 L1288.13 40.9789 L1288.13 66.9452 Q1283.39 70.3075 1277.67 72.0494 Q1271.96 73.7508 1265.48 73.7508 Q1251.3 73.7508 1243.28 65.4869 Q1235.3 57.1826 1235.3 42.3968 Q1235.3 27.5705 1243.28 19.3066 Q1251.3 11.0023 1265.48 11.0023 Q1271.4 11.0023 1276.7 12.4606 Q1282.05 13.9189 1286.55 16.7545 L1286.55 25.464 Q1282.01 21.6156 1276.91 19.6712 Q1271.8 17.7268 1266.17 17.7268 Q1255.07 17.7268 1249.48 23.9246 Q1243.93 30.1225 1243.93 42.3968 Q1243.93 54.6305 1249.48 60.8284 Q1255.07 67.0263 1266.17 67.0263 Q1270.5 67.0263 1273.91 66.2971 Q1277.31 65.5274 1280.02 63.9476 Z" fill="#000000" fill-rule="nonzero" fill-opacity="1" /><path clip-path="url(#clip890)" d="M1329.04 34.1734 Q1327.78 33.4443 1326.29 33.1202 Q1324.83 32.7556 1323.04 32.7556 Q1316.73 32.7556 1313.32 36.8875 Q1309.96 40.9789 1309.96 48.6757 L1309.96 72.576 L1302.47 72.576 L1302.47 27.2059 L1309.96 27.2059 L1309.96 34.2544 Q1312.31 30.1225 1316.08 28.1376 Q1319.84 26.1121 1325.23 26.1121 Q1326 26.1121 1326.93 26.2337 Q1327.87 26.3147 1329 26.5172 L1329.04 34.1734 Z" fill="#000000" fill-rule="nonzero" fill-opacity="1" /><path clip-path="url(#clip890)" d="M1352.62 32.4315 Q1346.62 32.4315 1343.14 37.1306 Q1339.65 41.7891 1339.65 49.9314 Q1339.65 58.0738 1343.1 62.7728 Q1346.58 67.4314 1352.62 67.4314 Q1358.57 67.4314 1362.06 62.7323 Q1365.54 58.0333 1365.54 49.9314 Q1365.54 41.8701 1362.06 37.1711 Q1358.57 32.4315 1352.62 32.4315 M1352.62 26.1121 Q1362.34 26.1121 1367.89 32.4315 Q1373.44 38.7509 1373.44 49.9314 Q1373.44 61.0714 1367.89 67.4314 Q1362.34 73.7508 1352.62 73.7508 Q1342.85 73.7508 1337.3 67.4314 Q1331.79 61.0714 1331.79 49.9314 Q1331.79 38.7509 1337.3 32.4315 Q1342.85 26.1121 1352.62 26.1121 Z" fill="#000000" fill-rule="nonzero" fill-opacity="1" /><path clip-path="url(#clip890)" d="M1381.46 27.2059 L1388.91 27.2059 L1398.23 62.6108 L1407.51 27.2059 L1416.3 27.2059 L1425.61 62.6108 L1434.89 27.2059 L1442.34 27.2059 L1430.47 72.576 L1421.68 72.576 L1411.92 35.3887 L1402.12 72.576 L1393.33 72.576 L1381.46 27.2059 Z" fill="#000000" fill-rule="nonzero" fill-opacity="1" /><path clip-path="url(#clip890)" d="M1461.02 14.324 L1461.02 27.2059 L1476.37 27.2059 L1476.37 32.9987 L1461.02 32.9987 L1461.02 57.6282 Q1461.02 63.1779 1462.52 64.7578 Q1464.06 66.3376 1468.72 66.3376 L1476.37 66.3376 L1476.37 72.576 L1468.72 72.576 Q1460.09 72.576 1456.81 69.3758 Q1453.52 66.1351 1453.52 57.6282 L1453.52 32.9987 L1448.06 32.9987 L1448.06 27.2059 L1453.52 27.2059 L1453.52 14.324 L1461.02 14.324 Z" fill="#000000" fill-rule="nonzero" fill-opacity="1" /><path clip-path="url(#clip890)" d="M1523.89 45.1919 L1523.89 72.576 L1516.44 72.576 L1516.44 45.4349 Q1516.44 38.994 1513.92 35.7938 Q1511.41 32.5936 1506.39 32.5936 Q1500.35 32.5936 1496.87 36.4419 Q1493.39 40.2903 1493.39 46.9338 L1493.39 72.576 L1485.89 72.576 L1485.89 9.54393 L1493.39 9.54393 L1493.39 34.2544 Q1496.06 30.163 1499.66 28.1376 Q1503.31 26.1121 1508.05 26.1121 Q1515.87 26.1121 1519.88 30.9732 Q1523.89 35.7938 1523.89 45.1919 Z" fill="#000000" fill-rule="nonzero" fill-opacity="1" /><path clip-path="url(#clip890)" d="M1540.66 62.2867 L1549.21 62.2867 L1549.21 69.2543 L1542.56 82.2172 L1537.34 82.2172 L1540.66 69.2543 L1540.66 62.2867 Z" fill="#000000" fill-rule="nonzero" fill-opacity="1" /><path clip-path="url(#clip890)" d="M1612.04 20.1573 L1600.94 50.2555 L1623.18 50.2555 L1612.04 20.1573 M1607.42 12.096 L1616.69 12.096 L1639.74 72.576 L1631.24 72.576 L1625.73 57.061 L1598.47 57.061 L1592.96 72.576 L1584.33 72.576 L1607.42 12.096 Z" fill="#000000" fill-rule="nonzero" fill-opacity="1" /><path clip-path="url(#clip890)" d="M1638.04 27.2059 L1645.94 27.2059 L1660.12 65.2844 L1674.3 27.2059 L1682.2 27.2059 L1665.18 72.576 L1655.06 72.576 L1638.04 27.2059 Z" fill="#000000" fill-rule="nonzero" fill-opacity="1" /><path clip-path="url(#clip890)" d="M1731.3 48.0275 L1731.3 51.6733 L1697.02 51.6733 Q1697.51 59.3701 1701.64 63.421 Q1705.81 67.4314 1713.23 67.4314 Q1717.52 67.4314 1721.53 66.3781 Q1725.58 65.3249 1729.55 63.2184 L1729.55 70.267 Q1725.54 71.9684 1721.33 72.8596 Q1717.12 73.7508 1712.78 73.7508 Q1701.93 73.7508 1695.57 67.4314 Q1689.25 61.1119 1689.25 50.3365 Q1689.25 39.1965 1695.24 32.6746 Q1701.28 26.1121 1711.49 26.1121 Q1720.64 26.1121 1725.95 32.0264 Q1731.3 37.9003 1731.3 48.0275 M1723.84 45.84 Q1723.76 39.7232 1720.4 36.0774 Q1717.08 32.4315 1711.57 32.4315 Q1705.33 32.4315 1701.56 35.9558 Q1697.83 39.4801 1697.27 45.8805 L1723.84 45.84 Z" fill="#000000" fill-rule="nonzero" fill-opacity="1" /><path clip-path="url(#clip890)" d="M1769.82 34.1734 Q1768.56 33.4443 1767.06 33.1202 Q1765.61 32.7556 1763.82 32.7556 Q1757.5 32.7556 1754.1 36.8875 Q1750.74 40.9789 1750.74 48.6757 L1750.74 72.576 L1743.25 72.576 L1743.25 27.2059 L1750.74 27.2059 L1750.74 34.2544 Q1753.09 30.1225 1756.86 28.1376 Q1760.62 26.1121 1766.01 26.1121 Q1766.78 26.1121 1767.71 26.2337 Q1768.64 26.3147 1769.78 26.5172 L1769.82 34.1734 Z" fill="#000000" fill-rule="nonzero" fill-opacity="1" /><path clip-path="url(#clip890)" d="M1798.26 49.7694 Q1789.22 49.7694 1785.74 51.8354 Q1782.26 53.9013 1782.26 58.8839 Q1782.26 62.8538 1784.85 65.2034 Q1787.48 67.5124 1791.98 67.5124 Q1798.18 67.5124 1801.9 63.1374 Q1805.67 58.7219 1805.67 51.4303 L1805.67 49.7694 L1798.26 49.7694 M1813.12 46.6907 L1813.12 72.576 L1805.67 72.576 L1805.67 65.6895 Q1803.12 69.8214 1799.31 71.8063 Q1795.5 73.7508 1789.99 73.7508 Q1783.03 73.7508 1778.89 69.8619 Q1774.8 65.9325 1774.8 59.3701 Q1774.8 51.7138 1779.91 47.825 Q1785.05 43.9361 1795.22 43.9361 L1805.67 43.9361 L1805.67 43.2069 Q1805.67 38.0623 1802.27 35.2672 Q1798.9 32.4315 1792.79 32.4315 Q1788.9 32.4315 1785.21 33.3632 Q1781.53 34.295 1778.12 36.1584 L1778.12 29.2718 Q1782.21 27.692 1786.06 26.9223 Q1789.91 26.1121 1793.56 26.1121 Q1803.4 26.1121 1808.26 31.2163 Q1813.12 36.3204 1813.12 46.6907 Z" fill="#000000" fill-rule="nonzero" fill-opacity="1" /><path clip-path="url(#clip890)" d="M1858.33 49.3643 Q1858.33 41.2625 1854.97 36.8065 Q1851.65 32.3505 1845.61 32.3505 Q1839.62 32.3505 1836.25 36.8065 Q1832.93 41.2625 1832.93 49.3643 Q1832.93 57.4256 1836.25 61.8816 Q1839.62 66.3376 1845.61 66.3376 Q1851.65 66.3376 1854.97 61.8816 Q1858.33 57.4256 1858.33 49.3643 M1865.79 66.9452 Q1865.79 78.5308 1860.64 84.1616 Q1855.5 89.8329 1844.88 89.8329 Q1840.95 89.8329 1837.47 89.2252 Q1833.99 88.6581 1830.7 87.4428 L1830.7 80.1917 Q1833.99 81.9741 1837.19 82.8248 Q1840.39 83.6755 1843.71 83.6755 Q1851.04 83.6755 1854.69 79.8271 Q1858.33 76.0193 1858.33 68.282 L1858.33 64.5957 Q1856.02 68.6061 1852.42 70.5911 Q1848.81 72.576 1843.79 72.576 Q1835.44 72.576 1830.34 66.2161 Q1825.24 59.8562 1825.24 49.3643 Q1825.24 38.832 1830.34 32.472 Q1835.44 26.1121 1843.79 26.1121 Q1848.81 26.1121 1852.42 28.0971 Q1856.02 30.082 1858.33 34.0924 L1858.33 27.2059 L1865.79 27.2059 L1865.79 66.9452 Z" fill="#000000" fill-rule="nonzero" fill-opacity="1" /><path clip-path="url(#clip890)" d="M1919.95 48.0275 L1919.95 51.6733 L1885.67 51.6733 Q1886.16 59.3701 1890.29 63.421 Q1894.47 67.4314 1901.88 67.4314 Q1906.17 67.4314 1910.18 66.3781 Q1914.23 65.3249 1918.2 63.2184 L1918.2 70.267 Q1914.19 71.9684 1909.98 72.8596 Q1905.77 73.7508 1901.43 73.7508 Q1890.58 73.7508 1884.22 67.4314 Q1877.9 61.1119 1877.9 50.3365 Q1877.9 39.1965 1883.89 32.6746 Q1889.93 26.1121 1900.14 26.1121 Q1909.29 26.1121 1914.6 32.0264 Q1919.95 37.9003 1919.95 48.0275 M1912.49 45.84 Q1912.41 39.7232 1909.05 36.0774 Q1905.73 32.4315 1900.22 32.4315 Q1893.98 32.4315 1890.21 35.9558 Q1886.49 39.4801 1885.92 45.8805 L1912.49 45.84 Z" fill="#000000" fill-rule="nonzero" fill-opacity="1" /><path clip-path="url(#clip890)" d="M1967.06 18.8205 L1967.06 41.5461 L1977.35 41.5461 Q1983.06 41.5461 1986.18 38.5889 Q1989.3 35.6318 1989.3 30.163 Q1989.3 24.7348 1986.18 21.7777 Q1983.06 18.8205 1977.35 18.8205 L1967.06 18.8205 M1958.87 12.096 L1977.35 12.096 Q1987.51 12.096 1992.7 16.714 Q1997.93 21.2916 1997.93 30.163 Q1997.93 39.1155 1992.7 43.6931 Q1987.51 48.2706 1977.35 48.2706 L1967.06 48.2706 L1967.06 72.576 L1958.87 72.576 L1958.87 12.096 Z" fill="#000000" fill-rule="nonzero" fill-opacity="1" /><path clip-path="url(#clip890)" d="M2033.41 34.1734 Q2032.16 33.4443 2030.66 33.1202 Q2029.2 32.7556 2027.42 32.7556 Q2021.1 32.7556 2017.69 36.8875 Q2014.33 40.9789 2014.33 48.6757 L2014.33 72.576 L2006.84 72.576 L2006.84 27.2059 L2014.33 27.2059 L2014.33 34.2544 Q2016.68 30.1225 2020.45 28.1376 Q2024.22 26.1121 2029.6 26.1121 Q2030.37 26.1121 2031.3 26.2337 Q2032.24 26.3147 2033.37 26.5172 L2033.41 34.1734 Z" fill="#000000" fill-rule="nonzero" fill-opacity="1" /><path clip-path="url(#clip890)" d="M2056.99 32.4315 Q2050.99 32.4315 2047.51 37.1306 Q2044.02 41.7891 2044.02 49.9314 Q2044.02 58.0738 2047.47 62.7728 Q2050.95 67.4314 2056.99 67.4314 Q2062.94 67.4314 2066.43 62.7323 Q2069.91 58.0333 2069.91 49.9314 Q2069.91 41.8701 2066.43 37.1711 Q2062.94 32.4315 2056.99 32.4315 M2056.99 26.1121 Q2066.71 26.1121 2072.26 32.4315 Q2077.81 38.7509 2077.81 49.9314 Q2077.81 61.0714 2072.26 67.4314 Q2066.71 73.7508 2056.99 73.7508 Q2047.23 73.7508 2041.68 67.4314 Q2036.17 61.0714 2036.17 49.9314 Q2036.17 38.7509 2041.68 32.4315 Q2047.23 26.1121 2056.99 26.1121 Z" fill="#000000" fill-rule="nonzero" fill-opacity="1" /><path clip-path="url(#clip890)" d="M2113.13 9.54393 L2113.13 15.7418 L2106 15.7418 Q2101.99 15.7418 2100.41 17.3622 Q2098.87 18.9825 2098.87 23.1955 L2098.87 27.2059 L2111.15 27.2059 L2111.15 32.9987 L2098.87 32.9987 L2098.87 72.576 L2091.38 72.576 L2091.38 32.9987 L2084.25 32.9987 L2084.25 27.2059 L2091.38 27.2059 L2091.38 24.0462 Q2091.38 16.471 2094.9 13.0277 Q2098.43 9.54393 2106.08 9.54393 L2113.13 9.54393 Z" fill="#000000" fill-rule="nonzero" fill-opacity="1" /><path clip-path="url(#clip890)" d="M2119.37 27.2059 L2126.83 27.2059 L2126.83 72.576 L2119.37 72.576 L2119.37 27.2059 M2119.37 9.54393 L2126.83 9.54393 L2126.83 18.9825 L2119.37 18.9825 L2119.37 9.54393 Z" fill="#000000" fill-rule="nonzero" fill-opacity="1" /><path clip-path="url(#clip890)" d="M2149.79 14.324 L2149.79 27.2059 L2165.15 27.2059 L2165.15 32.9987 L2149.79 32.9987 L2149.79 57.6282 Q2149.79 63.1779 2151.29 64.7578 Q2152.83 66.3376 2157.49 66.3376 L2165.15 66.3376 L2165.15 72.576 L2157.49 72.576 Q2148.86 72.576 2145.58 69.3758 Q2142.3 66.1351 2142.3 57.6282 L2142.3 32.9987 L2136.83 32.9987 L2136.83 27.2059 L2142.3 27.2059 L2142.3 14.324 L2149.79 14.324 Z" fill="#000000" fill-rule="nonzero" fill-opacity="1" /><path clip-path="url(#clip890)" d="M2203.87 28.5427 L2203.87 35.5912 Q2200.71 33.9709 2197.31 33.1607 Q2193.91 32.3505 2190.26 32.3505 Q2184.71 32.3505 2181.92 34.0519 Q2179.16 35.7533 2179.16 39.156 Q2179.16 41.7486 2181.15 43.2475 Q2183.13 44.7058 2189.13 46.0426 L2191.68 46.6097 Q2199.62 48.3111 2202.94 51.4303 Q2206.3 54.509 2206.3 60.0587 Q2206.3 66.3781 2201.28 70.0644 Q2196.3 73.7508 2187.55 73.7508 Q2183.9 73.7508 2179.93 73.0216 Q2176 72.3329 2171.63 70.9151 L2171.63 63.2184 Q2175.76 65.3654 2179.77 66.4591 Q2183.78 67.5124 2187.71 67.5124 Q2192.98 67.5124 2195.81 65.73 Q2198.65 63.9071 2198.65 60.6258 Q2198.65 57.5877 2196.58 55.9673 Q2194.56 54.3469 2187.63 52.8481 L2185.04 52.2405 Q2178.11 50.7821 2175.03 47.7845 Q2171.95 44.7463 2171.95 39.4801 Q2171.95 33.0797 2176.49 29.5959 Q2181.03 26.1121 2189.37 26.1121 Q2193.5 26.1121 2197.15 26.7198 Q2200.79 27.3274 2203.87 28.5427 Z" fill="#000000" fill-rule="nonzero" fill-opacity="1" /><path clip-path="url(#clip890)" d="M2267.51 9.54393 L2267.51 15.7418 L2260.38 15.7418 Q2256.37 15.7418 2254.79 17.3622 Q2253.25 18.9825 2253.25 23.1955 L2253.25 27.2059 L2265.53 27.2059 L2265.53 32.9987 L2253.25 32.9987 L2253.25 72.576 L2245.76 72.576 L2245.76 32.9987 L2238.63 32.9987 L2238.63 27.2059 L2245.76 27.2059 L2245.76 24.0462 Q2245.76 16.471 2249.28 13.0277 Q2252.81 9.54393 2260.46 9.54393 L2267.51 9.54393 Z" fill="#000000" fill-rule="nonzero" fill-opacity="1" /><path clip-path="url(#clip890)" d="M2291.33 32.4315 Q2285.34 32.4315 2281.85 37.1306 Q2278.37 41.7891 2278.37 49.9314 Q2278.37 58.0738 2281.81 62.7728 Q2285.3 67.4314 2291.33 67.4314 Q2297.29 67.4314 2300.77 62.7323 Q2304.25 58.0333 2304.25 49.9314 Q2304.25 41.8701 2300.77 37.1711 Q2297.29 32.4315 2291.33 32.4315 M2291.33 26.1121 Q2301.05 26.1121 2306.6 32.4315 Q2312.15 38.7509 2312.15 49.9314 Q2312.15 61.0714 2306.6 67.4314 Q2301.05 73.7508 2291.33 73.7508 Q2281.57 73.7508 2276.02 67.4314 Q2270.51 61.0714 2270.51 49.9314 Q2270.51 38.7509 2276.02 32.4315 Q2281.57 26.1121 2291.33 26.1121 Z" fill="#000000" fill-rule="nonzero" fill-opacity="1" /><path clip-path="url(#clip890)" d="M2350.8 34.1734 Q2349.54 33.4443 2348.05 33.1202 Q2346.59 32.7556 2344.8 32.7556 Q2338.49 32.7556 2335.08 36.8875 Q2331.72 40.9789 2331.72 48.6757 L2331.72 72.576 L2324.23 72.576 L2324.23 27.2059 L2331.72 27.2059 L2331.72 34.2544 Q2334.07 30.1225 2337.84 28.1376 Q2341.6 26.1121 2346.99 26.1121 Q2347.76 26.1121 2348.69 26.2337 Q2349.63 26.3147 2350.76 26.5172 L2350.8 34.1734 Z" fill="#000000" fill-rule="nonzero" fill-opacity="1" /><path clip-path="url(#clip890)" d="M2421.57 14.0809 L2421.57 22.0612 Q2416.91 19.8332 2412.78 18.7395 Q2408.65 17.6457 2404.8 17.6457 Q2398.11 17.6457 2394.47 20.2383 Q2390.86 22.8309 2390.86 27.611 Q2390.86 31.6214 2393.25 33.6873 Q2395.68 35.7128 2402.41 36.9686 L2407.35 37.9813 Q2416.51 39.7232 2420.84 44.1387 Q2425.21 48.5136 2425.21 55.8863 Q2425.21 64.6767 2419.3 69.2137 Q2413.43 73.7508 2402.04 73.7508 Q2397.75 73.7508 2392.89 72.7785 Q2388.07 71.8063 2382.88 69.9024 L2382.88 61.4765 Q2387.87 64.2716 2392.65 65.6895 Q2397.43 67.1073 2402.04 67.1073 Q2409.05 67.1073 2412.86 64.3527 Q2416.67 61.598 2416.67 56.4939 Q2416.67 52.0379 2413.91 49.5264 Q2411.2 47.0148 2404.96 45.759 L2399.98 44.7868 Q2390.82 42.9639 2386.73 39.075 Q2382.64 35.1862 2382.64 28.2591 Q2382.64 20.2383 2388.27 15.6203 Q2393.94 11.0023 2403.87 11.0023 Q2408.12 11.0023 2412.54 11.7719 Q2416.95 12.5416 2421.57 14.0809 Z" fill="#000000" fill-rule="nonzero" fill-opacity="1" /><path clip-path="url(#clip890)" d="M2445.02 14.324 L2445.02 27.2059 L2460.38 27.2059 L2460.38 32.9987 L2445.02 32.9987 L2445.02 57.6282 Q2445.02 63.1779 2446.52 64.7578 Q2448.06 66.3376 2452.72 66.3376 L2460.38 66.3376 L2460.38 72.576 L2452.72 72.576 Q2444.09 72.576 2440.81 69.3758 Q2437.53 66.1351 2437.53 57.6282 L2437.53 32.9987 L2432.06 32.9987 L2432.06 27.2059 L2437.53 27.2059 L2437.53 14.324 L2445.02 14.324 Z" fill="#000000" fill-rule="nonzero" fill-opacity="1" /><path clip-path="url(#clip890)" d="M2490.8 49.7694 Q2481.77 49.7694 2478.28 51.8354 Q2474.8 53.9013 2474.8 58.8839 Q2474.8 62.8538 2477.39 65.2034 Q2480.02 67.5124 2484.52 67.5124 Q2490.72 67.5124 2494.44 63.1374 Q2498.21 58.7219 2498.21 51.4303 L2498.21 49.7694 L2490.8 49.7694 M2505.67 46.6907 L2505.67 72.576 L2498.21 72.576 L2498.21 65.6895 Q2495.66 69.8214 2491.85 71.8063 Q2488.04 73.7508 2482.54 73.7508 Q2475.57 73.7508 2471.44 69.8619 Q2467.34 65.9325 2467.34 59.3701 Q2467.34 51.7138 2472.45 47.825 Q2477.59 43.9361 2487.76 43.9361 L2498.21 43.9361 L2498.21 43.2069 Q2498.21 38.0623 2494.81 35.2672 Q2491.45 32.4315 2485.33 32.4315 Q2481.44 32.4315 2477.76 33.3632 Q2474.07 34.295 2470.67 36.1584 L2470.67 29.2718 Q2474.76 27.692 2478.61 26.9223 Q2482.45 26.1121 2486.1 26.1121 Q2495.94 26.1121 2500.8 31.2163 Q2505.67 36.3204 2505.67 46.6907 Z" fill="#000000" fill-rule="nonzero" fill-opacity="1" /><path clip-path="url(#clip890)" d="M2528.39 14.324 L2528.39 27.2059 L2543.74 27.2059 L2543.74 32.9987 L2528.39 32.9987 L2528.39 57.6282 Q2528.39 63.1779 2529.89 64.7578 Q2531.43 66.3376 2536.09 66.3376 L2543.74 66.3376 L2543.74 72.576 L2536.09 72.576 Q2527.46 72.576 2524.18 69.3758 Q2520.9 66.1351 2520.9 57.6282 L2520.9 32.9987 L2515.43 32.9987 L2515.43 27.2059 L2520.9 27.2059 L2520.9 14.324 L2528.39 14.324 Z" fill="#000000" fill-rule="nonzero" fill-opacity="1" /><path clip-path="url(#clip890)" d="M2553.55 27.2059 L2561 27.2059 L2561 72.576 L2553.55 72.576 L2553.55 27.2059 M2553.55 9.54393 L2561 9.54393 L2561 18.9825 L2553.55 18.9825 L2553.55 9.54393 Z" fill="#000000" fill-rule="nonzero" fill-opacity="1" /><path clip-path="url(#clip890)" d="M2609.25 28.9478 L2609.25 35.9153 Q2606.09 34.1734 2602.89 33.3227 Q2599.73 32.4315 2596.49 32.4315 Q2589.24 32.4315 2585.23 37.0496 Q2581.22 41.6271 2581.22 49.9314 Q2581.22 58.2358 2585.23 62.8538 Q2589.24 67.4314 2596.49 67.4314 Q2599.73 67.4314 2602.89 66.5807 Q2606.09 65.6895 2609.25 63.9476 L2609.25 70.8341 Q2606.13 72.2924 2602.77 73.0216 Q2599.44 73.7508 2595.68 73.7508 Q2585.43 73.7508 2579.39 67.3098 Q2573.36 60.8689 2573.36 49.9314 Q2573.36 38.832 2579.43 32.472 Q2585.55 26.1121 2596.16 26.1121 Q2599.61 26.1121 2602.89 26.8413 Q2606.17 27.5299 2609.25 28.9478 Z" fill="#000000" fill-rule="nonzero" fill-opacity="1" /><path clip-path="url(#clip890)" d="M2657.09 18.8205 L2657.09 41.5461 L2667.38 41.5461 Q2673.09 41.5461 2676.21 38.5889 Q2679.33 35.6318 2679.33 30.163 Q2679.33 24.7348 2676.21 21.7777 Q2673.09 18.8205 2667.38 18.8205 L2657.09 18.8205 M2648.91 12.096 L2667.38 12.096 Q2677.55 12.096 2682.73 16.714 Q2687.96 21.2916 2687.96 30.163 Q2687.96 39.1155 2682.73 43.6931 Q2677.55 48.2706 2667.38 48.2706 L2657.09 48.2706 L2657.09 72.576 L2648.91 72.576 L2648.91 12.096 Z" fill="#000000" fill-rule="nonzero" fill-opacity="1" /><path clip-path="url(#clip890)" d="M2713.23 32.4315 Q2707.24 32.4315 2703.76 37.1306 Q2700.27 41.7891 2700.27 49.9314 Q2700.27 58.0738 2703.71 62.7728 Q2707.2 67.4314 2713.23 67.4314 Q2719.19 67.4314 2722.67 62.7323 Q2726.16 58.0333 2726.16 49.9314 Q2726.16 41.8701 2722.67 37.1711 Q2719.19 32.4315 2713.23 32.4315 M2713.23 26.1121 Q2722.96 26.1121 2728.51 32.4315 Q2734.06 38.7509 2734.06 49.9314 Q2734.06 61.0714 2728.51 67.4314 Q2722.96 73.7508 2713.23 73.7508 Q2703.47 73.7508 2697.92 67.4314 Q2692.41 61.0714 2692.41 49.9314 Q2692.41 38.7509 2697.92 32.4315 Q2703.47 26.1121 2713.23 26.1121 Z" fill="#000000" fill-rule="nonzero" fill-opacity="1" /><path clip-path="url(#clip890)" d="M2746.41 9.54393 L2753.86 9.54393 L2753.86 72.576 L2746.41 72.576 L2746.41 9.54393 Z" fill="#000000" fill-rule="nonzero" fill-opacity="1" /><path clip-path="url(#clip890)" d="M2769.46 27.2059 L2776.91 27.2059 L2776.91 72.576 L2769.46 72.576 L2769.46 27.2059 M2769.46 9.54393 L2776.91 9.54393 L2776.91 18.9825 L2769.46 18.9825 L2769.46 9.54393 Z" fill="#000000" fill-rule="nonzero" fill-opacity="1" /><path clip-path="url(#clip890)" d="M2825.16 28.9478 L2825.16 35.9153 Q2822 34.1734 2818.8 33.3227 Q2815.64 32.4315 2812.4 32.4315 Q2805.15 32.4315 2801.14 37.0496 Q2797.13 41.6271 2797.13 49.9314 Q2797.13 58.2358 2801.14 62.8538 Q2805.15 67.4314 2812.4 67.4314 Q2815.64 67.4314 2818.8 66.5807 Q2822 65.6895 2825.16 63.9476 L2825.16 70.8341 Q2822.04 72.2924 2818.68 73.0216 Q2815.36 73.7508 2811.59 73.7508 Q2801.34 73.7508 2795.31 67.3098 Q2789.27 60.8689 2789.27 49.9314 Q2789.27 38.832 2795.35 32.472 Q2801.46 26.1121 2812.08 26.1121 Q2815.52 26.1121 2818.8 26.8413 Q2822.08 27.5299 2825.16 28.9478 Z" fill="#000000" fill-rule="nonzero" fill-opacity="1" /><path clip-path="url(#clip890)" d="M2857 76.7889 Q2853.84 84.8907 2850.84 87.3618 Q2847.85 89.8329 2842.82 89.8329 L2836.87 89.8329 L2836.87 83.5945 L2841.24 83.5945 Q2844.32 83.5945 2846.02 82.1361 Q2847.72 80.6778 2849.79 75.2496 L2851.13 71.8468 L2832.78 27.2059 L2840.68 27.2059 L2854.85 62.6918 L2869.03 27.2059 L2876.93 27.2059 L2857 76.7889 Z" fill="#000000" fill-rule="nonzero" fill-opacity="1" /><polyline clip-path="url(#clip892)" style="stroke:#009af9; stroke-linecap:round; stroke-linejoin:round; stroke-width:4; stroke-opacity:1; fill:none" points="380.167,1346.48 643.235,937.334 906.302,548.021 1169.37,311.206 1432.44,209.949 1695.51,205.572 1958.57,270.581 2221.64,385.553 2484.71,536.949 2747.78,713.946 3010.84,905.33 "/>
<circle clip-path="url(#clip892)" cx="380.167" cy="1346.48" r="14.4" fill="#009af9" fill-rule="evenodd" fill-opacity="1" stroke="#000000" stroke-opacity="1" stroke-width="3.2"/>
<circle clip-path="url(#clip892)" cx="643.235" cy="937.334" r="14.4" fill="#009af9" fill-rule="evenodd" fill-opacity="1" stroke="#000000" stroke-opacity="1" stroke-width="3.2"/>
<circle clip-path="url(#clip892)" cx="906.302" cy="548.021" r="14.4" fill="#009af9" fill-rule="evenodd" fill-opacity="1" stroke="#000000" stroke-opacity="1" stroke-width="3.2"/>
<circle clip-path="url(#clip892)" cx="1169.37" cy="311.206" r="14.4" fill="#009af9" fill-rule="evenodd" fill-opacity="1" stroke="#000000" stroke-opacity="1" stroke-width="3.2"/>
<circle clip-path="url(#clip892)" cx="1432.44" cy="209.949" r="14.4" fill="#009af9" fill-rule="evenodd" fill-opacity="1" stroke="#000000" stroke-opacity="1" stroke-width="3.2"/>
<circle clip-path="url(#clip892)" cx="1695.51" cy="205.572" r="14.4" fill="#009af9" fill-rule="evenodd" fill-opacity="1" stroke="#000000" stroke-opacity="1" stroke-width="3.2"/>
<circle clip-path="url(#clip892)" cx="1958.57" cy="270.581" r="14.4" fill="#009af9" fill-rule="evenodd" fill-opacity="1" stroke="#000000" stroke-opacity="1" stroke-width="3.2"/>
<circle clip-path="url(#clip892)" cx="2221.64" cy="385.553" r="14.4" fill="#009af9" fill-rule="evenodd" fill-opacity="1" stroke="#000000" stroke-opacity="1" stroke-width="3.2"/>
<circle clip-path="url(#clip892)" cx="2484.71" cy="536.949" r="14.4" fill="#009af9" fill-rule="evenodd" fill-opacity="1" stroke="#000000" stroke-opacity="1" stroke-width="3.2"/>
<circle clip-path="url(#clip892)" cx="2747.78" cy="713.946" r="14.4" fill="#009af9" fill-rule="evenodd" fill-opacity="1" stroke="#000000" stroke-opacity="1" stroke-width="3.2"/>
<circle clip-path="url(#clip892)" cx="3010.84" cy="905.33" r="14.4" fill="#009af9" fill-rule="evenodd" fill-opacity="1" stroke="#000000" stroke-opacity="1" stroke-width="3.2"/>
<polyline clip-path="url(#clip892)" style="stroke:#e26f46; stroke-linecap:round; stroke-linejoin:round; stroke-width:4; stroke-opacity:1; fill:none" points="-2487.27,373.374 5878.28,373.374 "/>
</svg>
