<?xml version="1.0" encoding="utf-8"?>
<svg xmlns="http://www.w3.org/2000/svg" xmlns:xlink="http://www.w3.org/1999/xlink" width="800" height="400" viewBox="0 0 3200 1600">
<defs>
  <clipPath id="clip030">
    <rect x="0" y="0" width="3200" height="1600"/>
  </clipPath>
</defs>
<path clip-path="url(#clip030)" d="M0 1600 L3200 1600 L3200 0 L0 0  Z" fill="#ffffff" fill-rule="evenodd" fill-opacity="1"/>
<defs>
  <clipPath id="clip031">
    <rect x="640" y="0" width="2241" height="1600"/>
  </clipPath>
</defs>
<path clip-path="url(#clip030)" d="M301.247 1380.71 L3089.76 1380.71 L3089.76 171.344 L301.247 171.344  Z" fill="#ffffff" fill-rule="evenodd" fill-opacity="1"/>
<defs>
  <clipPath id="clip032">
    <rect x="301" y="171" width="2790" height="1210"/>
  </clipPath>
</defs>
<polyline clip-path="url(#clip032)" style="stroke:#000000; stroke-linecap:round; stroke-linejoin:round; stroke-width:2; stroke-opacity:0.1; fill:none" points="380.167,1380.71 380.167,171.344 "/>
<polyline clip-path="url(#clip032)" style="stroke:#000000; stroke-linecap:round; stroke-linejoin:round; stroke-width:2; stroke-opacity:0.1; fill:none" points="619.319,1380.71 619.319,171.344 "/>
<polyline clip-path="url(#clip032)" style="stroke:#000000; stroke-linecap:round; stroke-linejoin:round; stroke-width:2; stroke-opacity:0.1; fill:none" points="858.472,1380.71 858.472,171.344 "/>
<polyline clip-path="url(#clip032)" style="stroke:#000000; stroke-linecap:round; stroke-linejoin:round; stroke-width:2; stroke-opacity:0.1; fill:none" points="1097.62,1380.71 1097.62,171.344 "/>
<polyline clip-path="url(#clip032)" style="stroke:#000000; stroke-linecap:round; stroke-linejoin:round; stroke-width:2; stroke-opacity:0.1; fill:none" points="1336.78,1380.71 1336.78,171.344 "/>
<polyline clip-path="url(#clip032)" style="stroke:#000000; stroke-linecap:round; stroke-linejoin:round; stroke-width:2; stroke-opacity:0.1; fill:none" points="1575.93,1380.71 1575.93,171.344 "/>
<polyline clip-path="url(#clip032)" style="stroke:#000000; stroke-linecap:round; stroke-linejoin:round; stroke-width:2; stroke-opacity:0.1; fill:none" points="1815.08,1380.71 1815.08,171.344 "/>
<polyline clip-path="url(#clip032)" style="stroke:#000000; stroke-linecap:round; stroke-linejoin:round; stroke-width:2; stroke-opacity:0.1; fill:none" points="2054.23,1380.71 2054.23,171.344 "/>
<polyline clip-path="url(#clip032)" style="stroke:#000000; stroke-linecap:round; stroke-linejoin:round; stroke-width:2; stroke-opacity:0.1; fill:none" points="2293.39,1380.71 2293.39,171.344 "/>
<polyline clip-path="url(#clip032)" style="stroke:#000000; stroke-linecap:round; stroke-linejoin:round; stroke-width:2; stroke-opacity:0.1; fill:none" points="2532.54,1380.71 2532.54,171.344 "/>
<polyline clip-path="url(#clip032)" style="stroke:#000000; stroke-linecap:round; stroke-linejoin:round; stroke-width:2; stroke-opacity:0.1; fill:none" points="2771.69,1380.71 2771.69,171.344 "/>
<polyline clip-path="url(#clip032)" style="stroke:#000000; stroke-linecap:round; stroke-linejoin:round; stroke-width:2; stroke-opacity:0.1; fill:none" points="3010.84,1380.71 3010.84,171.344 "/>
<polyline clip-path="url(#clip030)" style="stroke:#000000; stroke-linecap:round; stroke-linejoin:round; stroke-width:4; stroke-opacity:1; fill:none" points="301.247,1380.71 3089.76,1380.71 "/>
<polyline clip-path="url(#clip030)" style="stroke:#000000; stroke-linecap:round; stroke-linejoin:round; stroke-width:4; stroke-opacity:1; fill:none" points="380.167,1380.71 380.167,1361.81 "/>
<polyline clip-path="url(#clip030)" style="stroke:#000000; stroke-linecap:round; stroke-linejoin:round; stroke-width:4; stroke-opacity:1; fill:none" points="619.319,1380.71 619.319,1361.81 "/>
<polyline clip-path="url(#clip030)" style="stroke:#000000; stroke-linecap:round; stroke-linejoin:round; stroke-width:4; stroke-opacity:1; fill:none" points="858.472,1380.71 858.472,1361.81 "/>
<polyline clip-path="url(#clip030)" style="stroke:#000000; stroke-linecap:round; stroke-linejoin:round; stroke-width:4; stroke-opacity:1; fill:none" points="1097.62,1380.71 1097.62,1361.81 "/>
<polyline clip-path="url(#clip030)" style="stroke:#000000; stroke-linecap:round; stroke-linejoin:round; stroke-width:4; stroke-opacity:1; fill:none" points="1336.78,1380.71 1336.78,1361.81 "/>
<polyline clip-path="url(#clip030)" style="stroke:#000000; stroke-linecap:round; stroke-linejoin:round; stroke-width:4; stroke-opacity:1; fill:none" points="1575.93,1380.71 1575.93,1361.81 "/>
<polyline clip-path="url(#clip030)" style="stroke:#000000; stroke-linecap:round; stroke-linejoin:round; stroke-width:4; stroke-opacity:1; fill:none" points="1815.08,1380.71 1815.08,1361.81 "/>
<polyline clip-path="url(#clip030)" style="stroke:#000000; stroke-linecap:round; stroke-linejoin:round; stroke-width:4; stroke-opacity:1; fill:none" points="2054.23,1380.71 2054.23,1361.81 "/>
<polyline clip-path="url(#clip030)" style="stroke:#000000; stroke-linecap:round; stroke-linejoin:round; stroke-width:4; stroke-opacity:1; fill:none" points="2293.39,1380.71 2293.39,1361.81 "/>
<polyline clip-path="url(#clip030)" style="stroke:#000000; stroke-linecap:round; stroke-linejoin:round; stroke-width:4; stroke-opacity:1; fill:none" points="2532.54,1380.71 2532.54,1361.81 "/>
<polyline clip-path="url(#clip030)" style="stroke:#000000; stroke-linecap:round; stroke-linejoin:round; stroke-width:4; stroke-opacity:1; fill:none" points="2771.69,1380.71 2771.69,1361.81 "/>
<polyline clip-path="url(#clip030)" style="stroke:#000000; stroke-linecap:round; stroke-linejoin:round; stroke-width:4; stroke-opacity:1; fill:none" points="3010.84,1380.71 3010.84,1361.81 "/>
<path clip-path="url(#clip030)" d="M370.549 1445.57 L378.188 1445.57 L378.188 1419.21 L369.878 1420.87 L369.878 1416.61 L378.142 1414.95 L382.818 1414.95 L382.818 1445.57 L390.456 1445.57 L390.456 1449.51 L370.549 1449.51 L370.549 1445.57 Z" fill="#000000" fill-rule="nonzero" fill-opacity="1" /><path clip-path="url(#clip030)" d="M613.972 1445.57 L630.292 1445.57 L630.292 1449.51 L608.347 1449.51 L608.347 1445.57 Q611.009 1442.82 615.593 1438.19 Q620.199 1433.54 621.38 1432.19 Q623.625 1429.67 624.505 1427.93 Q625.407 1426.17 625.407 1424.48 Q625.407 1421.73 623.463 1419.99 Q621.542 1418.26 618.44 1418.26 Q616.241 1418.26 613.787 1419.02 Q611.357 1419.79 608.579 1421.34 L608.579 1416.61 Q611.403 1415.48 613.857 1414.9 Q616.31 1414.32 618.347 1414.32 Q623.718 1414.32 626.912 1417.01 Q630.106 1419.69 630.106 1424.18 Q630.106 1426.31 629.296 1428.23 Q628.509 1430.13 626.403 1432.73 Q625.824 1433.4 622.722 1436.61 Q619.62 1439.81 613.972 1445.57 Z" fill="#000000" fill-rule="nonzero" fill-opacity="1" /><path clip-path="url(#clip030)" d="M862.72 1430.87 Q866.076 1431.59 867.951 1433.86 Q869.849 1436.13 869.849 1439.46 Q869.849 1444.58 866.331 1447.38 Q862.812 1450.18 856.331 1450.18 Q854.155 1450.18 851.84 1449.74 Q849.548 1449.32 847.095 1448.47 L847.095 1443.95 Q849.039 1445.09 851.354 1445.67 Q853.669 1446.24 856.192 1446.24 Q860.59 1446.24 862.882 1444.51 Q865.196 1442.77 865.196 1439.46 Q865.196 1436.41 863.044 1434.69 Q860.914 1432.96 857.095 1432.96 L853.067 1432.96 L853.067 1429.11 L857.28 1429.11 Q860.729 1429.11 862.558 1427.75 Q864.386 1426.36 864.386 1423.77 Q864.386 1421.11 862.488 1419.69 Q860.613 1418.26 857.095 1418.26 Q855.173 1418.26 852.974 1418.67 Q850.775 1419.09 848.136 1419.97 L848.136 1415.8 Q850.798 1415.06 853.113 1414.69 Q855.451 1414.32 857.511 1414.32 Q862.835 1414.32 865.937 1416.75 Q869.039 1419.16 869.039 1423.28 Q869.039 1426.15 867.395 1428.14 Q865.752 1430.11 862.72 1430.87 Z" fill="#000000" fill-rule="nonzero" fill-opacity="1" /><path clip-path="url(#clip030)" d="M1100.63 1419.02 L1088.83 1437.47 L1100.63 1437.47 L1100.63 1419.02 M1099.41 1414.95 L1105.29 1414.95 L1105.29 1437.47 L1110.22 1437.47 L1110.22 1441.36 L1105.29 1441.36 L1105.29 1449.51 L1100.63 1449.51 L1100.63 1441.36 L1085.03 1441.36 L1085.03 1436.85 L1099.41 1414.95 Z" fill="#000000" fill-rule="nonzero" fill-opacity="1" /><path clip-path="url(#clip030)" d="M1327.05 1414.95 L1345.41 1414.95 L1345.41 1418.88 L1331.34 1418.88 L1331.34 1427.36 Q1332.36 1427.01 1333.37 1426.85 Q1334.39 1426.66 1335.41 1426.66 Q1341.2 1426.66 1344.58 1429.83 Q1347.96 1433 1347.96 1438.42 Q1347.96 1444 1344.48 1447.1 Q1341.01 1450.18 1334.69 1450.18 Q1332.52 1450.18 1330.25 1449.81 Q1328 1449.44 1325.6 1448.7 L1325.6 1444 Q1327.68 1445.13 1329.9 1445.69 Q1332.12 1446.24 1334.6 1446.24 Q1338.61 1446.24 1340.94 1444.14 Q1343.28 1442.03 1343.28 1438.42 Q1343.28 1434.81 1340.94 1432.7 Q1338.61 1430.6 1334.6 1430.6 Q1332.73 1430.6 1330.85 1431.01 Q1329 1431.43 1327.05 1432.31 L1327.05 1414.95 Z" fill="#000000" fill-rule="nonzero" fill-opacity="1" /><path clip-path="url(#clip030)" d="M1576.33 1430.36 Q1573.19 1430.36 1571.33 1432.52 Q1569.51 1434.67 1569.51 1438.42 Q1569.51 1442.15 1571.33 1444.32 Q1573.19 1446.48 1576.33 1446.48 Q1579.48 1446.48 1581.31 1444.32 Q1583.16 1442.15 1583.16 1438.42 Q1583.16 1434.67 1581.31 1432.52 Q1579.48 1430.36 1576.33 1430.36 M1585.62 1415.71 L1585.62 1419.97 Q1583.86 1419.14 1582.05 1418.7 Q1580.27 1418.26 1578.51 1418.26 Q1573.88 1418.26 1571.43 1421.38 Q1569 1424.51 1568.65 1430.83 Q1570.01 1428.81 1572.07 1427.75 Q1574.14 1426.66 1576.61 1426.66 Q1581.82 1426.66 1584.83 1429.83 Q1587.86 1432.98 1587.86 1438.42 Q1587.86 1443.74 1584.71 1446.96 Q1581.57 1450.18 1576.33 1450.18 Q1570.34 1450.18 1567.17 1445.6 Q1564 1440.99 1564 1432.26 Q1564 1424.07 1567.89 1419.21 Q1571.77 1414.32 1578.32 1414.32 Q1580.08 1414.32 1581.87 1414.67 Q1583.67 1415.02 1585.62 1415.71 Z" fill="#000000" fill-rule="nonzero" fill-opacity="1" /><path clip-path="url(#clip030)" d="M1803.97 1414.95 L1826.19 1414.95 L1826.19 1416.94 L1813.65 1449.51 L1808.76 1449.51 L1820.57 1418.88 L1803.97 1418.88 L1803.97 1414.95 Z" fill="#000000" fill-rule="nonzero" fill-opacity="1" /><path clip-path="url(#clip030)" d="M2054.23 1433.1 Q2050.9 1433.1 2048.98 1434.88 Q2047.08 1436.66 2047.08 1439.79 Q2047.08 1442.91 2048.98 1444.69 Q2050.9 1446.48 2054.23 1446.48 Q2057.57 1446.48 2059.49 1444.69 Q2061.41 1442.89 2061.41 1439.79 Q2061.41 1436.66 2059.49 1434.88 Q2057.59 1433.1 2054.23 1433.1 M2049.56 1431.11 Q2046.55 1430.36 2044.86 1428.3 Q2043.19 1426.24 2043.19 1423.28 Q2043.19 1419.14 2046.13 1416.73 Q2049.1 1414.32 2054.23 1414.32 Q2059.4 1414.32 2062.34 1416.73 Q2065.28 1419.14 2065.28 1423.28 Q2065.28 1426.24 2063.59 1428.3 Q2061.92 1430.36 2058.93 1431.11 Q2062.31 1431.89 2064.19 1434.18 Q2066.09 1436.48 2066.09 1439.79 Q2066.09 1444.81 2063.01 1447.49 Q2059.95 1450.18 2054.23 1450.18 Q2048.52 1450.18 2045.44 1447.49 Q2042.38 1444.81 2042.38 1439.79 Q2042.38 1436.48 2044.28 1434.18 Q2046.18 1431.89 2049.56 1431.11 M2047.85 1423.72 Q2047.85 1426.41 2049.51 1427.91 Q2051.2 1429.42 2054.23 1429.42 Q2057.24 1429.42 2058.93 1427.91 Q2060.65 1426.41 2060.65 1423.72 Q2060.65 1421.04 2058.93 1419.53 Q2057.24 1418.03 2054.23 1418.03 Q2051.2 1418.03 2049.51 1419.53 Q2047.85 1421.04 2047.85 1423.72 Z" fill="#000000" fill-rule="nonzero" fill-opacity="1" /><path clip-path="url(#clip030)" d="M2283.69 1448.79 L2283.69 1444.53 Q2285.45 1445.36 2287.25 1445.8 Q2289.06 1446.24 2290.79 1446.24 Q2295.42 1446.24 2297.85 1443.14 Q2300.31 1440.02 2300.65 1433.67 Q2299.31 1435.67 2297.25 1436.73 Q2295.19 1437.79 2292.69 1437.79 Q2287.51 1437.79 2284.47 1434.67 Q2281.47 1431.52 2281.47 1426.08 Q2281.47 1420.76 2284.61 1417.54 Q2287.76 1414.32 2292.99 1414.32 Q2298.99 1414.32 2302.14 1418.93 Q2305.31 1423.51 2305.31 1432.26 Q2305.31 1440.43 2301.42 1445.32 Q2297.55 1450.18 2291 1450.18 Q2289.24 1450.18 2287.44 1449.83 Q2285.63 1449.48 2283.69 1448.79 M2292.99 1434.14 Q2296.14 1434.14 2297.97 1431.98 Q2299.82 1429.83 2299.82 1426.08 Q2299.82 1422.36 2297.97 1420.2 Q2296.14 1418.03 2292.99 1418.03 Q2289.84 1418.03 2287.99 1420.2 Q2286.16 1422.36 2286.16 1426.08 Q2286.16 1429.83 2287.99 1431.98 Q2289.84 1434.14 2292.99 1434.14 Z" fill="#000000" fill-rule="nonzero" fill-opacity="1" /><path clip-path="url(#clip030)" d="M2507.23 1445.57 L2514.87 1445.57 L2514.87 1419.21 L2506.56 1420.87 L2506.56 1416.61 L2514.82 1414.95 L2519.49 1414.95 L2519.49 1445.57 L2527.13 1445.57 L2527.13 1449.51 L2507.23 1449.51 L2507.23 1445.57 Z" fill="#000000" fill-rule="nonzero" fill-opacity="1" /><path clip-path="url(#clip030)" d="M2546.58 1418.03 Q2542.97 1418.03 2541.14 1421.59 Q2539.33 1425.13 2539.33 1432.26 Q2539.33 1439.37 2541.14 1442.93 Q2542.97 1446.48 2546.58 1446.48 Q2550.21 1446.48 2552.02 1442.93 Q2553.85 1439.37 2553.85 1432.26 Q2553.85 1425.13 2552.02 1421.59 Q2550.21 1418.03 2546.58 1418.03 M2546.58 1414.32 Q2552.39 1414.32 2555.44 1418.93 Q2558.52 1423.51 2558.52 1432.26 Q2558.52 1440.99 2555.44 1445.6 Q2552.39 1450.18 2546.58 1450.18 Q2540.77 1450.18 2537.69 1445.6 Q2534.63 1440.99 2534.63 1432.26 Q2534.63 1423.51 2537.69 1418.93 Q2540.77 1414.32 2546.58 1414.32 Z" fill="#000000" fill-rule="nonzero" fill-opacity="1" /><path clip-path="url(#clip030)" d="M2746.99 1445.57 L2754.63 1445.57 L2754.63 1419.21 L2746.32 1420.87 L2746.32 1416.61 L2754.58 1414.95 L2759.26 1414.95 L2759.26 1445.57 L2766.9 1445.57 L2766.9 1449.51 L2746.99 1449.51 L2746.99 1445.57 Z" fill="#000000" fill-rule="nonzero" fill-opacity="1" /><path clip-path="url(#clip030)" d="M2777.15 1445.57 L2784.79 1445.57 L2784.79 1419.21 L2776.48 1420.87 L2776.48 1416.61 L2784.75 1414.95 L2789.42 1414.95 L2789.42 1445.57 L2797.06 1445.57 L2797.06 1449.51 L2777.15 1449.51 L2777.15 1445.57 Z" fill="#000000" fill-rule="nonzero" fill-opacity="1" /><path clip-path="url(#clip030)" d="M2986.33 1445.57 L2993.97 1445.57 L2993.97 1419.21 L2985.66 1420.87 L2985.66 1416.61 L2993.92 1414.95 L2998.6 1414.95 L2998.6 1445.57 L3006.24 1445.57 L3006.24 1449.51 L2986.33 1449.51 L2986.33 1445.57 Z" fill="#000000" fill-rule="nonzero" fill-opacity="1" /><path clip-path="url(#clip030)" d="M3019.71 1445.57 L3036.03 1445.57 L3036.03 1449.51 L3014.08 1449.51 L3014.08 1445.57 Q3016.75 1442.82 3021.33 1438.19 Q3025.94 1433.54 3027.12 1432.19 Q3029.36 1429.67 3030.24 1427.93 Q3031.14 1426.17 3031.14 1424.48 Q3031.14 1421.73 3029.2 1419.99 Q3027.28 1418.26 3024.18 1418.26 Q3021.98 1418.26 3019.52 1419.02 Q3017.09 1419.79 3014.32 1421.34 L3014.32 1416.61 Q3017.14 1415.48 3019.59 1414.9 Q3022.05 1414.32 3024.08 1414.32 Q3029.45 1414.32 3032.65 1417.01 Q3035.84 1419.69 3035.84 1424.18 Q3035.84 1426.31 3035.03 1428.23 Q3034.25 1430.13 3032.14 1432.73 Q3031.56 1433.4 3028.46 1436.61 Q3025.36 1439.81 3019.71 1445.57 Z" fill="#000000" fill-rule="nonzero" fill-opacity="1" /><path clip-path="url(#clip030)" d="M1422.75 1490.05 L1431.41 1490.05 L1452.48 1529.81 L1452.48 1490.05 L1458.72 1490.05 L1458.72 1537.57 L1450.06 1537.57 L1428.99 1497.82 L1428.99 1537.57 L1422.75 1537.57 L1422.75 1490.05 Z" fill="#000000" fill-rule="nonzero" fill-opacity="1" /><path clip-path="url(#clip030)" d="M1470.65 1523.5 L1470.65 1501.92 L1476.51 1501.92 L1476.51 1523.28 Q1476.51 1528.34 1478.48 1530.89 Q1480.46 1533.4 1484.4 1533.4 Q1489.14 1533.4 1491.88 1530.38 Q1494.65 1527.35 1494.65 1522.13 L1494.65 1501.92 L1500.51 1501.92 L1500.51 1537.57 L1494.65 1537.57 L1494.65 1532.1 Q1492.52 1535.34 1489.69 1536.94 Q1486.89 1538.49 1483.16 1538.49 Q1477.02 1538.49 1473.84 1534.68 Q1470.65 1530.86 1470.65 1523.5 M1485.39 1501.06 L1485.39 1501.06 Z" fill="#000000" fill-rule="nonzero" fill-opacity="1" /><path clip-path="url(#clip030)" d="M1540.33 1508.77 Q1542.52 1504.82 1545.58 1502.94 Q1548.63 1501.06 1552.77 1501.06 Q1558.34 1501.06 1561.36 1504.98 Q1564.39 1508.86 1564.39 1516.06 L1564.39 1537.57 L1558.5 1537.57 L1558.5 1516.25 Q1558.5 1511.12 1556.69 1508.64 Q1554.87 1506.16 1551.15 1506.16 Q1546.6 1506.16 1543.95 1509.18 Q1541.31 1512.2 1541.31 1517.42 L1541.31 1537.57 L1535.42 1537.57 L1535.42 1516.25 Q1535.42 1511.09 1533.61 1508.64 Q1531.8 1506.16 1528.01 1506.16 Q1523.52 1506.16 1520.88 1509.21 Q1518.24 1512.24 1518.24 1517.42 L1518.24 1537.57 L1512.35 1537.57 L1512.35 1501.92 L1518.24 1501.92 L1518.24 1507.46 Q1520.24 1504.18 1523.04 1502.62 Q1525.84 1501.06 1529.69 1501.06 Q1533.58 1501.06 1536.28 1503.04 Q1539.02 1505.01 1540.33 1508.77 Z" fill="#000000" fill-rule="nonzero" fill-opacity="1" /><path clip-path="url(#clip030)" d="M1601.66 1519.78 Q1601.66 1513.32 1598.99 1509.66 Q1596.34 1505.97 1591.7 1505.97 Q1587.05 1505.97 1584.38 1509.66 Q1581.73 1513.32 1581.73 1519.78 Q1581.73 1526.24 1584.38 1529.93 Q1587.05 1533.59 1591.7 1533.59 Q1596.34 1533.59 1598.99 1529.93 Q1601.66 1526.24 1601.66 1519.78 M1581.73 1507.33 Q1583.58 1504.15 1586.38 1502.62 Q1589.21 1501.06 1593.13 1501.06 Q1599.62 1501.06 1603.66 1506.22 Q1607.74 1511.38 1607.74 1519.78 Q1607.74 1528.18 1603.66 1533.34 Q1599.62 1538.49 1593.13 1538.49 Q1589.21 1538.49 1586.38 1536.97 Q1583.58 1535.41 1581.73 1532.22 L1581.73 1537.57 L1575.85 1537.57 L1575.85 1488.05 L1581.73 1488.05 L1581.73 1507.33 Z" fill="#000000" fill-rule="nonzero" fill-opacity="1" /><path clip-path="url(#clip030)" d="M1647.94 1518.28 L1647.94 1521.15 L1621.01 1521.15 Q1621.39 1527.2 1624.64 1530.38 Q1627.92 1533.53 1633.74 1533.53 Q1637.12 1533.53 1640.27 1532.7 Q1643.45 1531.87 1646.57 1530.22 L1646.57 1535.76 Q1643.42 1537.09 1640.11 1537.79 Q1636.8 1538.49 1633.39 1538.49 Q1624.86 1538.49 1619.86 1533.53 Q1614.9 1528.56 1614.9 1520.1 Q1614.9 1511.35 1619.61 1506.22 Q1624.35 1501.06 1632.37 1501.06 Q1639.57 1501.06 1643.74 1505.71 Q1647.94 1510.33 1647.94 1518.28 M1642.08 1516.56 Q1642.02 1511.76 1639.38 1508.89 Q1636.77 1506.03 1632.44 1506.03 Q1627.54 1506.03 1624.58 1508.8 Q1621.65 1511.57 1621.2 1516.6 L1642.08 1516.56 Z" fill="#000000" fill-rule="nonzero" fill-opacity="1" /><path clip-path="url(#clip030)" d="M1678.21 1507.4 Q1677.22 1506.83 1676.04 1506.57 Q1674.9 1506.28 1673.5 1506.28 Q1668.53 1506.28 1665.86 1509.53 Q1663.22 1512.75 1663.22 1518.79 L1663.22 1537.57 L1657.33 1537.57 L1657.33 1501.92 L1663.22 1501.92 L1663.22 1507.46 Q1665.06 1504.22 1668.02 1502.66 Q1670.98 1501.06 1675.21 1501.06 Q1675.82 1501.06 1676.55 1501.16 Q1677.28 1501.22 1678.17 1501.38 L1678.21 1507.4 Z" fill="#000000" fill-rule="nonzero" fill-opacity="1" /><path clip-path="url(#clip030)" d="M1718.88 1506.03 Q1714.17 1506.03 1711.44 1509.72 Q1708.7 1513.38 1708.7 1519.78 Q1708.7 1526.18 1711.4 1529.87 Q1714.14 1533.53 1718.88 1533.53 Q1723.56 1533.53 1726.3 1529.84 Q1729.04 1526.15 1729.04 1519.78 Q1729.04 1513.45 1726.3 1509.75 Q1723.56 1506.03 1718.88 1506.03 M1718.88 1501.06 Q1726.52 1501.06 1730.88 1506.03 Q1735.24 1510.99 1735.24 1519.78 Q1735.24 1528.53 1730.88 1533.53 Q1726.52 1538.49 1718.88 1538.49 Q1711.21 1538.49 1706.85 1533.53 Q1702.52 1528.53 1702.52 1519.78 Q1702.52 1510.99 1706.85 1506.03 Q1711.21 1501.06 1718.88 1501.06 Z" fill="#000000" fill-rule="nonzero" fill-opacity="1" /><path clip-path="url(#clip030)" d="M1763 1488.05 L1763 1492.92 L1757.4 1492.92 Q1754.24 1492.92 1753 1494.19 Q1751.79 1495.46 1751.79 1498.77 L1751.79 1501.92 L1761.44 1501.92 L1761.44 1506.48 L1751.79 1506.48 L1751.79 1537.57 L1745.91 1537.57 L1745.91 1506.48 L1740.3 1506.48 L1740.3 1501.92 L1745.91 1501.92 L1745.91 1499.44 Q1745.91 1493.49 1748.67 1490.78 Q1751.44 1488.05 1757.46 1488.05 L1763 1488.05 Z" fill="#000000" fill-rule="nonzero" fill-opacity="1" /><path clip-path="url(#clip030)" d="M1788.62 1488.05 L1794.48 1488.05 L1794.48 1537.57 L1788.62 1537.57 L1788.62 1488.05 Z" fill="#000000" fill-rule="nonzero" fill-opacity="1" /><path clip-path="url(#clip030)" d="M1837.22 1518.28 L1837.22 1521.15 L1810.29 1521.15 Q1810.68 1527.2 1813.92 1530.38 Q1817.2 1533.53 1823.03 1533.53 Q1826.4 1533.53 1829.55 1532.7 Q1832.73 1531.87 1835.85 1530.22 L1835.85 1535.76 Q1832.7 1537.09 1829.39 1537.79 Q1826.08 1538.49 1822.68 1538.49 Q1814.15 1538.49 1809.15 1533.53 Q1804.18 1528.56 1804.18 1520.1 Q1804.18 1511.35 1808.89 1506.22 Q1813.64 1501.06 1821.66 1501.06 Q1828.85 1501.06 1833.02 1505.71 Q1837.22 1510.33 1837.22 1518.28 M1831.37 1516.56 Q1831.3 1511.76 1828.66 1508.89 Q1826.05 1506.03 1821.72 1506.03 Q1816.82 1506.03 1813.86 1508.8 Q1810.93 1511.57 1810.49 1516.6 L1831.37 1516.56 Z" fill="#000000" fill-rule="nonzero" fill-opacity="1" /><path clip-path="url(#clip030)" d="M1842.63 1501.92 L1848.84 1501.92 L1859.98 1531.84 L1871.12 1501.92 L1877.33 1501.92 L1863.96 1537.57 L1856 1537.57 L1842.63 1501.92 Z" fill="#000000" fill-rule="nonzero" fill-opacity="1" /><path clip-path="url(#clip030)" d="M1915.9 1518.28 L1915.9 1521.15 L1888.98 1521.15 Q1889.36 1527.2 1892.6 1530.38 Q1895.88 1533.53 1901.71 1533.53 Q1905.08 1533.53 1908.23 1532.7 Q1911.41 1531.87 1914.53 1530.22 L1914.53 1535.76 Q1911.38 1537.09 1908.07 1537.79 Q1904.76 1538.49 1901.36 1538.49 Q1892.83 1538.49 1887.83 1533.53 Q1882.86 1528.56 1882.86 1520.1 Q1882.86 1511.35 1887.57 1506.22 Q1892.32 1501.06 1900.34 1501.06 Q1907.53 1501.06 1911.7 1505.71 Q1915.9 1510.33 1915.9 1518.28 M1910.05 1516.56 Q1909.98 1511.76 1907.34 1508.89 Q1904.73 1506.03 1900.4 1506.03 Q1895.5 1506.03 1892.54 1508.8 Q1889.61 1511.57 1889.17 1516.6 L1910.05 1516.56 Z" fill="#000000" fill-rule="nonzero" fill-opacity="1" /><path clip-path="url(#clip030)" d="M1925.51 1488.05 L1931.37 1488.05 L1931.37 1537.57 L1925.51 1537.57 L1925.51 1488.05 Z" fill="#000000" fill-rule="nonzero" fill-opacity="1" /><path clip-path="url(#clip030)" d="M1966.35 1502.97 L1966.35 1508.51 Q1963.87 1507.24 1961.19 1506.6 Q1958.52 1505.97 1955.66 1505.97 Q1951.3 1505.97 1949.1 1507.3 Q1946.93 1508.64 1946.93 1511.31 Q1946.93 1513.35 1948.49 1514.53 Q1950.05 1515.67 1954.76 1516.72 L1956.77 1517.17 Q1963.01 1518.51 1965.62 1520.96 Q1968.26 1523.38 1968.26 1527.74 Q1968.26 1532.7 1964.31 1535.6 Q1960.4 1538.49 1953.52 1538.49 Q1950.66 1538.49 1947.54 1537.92 Q1944.45 1537.38 1941.01 1536.27 L1941.01 1530.22 Q1944.26 1531.91 1947.41 1532.77 Q1950.56 1533.59 1953.65 1533.59 Q1957.79 1533.59 1960.02 1532.19 Q1962.24 1530.76 1962.24 1528.18 Q1962.24 1525.8 1960.62 1524.52 Q1959.03 1523.25 1953.59 1522.07 L1951.55 1521.59 Q1946.11 1520.45 1943.69 1518.09 Q1941.27 1515.71 1941.27 1511.57 Q1941.27 1506.54 1944.83 1503.8 Q1948.4 1501.06 1954.96 1501.06 Q1958.2 1501.06 1961.07 1501.54 Q1963.93 1502.02 1966.35 1502.97 Z" fill="#000000" fill-rule="nonzero" fill-opacity="1" /><polyline clip-path="url(#clip032)" style="stroke:#000000; stroke-linecap:round; stroke-linejoin:round; stroke-width:2; stroke-opacity:0.1; fill:none" points="301.247,1340.99 3089.76,1340.99 "/>
<polyline clip-path="url(#clip032)" style="stroke:#000000; stroke-linecap:round; stroke-linejoin:round; stroke-width:2; stroke-opacity:0.1; fill:none" points="301.247,1155.19 3089.76,1155.19 "/>
<polyline clip-path="url(#clip032)" style="stroke:#000000; stroke-linecap:round; stroke-linejoin:round; stroke-width:2; stroke-opacity:0.1; fill:none" points="301.247,969.389 3089.76,969.389 "/>
<polyline clip-path="url(#clip032)" style="stroke:#000000; stroke-linecap:round; stroke-linejoin:round; stroke-width:2; stroke-opacity:0.1; fill:none" points="301.247,783.591 3089.76,783.591 "/>
<polyline clip-path="url(#clip032)" style="stroke:#000000; stroke-linecap:round; stroke-linejoin:round; stroke-width:2; stroke-opacity:0.1; fill:none" points="301.247,597.792 3089.76,597.792 "/>
<polyline clip-path="url(#clip032)" style="stroke:#000000; stroke-linecap:round; stroke-linejoin:round; stroke-width:2; stroke-opacity:0.1; fill:none" points="301.247,411.993 3089.76,411.993 "/>
<polyline clip-path="url(#clip032)" style="stroke:#000000; stroke-linecap:round; stroke-linejoin:round; stroke-width:2; stroke-opacity:0.1; fill:none" points="301.247,226.194 3089.76,226.194 "/>
<polyline clip-path="url(#clip030)" style="stroke:#000000; stroke-linecap:round; stroke-linejoin:round; stroke-width:4; stroke-opacity:1; fill:none" points="301.247,1380.71 301.247,171.344 "/>
<polyline clip-path="url(#clip030)" style="stroke:#000000; stroke-linecap:round; stroke-linejoin:round; stroke-width:4; stroke-opacity:1; fill:none" points="301.247,1340.99 320.144,1340.99 "/>
<polyline clip-path="url(#clip030)" style="stroke:#000000; stroke-linecap:round; stroke-linejoin:round; stroke-width:4; stroke-opacity:1; fill:none" points="301.247,1155.19 320.144,1155.19 "/>
<polyline clip-path="url(#clip030)" style="stroke:#000000; stroke-linecap:round; stroke-linejoin:round; stroke-width:4; stroke-opacity:1; fill:none" points="301.247,969.389 320.144,969.389 "/>
<polyline clip-path="url(#clip030)" style="stroke:#000000; stroke-linecap:round; stroke-linejoin:round; stroke-width:4; stroke-opacity:1; fill:none" points="301.247,783.591 320.144,783.591 "/>
<polyline clip-path="url(#clip030)" style="stroke:#000000; stroke-linecap:round; stroke-linejoin:round; stroke-width:4; stroke-opacity:1; fill:none" points="301.247,597.792 320.144,597.792 "/>
<polyline clip-path="url(#clip030)" style="stroke:#000000; stroke-linecap:round; stroke-linejoin:round; stroke-width:4; stroke-opacity:1; fill:none" points="301.247,411.993 320.144,411.993 "/>
<polyline clip-path="url(#clip030)" style="stroke:#000000; stroke-linecap:round; stroke-linejoin:round; stroke-width:4; stroke-opacity:1; fill:none" points="301.247,226.194 320.144,226.194 "/>
<path clip-path="url(#clip030)" d="M162.368 1341.44 L192.043 1341.44 L192.043 1345.37 L162.368 1345.37 L162.368 1341.44 Z" fill="#000000" fill-rule="nonzero" fill-opacity="1" /><path clip-path="url(#clip030)" d="M202.946 1354.33 L210.585 1354.33 L210.585 1327.97 L202.275 1329.63 L202.275 1325.37 L210.539 1323.71 L215.215 1323.71 L215.215 1354.33 L222.853 1354.33 L222.853 1358.27 L202.946 1358.27 L202.946 1354.33 Z" fill="#000000" fill-rule="nonzero" fill-opacity="1" /><path clip-path="url(#clip030)" d="M232.344 1323.71 L250.701 1323.71 L250.701 1327.64 L236.627 1327.64 L236.627 1336.11 Q237.645 1335.77 238.664 1335.61 Q239.682 1335.42 240.701 1335.42 Q246.488 1335.42 249.867 1338.59 Q253.247 1341.76 253.247 1347.18 Q253.247 1352.76 249.775 1355.86 Q246.302 1358.94 239.983 1358.94 Q237.807 1358.94 235.539 1358.57 Q233.293 1358.2 230.886 1357.46 L230.886 1352.76 Q232.969 1353.89 235.191 1354.45 Q237.414 1355 239.89 1355 Q243.895 1355 246.233 1352.9 Q248.571 1350.79 248.571 1347.18 Q248.571 1343.57 246.233 1341.46 Q243.895 1339.36 239.89 1339.36 Q238.015 1339.36 236.14 1339.77 Q234.289 1340.19 232.344 1341.07 L232.344 1323.71 Z" fill="#000000" fill-rule="nonzero" fill-opacity="1" /><path clip-path="url(#clip030)" d="M161.372 1155.64 L191.048 1155.64 L191.048 1159.57 L161.372 1159.57 L161.372 1155.64 Z" fill="#000000" fill-rule="nonzero" fill-opacity="1" /><path clip-path="url(#clip030)" d="M201.951 1168.53 L209.59 1168.53 L209.59 1142.17 L201.279 1143.83 L201.279 1139.57 L209.543 1137.91 L214.219 1137.91 L214.219 1168.53 L221.858 1168.53 L221.858 1172.47 L201.951 1172.47 L201.951 1168.53 Z" fill="#000000" fill-rule="nonzero" fill-opacity="1" /><path clip-path="url(#clip030)" d="M241.302 1140.99 Q237.691 1140.99 235.863 1144.55 Q234.057 1148.09 234.057 1155.22 Q234.057 1162.33 235.863 1165.89 Q237.691 1169.44 241.302 1169.44 Q244.937 1169.44 246.742 1165.89 Q248.571 1162.33 248.571 1155.22 Q248.571 1148.09 246.742 1144.55 Q244.937 1140.99 241.302 1140.99 M241.302 1137.28 Q247.113 1137.28 250.168 1141.89 Q253.247 1146.47 253.247 1155.22 Q253.247 1163.95 250.168 1168.56 Q247.113 1173.14 241.302 1173.14 Q235.492 1173.14 232.414 1168.56 Q229.358 1163.95 229.358 1155.22 Q229.358 1146.47 232.414 1141.89 Q235.492 1137.28 241.302 1137.28 Z" fill="#000000" fill-rule="nonzero" fill-opacity="1" /><path clip-path="url(#clip030)" d="M192.53 969.841 L222.205 969.841 L222.205 973.776 L192.53 973.776 L192.53 969.841 Z" fill="#000000" fill-rule="nonzero" fill-opacity="1" /><path clip-path="url(#clip030)" d="M232.344 952.109 L250.701 952.109 L250.701 956.045 L236.627 956.045 L236.627 964.517 Q237.645 964.17 238.664 964.008 Q239.682 963.822 240.701 963.822 Q246.488 963.822 249.867 966.994 Q253.247 970.165 253.247 975.582 Q253.247 981.16 249.775 984.262 Q246.302 987.341 239.983 987.341 Q237.807 987.341 235.539 986.97 Q233.293 986.6 230.886 985.859 L230.886 981.16 Q232.969 982.294 235.191 982.85 Q237.414 983.406 239.89 983.406 Q243.895 983.406 246.233 981.299 Q248.571 979.193 248.571 975.582 Q248.571 971.97 246.233 969.864 Q243.895 967.757 239.89 967.757 Q238.015 967.757 236.14 968.174 Q234.289 968.591 232.344 969.47 L232.344 952.109 Z" fill="#000000" fill-rule="nonzero" fill-opacity="1" /><path clip-path="url(#clip030)" d="M241.302 769.389 Q237.691 769.389 235.863 772.954 Q234.057 776.496 234.057 783.625 Q234.057 790.732 235.863 794.297 Q237.691 797.838 241.302 797.838 Q244.937 797.838 246.742 794.297 Q248.571 790.732 248.571 783.625 Q248.571 776.496 246.742 772.954 Q244.937 769.389 241.302 769.389 M241.302 765.686 Q247.113 765.686 250.168 770.292 Q253.247 774.875 253.247 783.625 Q253.247 792.352 250.168 796.959 Q247.113 801.542 241.302 801.542 Q235.492 801.542 232.414 796.959 Q229.358 792.352 229.358 783.625 Q229.358 774.875 232.414 770.292 Q235.492 765.686 241.302 765.686 Z" fill="#000000" fill-rule="nonzero" fill-opacity="1" /><path clip-path="url(#clip030)" d="M232.344 580.512 L250.701 580.512 L250.701 584.447 L236.627 584.447 L236.627 592.919 Q237.645 592.572 238.664 592.41 Q239.682 592.225 240.701 592.225 Q246.488 592.225 249.867 595.396 Q253.247 598.567 253.247 603.984 Q253.247 609.562 249.775 612.664 Q246.302 615.743 239.983 615.743 Q237.807 615.743 235.539 615.373 Q233.293 615.002 230.886 614.262 L230.886 609.562 Q232.969 610.697 235.191 611.252 Q237.414 611.808 239.89 611.808 Q243.895 611.808 246.233 609.701 Q248.571 607.595 248.571 603.984 Q248.571 600.373 246.233 598.266 Q243.895 596.16 239.89 596.16 Q238.015 596.16 236.14 596.576 Q234.289 596.993 232.344 597.873 L232.344 580.512 Z" fill="#000000" fill-rule="nonzero" fill-opacity="1" /><path clip-path="url(#clip030)" d="M201.951 425.338 L209.59 425.338 L209.59 398.972 L201.279 400.639 L201.279 396.38 L209.543 394.713 L214.219 394.713 L214.219 425.338 L221.858 425.338 L221.858 429.273 L201.951 429.273 L201.951 425.338 Z" fill="#000000" fill-rule="nonzero" fill-opacity="1" /><path clip-path="url(#clip030)" d="M241.302 397.792 Q237.691 397.792 235.863 401.356 Q234.057 404.898 234.057 412.028 Q234.057 419.134 235.863 422.699 Q237.691 426.24 241.302 426.24 Q244.937 426.24 246.742 422.699 Q248.571 419.134 248.571 412.028 Q248.571 404.898 246.742 401.356 Q244.937 397.792 241.302 397.792 M241.302 394.088 Q247.113 394.088 250.168 398.694 Q253.247 403.278 253.247 412.028 Q253.247 420.754 250.168 425.361 Q247.113 429.944 241.302 429.944 Q235.492 429.944 232.414 425.361 Q229.358 420.754 229.358 412.028 Q229.358 403.278 232.414 398.694 Q235.492 394.088 241.302 394.088 Z" fill="#000000" fill-rule="nonzero" fill-opacity="1" /><path clip-path="url(#clip030)" d="M202.946 239.539 L210.585 239.539 L210.585 213.173 L202.275 214.84 L202.275 210.581 L210.539 208.914 L215.215 208.914 L215.215 239.539 L222.853 239.539 L222.853 243.474 L202.946 243.474 L202.946 239.539 Z" fill="#000000" fill-rule="nonzero" fill-opacity="1" /><path clip-path="url(#clip030)" d="M232.344 208.914 L250.701 208.914 L250.701 212.849 L236.627 212.849 L236.627 221.321 Q237.645 220.974 238.664 220.812 Q239.682 220.627 240.701 220.627 Q246.488 220.627 249.867 223.798 Q253.247 226.969 253.247 232.386 Q253.247 237.965 249.775 241.067 Q246.302 244.145 239.983 244.145 Q237.807 244.145 235.539 243.775 Q233.293 243.405 230.886 242.664 L230.886 237.965 Q232.969 239.099 235.191 239.655 Q237.414 240.21 239.89 240.21 Q243.895 240.21 246.233 238.104 Q248.571 235.997 248.571 232.386 Q248.571 228.775 246.233 226.669 Q243.895 224.562 239.89 224.562 Q238.015 224.562 236.14 224.979 Q234.289 225.395 232.344 226.275 L232.344 208.914 Z" fill="#000000" fill-rule="nonzero" fill-opacity="1" /><path clip-path="url(#clip030)" d="M57.9302 1294.82 L81.5788 1303.54 L81.5788 1286.06 L57.9302 1294.82 M51.5963 1298.44 L51.5963 1291.15 L99.1163 1273.04 L99.1163 1279.73 L86.926 1284.06 L86.926 1305.48 L99.1163 1309.81 L99.1163 1316.59 L51.5963 1298.44 Z" fill="#000000" fill-rule="nonzero" fill-opacity="1" /><path clip-path="url(#clip030)" d="M63.4683 1274.38 L63.4683 1268.17 L93.3871 1257.03 L63.4683 1245.89 L63.4683 1239.69 L99.1163 1253.06 L99.1163 1261.01 L63.4683 1274.38 Z" fill="#000000" fill-rule="nonzero" fill-opacity="1" /><path clip-path="url(#clip030)" d="M79.8282 1201.11 L82.6928 1201.11 L82.6928 1228.04 Q88.7402 1227.66 91.923 1224.41 Q95.0741 1221.13 95.0741 1215.31 Q95.0741 1211.93 94.2465 1208.78 Q93.419 1205.6 91.7639 1202.48 L97.3021 1202.48 Q98.6389 1205.63 99.3391 1208.94 Q100.039 1212.25 100.039 1215.66 Q100.039 1224.19 95.0741 1229.18 Q90.1088 1234.15 81.6424 1234.15 Q72.8896 1234.15 67.7652 1229.44 Q62.609 1224.7 62.609 1216.68 Q62.609 1209.48 67.2559 1205.31 Q71.8711 1201.11 79.8282 1201.11 M78.1095 1206.97 Q73.3033 1207.03 70.4388 1209.67 Q67.5742 1212.28 67.5742 1216.61 Q67.5742 1221.51 70.3433 1224.47 Q73.1124 1227.4 78.1413 1227.85 L78.1095 1206.97 Z" fill="#000000" fill-rule="nonzero" fill-opacity="1" /><path clip-path="url(#clip030)" d="M68.9428 1170.84 Q68.3699 1171.83 68.1153 1173.01 Q67.8288 1174.15 67.8288 1175.55 Q67.8288 1180.52 71.0753 1183.19 Q74.29 1185.83 80.3374 1185.83 L99.1163 1185.83 L99.1163 1191.72 L63.4683 1191.72 L63.4683 1185.83 L69.0065 1185.83 Q65.76 1183.99 64.2004 1181.03 Q62.609 1178.07 62.609 1173.83 Q62.609 1173.23 62.7044 1172.5 Q62.7681 1171.77 62.9272 1170.87 L68.9428 1170.84 Z" fill="#000000" fill-rule="nonzero" fill-opacity="1" /><path clip-path="url(#clip030)" d="M81.1968 1148.5 Q81.1968 1155.6 82.8201 1158.33 Q84.4433 1161.07 88.3582 1161.07 Q91.4774 1161.07 93.3235 1159.03 Q95.1377 1156.97 95.1377 1153.43 Q95.1377 1148.56 91.7002 1145.63 Q88.2309 1142.67 82.5018 1142.67 L81.1968 1142.67 L81.1968 1148.5 M78.7779 1136.82 L99.1163 1136.82 L99.1163 1142.67 L93.7054 1142.67 Q96.9519 1144.68 98.5115 1147.67 Q100.039 1150.66 100.039 1154.99 Q100.039 1160.47 96.9838 1163.71 Q93.8964 1166.93 88.7402 1166.93 Q82.7246 1166.93 79.669 1162.92 Q76.6135 1158.88 76.6135 1150.89 L76.6135 1142.67 L76.0406 1142.67 Q71.9984 1142.67 69.8022 1145.35 Q67.5742 1147.99 67.5742 1152.8 Q67.5742 1155.85 68.3063 1158.75 Q69.0383 1161.64 70.5024 1164.32 L65.0916 1164.32 Q63.8503 1161.1 63.2455 1158.08 Q62.609 1155.06 62.609 1152.19 Q62.609 1144.46 66.6194 1140.64 Q70.6297 1136.82 78.7779 1136.82 Z" fill="#000000" fill-rule="nonzero" fill-opacity="1" /><path clip-path="url(#clip030)" d="M80.8785 1101.3 Q74.5128 1101.3 71.0117 1103.94 Q67.5106 1106.55 67.5106 1111.29 Q67.5106 1116 71.0117 1118.64 Q74.5128 1121.25 80.8785 1121.25 Q87.2124 1121.25 90.7136 1118.64 Q94.2147 1116 94.2147 1111.29 Q94.2147 1106.55 90.7136 1103.94 Q87.2124 1101.3 80.8785 1101.3 M94.6921 1095.44 Q103.795 1095.44 108.219 1099.48 Q112.675 1103.53 112.675 1111.86 Q112.675 1114.95 112.198 1117.69 Q111.752 1120.43 110.797 1123 L105.1 1123 Q106.501 1120.43 107.169 1117.91 Q107.837 1115.4 107.837 1112.79 Q107.837 1107.03 104.814 1104.16 Q101.822 1101.3 95.7425 1101.3 L92.8461 1101.3 Q95.9971 1103.11 97.5567 1105.94 Q99.1163 1108.78 99.1163 1112.72 Q99.1163 1119.28 94.1192 1123.29 Q89.1221 1127.3 80.8785 1127.3 Q72.6031 1127.3 67.606 1123.29 Q62.609 1119.28 62.609 1112.72 Q62.609 1108.78 64.1686 1105.94 Q65.7282 1103.11 68.8792 1101.3 L63.4683 1101.3 L63.4683 1095.44 L94.6921 1095.44 Z" fill="#000000" fill-rule="nonzero" fill-opacity="1" /><path clip-path="url(#clip030)" d="M79.8282 1052.89 L82.6928 1052.89 L82.6928 1079.81 Q88.7402 1079.43 91.923 1076.18 Q95.0741 1072.91 95.0741 1067.08 Q95.0741 1063.71 94.2465 1060.56 Q93.419 1057.37 91.7639 1054.26 L97.3021 1054.26 Q98.6389 1057.41 99.3391 1060.72 Q100.039 1064.03 100.039 1067.43 Q100.039 1075.96 95.0741 1080.96 Q90.1088 1085.92 81.6424 1085.92 Q72.8896 1085.92 67.7652 1081.21 Q62.609 1076.47 62.609 1068.45 Q62.609 1061.26 67.2559 1057.09 Q71.8711 1052.89 79.8282 1052.89 M78.1095 1058.74 Q73.3033 1058.81 70.4388 1061.45 Q67.5742 1064.06 67.5742 1068.39 Q67.5742 1073.29 70.3433 1076.25 Q73.1124 1079.18 78.1413 1079.62 L78.1095 1058.74 Z" fill="#000000" fill-rule="nonzero" fill-opacity="1" /><path clip-path="url(#clip030)" d="M51.5963 1022.3 L51.5963 1013.64 L91.3501 992.571 L51.5963 992.571 L51.5963 986.333 L99.1163 986.333 L99.1163 994.99 L59.3624 1016.06 L99.1163 1016.06 L99.1163 1022.3 L51.5963 1022.3 Z" fill="#000000" fill-rule="nonzero" fill-opacity="1" /><path clip-path="url(#clip030)" d="M56.8798 967.109 L74.7356 967.109 L74.7356 959.024 Q74.7356 954.536 72.4121 952.086 Q70.0887 949.635 65.7918 949.635 Q61.5268 949.635 59.2033 952.086 Q56.8798 954.536 56.8798 959.024 L56.8798 967.109 M51.5963 973.538 L51.5963 959.024 Q51.5963 951.035 55.2247 946.961 Q58.8214 942.855 65.7918 942.855 Q72.8259 942.855 76.4225 946.961 Q80.0192 951.035 80.0192 959.024 L80.0192 967.109 L99.1163 967.109 L99.1163 973.538 L51.5963 973.538 Z" fill="#000000" fill-rule="nonzero" fill-opacity="1" /><path clip-path="url(#clip030)" d="M99.1163 921.976 L51.5963 940.118 L51.5963 933.402 L91.6047 918.347 L51.5963 903.261 L51.5963 896.577 L99.1163 914.687 L99.1163 921.976 Z" fill="#000000" fill-rule="nonzero" fill-opacity="1" /><path clip-path="url(#clip030)" d="M56.8798 862.488 L74.7356 862.488 L74.7356 854.404 Q74.7356 849.916 72.4121 847.465 Q70.0887 845.014 65.7918 845.014 Q61.5268 845.014 59.2033 847.465 Q56.8798 849.916 56.8798 854.404 L56.8798 862.488 M51.5963 868.918 L51.5963 854.404 Q51.5963 846.415 55.2247 842.341 Q58.8214 838.235 65.7918 838.235 Q72.8259 838.235 76.4225 842.341 Q80.0192 846.415 80.0192 854.404 L80.0192 862.488 L99.1163 862.488 L99.1163 868.918 L51.5963 868.918 Z" fill="#000000" fill-rule="nonzero" fill-opacity="1" /><path clip-path="url(#clip030)" d="M68.9428 810.353 Q68.3699 811.34 68.1153 812.517 Q67.8288 813.663 67.8288 815.064 Q67.8288 820.029 71.0753 822.703 Q74.29 825.344 80.3374 825.344 L99.1163 825.344 L99.1163 831.233 L63.4683 831.233 L63.4683 825.344 L69.0065 825.344 Q65.76 823.498 64.2004 820.538 Q62.609 817.578 62.609 813.345 Q62.609 812.74 62.7044 812.008 Q62.7681 811.276 62.9272 810.385 L68.9428 810.353 Z" fill="#000000" fill-rule="nonzero" fill-opacity="1" /><path clip-path="url(#clip030)" d="M67.5742 791.829 Q67.5742 796.539 71.2663 799.277 Q74.9266 802.014 81.3241 802.014 Q87.7217 802.014 91.4138 799.309 Q95.0741 796.571 95.0741 791.829 Q95.0741 787.15 91.3819 784.413 Q87.6898 781.676 81.3241 781.676 Q74.9903 781.676 71.2981 784.413 Q67.5742 787.15 67.5742 791.829 M62.609 791.829 Q62.609 784.19 67.5742 779.829 Q72.5395 775.469 81.3241 775.469 Q90.077 775.469 95.0741 779.829 Q100.039 784.19 100.039 791.829 Q100.039 799.5 95.0741 803.86 Q90.077 808.189 81.3241 808.189 Q72.5395 808.189 67.5742 803.86 Q62.609 799.5 62.609 791.829 Z" fill="#000000" fill-rule="nonzero" fill-opacity="1" /><path clip-path="url(#clip030)" d="M49.5911 747.715 L54.4609 747.715 L54.4609 753.316 Q54.4609 756.467 55.734 757.709 Q57.0071 758.918 60.3173 758.918 L63.4683 758.918 L63.4683 749.274 L68.0198 749.274 L68.0198 758.918 L99.1163 758.918 L99.1163 764.806 L68.0198 764.806 L68.0198 770.408 L63.4683 770.408 L63.4683 764.806 L60.9857 764.806 Q55.0338 764.806 52.3283 762.037 Q49.5911 759.268 49.5911 753.253 L49.5911 747.715 Z" fill="#000000" fill-rule="nonzero" fill-opacity="1" /><path clip-path="url(#clip030)" d="M63.4683 742.813 L63.4683 736.956 L99.1163 736.956 L99.1163 742.813 L63.4683 742.813 M49.5911 742.813 L49.5911 736.956 L57.0071 736.956 L57.0071 742.813 L49.5911 742.813 Z" fill="#000000" fill-rule="nonzero" fill-opacity="1" /><path clip-path="url(#clip030)" d="M53.3469 718.91 L63.4683 718.91 L63.4683 706.847 L68.0198 706.847 L68.0198 718.91 L87.3716 718.91 Q91.7321 718.91 92.9734 717.732 Q94.2147 716.523 94.2147 712.862 L94.2147 706.847 L99.1163 706.847 L99.1163 712.862 Q99.1163 719.642 96.6018 722.22 Q94.0555 724.798 87.3716 724.798 L68.0198 724.798 L68.0198 729.095 L63.4683 729.095 L63.4683 724.798 L53.3469 724.798 L53.3469 718.91 Z" fill="#000000" fill-rule="nonzero" fill-opacity="1" /><path clip-path="url(#clip030)" d="M64.5187 676.419 L70.0568 676.419 Q68.7837 678.901 68.1471 681.575 Q67.5106 684.248 67.5106 687.113 Q67.5106 691.473 68.8473 693.67 Q70.1841 695.834 72.8577 695.834 Q74.8948 695.834 76.0724 694.274 Q77.2183 692.715 78.2686 688.004 L78.7142 685.999 Q80.051 679.761 82.5018 677.151 Q84.9208 674.509 89.2813 674.509 Q94.2465 674.509 97.1429 678.456 Q100.039 682.371 100.039 689.245 Q100.039 692.11 99.4664 695.229 Q98.9253 698.317 97.8113 701.754 L91.7639 701.754 Q93.4508 698.508 94.3102 695.357 Q95.1377 692.206 95.1377 689.118 Q95.1377 684.98 93.7373 682.752 Q92.305 680.524 89.7269 680.524 Q87.3397 680.524 86.0666 682.148 Q84.7934 683.739 83.6158 689.182 L83.1384 691.219 Q81.9925 696.662 79.6372 699.081 Q77.2501 701.499 73.1124 701.499 Q68.0835 701.499 65.3462 697.935 Q62.609 694.37 62.609 687.813 Q62.609 684.567 63.0864 681.702 Q63.5638 678.838 64.5187 676.419 Z" fill="#000000" fill-rule="nonzero" fill-opacity="1" /><path clip-path="url(#clip030)" d="M49.5911 645.004 L49.5911 631.509 L54.1426 631.509 L54.1426 639.147 L103.159 639.147 L103.159 631.509 L107.71 631.509 L107.71 645.004 L49.5911 645.004 Z" fill="#000000" fill-rule="nonzero" fill-opacity="1" /><path clip-path="url(#clip030)" d="M51.5963 618.777 L51.5963 609.197 L83.9341 597.07 L51.5963 584.88 L51.5963 575.299 L99.1163 575.299 L99.1163 581.57 L57.3891 581.57 L89.9815 593.824 L89.9815 600.285 L57.3891 612.539 L99.1163 612.539 L99.1163 618.777 L51.5963 618.777 Z" fill="#000000" fill-rule="nonzero" fill-opacity="1" /><path clip-path="url(#clip030)" d="M63.4683 562.791 L63.4683 556.934 L99.1163 556.934 L99.1163 562.791 L63.4683 562.791 M49.5911 562.791 L49.5911 556.934 L57.0071 556.934 L57.0071 562.791 L49.5911 562.791 Z" fill="#000000" fill-rule="nonzero" fill-opacity="1" /><path clip-path="url(#clip030)" d="M49.5911 544.68 L49.5911 538.824 L99.1163 538.824 L99.1163 544.68 L49.5911 544.68 Z" fill="#000000" fill-rule="nonzero" fill-opacity="1" /><path clip-path="url(#clip030)" d="M49.5911 526.57 L49.5911 520.713 L99.1163 520.713 L99.1163 526.57 L49.5911 526.57 Z" fill="#000000" fill-rule="nonzero" fill-opacity="1" /><path clip-path="url(#clip030)" d="M63.4683 508.459 L63.4683 502.603 L99.1163 502.603 L99.1163 508.459 L63.4683 508.459 M49.5911 508.459 L49.5911 502.603 L57.0071 502.603 L57.0071 508.459 L49.5911 508.459 Z" fill="#000000" fill-rule="nonzero" fill-opacity="1" /><path clip-path="url(#clip030)" d="M67.5742 476.535 Q67.5742 481.246 71.2663 483.983 Q74.9266 486.721 81.3241 486.721 Q87.7217 486.721 91.4138 484.015 Q95.0741 481.278 95.0741 476.535 Q95.0741 471.857 91.3819 469.119 Q87.6898 466.382 81.3241 466.382 Q74.9903 466.382 71.2981 469.119 Q67.5742 471.857 67.5742 476.535 M62.609 476.535 Q62.609 468.897 67.5742 464.536 Q72.5395 460.176 81.3241 460.176 Q90.077 460.176 95.0741 464.536 Q100.039 468.897 100.039 476.535 Q100.039 484.206 95.0741 488.567 Q90.077 492.895 81.3241 492.895 Q72.5395 492.895 67.5742 488.567 Q62.609 484.206 62.609 476.535 Z" fill="#000000" fill-rule="nonzero" fill-opacity="1" /><path clip-path="url(#clip030)" d="M77.6002 420.835 L99.1163 420.835 L99.1163 426.692 L77.7912 426.692 Q72.7304 426.692 70.216 428.665 Q67.7015 430.639 67.7015 434.585 Q67.7015 439.328 70.7252 442.065 Q73.7489 444.802 78.9688 444.802 L99.1163 444.802 L99.1163 450.691 L63.4683 450.691 L63.4683 444.802 L69.0065 444.802 Q65.7918 442.702 64.2004 439.869 Q62.609 437.004 62.609 433.28 Q62.609 427.138 66.4284 423.986 Q70.216 420.835 77.6002 420.835 Z" fill="#000000" fill-rule="nonzero" fill-opacity="1" /><path clip-path="url(#clip030)" d="M51.5963 388.911 L51.5963 382.45 L80.4648 382.45 Q88.1036 382.45 91.4774 379.681 Q94.8194 376.912 94.8194 370.706 Q94.8194 364.531 91.4774 361.762 Q88.1036 358.993 80.4648 358.993 L51.5963 358.993 L51.5963 352.531 L81.2605 352.531 Q90.5544 352.531 95.2969 357.147 Q100.039 361.73 100.039 370.706 Q100.039 379.713 95.2969 384.328 Q90.5544 388.911 81.2605 388.911 L51.5963 388.911 Z" fill="#000000" fill-rule="nonzero" fill-opacity="1" /><path clip-path="url(#clip030)" d="M53.1559 311.982 L59.4261 311.982 Q57.6755 315.642 56.8162 318.889 Q55.9568 322.135 55.9568 325.159 Q55.9568 330.411 57.9938 333.275 Q60.0308 336.108 63.7866 336.108 Q66.9376 336.108 68.5609 334.23 Q70.1523 332.32 71.139 327.037 L71.9347 323.154 Q73.3033 315.96 76.7727 312.555 Q80.2101 309.117 86.0029 309.117 Q92.9097 309.117 96.4745 313.764 Q100.039 318.379 100.039 327.323 Q100.039 330.697 99.2754 334.516 Q98.5115 338.304 97.0156 342.378 L90.3953 342.378 Q92.5914 338.463 93.7054 334.707 Q94.8194 330.952 94.8194 327.323 Q94.8194 321.817 92.6551 318.825 Q90.4908 315.833 86.4804 315.833 Q82.9792 315.833 81.0058 317.997 Q79.0325 320.13 78.0458 325.032 L77.2819 328.946 Q75.8496 336.14 72.7941 339.354 Q69.7385 342.569 64.2959 342.569 Q57.9938 342.569 54.3654 338.145 Q50.7369 333.689 50.7369 325.891 Q50.7369 322.549 51.3417 319.08 Q51.9464 315.61 53.1559 311.982 Z" fill="#000000" fill-rule="nonzero" fill-opacity="1" /><path clip-path="url(#clip030)" d="M56.8798 292.662 L93.8327 292.662 L93.8327 284.896 Q93.8327 275.061 89.3768 270.509 Q84.9208 265.926 75.3085 265.926 Q65.76 265.926 61.3358 270.509 Q56.8798 275.061 56.8798 284.896 L56.8798 292.662 M51.5963 299.091 L51.5963 285.882 Q51.5963 272.069 57.3572 265.608 Q63.0864 259.147 75.3085 259.147 Q87.5944 259.147 93.3553 265.64 Q99.1163 272.133 99.1163 285.882 L99.1163 299.091 L51.5963 299.091 Z" fill="#000000" fill-rule="nonzero" fill-opacity="1" /><path clip-path="url(#clip030)" d="M49.5911 235.466 L107.71 235.466 L107.71 248.961 L103.159 248.961 L103.159 241.354 L54.1426 241.354 L54.1426 248.961 L49.5911 248.961 L49.5911 235.466 Z" fill="#000000" fill-rule="nonzero" fill-opacity="1" /><path clip-path="url(#clip030)" d="M470.147 72.576 L447.057 12.096 L455.605 12.096 L474.765 63.0159 L493.967 12.096 L502.473 12.096 L479.424 72.576 L470.147 72.576 Z" fill="#000000" fill-rule="nonzero" fill-opacity="1" /><path clip-path="url(#clip030)" d="M525.159 49.7694 Q516.125 49.7694 512.641 51.8354 Q509.157 53.9013 509.157 58.8839 Q509.157 62.8538 511.75 65.2034 Q514.383 67.5124 518.88 67.5124 Q525.078 67.5124 528.804 63.1374 Q532.572 58.7219 532.572 51.4303 L532.572 49.7694 L525.159 49.7694 M540.025 46.6907 L540.025 72.576 L532.572 72.576 L532.572 65.6895 Q530.02 69.8214 526.212 71.8063 Q522.404 73.7508 516.895 73.7508 Q509.927 73.7508 505.795 69.8619 Q501.704 65.9325 501.704 59.3701 Q501.704 51.7138 506.808 47.825 Q511.953 43.9361 522.12 43.9361 L532.572 43.9361 L532.572 43.2069 Q532.572 38.0623 529.169 35.2672 Q525.807 32.4315 519.69 32.4315 Q515.801 32.4315 512.115 33.3632 Q508.428 34.295 505.026 36.1584 L505.026 29.2718 Q509.117 27.692 512.965 26.9223 Q516.814 26.1121 520.459 26.1121 Q530.303 26.1121 535.164 31.2163 Q540.025 36.3204 540.025 46.6907 Z" fill="#000000" fill-rule="nonzero" fill-opacity="1" /><path clip-path="url(#clip030)" d="M581.669 34.1734 Q580.413 33.4443 578.914 33.1202 Q577.456 32.7556 575.673 32.7556 Q569.354 32.7556 565.951 36.8875 Q562.589 40.9789 562.589 48.6757 L562.589 72.576 L555.095 72.576 L555.095 27.2059 L562.589 27.2059 L562.589 34.2544 Q564.938 30.1225 568.706 28.1376 Q572.473 26.1121 577.861 26.1121 Q578.63 26.1121 579.562 26.2337 Q580.494 26.3147 581.628 26.5172 L581.669 34.1734 Z" fill="#000000" fill-rule="nonzero" fill-opacity="1" /><path clip-path="url(#clip030)" d="M608.364 76.7889 Q605.204 84.8907 602.207 87.3618 Q599.209 89.8329 594.186 89.8329 L588.231 89.8329 L588.231 83.5945 L592.606 83.5945 Q595.685 83.5945 597.386 82.1361 Q599.088 80.6778 601.154 75.2496 L602.49 71.8468 L584.14 27.2059 L592.039 27.2059 L606.217 62.6918 L620.395 27.2059 L628.295 27.2059 L608.364 76.7889 Z" fill="#000000" fill-rule="nonzero" fill-opacity="1" /><path clip-path="url(#clip030)" d="M638.584 27.2059 L646.038 27.2059 L646.038 72.576 L638.584 72.576 L638.584 27.2059 M638.584 9.54393 L646.038 9.54393 L646.038 18.9825 L638.584 18.9825 L638.584 9.54393 Z" fill="#000000" fill-rule="nonzero" fill-opacity="1" /><path clip-path="url(#clip030)" d="M699.347 45.1919 L699.347 72.576 L691.894 72.576 L691.894 45.4349 Q691.894 38.994 689.382 35.7938 Q686.871 32.5936 681.848 32.5936 Q675.812 32.5936 672.328 36.4419 Q668.844 40.2903 668.844 46.9338 L668.844 72.576 L661.35 72.576 L661.35 27.2059 L668.844 27.2059 L668.844 34.2544 Q671.518 30.163 675.123 28.1376 Q678.769 26.1121 683.508 26.1121 Q691.327 26.1121 695.337 30.9732 Q699.347 35.7938 699.347 45.1919 Z" fill="#000000" fill-rule="nonzero" fill-opacity="1" /><path clip-path="url(#clip030)" d="M744.069 49.3643 Q744.069 41.2625 740.707 36.8065 Q737.385 32.3505 731.35 32.3505 Q725.354 32.3505 721.992 36.8065 Q718.67 41.2625 718.67 49.3643 Q718.67 57.4256 721.992 61.8816 Q725.354 66.3376 731.35 66.3376 Q737.385 66.3376 740.707 61.8816 Q744.069 57.4256 744.069 49.3643 M751.523 66.9452 Q751.523 78.5308 746.378 84.1616 Q741.234 89.8329 730.62 89.8329 Q726.691 89.8329 723.207 89.2252 Q719.723 88.6581 716.442 87.4428 L716.442 80.1917 Q719.723 81.9741 722.924 82.8248 Q726.124 83.6755 729.446 83.6755 Q736.778 83.6755 740.424 79.8271 Q744.069 76.0193 744.069 68.282 L744.069 64.5957 Q741.76 68.6061 738.155 70.5911 Q734.55 72.576 729.527 72.576 Q721.182 72.576 716.078 66.2161 Q710.974 59.8562 710.974 49.3643 Q710.974 38.832 716.078 32.472 Q721.182 26.1121 729.527 26.1121 Q734.55 26.1121 738.155 28.0971 Q741.76 30.082 744.069 34.0924 L744.069 27.2059 L751.523 27.2059 L751.523 66.9452 Z" fill="#000000" fill-rule="nonzero" fill-opacity="1" /><path clip-path="url(#clip030)" d="M801.754 18.8205 L801.754 65.8515 L811.638 65.8515 Q824.156 65.8515 829.949 60.1802 Q835.782 54.509 835.782 42.2752 Q835.782 30.1225 829.949 24.4918 Q824.156 18.8205 811.638 18.8205 L801.754 18.8205 M793.571 12.096 L810.383 12.096 Q827.964 12.096 836.187 19.4281 Q844.41 26.7198 844.41 42.2752 Q844.41 57.9117 836.146 65.2439 Q827.883 72.576 810.383 72.576 L793.571 72.576 L793.571 12.096 Z" fill="#000000" fill-rule="nonzero" fill-opacity="1" /><path clip-path="url(#clip030)" d="M895.938 48.0275 L895.938 51.6733 L861.667 51.6733 Q862.153 59.3701 866.285 63.421 Q870.458 67.4314 877.871 67.4314 Q882.165 67.4314 886.175 66.3781 Q890.226 65.3249 894.196 63.2184 L894.196 70.267 Q890.186 71.9684 885.973 72.8596 Q881.76 73.7508 877.425 73.7508 Q866.569 73.7508 860.209 67.4314 Q853.889 61.1119 853.889 50.3365 Q853.889 39.1965 859.885 32.6746 Q865.921 26.1121 876.129 26.1121 Q885.284 26.1121 890.591 32.0264 Q895.938 37.9003 895.938 48.0275 M888.484 45.84 Q888.403 39.7232 885.041 36.0774 Q881.719 32.4315 876.21 32.4315 Q869.972 32.4315 866.204 35.9558 Q862.477 39.4801 861.91 45.8805 L888.484 45.84 Z" fill="#000000" fill-rule="nonzero" fill-opacity="1" /><path clip-path="url(#clip030)" d="M943.495 35.9153 Q946.291 30.8922 950.179 28.5022 Q954.068 26.1121 959.334 26.1121 Q966.424 26.1121 970.272 31.0947 Q974.12 36.0368 974.12 45.1919 L974.12 72.576 L966.626 72.576 L966.626 45.4349 Q966.626 38.913 964.317 35.7533 Q962.008 32.5936 957.269 32.5936 Q951.476 32.5936 948.113 36.4419 Q944.751 40.2903 944.751 46.9338 L944.751 72.576 L937.257 72.576 L937.257 45.4349 Q937.257 38.8725 934.948 35.7533 Q932.639 32.5936 927.818 32.5936 Q922.107 32.5936 918.744 36.4824 Q915.382 40.3308 915.382 46.9338 L915.382 72.576 L907.888 72.576 L907.888 27.2059 L915.382 27.2059 L915.382 34.2544 Q917.934 30.082 921.499 28.0971 Q925.064 26.1121 929.965 26.1121 Q934.908 26.1121 938.351 28.6237 Q941.835 31.1352 943.495 35.9153 Z" fill="#000000" fill-rule="nonzero" fill-opacity="1" /><path clip-path="url(#clip030)" d="M1009.61 49.7694 Q1000.57 49.7694 997.089 51.8354 Q993.605 53.9013 993.605 58.8839 Q993.605 62.8538 996.198 65.2034 Q998.831 67.5124 1003.33 67.5124 Q1009.53 67.5124 1013.25 63.1374 Q1017.02 58.7219 1017.02 51.4303 L1017.02 49.7694 L1009.61 49.7694 M1024.47 46.6907 L1024.47 72.576 L1017.02 72.576 L1017.02 65.6895 Q1014.47 69.8214 1010.66 71.8063 Q1006.85 73.7508 1001.34 73.7508 Q994.375 73.7508 990.243 69.8619 Q986.151 65.9325 986.151 59.3701 Q986.151 51.7138 991.256 47.825 Q996.4 43.9361 1006.57 43.9361 L1017.02 43.9361 L1017.02 43.2069 Q1017.02 38.0623 1013.62 35.2672 Q1010.25 32.4315 1004.14 32.4315 Q1000.25 32.4315 996.562 33.3632 Q992.876 34.295 989.473 36.1584 L989.473 29.2718 Q993.565 27.692 997.413 26.9223 Q1001.26 26.1121 1004.91 26.1121 Q1014.75 26.1121 1019.61 31.2163 Q1024.47 36.3204 1024.47 46.6907 Z" fill="#000000" fill-rule="nonzero" fill-opacity="1" /><path clip-path="url(#clip030)" d="M1077.54 45.1919 L1077.54 72.576 L1070.09 72.576 L1070.09 45.4349 Q1070.09 38.994 1067.57 35.7938 Q1065.06 32.5936 1060.04 32.5936 Q1054 32.5936 1050.52 36.4419 Q1047.04 40.2903 1047.04 46.9338 L1047.04 72.576 L1039.54 72.576 L1039.54 27.2059 L1047.04 27.2059 L1047.04 34.2544 Q1049.71 30.163 1053.32 28.1376 Q1056.96 26.1121 1061.7 26.1121 Q1069.52 26.1121 1073.53 30.9732 Q1077.54 35.7938 1077.54 45.1919 Z" fill="#000000" fill-rule="nonzero" fill-opacity="1" /><path clip-path="url(#clip030)" d="M1122.26 34.0924 L1122.26 9.54393 L1129.72 9.54393 L1129.72 72.576 L1122.26 72.576 L1122.26 65.7705 Q1119.91 69.8214 1116.31 71.8063 Q1112.74 73.7508 1107.72 73.7508 Q1099.5 73.7508 1094.31 67.1883 Q1089.17 60.6258 1089.17 49.9314 Q1089.17 39.2371 1094.31 32.6746 Q1099.5 26.1121 1107.72 26.1121 Q1112.74 26.1121 1116.31 28.0971 Q1119.91 30.0415 1122.26 34.0924 M1096.86 49.9314 Q1096.86 58.1548 1100.22 62.8538 Q1103.63 67.5124 1109.54 67.5124 Q1115.46 67.5124 1118.86 62.8538 Q1122.26 58.1548 1122.26 49.9314 Q1122.26 41.7081 1118.86 37.0496 Q1115.46 32.3505 1109.54 32.3505 Q1103.63 32.3505 1100.22 37.0496 Q1096.86 41.7081 1096.86 49.9314 Z" fill="#000000" fill-rule="nonzero" fill-opacity="1" /><path clip-path="url(#clip030)" d="M1213 63.9476 L1213 47.7034 L1199.63 47.7034 L1199.63 40.9789 L1221.1 40.9789 L1221.1 66.9452 Q1216.36 70.3075 1210.65 72.0494 Q1204.94 73.7508 1198.46 73.7508 Q1184.28 73.7508 1176.26 65.4869 Q1168.28 57.1826 1168.28 42.3968 Q1168.28 27.5705 1176.26 19.3066 Q1184.28 11.0023 1198.46 11.0023 Q1204.37 11.0023 1209.68 12.4606 Q1215.03 13.9189 1219.52 16.7545 L1219.52 25.464 Q1214.99 21.6156 1209.88 19.6712 Q1204.78 17.7268 1199.15 17.7268 Q1188.05 17.7268 1182.46 23.9246 Q1176.91 30.1225 1176.91 42.3968 Q1176.91 54.6305 1182.46 60.8284 Q1188.05 67.0263 1199.15 67.0263 Q1203.48 67.0263 1206.89 66.2971 Q1210.29 65.5274 1213 63.9476 Z" fill="#000000" fill-rule="nonzero" fill-opacity="1" /><path clip-path="url(#clip030)" d="M1262.02 34.1734 Q1260.76 33.4443 1259.26 33.1202 Q1257.81 32.7556 1256.02 32.7556 Q1249.7 32.7556 1246.3 36.8875 Q1242.94 40.9789 1242.94 48.6757 L1242.94 72.576 L1235.44 72.576 L1235.44 27.2059 L1242.94 27.2059 L1242.94 34.2544 Q1245.29 30.1225 1249.06 28.1376 Q1252.82 26.1121 1258.21 26.1121 Q1258.98 26.1121 1259.91 26.2337 Q1260.84 26.3147 1261.98 26.5172 L1262.02 34.1734 Z" fill="#000000" fill-rule="nonzero" fill-opacity="1" /><path clip-path="url(#clip030)" d="M1285.59 32.4315 Q1279.6 32.4315 1276.12 37.1306 Q1272.63 41.7891 1272.63 49.9314 Q1272.63 58.0738 1276.07 62.7728 Q1279.56 67.4314 1285.59 67.4314 Q1291.55 67.4314 1295.03 62.7323 Q1298.52 58.0333 1298.52 49.9314 Q1298.52 41.8701 1295.03 37.1711 Q1291.55 32.4315 1285.59 32.4315 M1285.59 26.1121 Q1295.32 26.1121 1300.87 32.4315 Q1306.42 38.7509 1306.42 49.9314 Q1306.42 61.0714 1300.87 67.4314 Q1295.32 73.7508 1285.59 73.7508 Q1275.83 73.7508 1270.28 67.4314 Q1264.77 61.0714 1264.77 49.9314 Q1264.77 38.7509 1270.28 32.4315 Q1275.83 26.1121 1285.59 26.1121 Z" fill="#000000" fill-rule="nonzero" fill-opacity="1" /><path clip-path="url(#clip030)" d="M1314.44 27.2059 L1321.89 27.2059 L1331.21 62.6108 L1340.48 27.2059 L1349.27 27.2059 L1358.59 62.6108 L1367.87 27.2059 L1375.32 27.2059 L1363.45 72.576 L1354.66 72.576 L1344.9 35.3887 L1335.1 72.576 L1326.31 72.576 L1314.44 27.2059 Z" fill="#000000" fill-rule="nonzero" fill-opacity="1" /><path clip-path="url(#clip030)" d="M1394 14.324 L1394 27.2059 L1409.35 27.2059 L1409.35 32.9987 L1394 32.9987 L1394 57.6282 Q1394 63.1779 1395.5 64.7578 Q1397.03 66.3376 1401.69 66.3376 L1409.35 66.3376 L1409.35 72.576 L1401.69 72.576 Q1393.06 72.576 1389.78 69.3758 Q1386.5 66.1351 1386.5 57.6282 L1386.5 32.9987 L1381.03 32.9987 L1381.03 27.2059 L1386.5 27.2059 L1386.5 14.324 L1394 14.324 Z" fill="#000000" fill-rule="nonzero" fill-opacity="1" /><path clip-path="url(#clip030)" d="M1456.87 45.1919 L1456.87 72.576 L1449.41 72.576 L1449.41 45.4349 Q1449.41 38.994 1446.9 35.7938 Q1444.39 32.5936 1439.37 32.5936 Q1433.33 32.5936 1429.85 36.4419 Q1426.36 40.2903 1426.36 46.9338 L1426.36 72.576 L1418.87 72.576 L1418.87 9.54393 L1426.36 9.54393 L1426.36 34.2544 Q1429.04 30.163 1432.64 28.1376 Q1436.29 26.1121 1441.03 26.1121 Q1448.85 26.1121 1452.86 30.9732 Q1456.87 35.7938 1456.87 45.1919 Z" fill="#000000" fill-rule="nonzero" fill-opacity="1" /><path clip-path="url(#clip030)" d="M1473.64 62.2867 L1482.18 62.2867 L1482.18 69.2543 L1475.54 82.2172 L1470.32 82.2172 L1473.64 69.2543 L1473.64 62.2867 Z" fill="#000000" fill-rule="nonzero" fill-opacity="1" /><path clip-path="url(#clip030)" d="M1545.01 20.1573 L1533.91 50.2555 L1556.15 50.2555 L1545.01 20.1573 M1540.4 12.096 L1549.67 12.096 L1572.72 72.576 L1564.22 72.576 L1558.71 57.061 L1531.44 57.061 L1525.93 72.576 L1517.31 72.576 L1540.4 12.096 Z" fill="#000000" fill-rule="nonzero" fill-opacity="1" /><path clip-path="url(#clip030)" d="M1571.02 27.2059 L1578.92 27.2059 L1593.1 65.2844 L1607.28 27.2059 L1615.18 27.2059 L1598.16 72.576 L1588.03 72.576 L1571.02 27.2059 Z" fill="#000000" fill-rule="nonzero" fill-opacity="1" /><path clip-path="url(#clip030)" d="M1664.27 48.0275 L1664.27 51.6733 L1630 51.6733 Q1630.49 59.3701 1634.62 63.421 Q1638.79 67.4314 1646.21 67.4314 Q1650.5 67.4314 1654.51 66.3781 Q1658.56 65.3249 1662.53 63.2184 L1662.53 70.267 Q1658.52 71.9684 1654.31 72.8596 Q1650.09 73.7508 1645.76 73.7508 Q1634.9 73.7508 1628.54 67.4314 Q1622.22 61.1119 1622.22 50.3365 Q1622.22 39.1965 1628.22 32.6746 Q1634.26 26.1121 1644.46 26.1121 Q1653.62 26.1121 1658.93 32.0264 Q1664.27 37.9003 1664.27 48.0275 M1656.82 45.84 Q1656.74 39.7232 1653.38 36.0774 Q1650.05 32.4315 1644.54 32.4315 Q1638.31 32.4315 1634.54 35.9558 Q1630.81 39.4801 1630.25 45.8805 L1656.82 45.84 Z" fill="#000000" fill-rule="nonzero" fill-opacity="1" /><path clip-path="url(#clip030)" d="M1702.8 34.1734 Q1701.54 33.4443 1700.04 33.1202 Q1698.58 32.7556 1696.8 32.7556 Q1690.48 32.7556 1687.08 36.8875 Q1683.72 40.9789 1683.72 48.6757 L1683.72 72.576 L1676.22 72.576 L1676.22 27.2059 L1683.72 27.2059 L1683.72 34.2544 Q1686.07 30.1225 1689.83 28.1376 Q1693.6 26.1121 1698.99 26.1121 Q1699.76 26.1121 1700.69 26.2337 Q1701.62 26.3147 1702.76 26.5172 L1702.8 34.1734 Z" fill="#000000" fill-rule="nonzero" fill-opacity="1" /><path clip-path="url(#clip030)" d="M1731.23 49.7694 Q1722.2 49.7694 1718.72 51.8354 Q1715.23 53.9013 1715.23 58.8839 Q1715.23 62.8538 1717.83 65.2034 Q1720.46 67.5124 1724.96 67.5124 Q1731.15 67.5124 1734.88 63.1374 Q1738.65 58.7219 1738.65 51.4303 L1738.65 49.7694 L1731.23 49.7694 M1746.1 46.6907 L1746.1 72.576 L1738.65 72.576 L1738.65 65.6895 Q1736.1 69.8214 1732.29 71.8063 Q1728.48 73.7508 1722.97 73.7508 Q1716 73.7508 1711.87 69.8619 Q1707.78 65.9325 1707.78 59.3701 Q1707.78 51.7138 1712.88 47.825 Q1718.03 43.9361 1728.2 43.9361 L1738.65 43.9361 L1738.65 43.2069 Q1738.65 38.0623 1735.24 35.2672 Q1731.88 32.4315 1725.77 32.4315 Q1721.88 32.4315 1718.19 33.3632 Q1714.5 34.295 1711.1 36.1584 L1711.1 29.2718 Q1715.19 27.692 1719.04 26.9223 Q1722.89 26.1121 1726.54 26.1121 Q1736.38 26.1121 1741.24 31.2163 Q1746.1 36.3204 1746.1 46.6907 Z" fill="#000000" fill-rule="nonzero" fill-opacity="1" /><path clip-path="url(#clip030)" d="M1791.31 49.3643 Q1791.31 41.2625 1787.95 36.8065 Q1784.63 32.3505 1778.59 32.3505 Q1772.59 32.3505 1769.23 36.8065 Q1765.91 41.2625 1765.91 49.3643 Q1765.91 57.4256 1769.23 61.8816 Q1772.59 66.3376 1778.59 66.3376 Q1784.63 66.3376 1787.95 61.8816 Q1791.31 57.4256 1791.31 49.3643 M1798.76 66.9452 Q1798.76 78.5308 1793.62 84.1616 Q1788.47 89.8329 1777.86 89.8329 Q1773.93 89.8329 1770.45 89.2252 Q1766.96 88.6581 1763.68 87.4428 L1763.68 80.1917 Q1766.96 81.9741 1770.16 82.8248 Q1773.36 83.6755 1776.69 83.6755 Q1784.02 83.6755 1787.66 79.8271 Q1791.31 76.0193 1791.31 68.282 L1791.31 64.5957 Q1789 68.6061 1785.39 70.5911 Q1781.79 72.576 1776.77 72.576 Q1768.42 72.576 1763.32 66.2161 Q1758.21 59.8562 1758.21 49.3643 Q1758.21 38.832 1763.32 32.472 Q1768.42 26.1121 1776.77 26.1121 Q1781.79 26.1121 1785.39 28.0971 Q1789 30.082 1791.31 34.0924 L1791.31 27.2059 L1798.76 27.2059 L1798.76 66.9452 Z" fill="#000000" fill-rule="nonzero" fill-opacity="1" /><path clip-path="url(#clip030)" d="M1852.92 48.0275 L1852.92 51.6733 L1818.65 51.6733 Q1819.14 59.3701 1823.27 63.421 Q1827.44 67.4314 1834.86 67.4314 Q1839.15 67.4314 1843.16 66.3781 Q1847.21 65.3249 1851.18 63.2184 L1851.18 70.267 Q1847.17 71.9684 1842.96 72.8596 Q1838.75 73.7508 1834.41 73.7508 Q1823.55 73.7508 1817.19 67.4314 Q1810.88 61.1119 1810.88 50.3365 Q1810.88 39.1965 1816.87 32.6746 Q1822.91 26.1121 1833.11 26.1121 Q1842.27 26.1121 1847.58 32.0264 Q1852.92 37.9003 1852.92 48.0275 M1845.47 45.84 Q1845.39 39.7232 1842.03 36.0774 Q1838.7 32.4315 1833.2 32.4315 Q1826.96 32.4315 1823.19 35.9558 Q1819.46 39.4801 1818.9 45.8805 L1845.47 45.84 Z" fill="#000000" fill-rule="nonzero" fill-opacity="1" /><path clip-path="url(#clip030)" d="M1898.74 65.7705 L1898.74 89.8329 L1891.24 89.8329 L1891.24 27.2059 L1898.74 27.2059 L1898.74 34.0924 Q1901.09 30.0415 1904.65 28.0971 Q1908.26 26.1121 1913.24 26.1121 Q1921.51 26.1121 1926.65 32.6746 Q1931.84 39.2371 1931.84 49.9314 Q1931.84 60.6258 1926.65 67.1883 Q1921.51 73.7508 1913.24 73.7508 Q1908.26 73.7508 1904.65 71.8063 Q1901.09 69.8214 1898.74 65.7705 M1924.1 49.9314 Q1924.1 41.7081 1920.7 37.0496 Q1917.33 32.3505 1911.42 32.3505 Q1905.5 32.3505 1902.1 37.0496 Q1898.74 41.7081 1898.74 49.9314 Q1898.74 58.1548 1902.1 62.8538 Q1905.5 67.5124 1911.42 67.5124 Q1917.33 67.5124 1920.7 62.8538 Q1924.1 58.1548 1924.1 49.9314 Z" fill="#000000" fill-rule="nonzero" fill-opacity="1" /><path clip-path="url(#clip030)" d="M1970.48 34.1734 Q1969.22 33.4443 1967.73 33.1202 Q1966.27 32.7556 1964.49 32.7556 Q1958.17 32.7556 1954.76 36.8875 Q1951.4 40.9789 1951.4 48.6757 L1951.4 72.576 L1943.91 72.576 L1943.91 27.2059 L1951.4 27.2059 L1951.4 34.2544 Q1953.75 30.1225 1957.52 28.1376 Q1961.29 26.1121 1966.67 26.1121 Q1967.44 26.1121 1968.37 26.2337 Q1969.31 26.3147 1970.44 26.5172 L1970.48 34.1734 Z" fill="#000000" fill-rule="nonzero" fill-opacity="1" /><path clip-path="url(#clip030)" d="M1994.06 32.4315 Q1988.06 32.4315 1984.58 37.1306 Q1981.09 41.7891 1981.09 49.9314 Q1981.09 58.0738 1984.54 62.7728 Q1988.02 67.4314 1994.06 67.4314 Q2000.01 67.4314 2003.5 62.7323 Q2006.98 58.0333 2006.98 49.9314 Q2006.98 41.8701 2003.5 37.1711 Q2000.01 32.4315 1994.06 32.4315 M1994.06 26.1121 Q2003.78 26.1121 2009.33 32.4315 Q2014.88 38.7509 2014.88 49.9314 Q2014.88 61.0714 2009.33 67.4314 Q2003.78 73.7508 1994.06 73.7508 Q1984.29 73.7508 1978.74 67.4314 Q1973.24 61.0714 1973.24 49.9314 Q1973.24 38.7509 1978.74 32.4315 Q1984.29 26.1121 1994.06 26.1121 Z" fill="#000000" fill-rule="nonzero" fill-opacity="1" /><path clip-path="url(#clip030)" d="M2050.2 9.54393 L2050.2 15.7418 L2043.07 15.7418 Q2039.06 15.7418 2037.48 17.3622 Q2035.94 18.9825 2035.94 23.1955 L2035.94 27.2059 L2048.22 27.2059 L2048.22 32.9987 L2035.94 32.9987 L2035.94 72.576 L2028.45 72.576 L2028.45 32.9987 L2021.32 32.9987 L2021.32 27.2059 L2028.45 27.2059 L2028.45 24.0462 Q2028.45 16.471 2031.97 13.0277 Q2035.5 9.54393 2043.15 9.54393 L2050.2 9.54393 Z" fill="#000000" fill-rule="nonzero" fill-opacity="1" /><path clip-path="url(#clip030)" d="M2056.44 27.2059 L2063.89 27.2059 L2063.89 72.576 L2056.44 72.576 L2056.44 27.2059 M2056.44 9.54393 L2063.89 9.54393 L2063.89 18.9825 L2056.44 18.9825 L2056.44 9.54393 Z" fill="#000000" fill-rule="nonzero" fill-opacity="1" /><path clip-path="url(#clip030)" d="M2086.86 14.324 L2086.86 27.2059 L2102.22 27.2059 L2102.22 32.9987 L2086.86 32.9987 L2086.86 57.6282 Q2086.86 63.1779 2088.36 64.7578 Q2089.9 66.3376 2094.56 66.3376 L2102.22 66.3376 L2102.22 72.576 L2094.56 72.576 Q2085.93 72.576 2082.65 69.3758 Q2079.37 66.1351 2079.37 57.6282 L2079.37 32.9987 L2073.9 32.9987 L2073.9 27.2059 L2079.37 27.2059 L2079.37 14.324 L2086.86 14.324 Z" fill="#000000" fill-rule="nonzero" fill-opacity="1" /><path clip-path="url(#clip030)" d="M2140.94 28.5427 L2140.94 35.5912 Q2137.78 33.9709 2134.38 33.1607 Q2130.98 32.3505 2127.33 32.3505 Q2121.78 32.3505 2118.99 34.0519 Q2116.23 35.7533 2116.23 39.156 Q2116.23 41.7486 2118.22 43.2475 Q2120.2 44.7058 2126.2 46.0426 L2128.75 46.6097 Q2136.69 48.3111 2140.01 51.4303 Q2143.37 54.509 2143.37 60.0587 Q2143.37 66.3781 2138.35 70.0644 Q2133.37 73.7508 2124.62 73.7508 Q2120.97 73.7508 2117 73.0216 Q2113.07 72.3329 2108.7 70.9151 L2108.7 63.2184 Q2112.83 65.3654 2116.84 66.4591 Q2120.85 67.5124 2124.78 67.5124 Q2130.05 67.5124 2132.88 65.73 Q2135.72 63.9071 2135.72 60.6258 Q2135.72 57.5877 2133.65 55.9673 Q2131.63 54.3469 2124.7 52.8481 L2122.11 52.2405 Q2115.18 50.7821 2112.1 47.7845 Q2109.02 44.7463 2109.02 39.4801 Q2109.02 33.0797 2113.56 29.5959 Q2118.1 26.1121 2126.44 26.1121 Q2130.57 26.1121 2134.22 26.7198 Q2137.86 27.3274 2140.94 28.5427 Z" fill="#000000" fill-rule="nonzero" fill-opacity="1" /><path clip-path="url(#clip030)" d="M2204.58 9.54393 L2204.58 15.7418 L2197.45 15.7418 Q2193.44 15.7418 2191.86 17.3622 Q2190.32 18.9825 2190.32 23.1955 L2190.32 27.2059 L2202.6 27.2059 L2202.6 32.9987 L2190.32 32.9987 L2190.32 72.576 L2182.83 72.576 L2182.83 32.9987 L2175.7 32.9987 L2175.7 27.2059 L2182.83 27.2059 L2182.83 24.0462 Q2182.83 16.471 2186.35 13.0277 Q2189.88 9.54393 2197.53 9.54393 L2204.58 9.54393 Z" fill="#000000" fill-rule="nonzero" fill-opacity="1" /><path clip-path="url(#clip030)" d="M2228.4 32.4315 Q2222.41 32.4315 2218.92 37.1306 Q2215.44 41.7891 2215.44 49.9314 Q2215.44 58.0738 2218.88 62.7728 Q2222.37 67.4314 2228.4 67.4314 Q2234.36 67.4314 2237.84 62.7323 Q2241.32 58.0333 2241.32 49.9314 Q2241.32 41.8701 2237.84 37.1711 Q2234.36 32.4315 2228.4 32.4315 M2228.4 26.1121 Q2238.12 26.1121 2243.67 32.4315 Q2249.22 38.7509 2249.22 49.9314 Q2249.22 61.0714 2243.67 67.4314 Q2238.12 73.7508 2228.4 73.7508 Q2218.64 73.7508 2213.09 67.4314 Q2207.58 61.0714 2207.58 49.9314 Q2207.58 38.7509 2213.09 32.4315 Q2218.64 26.1121 2228.4 26.1121 Z" fill="#000000" fill-rule="nonzero" fill-opacity="1" /><path clip-path="url(#clip030)" d="M2287.87 34.1734 Q2286.61 33.4443 2285.11 33.1202 Q2283.66 32.7556 2281.87 32.7556 Q2275.55 32.7556 2272.15 36.8875 Q2268.79 40.9789 2268.79 48.6757 L2268.79 72.576 L2261.3 72.576 L2261.3 27.2059 L2268.79 27.2059 L2268.79 34.2544 Q2271.14 30.1225 2274.91 28.1376 Q2278.67 26.1121 2284.06 26.1121 Q2284.83 26.1121 2285.76 26.2337 Q2286.69 26.3147 2287.83 26.5172 L2287.87 34.1734 Z" fill="#000000" fill-rule="nonzero" fill-opacity="1" /><path clip-path="url(#clip030)" d="M2342.6 20.1573 L2331.5 50.2555 L2353.74 50.2555 L2342.6 20.1573 M2337.98 12.096 L2347.26 12.096 L2370.3 72.576 L2361.8 72.576 L2356.29 57.061 L2329.03 57.061 L2323.52 72.576 L2314.89 72.576 L2337.98 12.096 Z" fill="#000000" fill-rule="nonzero" fill-opacity="1" /><path clip-path="url(#clip030)" d="M2407.21 34.0924 L2407.21 9.54393 L2414.66 9.54393 L2414.66 72.576 L2407.21 72.576 L2407.21 65.7705 Q2404.86 69.8214 2401.25 71.8063 Q2397.69 73.7508 2392.67 73.7508 Q2384.44 73.7508 2379.26 67.1883 Q2374.11 60.6258 2374.11 49.9314 Q2374.11 39.2371 2379.26 32.6746 Q2384.44 26.1121 2392.67 26.1121 Q2397.69 26.1121 2401.25 28.0971 Q2404.86 30.0415 2407.21 34.0924 M2381.81 49.9314 Q2381.81 58.1548 2385.17 62.8538 Q2388.57 67.5124 2394.49 67.5124 Q2400.4 67.5124 2403.81 62.8538 Q2407.21 58.1548 2407.21 49.9314 Q2407.21 41.7081 2403.81 37.0496 Q2400.4 32.3505 2394.49 32.3505 Q2388.57 32.3505 2385.17 37.0496 Q2381.81 41.7081 2381.81 49.9314 Z" fill="#000000" fill-rule="nonzero" fill-opacity="1" /><path clip-path="url(#clip030)" d="M2450.63 49.7694 Q2441.6 49.7694 2438.12 51.8354 Q2434.63 53.9013 2434.63 58.8839 Q2434.63 62.8538 2437.23 65.2034 Q2439.86 67.5124 2444.36 67.5124 Q2450.55 67.5124 2454.28 63.1374 Q2458.05 58.7219 2458.05 51.4303 L2458.05 49.7694 L2450.63 49.7694 M2465.5 46.6907 L2465.5 72.576 L2458.05 72.576 L2458.05 65.6895 Q2455.5 69.8214 2451.69 71.8063 Q2447.88 73.7508 2442.37 73.7508 Q2435.4 73.7508 2431.27 69.8619 Q2427.18 65.9325 2427.18 59.3701 Q2427.18 51.7138 2432.28 47.825 Q2437.43 43.9361 2447.6 43.9361 L2458.05 43.9361 L2458.05 43.2069 Q2458.05 38.0623 2454.64 35.2672 Q2451.28 32.4315 2445.17 32.4315 Q2441.28 32.4315 2437.59 33.3632 Q2433.9 34.295 2430.5 36.1584 L2430.5 29.2718 Q2434.59 27.692 2438.44 26.9223 Q2442.29 26.1121 2445.94 26.1121 Q2455.78 26.1121 2460.64 31.2163 Q2465.5 36.3204 2465.5 46.6907 Z" fill="#000000" fill-rule="nonzero" fill-opacity="1" /><path clip-path="url(#clip030)" d="M2488.06 65.7705 L2488.06 89.8329 L2480.57 89.8329 L2480.57 27.2059 L2488.06 27.2059 L2488.06 34.0924 Q2490.41 30.0415 2493.98 28.0971 Q2497.58 26.1121 2502.57 26.1121 Q2510.83 26.1121 2515.98 32.6746 Q2521.16 39.2371 2521.16 49.9314 Q2521.16 60.6258 2515.98 67.1883 Q2510.83 73.7508 2502.57 73.7508 Q2497.58 73.7508 2493.98 71.8063 Q2490.41 69.8214 2488.06 65.7705 M2513.42 49.9314 Q2513.42 41.7081 2510.02 37.0496 Q2506.66 32.3505 2500.74 32.3505 Q2494.83 32.3505 2491.43 37.0496 Q2488.06 41.7081 2488.06 49.9314 Q2488.06 58.1548 2491.43 62.8538 Q2494.83 67.5124 2500.74 67.5124 Q2506.66 67.5124 2510.02 62.8538 Q2513.42 58.1548 2513.42 49.9314 Z" fill="#000000" fill-rule="nonzero" fill-opacity="1" /><path clip-path="url(#clip030)" d="M2540.89 14.324 L2540.89 27.2059 L2556.24 27.2059 L2556.24 32.9987 L2540.89 32.9987 L2540.89 57.6282 Q2540.89 63.1779 2542.39 64.7578 Q2543.93 66.3376 2548.59 66.3376 L2556.24 66.3376 L2556.24 72.576 L2548.59 72.576 Q2539.96 72.576 2536.68 69.3758 Q2533.39 66.1351 2533.39 57.6282 L2533.39 32.9987 L2527.93 32.9987 L2527.93 27.2059 L2533.39 27.2059 L2533.39 14.324 L2540.89 14.324 Z" fill="#000000" fill-rule="nonzero" fill-opacity="1" /><path clip-path="url(#clip030)" d="M2566.04 27.2059 L2573.5 27.2059 L2573.5 72.576 L2566.04 72.576 L2566.04 27.2059 M2566.04 9.54393 L2573.5 9.54393 L2573.5 18.9825 L2566.04 18.9825 L2566.04 9.54393 Z" fill="#000000" fill-rule="nonzero" fill-opacity="1" /><path clip-path="url(#clip030)" d="M2583.75 27.2059 L2591.65 27.2059 L2605.82 65.2844 L2620 27.2059 L2627.9 27.2059 L2610.89 72.576 L2600.76 72.576 L2583.75 27.2059 Z" fill="#000000" fill-rule="nonzero" fill-opacity="1" /><path clip-path="url(#clip030)" d="M2677 48.0275 L2677 51.6733 L2642.73 51.6733 Q2643.21 59.3701 2647.35 63.421 Q2651.52 67.4314 2658.93 67.4314 Q2663.23 67.4314 2667.24 66.3781 Q2671.29 65.3249 2675.26 63.2184 L2675.26 70.267 Q2671.25 71.9684 2667.03 72.8596 Q2662.82 73.7508 2658.49 73.7508 Q2647.63 73.7508 2641.27 67.4314 Q2634.95 61.1119 2634.95 50.3365 Q2634.95 39.1965 2640.95 32.6746 Q2646.98 26.1121 2657.19 26.1121 Q2666.34 26.1121 2671.65 32.0264 Q2677 37.9003 2677 48.0275 M2669.55 45.84 Q2669.46 39.7232 2666.1 36.0774 Q2662.78 32.4315 2657.27 32.4315 Q2651.03 32.4315 2647.27 35.9558 Q2643.54 39.4801 2642.97 45.8805 L2669.55 45.84 Z" fill="#000000" fill-rule="nonzero" fill-opacity="1" /><path clip-path="url(#clip030)" d="M2724.11 18.8205 L2724.11 41.5461 L2734.4 41.5461 Q2740.11 41.5461 2743.23 38.5889 Q2746.35 35.6318 2746.35 30.163 Q2746.35 24.7348 2743.23 21.7777 Q2740.11 18.8205 2734.4 18.8205 L2724.11 18.8205 M2715.93 12.096 L2734.4 12.096 Q2744.57 12.096 2749.75 16.714 Q2754.98 21.2916 2754.98 30.163 Q2754.98 39.1155 2749.75 43.6931 Q2744.57 48.2706 2734.4 48.2706 L2724.11 48.2706 L2724.11 72.576 L2715.93 72.576 L2715.93 12.096 Z" fill="#000000" fill-rule="nonzero" fill-opacity="1" /><path clip-path="url(#clip030)" d="M2780.26 32.4315 Q2774.26 32.4315 2770.78 37.1306 Q2767.29 41.7891 2767.29 49.9314 Q2767.29 58.0738 2770.74 62.7728 Q2774.22 67.4314 2780.26 67.4314 Q2786.21 67.4314 2789.7 62.7323 Q2793.18 58.0333 2793.18 49.9314 Q2793.18 41.8701 2789.7 37.1711 Q2786.21 32.4315 2780.26 32.4315 M2780.26 26.1121 Q2789.98 26.1121 2795.53 32.4315 Q2801.08 38.7509 2801.08 49.9314 Q2801.08 61.0714 2795.53 67.4314 Q2789.98 73.7508 2780.26 73.7508 Q2770.49 73.7508 2764.94 67.4314 Q2759.43 61.0714 2759.43 49.9314 Q2759.43 38.7509 2764.94 32.4315 Q2770.49 26.1121 2780.26 26.1121 Z" fill="#000000" fill-rule="nonzero" fill-opacity="1" /><path clip-path="url(#clip030)" d="M2813.43 9.54393 L2820.89 9.54393 L2820.89 72.576 L2813.43 72.576 L2813.43 9.54393 Z" fill="#000000" fill-rule="nonzero" fill-opacity="1" /><path clip-path="url(#clip030)" d="M2836.48 27.2059 L2843.94 27.2059 L2843.94 72.576 L2836.48 72.576 L2836.48 27.2059 M2836.48 9.54393 L2843.94 9.54393 L2843.94 18.9825 L2836.48 18.9825 L2836.48 9.54393 Z" fill="#000000" fill-rule="nonzero" fill-opacity="1" /><path clip-path="url(#clip030)" d="M2892.18 28.9478 L2892.18 35.9153 Q2889.02 34.1734 2885.82 33.3227 Q2882.66 32.4315 2879.42 32.4315 Q2872.17 32.4315 2868.16 37.0496 Q2864.15 41.6271 2864.15 49.9314 Q2864.15 58.2358 2868.16 62.8538 Q2872.17 67.4314 2879.42 67.4314 Q2882.66 67.4314 2885.82 66.5807 Q2889.02 65.6895 2892.18 63.9476 L2892.18 70.8341 Q2889.06 72.2924 2885.7 73.0216 Q2882.38 73.7508 2878.61 73.7508 Q2868.36 73.7508 2862.33 67.3098 Q2856.29 60.8689 2856.29 49.9314 Q2856.29 38.832 2862.37 32.472 Q2868.49 26.1121 2879.1 26.1121 Q2882.54 26.1121 2885.82 26.8413 Q2889.1 27.5299 2892.18 28.9478 Z" fill="#000000" fill-rule="nonzero" fill-opacity="1" /><path clip-path="url(#clip030)" d="M2924.02 76.7889 Q2920.86 84.8907 2917.87 87.3618 Q2914.87 89.8329 2909.84 89.8329 L2903.89 89.8329 L2903.89 83.5945 L2908.26 83.5945 Q2911.34 83.5945 2913.05 82.1361 Q2914.75 80.6778 2916.81 75.2496 L2918.15 71.8468 L2899.8 27.2059 L2907.7 27.2059 L2921.88 62.6918 L2936.05 27.2059 L2943.95 27.2059 L2924.02 76.7889 Z" fill="#000000" fill-rule="nonzero" fill-opacity="1" /><polyline clip-path="url(#clip032)" style="stroke:#009af9; stroke-linecap:round; stroke-linejoin:round; stroke-width:4; stroke-opacity:1; fill:none" points="380.167,517.622 619.319,339.611 858.472,227.185 1097.62,205.572 1336.78,233.388 1575.93,318.048 1815.08,442.016 2054.23,593.44 2293.39,763.784 2532.54,948.834 2771.69,1144.06 3010.84,1346.48 "/>
<circle clip-path="url(#clip032)" cx="380.167" cy="517.622" r="14.4" fill="#009af9" fill-rule="evenodd" fill-opacity="1" stroke="#000000" stroke-opacity="1" stroke-width="3.2"/>
<circle clip-path="url(#clip032)" cx="619.319" cy="339.611" r="14.4" fill="#009af9" fill-rule="evenodd" fill-opacity="1" stroke="#000000" stroke-opacity="1" stroke-width="3.2"/>
<circle clip-path="url(#clip032)" cx="858.472" cy="227.185" r="14.4" fill="#009af9" fill-rule="evenodd" fill-opacity="1" stroke="#000000" stroke-opacity="1" stroke-width="3.2"/>
<circle clip-path="url(#clip032)" cx="1097.62" cy="205.572" r="14.4" fill="#009af9" fill-rule="evenodd" fill-opacity="1" stroke="#000000" stroke-opacity="1" stroke-width="3.2"/>
<circle clip-path="url(#clip032)" cx="1336.78" cy="233.388" r="14.4" fill="#009af9" fill-rule="evenodd" fill-opacity="1" stroke="#000000" stroke-opacity="1" stroke-width="3.2"/>
<circle clip-path="url(#clip032)" cx="1575.93" cy="318.048" r="14.4" fill="#009af9" fill-rule="evenodd" fill-opacity="1" stroke="#000000" stroke-opacity="1" stroke-width="3.2"/>
<circle clip-path="url(#clip032)" cx="1815.08" cy="442.016" r="14.4" fill="#009af9" fill-rule="evenodd" fill-opacity="1" stroke="#000000" stroke-opacity="1" stroke-width="3.2"/>
<circle clip-path="url(#clip032)" cx="2054.23" cy="593.44" r="14.4" fill="#009af9" fill-rule="evenodd" fill-opacity="1" stroke="#000000" stroke-opacity="1" stroke-width="3.2"/>
<circle clip-path="url(#clip032)" cx="2293.39" cy="763.784" r="14.4" fill="#009af9" fill-rule="evenodd" fill-opacity="1" stroke="#000000" stroke-opacity="1" stroke-width="3.2"/>
<circle clip-path="url(#clip032)" cx="2532.54" cy="948.834" r="14.4" fill="#009af9" fill-rule="evenodd" fill-opacity="1" stroke="#000000" stroke-opacity="1" stroke-width="3.2"/>
<circle clip-path="url(#clip032)" cx="2771.69" cy="1144.06" r="14.4" fill="#009af9" fill-rule="evenodd" fill-opacity="1" stroke="#000000" stroke-opacity="1" stroke-width="3.2"/>
<circle clip-path="url(#clip032)" cx="3010.84" cy="1346.48" r="14.4" fill="#009af9" fill-rule="evenodd" fill-opacity="1" stroke="#000000" stroke-opacity="1" stroke-width="3.2"/>
<polyline clip-path="url(#clip032)" style="stroke:#e26f46; stroke-linecap:round; stroke-linejoin:round; stroke-width:4; stroke-opacity:1; fill:none" points="-2487.27,783.591 5878.28,783.591 "/>
</svg>
