<?xml version="1.0" encoding="utf-8"?>
<svg xmlns="http://www.w3.org/2000/svg" xmlns:xlink="http://www.w3.org/1999/xlink" width="800" height="400" viewBox="0 0 3200 1600">
<defs>
  <clipPath id="clip960">
    <rect x="0" y="0" width="3200" height="1600"/>
  </clipPath>
</defs>
<path clip-path="url(#clip960)" d="M0 1600 L3200 1600 L3200 0 L0 0  Z" fill="#ffffff" fill-rule="evenodd" fill-opacity="1"/>
<defs>
  <clipPath id="clip961">
    <rect x="640" y="0" width="2241" height="1600"/>
  </clipPath>
</defs>
<path clip-path="url(#clip960)" d="M301.247 1380.71 L3089.76 1380.71 L3089.76 171.344 L301.247 171.344  Z" fill="#ffffff" fill-rule="evenodd" fill-opacity="1"/>
<defs>
  <clipPath id="clip962">
    <rect x="301" y="171" width="2790" height="1210"/>
  </clipPath>
</defs>
<polyline clip-path="url(#clip962)" style="stroke:#000000; stroke-linecap:round; stroke-linejoin:round; stroke-width:2; stroke-opacity:0.1; fill:none" points="380.167,1380.71 380.167,171.344 "/>
<polyline clip-path="url(#clip962)" style="stroke:#000000; stroke-linecap:round; stroke-linejoin:round; stroke-width:2; stroke-opacity:0.1; fill:none" points="619.319,1380.71 619.319,171.344 "/>
<polyline clip-path="url(#clip962)" style="stroke:#000000; stroke-linecap:round; stroke-linejoin:round; stroke-width:2; stroke-opacity:0.1; fill:none" points="858.472,1380.71 858.472,171.344 "/>
<polyline clip-path="url(#clip962)" style="stroke:#000000; stroke-linecap:round; stroke-linejoin:round; stroke-width:2; stroke-opacity:0.1; fill:none" points="1097.62,1380.71 1097.62,171.344 "/>
<polyline clip-path="url(#clip962)" style="stroke:#000000; stroke-linecap:round; stroke-linejoin:round; stroke-width:2; stroke-opacity:0.1; fill:none" points="1336.78,1380.71 1336.78,171.344 "/>
<polyline clip-path="url(#clip962)" style="stroke:#000000; stroke-linecap:round; stroke-linejoin:round; stroke-width:2; stroke-opacity:0.1; fill:none" points="1575.93,1380.71 1575.93,171.344 "/>
<polyline clip-path="url(#clip962)" style="stroke:#000000; stroke-linecap:round; stroke-linejoin:round; stroke-width:2; stroke-opacity:0.1; fill:none" points="1815.08,1380.71 1815.08,171.344 "/>
<polyline clip-path="url(#clip962)" style="stroke:#000000; stroke-linecap:round; stroke-linejoin:round; stroke-width:2; stroke-opacity:0.1; fill:none" points="2054.23,1380.71 2054.23,171.344 "/>
<polyline clip-path="url(#clip962)" style="stroke:#000000; stroke-linecap:round; stroke-linejoin:round; stroke-width:2; stroke-opacity:0.1; fill:none" points="2293.39,1380.71 2293.39,171.344 "/>
<polyline clip-path="url(#clip962)" style="stroke:#000000; stroke-linecap:round; stroke-linejoin:round; stroke-width:2; stroke-opacity:0.1; fill:none" points="2532.54,1380.71 2532.54,171.344 "/>
<polyline clip-path="url(#clip962)" style="stroke:#000000; stroke-linecap:round; stroke-linejoin:round; stroke-width:2; stroke-opacity:0.1; fill:none" points="2771.69,1380.71 2771.69,171.344 "/>
<polyline clip-path="url(#clip962)" style="stroke:#000000; stroke-linecap:round; stroke-linejoin:round; stroke-width:2; stroke-opacity:0.1; fill:none" points="3010.84,1380.71 3010.84,171.344 "/>
<polyline clip-path="url(#clip960)" style="stroke:#000000; stroke-linecap:round; stroke-linejoin:round; stroke-width:4; stroke-opacity:1; fill:none" points="301.247,1380.71 3089.76,1380.71 "/>
<polyline clip-path="url(#clip960)" style="stroke:#000000; stroke-linecap:round; stroke-linejoin:round; stroke-width:4; stroke-opacity:1; fill:none" points="380.167,1380.71 380.167,1361.81 "/>
<polyline clip-path="url(#clip960)" style="stroke:#000000; stroke-linecap:round; stroke-linejoin:round; stroke-width:4; stroke-opacity:1; fill:none" points="619.319,1380.71 619.319,1361.81 "/>
<polyline clip-path="url(#clip960)" style="stroke:#000000; stroke-linecap:round; stroke-linejoin:round; stroke-width:4; stroke-opacity:1; fill:none" points="858.472,1380.71 858.472,1361.81 "/>
<polyline clip-path="url(#clip960)" style="stroke:#000000; stroke-linecap:round; stroke-linejoin:round; stroke-width:4; stroke-opacity:1; fill:none" points="1097.62,1380.71 1097.62,1361.81 "/>
<polyline clip-path="url(#clip960)" style="stroke:#000000; stroke-linecap:round; stroke-linejoin:round; stroke-width:4; stroke-opacity:1; fill:none" points="1336.78,1380.71 1336.78,1361.81 "/>
<polyline clip-path="url(#clip960)" style="stroke:#000000; stroke-linecap:round; stroke-linejoin:round; stroke-width:4; stroke-opacity:1; fill:none" points="1575.93,1380.71 1575.93,1361.81 "/>
<polyline clip-path="url(#clip960)" style="stroke:#000000; stroke-linecap:round; stroke-linejoin:round; stroke-width:4; stroke-opacity:1; fill:none" points="1815.08,1380.71 1815.08,1361.81 "/>
<polyline clip-path="url(#clip960)" style="stroke:#000000; stroke-linecap:round; stroke-linejoin:round; stroke-width:4; stroke-opacity:1; fill:none" points="2054.23,1380.71 2054.23,1361.81 "/>
<polyline clip-path="url(#clip960)" style="stroke:#000000; stroke-linecap:round; stroke-linejoin:round; stroke-width:4; stroke-opacity:1; fill:none" points="2293.39,1380.71 2293.39,1361.81 "/>
<polyline clip-path="url(#clip960)" style="stroke:#000000; stroke-linecap:round; stroke-linejoin:round; stroke-width:4; stroke-opacity:1; fill:none" points="2532.54,1380.71 2532.54,1361.81 "/>
<polyline clip-path="url(#clip960)" style="stroke:#000000; stroke-linecap:round; stroke-linejoin:round; stroke-width:4; stroke-opacity:1; fill:none" points="2771.69,1380.71 2771.69,1361.81 "/>
<polyline clip-path="url(#clip960)" style="stroke:#000000; stroke-linecap:round; stroke-linejoin:round; stroke-width:4; stroke-opacity:1; fill:none" points="3010.84,1380.71 3010.84,1361.81 "/>
<path clip-path="url(#clip960)" d="M370.549 1445.57 L378.188 1445.57 L378.188 1419.21 L369.878 1420.87 L369.878 1416.61 L378.142 1414.95 L382.818 1414.95 L382.818 1445.57 L390.456 1445.57 L390.456 1449.51 L370.549 1449.51 L370.549 1445.57 Z" fill="#000000" fill-rule="nonzero" fill-opacity="1" /><path clip-path="url(#clip960)" d="M613.972 1445.57 L630.292 1445.57 L630.292 1449.51 L608.347 1449.51 L608.347 1445.57 Q611.009 1442.82 615.593 1438.19 Q620.199 1433.54 621.38 1432.19 Q623.625 1429.67 624.505 1427.93 Q625.407 1426.17 625.407 1424.48 Q625.407 1421.73 623.463 1419.99 Q621.542 1418.26 618.44 1418.26 Q616.241 1418.26 613.787 1419.02 Q611.357 1419.79 608.579 1421.34 L608.579 1416.61 Q611.403 1415.48 613.857 1414.9 Q616.31 1414.32 618.347 1414.32 Q623.718 1414.32 626.912 1417.01 Q630.106 1419.69 630.106 1424.18 Q630.106 1426.31 629.296 1428.23 Q628.509 1430.13 626.403 1432.73 Q625.824 1433.4 622.722 1436.61 Q619.62 1439.81 613.972 1445.57 Z" fill="#000000" fill-rule="nonzero" fill-opacity="1" /><path clip-path="url(#clip960)" d="M862.72 1430.87 Q866.076 1431.59 867.951 1433.86 Q869.849 1436.13 869.849 1439.46 Q869.849 1444.58 866.331 1447.38 Q862.812 1450.18 856.331 1450.18 Q854.155 1450.18 851.84 1449.74 Q849.548 1449.32 847.095 1448.47 L847.095 1443.95 Q849.039 1445.09 851.354 1445.67 Q853.669 1446.24 856.192 1446.24 Q860.59 1446.24 862.882 1444.51 Q865.196 1442.77 865.196 1439.46 Q865.196 1436.41 863.044 1434.69 Q860.914 1432.96 857.095 1432.96 L853.067 1432.96 L853.067 1429.11 L857.28 1429.11 Q860.729 1429.11 862.558 1427.75 Q864.386 1426.36 864.386 1423.77 Q864.386 1421.11 862.488 1419.69 Q860.613 1418.26 857.095 1418.26 Q855.173 1418.26 852.974 1418.67 Q850.775 1419.09 848.136 1419.97 L848.136 1415.8 Q850.798 1415.06 853.113 1414.69 Q855.451 1414.32 857.511 1414.32 Q862.835 1414.32 865.937 1416.75 Q869.039 1419.16 869.039 1423.28 Q869.039 1426.15 867.395 1428.14 Q865.752 1430.11 862.72 1430.87 Z" fill="#000000" fill-rule="nonzero" fill-opacity="1" /><path clip-path="url(#clip960)" d="M1100.63 1419.02 L1088.83 1437.47 L1100.63 1437.47 L1100.63 1419.02 M1099.41 1414.95 L1105.29 1414.95 L1105.29 1437.47 L1110.22 1437.47 L1110.22 1441.36 L1105.29 1441.36 L1105.29 1449.51 L1100.63 1449.51 L1100.63 1441.36 L1085.03 1441.36 L1085.03 1436.85 L1099.41 1414.95 Z" fill="#000000" fill-rule="nonzero" fill-opacity="1" /><path clip-path="url(#clip960)" d="M1327.05 1414.95 L1345.41 1414.95 L1345.41 1418.88 L1331.34 1418.88 L1331.34 1427.36 Q1332.36 1427.01 1333.37 1426.85 Q1334.39 1426.66 1335.41 1426.66 Q1341.2 1426.66 1344.58 1429.83 Q1347.96 1433 1347.96 1438.42 Q1347.96 1444 1344.48 1447.1 Q1341.01 1450.18 1334.69 1450.18 Q1332.52 1450.18 1330.25 1449.81 Q1328 1449.44 1325.6 1448.7 L1325.6 1444 Q1327.68 1445.13 1329.9 1445.69 Q1332.12 1446.24 1334.6 1446.24 Q1338.61 1446.24 1340.94 1444.14 Q1343.28 1442.03 1343.28 1438.42 Q1343.28 1434.81 1340.94 1432.7 Q1338.61 1430.6 1334.6 1430.6 Q1332.73 1430.6 1330.85 1431.01 Q1329 1431.43 1327.05 1432.31 L1327.05 1414.95 Z" fill="#000000" fill-rule="nonzero" fill-opacity="1" /><path clip-path="url(#clip960)" d="M1576.33 1430.36 Q1573.19 1430.36 1571.33 1432.52 Q1569.51 1434.67 1569.51 1438.42 Q1569.51 1442.15 1571.33 1444.32 Q1573.19 1446.48 1576.33 1446.48 Q1579.48 1446.48 1581.31 1444.32 Q1583.16 1442.15 1583.16 1438.42 Q1583.16 1434.67 1581.31 1432.52 Q1579.48 1430.36 1576.33 1430.36 M1585.62 1415.71 L1585.62 1419.97 Q1583.86 1419.14 1582.05 1418.7 Q1580.27 1418.26 1578.51 1418.26 Q1573.88 1418.26 1571.43 1421.38 Q1569 1424.51 1568.65 1430.83 Q1570.01 1428.81 1572.07 1427.75 Q1574.14 1426.66 1576.61 1426.66 Q1581.82 1426.66 1584.83 1429.83 Q1587.86 1432.98 1587.86 1438.42 Q1587.86 1443.74 1584.71 1446.96 Q1581.57 1450.18 1576.33 1450.18 Q1570.34 1450.18 1567.17 1445.6 Q1564 1440.99 1564 1432.26 Q1564 1424.07 1567.89 1419.21 Q1571.77 1414.32 1578.32 1414.32 Q1580.08 1414.32 1581.87 1414.67 Q1583.67 1415.02 1585.62 1415.71 Z" fill="#000000" fill-rule="nonzero" fill-opacity="1" /><path clip-path="url(#clip960)" d="M1803.97 1414.95 L1826.19 1414.95 L1826.19 1416.94 L1813.65 1449.51 L1808.76 1449.51 L1820.57 1418.88 L1803.97 1418.88 L1803.97 1414.95 Z" fill="#000000" fill-rule="nonzero" fill-opacity="1" /><path clip-path="url(#clip960)" d="M2054.23 1433.1 Q2050.9 1433.1 2048.98 1434.88 Q2047.08 1436.66 2047.08 1439.79 Q2047.08 1442.91 2048.98 1444.69 Q2050.9 1446.48 2054.23 1446.48 Q2057.57 1446.48 2059.49 1444.69 Q2061.41 1442.89 2061.41 1439.79 Q2061.41 1436.66 2059.49 1434.88 Q2057.59 1433.1 2054.23 1433.1 M2049.56 1431.11 Q2046.55 1430.36 2044.86 1428.3 Q2043.19 1426.24 2043.19 1423.28 Q2043.19 1419.14 2046.13 1416.73 Q2049.1 1414.32 2054.23 1414.32 Q2059.4 1414.32 2062.34 1416.73 Q2065.28 1419.14 2065.28 1423.28 Q2065.28 1426.24 2063.59 1428.3 Q2061.92 1430.36 2058.93 1431.11 Q2062.31 1431.89 2064.19 1434.18 Q2066.09 1436.48 2066.09 1439.79 Q2066.09 1444.81 2063.01 1447.49 Q2059.95 1450.18 2054.23 1450.18 Q2048.52 1450.18 2045.44 1447.49 Q2042.38 1444.81 2042.38 1439.79 Q2042.38 1436.48 2044.28 1434.18 Q2046.18 1431.89 2049.56 1431.11 M2047.85 1423.72 Q2047.85 1426.41 2049.51 1427.91 Q2051.2 1429.42 2054.23 1429.42 Q2057.24 1429.42 2058.93 1427.91 Q2060.65 1426.41 2060.65 1423.72 Q2060.65 1421.04 2058.93 1419.53 Q2057.24 1418.03 2054.23 1418.03 Q2051.2 1418.03 2049.51 1419.53 Q2047.85 1421.04 2047.85 1423.72 Z" fill="#000000" fill-rule="nonzero" fill-opacity="1" /><path clip-path="url(#clip960)" d="M2283.69 1448.79 L2283.69 1444.53 Q2285.45 1445.36 2287.25 1445.8 Q2289.06 1446.24 2290.79 1446.24 Q2295.42 1446.24 2297.85 1443.14 Q2300.31 1440.02 2300.65 1433.67 Q2299.31 1435.67 2297.25 1436.73 Q2295.19 1437.79 2292.69 1437.79 Q2287.51 1437.79 2284.47 1434.67 Q2281.47 1431.52 2281.47 1426.08 Q2281.47 1420.76 2284.61 1417.54 Q2287.76 1414.32 2292.99 1414.32 Q2298.99 1414.32 2302.14 1418.93 Q2305.31 1423.51 2305.31 1432.26 Q2305.31 1440.43 2301.42 1445.32 Q2297.55 1450.18 2291 1450.18 Q2289.24 1450.18 2287.44 1449.83 Q2285.63 1449.48 2283.69 1448.79 M2292.99 1434.14 Q2296.14 1434.14 2297.97 1431.98 Q2299.82 1429.83 2299.82 1426.08 Q2299.82 1422.36 2297.97 1420.2 Q2296.14 1418.03 2292.99 1418.03 Q2289.84 1418.03 2287.99 1420.2 Q2286.16 1422.36 2286.16 1426.08 Q2286.16 1429.83 2287.99 1431.98 Q2289.84 1434.14 2292.99 1434.14 Z" fill="#000000" fill-rule="nonzero" fill-opacity="1" /><path clip-path="url(#clip960)" d="M2507.23 1445.57 L2514.87 1445.57 L2514.87 1419.21 L2506.56 1420.87 L2506.56 1416.61 L2514.82 1414.95 L2519.49 1414.95 L2519.49 1445.57 L2527.13 1445.57 L2527.13 1449.51 L2507.23 1449.51 L2507.23 1445.57 Z" fill="#000000" fill-rule="nonzero" fill-opacity="1" /><path clip-path="url(#clip960)" d="M2546.58 1418.03 Q2542.97 1418.03 2541.14 1421.59 Q2539.33 1425.13 2539.33 1432.26 Q2539.33 1439.37 2541.14 1442.93 Q2542.97 1446.48 2546.58 1446.48 Q2550.21 1446.48 2552.02 1442.93 Q2553.85 1439.37 2553.85 1432.26 Q2553.85 1425.13 2552.02 1421.59 Q2550.21 1418.03 2546.58 1418.03 M2546.58 1414.32 Q2552.39 1414.32 2555.44 1418.93 Q2558.52 1423.51 2558.52 1432.26 Q2558.52 1440.99 2555.44 1445.6 Q2552.39 1450.18 2546.58 1450.18 Q2540.77 1450.18 2537.69 1445.6 Q2534.63 1440.99 2534.63 1432.26 Q2534.63 1423.51 2537.69 1418.93 Q2540.77 1414.32 2546.58 1414.32 Z" fill="#000000" fill-rule="nonzero" fill-opacity="1" /><path clip-path="url(#clip960)" d="M2746.99 1445.57 L2754.63 1445.57 L2754.63 1419.21 L2746.32 1420.87 L2746.32 1416.61 L2754.58 1414.95 L2759.26 1414.95 L2759.26 1445.57 L2766.9 1445.57 L2766.9 1449.51 L2746.99 1449.51 L2746.99 1445.57 Z" fill="#000000" fill-rule="nonzero" fill-opacity="1" /><path clip-path="url(#clip960)" d="M2777.15 1445.57 L2784.79 1445.57 L2784.79 1419.21 L2776.48 1420.87 L2776.48 1416.61 L2784.75 1414.95 L2789.42 1414.95 L2789.42 1445.57 L2797.06 1445.57 L2797.06 1449.51 L2777.15 1449.51 L2777.15 1445.57 Z" fill="#000000" fill-rule="nonzero" fill-opacity="1" /><path clip-path="url(#clip960)" d="M2986.33 1445.57 L2993.97 1445.57 L2993.97 1419.21 L2985.66 1420.87 L2985.66 1416.61 L2993.92 1414.95 L2998.6 1414.95 L2998.6 1445.57 L3006.24 1445.57 L3006.24 1449.51 L2986.33 1449.51 L2986.33 1445.57 Z" fill="#000000" fill-rule="nonzero" fill-opacity="1" /><path clip-path="url(#clip960)" d="M3019.71 1445.57 L3036.03 1445.57 L3036.03 1449.51 L3014.08 1449.51 L3014.08 1445.57 Q3016.75 1442.82 3021.33 1438.19 Q3025.94 1433.54 3027.12 1432.19 Q3029.36 1429.67 3030.24 1427.93 Q3031.14 1426.17 3031.14 1424.48 Q3031.14 1421.73 3029.2 1419.99 Q3027.28 1418.26 3024.18 1418.26 Q3021.98 1418.26 3019.52 1419.02 Q3017.09 1419.79 3014.32 1421.34 L3014.32 1416.61 Q3017.14 1415.48 3019.59 1414.9 Q3022.05 1414.32 3024.08 1414.32 Q3029.45 1414.32 3032.65 1417.01 Q3035.84 1419.69 3035.84 1424.18 Q3035.84 1426.31 3035.03 1428.23 Q3034.25 1430.13 3032.14 1432.73 Q3031.56 1433.4 3028.46 1436.61 Q3025.36 1439.81 3019.71 1445.57 Z" fill="#000000" fill-rule="nonzero" fill-opacity="1" /><path clip-path="url(#clip960)" d="M1422.75 1490.05 L1431.41 1490.05 L1452.48 1529.81 L1452.48 1490.05 L1458.72 1490.05 L1458.72 1537.57 L1450.06 1537.57 L1428.99 1497.82 L1428.99 1537.57 L1422.75 1537.57 L1422.75 1490.05 Z" fill="#000000" fill-rule="nonzero" fill-opacity="1" /><path clip-path="url(#clip960)" d="M1470.65 1523.5 L1470.65 1501.92 L1476.51 1501.92 L1476.51 1523.28 Q1476.51 1528.34 1478.48 1530.89 Q1480.46 1533.4 1484.4 1533.4 Q1489.14 1533.4 1491.88 1530.38 Q1494.65 1527.35 1494.65 1522.13 L1494.65 1501.92 L1500.51 1501.92 L1500.51 1537.57 L1494.65 1537.57 L1494.65 1532.1 Q1492.52 1535.34 1489.69 1536.94 Q1486.89 1538.49 1483.16 1538.49 Q1477.02 1538.49 1473.84 1534.68 Q1470.65 1530.86 1470.65 1523.5 M1485.39 1501.06 L1485.39 1501.06 Z" fill="#000000" fill-rule="nonzero" fill-opacity="1" /><path clip-path="url(#clip960)" d="M1540.33 1508.77 Q1542.52 1504.82 1545.58 1502.94 Q1548.63 1501.06 1552.77 1501.06 Q1558.34 1501.06 1561.36 1504.98 Q1564.39 1508.86 1564.39 1516.06 L1564.39 1537.57 L1558.5 1537.57 L1558.5 1516.25 Q1558.5 1511.12 1556.69 1508.64 Q1554.87 1506.16 1551.15 1506.16 Q1546.6 1506.16 1543.95 1509.18 Q1541.31 1512.2 1541.31 1517.42 L1541.31 1537.57 L1535.42 1537.57 L1535.42 1516.25 Q1535.42 1511.09 1533.61 1508.64 Q1531.8 1506.16 1528.01 1506.16 Q1523.52 1506.16 1520.88 1509.21 Q1518.24 1512.24 1518.24 1517.42 L1518.24 1537.57 L1512.35 1537.57 L1512.35 1501.92 L1518.24 1501.92 L1518.24 1507.46 Q1520.24 1504.18 1523.04 1502.62 Q1525.84 1501.06 1529.69 1501.06 Q1533.58 1501.06 1536.28 1503.04 Q1539.02 1505.01 1540.33 1508.77 Z" fill="#000000" fill-rule="nonzero" fill-opacity="1" /><path clip-path="url(#clip960)" d="M1601.66 1519.78 Q1601.66 1513.32 1598.99 1509.66 Q1596.34 1505.97 1591.7 1505.97 Q1587.05 1505.97 1584.38 1509.66 Q1581.73 1513.32 1581.73 1519.78 Q1581.73 1526.24 1584.38 1529.93 Q1587.05 1533.59 1591.7 1533.59 Q1596.34 1533.59 1598.99 1529.93 Q1601.66 1526.24 1601.66 1519.78 M1581.73 1507.33 Q1583.58 1504.15 1586.38 1502.62 Q1589.21 1501.06 1593.13 1501.06 Q1599.62 1501.06 1603.66 1506.22 Q1607.74 1511.38 1607.74 1519.78 Q1607.74 1528.18 1603.66 1533.34 Q1599.62 1538.49 1593.13 1538.49 Q1589.21 1538.49 1586.38 1536.97 Q1583.58 1535.41 1581.73 1532.22 L1581.73 1537.57 L1575.85 1537.57 L1575.85 1488.05 L1581.73 1488.05 L1581.73 1507.33 Z" fill="#000000" fill-rule="nonzero" fill-opacity="1" /><path clip-path="url(#clip960)" d="M1647.94 1518.28 L1647.94 1521.15 L1621.01 1521.15 Q1621.39 1527.2 1624.64 1530.38 Q1627.92 1533.53 1633.74 1533.53 Q1637.12 1533.53 1640.27 1532.7 Q1643.45 1531.87 1646.57 1530.22 L1646.57 1535.76 Q1643.42 1537.09 1640.11 1537.79 Q1636.8 1538.49 1633.39 1538.49 Q1624.86 1538.49 1619.86 1533.53 Q1614.9 1528.56 1614.9 1520.1 Q1614.9 1511.35 1619.61 1506.22 Q1624.35 1501.06 1632.37 1501.06 Q1639.57 1501.06 1643.74 1505.71 Q1647.94 1510.33 1647.94 1518.28 M1642.08 1516.56 Q1642.02 1511.76 1639.38 1508.89 Q1636.77 1506.03 1632.44 1506.03 Q1627.54 1506.03 1624.58 1508.8 Q1621.65 1511.57 1621.2 1516.6 L1642.08 1516.56 Z" fill="#000000" fill-rule="nonzero" fill-opacity="1" /><path clip-path="url(#clip960)" d="M1678.21 1507.4 Q1677.22 1506.83 1676.04 1506.57 Q1674.9 1506.28 1673.5 1506.28 Q1668.53 1506.28 1665.86 1509.53 Q1663.22 1512.75 1663.22 1518.79 L1663.22 1537.57 L1657.33 1537.57 L1657.33 1501.92 L1663.22 1501.92 L1663.22 1507.46 Q1665.06 1504.22 1668.02 1502.66 Q1670.98 1501.06 1675.21 1501.06 Q1675.82 1501.06 1676.55 1501.16 Q1677.28 1501.22 1678.17 1501.38 L1678.21 1507.4 Z" fill="#000000" fill-rule="nonzero" fill-opacity="1" /><path clip-path="url(#clip960)" d="M1718.88 1506.03 Q1714.17 1506.03 1711.44 1509.72 Q1708.7 1513.38 1708.7 1519.78 Q1708.7 1526.18 1711.4 1529.87 Q1714.14 1533.53 1718.88 1533.53 Q1723.56 1533.53 1726.3 1529.84 Q1729.04 1526.15 1729.04 1519.78 Q1729.04 1513.45 1726.3 1509.75 Q1723.56 1506.03 1718.88 1506.03 M1718.88 1501.06 Q1726.52 1501.06 1730.88 1506.03 Q1735.24 1510.99 1735.24 1519.78 Q1735.24 1528.53 1730.88 1533.53 Q1726.52 1538.49 1718.88 1538.49 Q1711.21 1538.49 1706.85 1533.53 Q1702.52 1528.53 1702.52 1519.78 Q1702.52 1510.99 1706.85 1506.03 Q1711.21 1501.06 1718.88 1501.06 Z" fill="#000000" fill-rule="nonzero" fill-opacity="1" /><path clip-path="url(#clip960)" d="M1763 1488.05 L1763 1492.92 L1757.4 1492.92 Q1754.24 1492.92 1753 1494.19 Q1751.79 1495.46 1751.79 1498.77 L1751.79 1501.92 L1761.44 1501.92 L1761.44 1506.48 L1751.79 1506.48 L1751.79 1537.57 L1745.91 1537.57 L1745.91 1506.48 L1740.3 1506.48 L1740.3 1501.92 L1745.91 1501.92 L1745.91 1499.44 Q1745.91 1493.49 1748.67 1490.78 Q1751.44 1488.05 1757.46 1488.05 L1763 1488.05 Z" fill="#000000" fill-rule="nonzero" fill-opacity="1" /><path clip-path="url(#clip960)" d="M1788.62 1488.05 L1794.48 1488.05 L1794.48 1537.57 L1788.62 1537.57 L1788.62 1488.05 Z" fill="#000000" fill-rule="nonzero" fill-opacity="1" /><path clip-path="url(#clip960)" d="M1837.22 1518.28 L1837.22 1521.15 L1810.29 1521.15 Q1810.68 1527.2 1813.92 1530.38 Q1817.2 1533.53 1823.03 1533.53 Q1826.4 1533.53 1829.55 1532.7 Q1832.73 1531.87 1835.85 1530.22 L1835.85 1535.76 Q1832.7 1537.09 1829.39 1537.79 Q1826.08 1538.49 1822.68 1538.49 Q1814.15 1538.49 1809.15 1533.53 Q1804.18 1528.56 1804.18 1520.1 Q1804.18 1511.35 1808.89 1506.22 Q1813.64 1501.06 1821.66 1501.06 Q1828.85 1501.06 1833.02 1505.71 Q1837.22 1510.33 1837.22 1518.28 M1831.37 1516.56 Q1831.3 1511.76 1828.66 1508.89 Q1826.05 1506.03 1821.72 1506.03 Q1816.82 1506.03 1813.86 1508.8 Q1810.93 1511.57 1810.49 1516.6 L1831.37 1516.56 Z" fill="#000000" fill-rule="nonzero" fill-opacity="1" /><path clip-path="url(#clip960)" d="M1842.63 1501.92 L1848.84 1501.92 L1859.98 1531.84 L1871.12 1501.92 L1877.33 1501.92 L1863.96 1537.57 L1856 1537.57 L1842.63 1501.92 Z" fill="#000000" fill-rule="nonzero" fill-opacity="1" /><path clip-path="url(#clip960)" d="M1915.9 1518.28 L1915.9 1521.15 L1888.98 1521.15 Q1889.36 1527.2 1892.6 1530.38 Q1895.88 1533.53 1901.71 1533.53 Q1905.08 1533.53 1908.23 1532.7 Q1911.41 1531.87 1914.53 1530.22 L1914.53 1535.76 Q1911.38 1537.09 1908.07 1537.79 Q1904.76 1538.49 1901.36 1538.49 Q1892.83 1538.49 1887.83 1533.53 Q1882.86 1528.56 1882.86 1520.1 Q1882.86 1511.35 1887.57 1506.22 Q1892.32 1501.06 1900.34 1501.06 Q1907.53 1501.06 1911.7 1505.71 Q1915.9 1510.33 1915.9 1518.28 M1910.05 1516.56 Q1909.98 1511.76 1907.34 1508.89 Q1904.73 1506.03 1900.4 1506.03 Q1895.5 1506.03 1892.54 1508.8 Q1889.61 1511.57 1889.17 1516.6 L1910.05 1516.56 Z" fill="#000000" fill-rule="nonzero" fill-opacity="1" /><path clip-path="url(#clip960)" d="M1925.51 1488.05 L1931.37 1488.05 L1931.37 1537.57 L1925.51 1537.57 L1925.51 1488.05 Z" fill="#000000" fill-rule="nonzero" fill-opacity="1" /><path clip-path="url(#clip960)" d="M1966.35 1502.97 L1966.35 1508.51 Q1963.87 1507.24 1961.19 1506.6 Q1958.52 1505.97 1955.66 1505.97 Q1951.3 1505.97 1949.1 1507.3 Q1946.93 1508.64 1946.93 1511.31 Q1946.93 1513.35 1948.49 1514.53 Q1950.05 1515.67 1954.76 1516.72 L1956.77 1517.17 Q1963.01 1518.51 1965.62 1520.96 Q1968.26 1523.38 1968.26 1527.74 Q1968.26 1532.7 1964.31 1535.6 Q1960.4 1538.49 1953.52 1538.49 Q1950.66 1538.49 1947.54 1537.92 Q1944.45 1537.38 1941.01 1536.27 L1941.01 1530.22 Q1944.26 1531.91 1947.41 1532.77 Q1950.56 1533.59 1953.65 1533.59 Q1957.79 1533.59 1960.02 1532.19 Q1962.24 1530.76 1962.24 1528.18 Q1962.24 1525.8 1960.62 1524.52 Q1959.03 1523.25 1953.59 1522.07 L1951.55 1521.59 Q1946.11 1520.45 1943.69 1518.09 Q1941.27 1515.71 1941.27 1511.57 Q1941.27 1506.54 1944.83 1503.8 Q1948.4 1501.06 1954.96 1501.06 Q1958.2 1501.06 1961.07 1501.54 Q1963.93 1502.02 1966.35 1502.97 Z" fill="#000000" fill-rule="nonzero" fill-opacity="1" /><polyline clip-path="url(#clip962)" style="stroke:#000000; stroke-linecap:round; stroke-linejoin:round; stroke-width:2; stroke-opacity:0.1; fill:none" points="301.247,1349.64 3089.76,1349.64 "/>
<polyline clip-path="url(#clip962)" style="stroke:#000000; stroke-linecap:round; stroke-linejoin:round; stroke-width:2; stroke-opacity:0.1; fill:none" points="301.247,1164.35 3089.76,1164.35 "/>
<polyline clip-path="url(#clip962)" style="stroke:#000000; stroke-linecap:round; stroke-linejoin:round; stroke-width:2; stroke-opacity:0.1; fill:none" points="301.247,979.058 3089.76,979.058 "/>
<polyline clip-path="url(#clip962)" style="stroke:#000000; stroke-linecap:round; stroke-linejoin:round; stroke-width:2; stroke-opacity:0.1; fill:none" points="301.247,793.768 3089.76,793.768 "/>
<polyline clip-path="url(#clip962)" style="stroke:#000000; stroke-linecap:round; stroke-linejoin:round; stroke-width:2; stroke-opacity:0.1; fill:none" points="301.247,608.478 3089.76,608.478 "/>
<polyline clip-path="url(#clip962)" style="stroke:#000000; stroke-linecap:round; stroke-linejoin:round; stroke-width:2; stroke-opacity:0.1; fill:none" points="301.247,423.188 3089.76,423.188 "/>
<polyline clip-path="url(#clip962)" style="stroke:#000000; stroke-linecap:round; stroke-linejoin:round; stroke-width:2; stroke-opacity:0.1; fill:none" points="301.247,237.898 3089.76,237.898 "/>
<polyline clip-path="url(#clip960)" style="stroke:#000000; stroke-linecap:round; stroke-linejoin:round; stroke-width:4; stroke-opacity:1; fill:none" points="301.247,1380.71 301.247,171.344 "/>
<polyline clip-path="url(#clip960)" style="stroke:#000000; stroke-linecap:round; stroke-linejoin:round; stroke-width:4; stroke-opacity:1; fill:none" points="301.247,1349.64 320.144,1349.64 "/>
<polyline clip-path="url(#clip960)" style="stroke:#000000; stroke-linecap:round; stroke-linejoin:round; stroke-width:4; stroke-opacity:1; fill:none" points="301.247,1164.35 320.144,1164.35 "/>
<polyline clip-path="url(#clip960)" style="stroke:#000000; stroke-linecap:round; stroke-linejoin:round; stroke-width:4; stroke-opacity:1; fill:none" points="301.247,979.058 320.144,979.058 "/>
<polyline clip-path="url(#clip960)" style="stroke:#000000; stroke-linecap:round; stroke-linejoin:round; stroke-width:4; stroke-opacity:1; fill:none" points="301.247,793.768 320.144,793.768 "/>
<polyline clip-path="url(#clip960)" style="stroke:#000000; stroke-linecap:round; stroke-linejoin:round; stroke-width:4; stroke-opacity:1; fill:none" points="301.247,608.478 320.144,608.478 "/>
<polyline clip-path="url(#clip960)" style="stroke:#000000; stroke-linecap:round; stroke-linejoin:round; stroke-width:4; stroke-opacity:1; fill:none" points="301.247,423.188 320.144,423.188 "/>
<polyline clip-path="url(#clip960)" style="stroke:#000000; stroke-linecap:round; stroke-linejoin:round; stroke-width:4; stroke-opacity:1; fill:none" points="301.247,237.898 320.144,237.898 "/>
<path clip-path="url(#clip960)" d="M162.368 1350.09 L192.043 1350.09 L192.043 1354.02 L162.368 1354.02 L162.368 1350.09 Z" fill="#000000" fill-rule="nonzero" fill-opacity="1" /><path clip-path="url(#clip960)" d="M202.946 1362.98 L210.585 1362.98 L210.585 1336.62 L202.275 1338.28 L202.275 1334.03 L210.539 1332.36 L215.215 1332.36 L215.215 1362.98 L222.853 1362.98 L222.853 1366.92 L202.946 1366.92 L202.946 1362.98 Z" fill="#000000" fill-rule="nonzero" fill-opacity="1" /><path clip-path="url(#clip960)" d="M232.344 1332.36 L250.701 1332.36 L250.701 1336.29 L236.627 1336.29 L236.627 1344.77 Q237.645 1344.42 238.664 1344.26 Q239.682 1344.07 240.701 1344.07 Q246.488 1344.07 249.867 1347.24 Q253.247 1350.41 253.247 1355.83 Q253.247 1361.41 249.775 1364.51 Q246.302 1367.59 239.983 1367.59 Q237.807 1367.59 235.539 1367.22 Q233.293 1366.85 230.886 1366.11 L230.886 1361.41 Q232.969 1362.54 235.191 1363.1 Q237.414 1363.65 239.89 1363.65 Q243.895 1363.65 246.233 1361.55 Q248.571 1359.44 248.571 1355.83 Q248.571 1352.22 246.233 1350.11 Q243.895 1348.01 239.89 1348.01 Q238.015 1348.01 236.14 1348.42 Q234.289 1348.84 232.344 1349.72 L232.344 1332.36 Z" fill="#000000" fill-rule="nonzero" fill-opacity="1" /><path clip-path="url(#clip960)" d="M161.372 1164.8 L191.048 1164.8 L191.048 1168.73 L161.372 1168.73 L161.372 1164.8 Z" fill="#000000" fill-rule="nonzero" fill-opacity="1" /><path clip-path="url(#clip960)" d="M201.951 1177.69 L209.59 1177.69 L209.59 1151.33 L201.279 1152.99 L201.279 1148.73 L209.543 1147.07 L214.219 1147.07 L214.219 1177.69 L221.858 1177.69 L221.858 1181.63 L201.951 1181.63 L201.951 1177.69 Z" fill="#000000" fill-rule="nonzero" fill-opacity="1" /><path clip-path="url(#clip960)" d="M241.302 1150.15 Q237.691 1150.15 235.863 1153.71 Q234.057 1157.25 234.057 1164.38 Q234.057 1171.49 235.863 1175.05 Q237.691 1178.6 241.302 1178.6 Q244.937 1178.6 246.742 1175.05 Q248.571 1171.49 248.571 1164.38 Q248.571 1157.25 246.742 1153.71 Q244.937 1150.15 241.302 1150.15 M241.302 1146.44 Q247.113 1146.44 250.168 1151.05 Q253.247 1155.63 253.247 1164.38 Q253.247 1173.11 250.168 1177.72 Q247.113 1182.3 241.302 1182.3 Q235.492 1182.3 232.414 1177.72 Q229.358 1173.11 229.358 1164.38 Q229.358 1155.63 232.414 1151.05 Q235.492 1146.44 241.302 1146.44 Z" fill="#000000" fill-rule="nonzero" fill-opacity="1" /><path clip-path="url(#clip960)" d="M192.53 979.51 L222.205 979.51 L222.205 983.445 L192.53 983.445 L192.53 979.51 Z" fill="#000000" fill-rule="nonzero" fill-opacity="1" /><path clip-path="url(#clip960)" d="M232.344 961.778 L250.701 961.778 L250.701 965.713 L236.627 965.713 L236.627 974.185 Q237.645 973.838 238.664 973.676 Q239.682 973.491 240.701 973.491 Q246.488 973.491 249.867 976.662 Q253.247 979.834 253.247 985.25 Q253.247 990.829 249.775 993.931 Q246.302 997.009 239.983 997.009 Q237.807 997.009 235.539 996.639 Q233.293 996.269 230.886 995.528 L230.886 990.829 Q232.969 991.963 235.191 992.519 Q237.414 993.074 239.89 993.074 Q243.895 993.074 246.233 990.968 Q248.571 988.861 248.571 985.25 Q248.571 981.639 246.233 979.533 Q243.895 977.426 239.89 977.426 Q238.015 977.426 236.14 977.843 Q234.289 978.26 232.344 979.139 L232.344 961.778 Z" fill="#000000" fill-rule="nonzero" fill-opacity="1" /><path clip-path="url(#clip960)" d="M241.302 779.567 Q237.691 779.567 235.863 783.132 Q234.057 786.673 234.057 793.803 Q234.057 800.909 235.863 804.474 Q237.691 808.016 241.302 808.016 Q244.937 808.016 246.742 804.474 Q248.571 800.909 248.571 793.803 Q248.571 786.673 246.742 783.132 Q244.937 779.567 241.302 779.567 M241.302 775.863 Q247.113 775.863 250.168 780.469 Q253.247 785.053 253.247 793.803 Q253.247 802.53 250.168 807.136 Q247.113 811.719 241.302 811.719 Q235.492 811.719 232.414 807.136 Q229.358 802.53 229.358 793.803 Q229.358 785.053 232.414 780.469 Q235.492 775.863 241.302 775.863 Z" fill="#000000" fill-rule="nonzero" fill-opacity="1" /><path clip-path="url(#clip960)" d="M232.344 591.198 L250.701 591.198 L250.701 595.133 L236.627 595.133 L236.627 603.605 Q237.645 603.258 238.664 603.096 Q239.682 602.911 240.701 602.911 Q246.488 602.911 249.867 606.082 Q253.247 609.253 253.247 614.67 Q253.247 620.249 249.775 623.351 Q246.302 626.429 239.983 626.429 Q237.807 626.429 235.539 626.059 Q233.293 625.688 230.886 624.948 L230.886 620.249 Q232.969 621.383 235.191 621.938 Q237.414 622.494 239.89 622.494 Q243.895 622.494 246.233 620.388 Q248.571 618.281 248.571 614.67 Q248.571 611.059 246.233 608.952 Q243.895 606.846 239.89 606.846 Q238.015 606.846 236.14 607.263 Q234.289 607.679 232.344 608.559 L232.344 591.198 Z" fill="#000000" fill-rule="nonzero" fill-opacity="1" /><path clip-path="url(#clip960)" d="M201.951 436.533 L209.59 436.533 L209.59 410.167 L201.279 411.834 L201.279 407.574 L209.543 405.908 L214.219 405.908 L214.219 436.533 L221.858 436.533 L221.858 440.468 L201.951 440.468 L201.951 436.533 Z" fill="#000000" fill-rule="nonzero" fill-opacity="1" /><path clip-path="url(#clip960)" d="M241.302 408.986 Q237.691 408.986 235.863 412.551 Q234.057 416.093 234.057 423.222 Q234.057 430.329 235.863 433.894 Q237.691 437.435 241.302 437.435 Q244.937 437.435 246.742 433.894 Q248.571 430.329 248.571 423.222 Q248.571 416.093 246.742 412.551 Q244.937 408.986 241.302 408.986 M241.302 405.283 Q247.113 405.283 250.168 409.889 Q253.247 414.473 253.247 423.222 Q253.247 431.949 250.168 436.556 Q247.113 441.139 241.302 441.139 Q235.492 441.139 232.414 436.556 Q229.358 431.949 229.358 423.222 Q229.358 414.473 232.414 409.889 Q235.492 405.283 241.302 405.283 Z" fill="#000000" fill-rule="nonzero" fill-opacity="1" /><path clip-path="url(#clip960)" d="M202.946 251.242 L210.585 251.242 L210.585 224.877 L202.275 226.544 L202.275 222.284 L210.539 220.618 L215.215 220.618 L215.215 251.242 L222.853 251.242 L222.853 255.178 L202.946 255.178 L202.946 251.242 Z" fill="#000000" fill-rule="nonzero" fill-opacity="1" /><path clip-path="url(#clip960)" d="M232.344 220.618 L250.701 220.618 L250.701 224.553 L236.627 224.553 L236.627 233.025 Q237.645 232.678 238.664 232.516 Q239.682 232.331 240.701 232.331 Q246.488 232.331 249.867 235.502 Q253.247 238.673 253.247 244.09 Q253.247 249.668 249.775 252.77 Q246.302 255.849 239.983 255.849 Q237.807 255.849 235.539 255.479 Q233.293 255.108 230.886 254.367 L230.886 249.668 Q232.969 250.803 235.191 251.358 Q237.414 251.914 239.89 251.914 Q243.895 251.914 246.233 249.807 Q248.571 247.701 248.571 244.09 Q248.571 240.479 246.233 238.372 Q243.895 236.266 239.89 236.266 Q238.015 236.266 236.14 236.682 Q234.289 237.099 232.344 237.979 L232.344 220.618 Z" fill="#000000" fill-rule="nonzero" fill-opacity="1" /><path clip-path="url(#clip960)" d="M51.5963 1169.44 L51.5963 1160.79 L91.3501 1139.71 L51.5963 1139.71 L51.5963 1133.48 L99.1163 1133.48 L99.1163 1142.13 L59.3624 1163.2 L99.1163 1163.2 L99.1163 1169.44 L51.5963 1169.44 Z" fill="#000000" fill-rule="nonzero" fill-opacity="1" /><path clip-path="url(#clip960)" d="M56.8798 1114.25 L74.7356 1114.25 L74.7356 1106.17 Q74.7356 1101.68 72.4121 1099.23 Q70.0887 1096.78 65.7918 1096.78 Q61.5268 1096.78 59.2033 1099.23 Q56.8798 1101.68 56.8798 1106.17 L56.8798 1114.25 M51.5963 1120.68 L51.5963 1106.17 Q51.5963 1098.18 55.2247 1094.1 Q58.8214 1090 65.7918 1090 Q72.8259 1090 76.4225 1094.1 Q80.0192 1098.18 80.0192 1106.17 L80.0192 1114.25 L99.1163 1114.25 L99.1163 1120.68 L51.5963 1120.68 Z" fill="#000000" fill-rule="nonzero" fill-opacity="1" /><path clip-path="url(#clip960)" d="M99.1163 1069.12 L51.5963 1087.26 L51.5963 1080.55 L91.6047 1065.49 L51.5963 1050.4 L51.5963 1043.72 L99.1163 1061.83 L99.1163 1069.12 Z" fill="#000000" fill-rule="nonzero" fill-opacity="1" /><path clip-path="url(#clip960)" d="M56.8798 1009.63 L74.7356 1009.63 L74.7356 1001.55 Q74.7356 997.059 72.4121 994.608 Q70.0887 992.158 65.7918 992.158 Q61.5268 992.158 59.2033 994.608 Q56.8798 997.059 56.8798 1001.55 L56.8798 1009.63 M51.5963 1016.06 L51.5963 1001.55 Q51.5963 993.558 55.2247 989.484 Q58.8214 985.378 65.7918 985.378 Q72.8259 985.378 76.4225 989.484 Q80.0192 993.558 80.0192 1001.55 L80.0192 1009.63 L99.1163 1009.63 L99.1163 1016.06 L51.5963 1016.06 Z" fill="#000000" fill-rule="nonzero" fill-opacity="1" /><path clip-path="url(#clip960)" d="M68.9428 957.496 Q68.3699 958.483 68.1153 959.661 Q67.8288 960.807 67.8288 962.207 Q67.8288 967.172 71.0753 969.846 Q74.29 972.488 80.3374 972.488 L99.1163 972.488 L99.1163 978.376 L63.4683 978.376 L63.4683 972.488 L69.0065 972.488 Q65.76 970.642 64.2004 967.681 Q62.609 964.721 62.609 960.488 Q62.609 959.884 62.7044 959.151 Q62.7681 958.419 62.9272 957.528 L68.9428 957.496 Z" fill="#000000" fill-rule="nonzero" fill-opacity="1" /><path clip-path="url(#clip960)" d="M67.5742 938.972 Q67.5742 943.683 71.2663 946.42 Q74.9266 949.157 81.3241 949.157 Q87.7217 949.157 91.4138 946.452 Q95.0741 943.715 95.0741 938.972 Q95.0741 934.293 91.3819 931.556 Q87.6898 928.819 81.3241 928.819 Q74.9903 928.819 71.2981 931.556 Q67.5742 934.293 67.5742 938.972 M62.609 938.972 Q62.609 931.333 67.5742 926.973 Q72.5395 922.612 81.3241 922.612 Q90.077 922.612 95.0741 926.973 Q100.039 931.333 100.039 938.972 Q100.039 946.643 95.0741 951.003 Q90.077 955.332 81.3241 955.332 Q72.5395 955.332 67.5742 951.003 Q62.609 946.643 62.609 938.972 Z" fill="#000000" fill-rule="nonzero" fill-opacity="1" /><path clip-path="url(#clip960)" d="M49.5911 894.858 L54.4609 894.858 L54.4609 900.46 Q54.4609 903.611 55.734 904.852 Q57.0071 906.061 60.3173 906.061 L63.4683 906.061 L63.4683 896.417 L68.0198 896.417 L68.0198 906.061 L99.1163 906.061 L99.1163 911.95 L68.0198 911.95 L68.0198 917.552 L63.4683 917.552 L63.4683 911.95 L60.9857 911.95 Q55.0338 911.95 52.3283 909.181 Q49.5911 906.412 49.5911 900.396 L49.5911 894.858 Z" fill="#000000" fill-rule="nonzero" fill-opacity="1" /><path clip-path="url(#clip960)" d="M63.4683 889.956 L63.4683 884.1 L99.1163 884.1 L99.1163 889.956 L63.4683 889.956 M49.5911 889.956 L49.5911 884.1 L57.0071 884.1 L57.0071 889.956 L49.5911 889.956 Z" fill="#000000" fill-rule="nonzero" fill-opacity="1" /><path clip-path="url(#clip960)" d="M53.3469 866.053 L63.4683 866.053 L63.4683 853.99 L68.0198 853.99 L68.0198 866.053 L87.3716 866.053 Q91.7321 866.053 92.9734 864.875 Q94.2147 863.666 94.2147 860.006 L94.2147 853.99 L99.1163 853.99 L99.1163 860.006 Q99.1163 866.785 96.6018 869.363 Q94.0555 871.941 87.3716 871.941 L68.0198 871.941 L68.0198 876.238 L63.4683 876.238 L63.4683 871.941 L53.3469 871.941 L53.3469 866.053 Z" fill="#000000" fill-rule="nonzero" fill-opacity="1" /><path clip-path="url(#clip960)" d="M64.5187 823.562 L70.0568 823.562 Q68.7837 826.045 68.1471 828.718 Q67.5106 831.392 67.5106 834.256 Q67.5106 838.617 68.8473 840.813 Q70.1841 842.977 72.8577 842.977 Q74.8948 842.977 76.0724 841.418 Q77.2183 839.858 78.2686 835.147 L78.7142 833.142 Q80.051 826.904 82.5018 824.294 Q84.9208 821.652 89.2813 821.652 Q94.2465 821.652 97.1429 825.599 Q100.039 829.514 100.039 836.389 Q100.039 839.253 99.4664 842.373 Q98.9253 845.46 97.8113 848.897 L91.7639 848.897 Q93.4508 845.651 94.3102 842.5 Q95.1377 839.349 95.1377 836.261 Q95.1377 832.124 93.7373 829.896 Q92.305 827.668 89.7269 827.668 Q87.3397 827.668 86.0666 829.291 Q84.7934 830.882 83.6158 836.325 L83.1384 838.362 Q81.9925 843.805 79.6372 846.224 Q77.2501 848.643 73.1124 848.643 Q68.0835 848.643 65.3462 845.078 Q62.609 841.513 62.609 834.957 Q62.609 831.71 63.0864 828.845 Q63.5638 825.981 64.5187 823.562 Z" fill="#000000" fill-rule="nonzero" fill-opacity="1" /><path clip-path="url(#clip960)" d="M49.5911 792.147 L49.5911 778.652 L54.1426 778.652 L54.1426 786.291 L103.159 786.291 L103.159 778.652 L107.71 778.652 L107.71 792.147 L49.5911 792.147 Z" fill="#000000" fill-rule="nonzero" fill-opacity="1" /><path clip-path="url(#clip960)" d="M51.5963 765.92 L51.5963 756.34 L83.9341 744.213 L51.5963 732.023 L51.5963 722.443 L99.1163 722.443 L99.1163 728.713 L57.3891 728.713 L89.9815 740.967 L89.9815 747.428 L57.3891 759.682 L99.1163 759.682 L99.1163 765.92 L51.5963 765.92 Z" fill="#000000" fill-rule="nonzero" fill-opacity="1" /><path clip-path="url(#clip960)" d="M63.4683 709.934 L63.4683 704.078 L99.1163 704.078 L99.1163 709.934 L63.4683 709.934 M49.5911 709.934 L49.5911 704.078 L57.0071 704.078 L57.0071 709.934 L49.5911 709.934 Z" fill="#000000" fill-rule="nonzero" fill-opacity="1" /><path clip-path="url(#clip960)" d="M49.5911 691.824 L49.5911 685.967 L99.1163 685.967 L99.1163 691.824 L49.5911 691.824 Z" fill="#000000" fill-rule="nonzero" fill-opacity="1" /><path clip-path="url(#clip960)" d="M49.5911 673.713 L49.5911 667.857 L99.1163 667.857 L99.1163 673.713 L49.5911 673.713 Z" fill="#000000" fill-rule="nonzero" fill-opacity="1" /><path clip-path="url(#clip960)" d="M63.4683 655.603 L63.4683 649.746 L99.1163 649.746 L99.1163 655.603 L63.4683 655.603 M49.5911 655.603 L49.5911 649.746 L57.0071 649.746 L57.0071 655.603 L49.5911 655.603 Z" fill="#000000" fill-rule="nonzero" fill-opacity="1" /><path clip-path="url(#clip960)" d="M67.5742 623.679 Q67.5742 628.389 71.2663 631.127 Q74.9266 633.864 81.3241 633.864 Q87.7217 633.864 91.4138 631.158 Q95.0741 628.421 95.0741 623.679 Q95.0741 619 91.3819 616.263 Q87.6898 613.525 81.3241 613.525 Q74.9903 613.525 71.2981 616.263 Q67.5742 619 67.5742 623.679 M62.609 623.679 Q62.609 616.04 67.5742 611.679 Q72.5395 607.319 81.3241 607.319 Q90.077 607.319 95.0741 611.679 Q100.039 616.04 100.039 623.679 Q100.039 631.349 95.0741 635.71 Q90.077 640.039 81.3241 640.039 Q72.5395 640.039 67.5742 635.71 Q62.609 631.349 62.609 623.679 Z" fill="#000000" fill-rule="nonzero" fill-opacity="1" /><path clip-path="url(#clip960)" d="M77.6002 567.979 L99.1163 567.979 L99.1163 573.835 L77.7912 573.835 Q72.7304 573.835 70.216 575.809 Q67.7015 577.782 67.7015 581.729 Q67.7015 586.471 70.7252 589.208 Q73.7489 591.946 78.9688 591.946 L99.1163 591.946 L99.1163 597.834 L63.4683 597.834 L63.4683 591.946 L69.0065 591.946 Q65.7918 589.845 64.2004 587.012 Q62.609 584.148 62.609 580.424 Q62.609 574.281 66.4284 571.13 Q70.216 567.979 77.6002 567.979 Z" fill="#000000" fill-rule="nonzero" fill-opacity="1" /><path clip-path="url(#clip960)" d="M51.5963 536.055 L51.5963 529.594 L80.4648 529.594 Q88.1036 529.594 91.4774 526.824 Q94.8194 524.055 94.8194 517.849 Q94.8194 511.674 91.4774 508.905 Q88.1036 506.136 80.4648 506.136 L51.5963 506.136 L51.5963 499.675 L81.2605 499.675 Q90.5544 499.675 95.2969 504.29 Q100.039 508.873 100.039 517.849 Q100.039 526.856 95.2969 531.471 Q90.5544 536.055 81.2605 536.055 L51.5963 536.055 Z" fill="#000000" fill-rule="nonzero" fill-opacity="1" /><path clip-path="url(#clip960)" d="M53.1559 459.125 L59.4261 459.125 Q57.6755 462.785 56.8162 466.032 Q55.9568 469.278 55.9568 472.302 Q55.9568 477.554 57.9938 480.418 Q60.0308 483.251 63.7866 483.251 Q66.9376 483.251 68.5609 481.373 Q70.1523 479.464 71.139 474.18 L71.9347 470.297 Q73.3033 463.104 76.7727 459.698 Q80.2101 456.261 86.0029 456.261 Q92.9097 456.261 96.4745 460.908 Q100.039 465.523 100.039 474.467 Q100.039 477.84 99.2754 481.66 Q98.5115 485.447 97.0156 489.521 L90.3953 489.521 Q92.5914 485.607 93.7054 481.851 Q94.8194 478.095 94.8194 474.467 Q94.8194 468.96 92.6551 465.968 Q90.4908 462.976 86.4804 462.976 Q82.9792 462.976 81.0058 465.141 Q79.0325 467.273 78.0458 472.175 L77.2819 476.09 Q75.8496 483.283 72.7941 486.498 Q69.7385 489.712 64.2959 489.712 Q57.9938 489.712 54.3654 485.288 Q50.7369 480.832 50.7369 473.034 Q50.7369 469.692 51.3417 466.223 Q51.9464 462.754 53.1559 459.125 Z" fill="#000000" fill-rule="nonzero" fill-opacity="1" /><path clip-path="url(#clip960)" d="M56.8798 439.805 L93.8327 439.805 L93.8327 432.039 Q93.8327 422.204 89.3768 417.653 Q84.9208 413.069 75.3085 413.069 Q65.76 413.069 61.3358 417.653 Q56.8798 422.204 56.8798 432.039 L56.8798 439.805 M51.5963 446.235 L51.5963 433.026 Q51.5963 419.212 57.3572 412.751 Q63.0864 406.29 75.3085 406.29 Q87.5944 406.29 93.3553 412.783 Q99.1163 419.276 99.1163 433.026 L99.1163 446.235 L51.5963 446.235 Z" fill="#000000" fill-rule="nonzero" fill-opacity="1" /><path clip-path="url(#clip960)" d="M49.5911 382.609 L107.71 382.609 L107.71 396.105 L103.159 396.105 L103.159 388.498 L54.1426 388.498 L54.1426 396.105 L49.5911 396.105 L49.5911 382.609 Z" fill="#000000" fill-rule="nonzero" fill-opacity="1" /><path clip-path="url(#clip960)" d="M273.84 20.1573 L262.741 50.2555 L284.98 50.2555 L273.84 20.1573 M269.222 12.096 L278.499 12.096 L301.549 72.576 L293.042 72.576 L287.533 57.061 L260.27 57.061 L254.761 72.576 L246.132 72.576 L269.222 12.096 Z" fill="#000000" fill-rule="nonzero" fill-opacity="1" /><path clip-path="url(#clip960)" d="M338.452 34.0924 L338.452 9.54393 L345.906 9.54393 L345.906 72.576 L338.452 72.576 L338.452 65.7705 Q336.103 69.8214 332.498 71.8063 Q328.933 73.7508 323.91 73.7508 Q315.686 73.7508 310.501 67.1883 Q305.356 60.6258 305.356 49.9314 Q305.356 39.2371 310.501 32.6746 Q315.686 26.1121 323.91 26.1121 Q328.933 26.1121 332.498 28.0971 Q336.103 30.0415 338.452 34.0924 M313.053 49.9314 Q313.053 58.1548 316.415 62.8538 Q319.818 67.5124 325.733 67.5124 Q331.647 67.5124 335.05 62.8538 Q338.452 58.1548 338.452 49.9314 Q338.452 41.7081 335.05 37.0496 Q331.647 32.3505 325.733 32.3505 Q319.818 32.3505 316.415 37.0496 Q313.053 41.7081 313.053 49.9314 Z" fill="#000000" fill-rule="nonzero" fill-opacity="1" /><path clip-path="url(#clip960)" d="M381.878 49.7694 Q372.845 49.7694 369.361 51.8354 Q365.877 53.9013 365.877 58.8839 Q365.877 62.8538 368.47 65.2034 Q371.103 67.5124 375.599 67.5124 Q381.797 67.5124 385.524 63.1374 Q389.291 58.7219 389.291 51.4303 L389.291 49.7694 L381.878 49.7694 M396.745 46.6907 L396.745 72.576 L389.291 72.576 L389.291 65.6895 Q386.739 69.8214 382.931 71.8063 Q379.123 73.7508 373.614 73.7508 Q366.647 73.7508 362.515 69.8619 Q358.423 65.9325 358.423 59.3701 Q358.423 51.7138 363.527 47.825 Q368.672 43.9361 378.84 43.9361 L389.291 43.9361 L389.291 43.2069 Q389.291 38.0623 385.888 35.2672 Q382.526 32.4315 376.409 32.4315 Q372.52 32.4315 368.834 33.3632 Q365.148 34.295 361.745 36.1584 L361.745 29.2718 Q365.836 27.692 369.685 26.9223 Q373.533 26.1121 377.179 26.1121 Q387.023 26.1121 391.884 31.2163 Q396.745 36.3204 396.745 46.6907 Z" fill="#000000" fill-rule="nonzero" fill-opacity="1" /><path clip-path="url(#clip960)" d="M419.308 65.7705 L419.308 89.8329 L411.814 89.8329 L411.814 27.2059 L419.308 27.2059 L419.308 34.0924 Q421.658 30.0415 425.223 28.0971 Q428.828 26.1121 433.811 26.1121 Q442.075 26.1121 447.219 32.6746 Q452.404 39.2371 452.404 49.9314 Q452.404 60.6258 447.219 67.1883 Q442.075 73.7508 433.811 73.7508 Q428.828 73.7508 425.223 71.8063 Q421.658 69.8214 419.308 65.7705 M444.667 49.9314 Q444.667 41.7081 441.264 37.0496 Q437.902 32.3505 431.988 32.3505 Q426.073 32.3505 422.671 37.0496 Q419.308 41.7081 419.308 49.9314 Q419.308 58.1548 422.671 62.8538 Q426.073 67.5124 431.988 67.5124 Q437.902 67.5124 441.264 62.8538 Q444.667 58.1548 444.667 49.9314 Z" fill="#000000" fill-rule="nonzero" fill-opacity="1" /><path clip-path="url(#clip960)" d="M472.132 14.324 L472.132 27.2059 L487.485 27.2059 L487.485 32.9987 L472.132 32.9987 L472.132 57.6282 Q472.132 63.1779 473.631 64.7578 Q475.17 66.3376 479.829 66.3376 L487.485 66.3376 L487.485 72.576 L479.829 72.576 Q471.201 72.576 467.919 69.3758 Q464.638 66.1351 464.638 57.6282 L464.638 32.9987 L459.169 32.9987 L459.169 27.2059 L464.638 27.2059 L464.638 14.324 L472.132 14.324 Z" fill="#000000" fill-rule="nonzero" fill-opacity="1" /><path clip-path="url(#clip960)" d="M497.288 27.2059 L504.742 27.2059 L504.742 72.576 L497.288 72.576 L497.288 27.2059 M497.288 9.54393 L504.742 9.54393 L504.742 18.9825 L497.288 18.9825 L497.288 9.54393 Z" fill="#000000" fill-rule="nonzero" fill-opacity="1" /><path clip-path="url(#clip960)" d="M514.991 27.2059 L522.89 27.2059 L537.068 65.2844 L551.246 27.2059 L559.146 27.2059 L542.132 72.576 L532.005 72.576 L514.991 27.2059 Z" fill="#000000" fill-rule="nonzero" fill-opacity="1" /><path clip-path="url(#clip960)" d="M608.243 48.0275 L608.243 51.6733 L573.972 51.6733 Q574.458 59.3701 578.59 63.421 Q582.762 67.4314 590.176 67.4314 Q594.47 67.4314 598.48 66.3781 Q602.531 65.3249 606.501 63.2184 L606.501 70.267 Q602.49 71.9684 598.277 72.8596 Q594.064 73.7508 589.73 73.7508 Q578.874 73.7508 572.514 67.4314 Q566.194 61.1119 566.194 50.3365 Q566.194 39.1965 572.19 32.6746 Q578.225 26.1121 588.434 26.1121 Q597.589 26.1121 602.895 32.0264 Q608.243 37.9003 608.243 48.0275 M600.789 45.84 Q600.708 39.7232 597.346 36.0774 Q594.024 32.4315 588.515 32.4315 Q582.276 32.4315 578.509 35.9558 Q574.782 39.4801 574.215 45.8805 L600.789 45.84 Z" fill="#000000" fill-rule="nonzero" fill-opacity="1" /><path clip-path="url(#clip960)" d="M655.355 18.8205 L655.355 41.5461 L665.644 41.5461 Q671.356 41.5461 674.475 38.5889 Q677.594 35.6318 677.594 30.163 Q677.594 24.7348 674.475 21.7777 Q671.356 18.8205 665.644 18.8205 L655.355 18.8205 M647.172 12.096 L665.644 12.096 Q675.812 12.096 680.997 16.714 Q686.222 21.2916 686.222 30.163 Q686.222 39.1155 680.997 43.6931 Q675.812 48.2706 665.644 48.2706 L655.355 48.2706 L655.355 72.576 L647.172 72.576 L647.172 12.096 Z" fill="#000000" fill-rule="nonzero" fill-opacity="1" /><path clip-path="url(#clip960)" d="M711.5 32.4315 Q705.505 32.4315 702.021 37.1306 Q698.537 41.7891 698.537 49.9314 Q698.537 58.0738 701.981 62.7728 Q705.464 67.4314 711.5 67.4314 Q717.455 67.4314 720.939 62.7323 Q724.423 58.0333 724.423 49.9314 Q724.423 41.8701 720.939 37.1711 Q717.455 32.4315 711.5 32.4315 M711.5 26.1121 Q721.222 26.1121 726.772 32.4315 Q732.322 38.7509 732.322 49.9314 Q732.322 61.0714 726.772 67.4314 Q721.222 73.7508 711.5 73.7508 Q701.737 73.7508 696.188 67.4314 Q690.678 61.0714 690.678 49.9314 Q690.678 38.7509 696.188 32.4315 Q701.737 26.1121 711.5 26.1121 Z" fill="#000000" fill-rule="nonzero" fill-opacity="1" /><path clip-path="url(#clip960)" d="M744.677 9.54393 L752.131 9.54393 L752.131 72.576 L744.677 72.576 L744.677 9.54393 Z" fill="#000000" fill-rule="nonzero" fill-opacity="1" /><path clip-path="url(#clip960)" d="M767.727 27.2059 L775.18 27.2059 L775.18 72.576 L767.727 72.576 L767.727 27.2059 M767.727 9.54393 L775.18 9.54393 L775.18 18.9825 L767.727 18.9825 L767.727 9.54393 Z" fill="#000000" fill-rule="nonzero" fill-opacity="1" /><path clip-path="url(#clip960)" d="M823.427 28.9478 L823.427 35.9153 Q820.267 34.1734 817.067 33.3227 Q813.907 32.4315 810.666 32.4315 Q803.415 32.4315 799.405 37.0496 Q795.394 41.6271 795.394 49.9314 Q795.394 58.2358 799.405 62.8538 Q803.415 67.4314 810.666 67.4314 Q813.907 67.4314 817.067 66.5807 Q820.267 65.6895 823.427 63.9476 L823.427 70.8341 Q820.307 72.2924 816.945 73.0216 Q813.623 73.7508 809.856 73.7508 Q799.607 73.7508 793.571 67.3098 Q787.536 60.8689 787.536 49.9314 Q787.536 38.832 793.612 32.472 Q799.729 26.1121 810.342 26.1121 Q813.785 26.1121 817.067 26.8413 Q820.348 27.5299 823.427 28.9478 Z" fill="#000000" fill-rule="nonzero" fill-opacity="1" /><path clip-path="url(#clip960)" d="M855.267 76.7889 Q852.107 84.8907 849.109 87.3618 Q846.112 89.8329 841.089 89.8329 L835.134 89.8329 L835.134 83.5945 L839.509 83.5945 Q842.587 83.5945 844.289 82.1361 Q845.99 80.6778 848.056 75.2496 L849.393 71.8468 L831.042 27.2059 L838.942 27.2059 L853.12 62.6918 L867.298 27.2059 L875.197 27.2059 L855.267 76.7889 Z" fill="#000000" fill-rule="nonzero" fill-opacity="1" /><path clip-path="url(#clip960)" d="M887.39 62.2867 L895.938 62.2867 L895.938 69.2543 L889.294 82.2172 L884.069 82.2172 L887.39 69.2543 L887.39 62.2867 Z" fill="#000000" fill-rule="nonzero" fill-opacity="1" /><path clip-path="url(#clip960)" d="M946.331 65.6895 L974.89 65.6895 L974.89 72.576 L936.487 72.576 L936.487 65.6895 Q941.146 60.8689 949.167 52.7671 Q957.228 44.6248 959.294 42.2752 Q963.223 37.8598 964.763 34.8216 Q966.343 31.7429 966.343 28.7857 Q966.343 23.9651 962.94 20.927 Q959.578 17.8888 954.149 17.8888 Q950.301 17.8888 946.007 19.2256 Q941.754 20.5624 936.892 23.2765 L936.892 15.0127 Q941.835 13.0277 946.129 12.015 Q950.422 11.0023 953.987 11.0023 Q963.385 11.0023 968.976 15.7013 Q974.566 20.4004 974.566 28.2591 Q974.566 31.9859 973.148 35.3482 Q971.771 38.6699 968.084 43.2069 Q967.072 44.3817 961.643 50.0125 Q956.215 55.6027 946.331 65.6895 Z" fill="#000000" fill-rule="nonzero" fill-opacity="1" /><path clip-path="url(#clip960)" d="M1009.57 17.4837 Q1003.25 17.4837 1000.05 23.7221 Q996.886 29.92 996.886 42.3968 Q996.886 54.833 1000.05 61.0714 Q1003.25 67.2693 1009.57 67.2693 Q1015.93 67.2693 1019.09 61.0714 Q1022.29 54.833 1022.29 42.3968 Q1022.29 29.92 1019.09 23.7221 Q1015.93 17.4837 1009.57 17.4837 M1009.57 11.0023 Q1019.73 11.0023 1025.08 19.0636 Q1030.47 27.0843 1030.47 42.3968 Q1030.47 57.6687 1025.08 65.73 Q1019.73 73.7508 1009.57 73.7508 Q999.398 73.7508 994.01 65.73 Q988.663 57.6687 988.663 42.3968 Q988.663 27.0843 994.01 19.0636 Q999.398 11.0023 1009.57 11.0023 Z" fill="#000000" fill-rule="nonzero" fill-opacity="1" /><path clip-path="url(#clip960)" d="M1062.19 12.096 L1070.98 12.096 L1087.75 36.9686 L1104.4 12.096 L1113.19 12.096 L1091.8 43.7741 L1091.8 72.576 L1083.58 72.576 L1083.58 43.7741 L1062.19 12.096 Z" fill="#000000" fill-rule="nonzero" fill-opacity="1" /><path clip-path="url(#clip960)" d="M1148.63 48.0275 L1148.63 51.6733 L1114.36 51.6733 Q1114.85 59.3701 1118.98 63.421 Q1123.15 67.4314 1130.57 67.4314 Q1134.86 67.4314 1138.87 66.3781 Q1142.92 65.3249 1146.89 63.2184 L1146.89 70.267 Q1142.88 71.9684 1138.67 72.8596 Q1134.46 73.7508 1130.12 73.7508 Q1119.26 73.7508 1112.9 67.4314 Q1106.58 61.1119 1106.58 50.3365 Q1106.58 39.1965 1112.58 32.6746 Q1118.62 26.1121 1128.82 26.1121 Q1137.98 26.1121 1143.29 32.0264 Q1148.63 37.9003 1148.63 48.0275 M1141.18 45.84 Q1141.1 39.7232 1137.74 36.0774 Q1134.41 32.4315 1128.91 32.4315 Q1122.67 32.4315 1118.9 35.9558 Q1115.17 39.4801 1114.61 45.8805 L1141.18 45.84 Z" fill="#000000" fill-rule="nonzero" fill-opacity="1" /><path clip-path="url(#clip960)" d="M1181.49 49.7694 Q1172.45 49.7694 1168.97 51.8354 Q1165.48 53.9013 1165.48 58.8839 Q1165.48 62.8538 1168.08 65.2034 Q1170.71 67.5124 1175.21 67.5124 Q1181.41 67.5124 1185.13 63.1374 Q1188.9 58.7219 1188.9 51.4303 L1188.9 49.7694 L1181.49 49.7694 M1196.35 46.6907 L1196.35 72.576 L1188.9 72.576 L1188.9 65.6895 Q1186.35 69.8214 1182.54 71.8063 Q1178.73 73.7508 1173.22 73.7508 Q1166.25 73.7508 1162.12 69.8619 Q1158.03 65.9325 1158.03 59.3701 Q1158.03 51.7138 1163.14 47.825 Q1168.28 43.9361 1178.45 43.9361 L1188.9 43.9361 L1188.9 43.2069 Q1188.9 38.0623 1185.5 35.2672 Q1182.13 32.4315 1176.02 32.4315 Q1172.13 32.4315 1168.44 33.3632 Q1164.76 34.295 1161.35 36.1584 L1161.35 29.2718 Q1165.44 27.692 1169.29 26.9223 Q1173.14 26.1121 1176.79 26.1121 Q1186.63 26.1121 1191.49 31.2163 Q1196.35 36.3204 1196.35 46.6907 Z" fill="#000000" fill-rule="nonzero" fill-opacity="1" /><path clip-path="url(#clip960)" d="M1238 34.1734 Q1236.74 33.4443 1235.24 33.1202 Q1233.78 32.7556 1232 32.7556 Q1225.68 32.7556 1222.28 36.8875 Q1218.92 40.9789 1218.92 48.6757 L1218.92 72.576 L1211.42 72.576 L1211.42 27.2059 L1218.92 27.2059 L1218.92 34.2544 Q1221.27 30.1225 1225.03 28.1376 Q1228.8 26.1121 1234.19 26.1121 Q1234.96 26.1121 1235.89 26.2337 Q1236.82 26.3147 1237.96 26.5172 L1238 34.1734 Z" fill="#000000" fill-rule="nonzero" fill-opacity="1" /><path clip-path="url(#clip960)" d="M1272.51 12.096 L1280.69 12.096 L1280.69 36.8875 L1310.43 36.8875 L1310.43 12.096 L1318.61 12.096 L1318.61 72.576 L1310.43 72.576 L1310.43 43.7741 L1280.69 43.7741 L1280.69 72.576 L1272.51 72.576 L1272.51 12.096 Z" fill="#000000" fill-rule="nonzero" fill-opacity="1" /><path clip-path="url(#clip960)" d="M1352.15 32.4315 Q1346.16 32.4315 1342.67 37.1306 Q1339.19 41.7891 1339.19 49.9314 Q1339.19 58.0738 1342.63 62.7728 Q1346.11 67.4314 1352.15 67.4314 Q1358.11 67.4314 1361.59 62.7323 Q1365.07 58.0333 1365.07 49.9314 Q1365.07 41.8701 1361.59 37.1711 Q1358.11 32.4315 1352.15 32.4315 M1352.15 26.1121 Q1361.87 26.1121 1367.42 32.4315 Q1372.97 38.7509 1372.97 49.9314 Q1372.97 61.0714 1367.42 67.4314 Q1361.87 73.7508 1352.15 73.7508 Q1342.39 73.7508 1336.84 67.4314 Q1331.33 61.0714 1331.33 49.9314 Q1331.33 38.7509 1336.84 32.4315 Q1342.39 26.1121 1352.15 26.1121 Z" fill="#000000" fill-rule="nonzero" fill-opacity="1" /><path clip-path="url(#clip960)" d="M1411.62 34.1734 Q1410.36 33.4443 1408.86 33.1202 Q1407.4 32.7556 1405.62 32.7556 Q1399.3 32.7556 1395.9 36.8875 Q1392.54 40.9789 1392.54 48.6757 L1392.54 72.576 L1385.04 72.576 L1385.04 27.2059 L1392.54 27.2059 L1392.54 34.2544 Q1394.89 30.1225 1398.66 28.1376 Q1402.42 26.1121 1407.81 26.1121 Q1408.58 26.1121 1409.51 26.2337 Q1410.44 26.3147 1411.58 26.5172 L1411.62 34.1734 Z" fill="#000000" fill-rule="nonzero" fill-opacity="1" /><path clip-path="url(#clip960)" d="M1419.44 27.2059 L1426.89 27.2059 L1426.89 72.576 L1419.44 72.576 L1419.44 27.2059 M1419.44 9.54393 L1426.89 9.54393 L1426.89 18.9825 L1419.44 18.9825 L1419.44 9.54393 Z" fill="#000000" fill-rule="nonzero" fill-opacity="1" /><path clip-path="url(#clip960)" d="M1439.25 27.2059 L1474.65 27.2059 L1474.65 34.0114 L1446.62 66.6212 L1474.65 66.6212 L1474.65 72.576 L1438.23 72.576 L1438.23 65.7705 L1466.26 33.1607 L1439.25 33.1607 L1439.25 27.2059 Z" fill="#000000" fill-rule="nonzero" fill-opacity="1" /><path clip-path="url(#clip960)" d="M1503.61 32.4315 Q1497.62 32.4315 1494.13 37.1306 Q1490.65 41.7891 1490.65 49.9314 Q1490.65 58.0738 1494.09 62.7728 Q1497.58 67.4314 1503.61 67.4314 Q1509.57 67.4314 1513.05 62.7323 Q1516.54 58.0333 1516.54 49.9314 Q1516.54 41.8701 1513.05 37.1711 Q1509.57 32.4315 1503.61 32.4315 M1503.61 26.1121 Q1513.34 26.1121 1518.89 32.4315 Q1524.44 38.7509 1524.44 49.9314 Q1524.44 61.0714 1518.89 67.4314 Q1513.34 73.7508 1503.61 73.7508 Q1493.85 73.7508 1488.3 67.4314 Q1482.79 61.0714 1482.79 49.9314 Q1482.79 38.7509 1488.3 32.4315 Q1493.85 26.1121 1503.61 26.1121 Z" fill="#000000" fill-rule="nonzero" fill-opacity="1" /><path clip-path="url(#clip960)" d="M1574.5 45.1919 L1574.5 72.576 L1567.05 72.576 L1567.05 45.4349 Q1567.05 38.994 1564.54 35.7938 Q1562.03 32.5936 1557 32.5936 Q1550.97 32.5936 1547.49 36.4419 Q1544 40.2903 1544 46.9338 L1544 72.576 L1536.51 72.576 L1536.51 27.2059 L1544 27.2059 L1544 34.2544 Q1546.68 30.163 1550.28 28.1376 Q1553.93 26.1121 1558.67 26.1121 Q1566.48 26.1121 1570.49 30.9732 Q1574.5 35.7938 1574.5 45.1919 Z" fill="#000000" fill-rule="nonzero" fill-opacity="1" /><path clip-path="url(#clip960)" d="M1591.28 62.2867 L1599.82 62.2867 L1599.82 69.2543 L1593.18 82.2172 L1587.95 82.2172 L1591.28 69.2543 L1591.28 62.2867 Z" fill="#000000" fill-rule="nonzero" fill-opacity="1" /><path clip-path="url(#clip960)" d="M1660.67 17.4837 Q1654.35 17.4837 1651.15 23.7221 Q1647.99 29.92 1647.99 42.3968 Q1647.99 54.833 1651.15 61.0714 Q1654.35 67.2693 1660.67 67.2693 Q1667.03 67.2693 1670.19 61.0714 Q1673.39 54.833 1673.39 42.3968 Q1673.39 29.92 1670.19 23.7221 Q1667.03 17.4837 1660.67 17.4837 M1660.67 11.0023 Q1670.84 11.0023 1676.18 19.0636 Q1681.57 27.0843 1681.57 42.3968 Q1681.57 57.6687 1676.18 65.73 Q1670.84 73.7508 1660.67 73.7508 Q1650.5 73.7508 1645.11 65.73 Q1639.76 57.6687 1639.76 42.3968 Q1639.76 27.0843 1645.11 19.0636 Q1650.5 11.0023 1660.67 11.0023 Z" fill="#000000" fill-rule="nonzero" fill-opacity="1" /><path clip-path="url(#clip960)" d="M1695.95 62.2867 L1704.5 62.2867 L1704.5 72.576 L1695.95 72.576 L1695.95 62.2867 Z" fill="#000000" fill-rule="nonzero" fill-opacity="1" /><path clip-path="url(#clip960)" d="M1723.74 65.6895 L1737.11 65.6895 L1737.11 19.5497 L1722.57 22.4663 L1722.57 15.0127 L1737.03 12.096 L1745.21 12.096 L1745.21 65.6895 L1758.58 65.6895 L1758.58 72.576 L1723.74 72.576 L1723.74 65.6895 Z" fill="#000000" fill-rule="nonzero" fill-opacity="1" /><path clip-path="url(#clip960)" d="M1782.15 65.6895 L1810.71 65.6895 L1810.71 72.576 L1772.31 72.576 L1772.31 65.6895 Q1776.97 60.8689 1784.99 52.7671 Q1793.05 44.6248 1795.12 42.2752 Q1799.05 37.8598 1800.59 34.8216 Q1802.17 31.7429 1802.17 28.7857 Q1802.17 23.9651 1798.76 20.927 Q1795.4 17.8888 1789.97 17.8888 Q1786.12 17.8888 1781.83 19.2256 Q1777.58 20.5624 1772.72 23.2765 L1772.72 15.0127 Q1777.66 13.0277 1781.95 12.015 Q1786.25 11.0023 1789.81 11.0023 Q1799.21 11.0023 1804.8 15.7013 Q1810.39 20.4004 1810.39 28.2591 Q1810.39 31.9859 1808.97 35.3482 Q1807.59 38.6699 1803.91 43.2069 Q1802.89 44.3817 1797.47 50.0125 Q1792.04 55.6027 1782.15 65.6895 Z" fill="#000000" fill-rule="nonzero" fill-opacity="1" /><path clip-path="url(#clip960)" d="M1861.71 18.8205 L1861.71 65.8515 L1871.6 65.8515 Q1884.12 65.8515 1889.91 60.1802 Q1895.74 54.509 1895.74 42.2752 Q1895.74 30.1225 1889.91 24.4918 Q1884.12 18.8205 1871.6 18.8205 L1861.71 18.8205 M1853.53 12.096 L1870.34 12.096 Q1887.92 12.096 1896.15 19.4281 Q1904.37 26.7198 1904.37 42.2752 Q1904.37 57.9117 1896.11 65.2439 Q1887.84 72.576 1870.34 72.576 L1853.53 72.576 L1853.53 12.096 Z" fill="#000000" fill-rule="nonzero" fill-opacity="1" /><path clip-path="url(#clip960)" d="M1917.09 27.2059 L1924.54 27.2059 L1924.54 72.576 L1917.09 72.576 L1917.09 27.2059 M1917.09 9.54393 L1924.54 9.54393 L1924.54 18.9825 L1917.09 18.9825 L1917.09 9.54393 Z" fill="#000000" fill-rule="nonzero" fill-opacity="1" /><path clip-path="url(#clip960)" d="M1969.06 28.5427 L1969.06 35.5912 Q1965.9 33.9709 1962.5 33.1607 Q1959.1 32.3505 1955.45 32.3505 Q1949.9 32.3505 1947.11 34.0519 Q1944.35 35.7533 1944.35 39.156 Q1944.35 41.7486 1946.34 43.2475 Q1948.32 44.7058 1954.32 46.0426 L1956.87 46.6097 Q1964.81 48.3111 1968.13 51.4303 Q1971.49 54.509 1971.49 60.0587 Q1971.49 66.3781 1966.47 70.0644 Q1961.49 73.7508 1952.74 73.7508 Q1949.09 73.7508 1945.12 73.0216 Q1941.19 72.3329 1936.82 70.9151 L1936.82 63.2184 Q1940.95 65.3654 1944.96 66.4591 Q1948.97 67.5124 1952.9 67.5124 Q1958.17 67.5124 1961 65.73 Q1963.84 63.9071 1963.84 60.6258 Q1963.84 57.5877 1961.77 55.9673 Q1959.75 54.3469 1952.82 52.8481 L1950.23 52.2405 Q1943.3 50.7821 1940.22 47.7845 Q1937.14 44.7463 1937.14 39.4801 Q1937.14 33.0797 1941.68 29.5959 Q1946.22 26.1121 1954.56 26.1121 Q1958.69 26.1121 1962.34 26.7198 Q1965.98 27.3274 1969.06 28.5427 Z" fill="#000000" fill-rule="nonzero" fill-opacity="1" /><path clip-path="url(#clip960)" d="M2016.01 28.9478 L2016.01 35.9153 Q2012.85 34.1734 2009.65 33.3227 Q2006.49 32.4315 2003.25 32.4315 Q1996 32.4315 1991.99 37.0496 Q1987.98 41.6271 1987.98 49.9314 Q1987.98 58.2358 1991.99 62.8538 Q1996 67.4314 2003.25 67.4314 Q2006.49 67.4314 2009.65 66.5807 Q2012.85 65.6895 2016.01 63.9476 L2016.01 70.8341 Q2012.89 72.2924 2009.53 73.0216 Q2006.21 73.7508 2002.44 73.7508 Q1992.19 73.7508 1986.16 67.3098 Q1980.12 60.8689 1980.12 49.9314 Q1980.12 38.832 1986.2 32.472 Q1992.32 26.1121 2002.93 26.1121 Q2006.37 26.1121 2009.65 26.8413 Q2012.93 27.5299 2016.01 28.9478 Z" fill="#000000" fill-rule="nonzero" fill-opacity="1" /><path clip-path="url(#clip960)" d="M2046.56 32.4315 Q2040.56 32.4315 2037.08 37.1306 Q2033.59 41.7891 2033.59 49.9314 Q2033.59 58.0738 2037.04 62.7728 Q2040.52 67.4314 2046.56 67.4314 Q2052.51 67.4314 2056 62.7323 Q2059.48 58.0333 2059.48 49.9314 Q2059.48 41.8701 2056 37.1711 Q2052.51 32.4315 2046.56 32.4315 M2046.56 26.1121 Q2056.28 26.1121 2061.83 32.4315 Q2067.38 38.7509 2067.38 49.9314 Q2067.38 61.0714 2061.83 67.4314 Q2056.28 73.7508 2046.56 73.7508 Q2036.79 73.7508 2031.24 67.4314 Q2025.73 61.0714 2025.73 49.9314 Q2025.73 38.7509 2031.24 32.4315 Q2036.79 26.1121 2046.56 26.1121 Z" fill="#000000" fill-rule="nonzero" fill-opacity="1" /><path clip-path="url(#clip960)" d="M2078.96 54.671 L2078.96 27.2059 L2086.42 27.2059 L2086.42 54.3874 Q2086.42 60.8284 2088.93 64.0691 Q2091.44 67.2693 2096.46 67.2693 Q2102.5 67.2693 2105.98 63.421 Q2109.51 59.5726 2109.51 52.9291 L2109.51 27.2059 L2116.96 27.2059 L2116.96 72.576 L2109.51 72.576 L2109.51 65.6084 Q2106.79 69.7404 2103.19 71.7658 Q2099.62 73.7508 2094.88 73.7508 Q2087.07 73.7508 2083.01 68.8897 Q2078.96 64.0286 2078.96 54.671 M2097.72 26.1121 L2097.72 26.1121 Z" fill="#000000" fill-rule="nonzero" fill-opacity="1" /><path clip-path="url(#clip960)" d="M2170.03 45.1919 L2170.03 72.576 L2162.57 72.576 L2162.57 45.4349 Q2162.57 38.994 2160.06 35.7938 Q2157.55 32.5936 2152.53 32.5936 Q2146.49 32.5936 2143.01 36.4419 Q2139.52 40.2903 2139.52 46.9338 L2139.52 72.576 L2132.03 72.576 L2132.03 27.2059 L2139.52 27.2059 L2139.52 34.2544 Q2142.2 30.163 2145.8 28.1376 Q2149.45 26.1121 2154.19 26.1121 Q2162.01 26.1121 2166.02 30.9732 Q2170.03 35.7938 2170.03 45.1919 Z" fill="#000000" fill-rule="nonzero" fill-opacity="1" /><path clip-path="url(#clip960)" d="M2192.27 14.324 L2192.27 27.2059 L2207.62 27.2059 L2207.62 32.9987 L2192.27 32.9987 L2192.27 57.6282 Q2192.27 63.1779 2193.77 64.7578 Q2195.31 66.3376 2199.96 66.3376 L2207.62 66.3376 L2207.62 72.576 L2199.96 72.576 Q2191.34 72.576 2188.05 69.3758 Q2184.77 66.1351 2184.77 57.6282 L2184.77 32.9987 L2179.3 32.9987 L2179.3 27.2059 L2184.77 27.2059 L2184.77 14.324 L2192.27 14.324 Z" fill="#000000" fill-rule="nonzero" fill-opacity="1" /><path clip-path="url(#clip960)" d="M2219.33 62.2867 L2227.88 62.2867 L2227.88 69.2543 L2221.23 82.2172 L2216.01 82.2172 L2219.33 69.2543 L2219.33 62.2867 Z" fill="#000000" fill-rule="nonzero" fill-opacity="1" /><path clip-path="url(#clip960)" d="M2288.72 43.8551 Q2282.89 43.8551 2279.52 46.9743 Q2276.2 50.0935 2276.2 55.5622 Q2276.2 61.0309 2279.52 64.1501 Q2282.89 67.2693 2288.72 67.2693 Q2294.55 67.2693 2297.92 64.1501 Q2301.28 60.9904 2301.28 55.5622 Q2301.28 50.0935 2297.92 46.9743 Q2294.59 43.8551 2288.72 43.8551 M2280.54 40.3713 Q2275.27 39.075 2272.31 35.4697 Q2269.4 31.8644 2269.4 26.6793 Q2269.4 19.4281 2274.54 15.2152 Q2279.73 11.0023 2288.72 11.0023 Q2297.75 11.0023 2302.9 15.2152 Q2308.04 19.4281 2308.04 26.6793 Q2308.04 31.8644 2305.09 35.4697 Q2302.17 39.075 2296.94 40.3713 Q2302.86 41.7486 2306.14 45.759 Q2309.46 49.7694 2309.46 55.5622 Q2309.46 64.3527 2304.07 69.0517 Q2298.73 73.7508 2288.72 73.7508 Q2278.71 73.7508 2273.33 69.0517 Q2267.98 64.3527 2267.98 55.5622 Q2267.98 49.7694 2271.3 45.759 Q2274.62 41.7486 2280.54 40.3713 M2277.54 27.4489 Q2277.54 32.148 2280.46 34.7811 Q2283.41 37.4142 2288.72 37.4142 Q2293.99 37.4142 2296.94 34.7811 Q2299.94 32.148 2299.94 27.4489 Q2299.94 22.7499 2296.94 20.1168 Q2293.99 17.4837 2288.72 17.4837 Q2283.41 17.4837 2280.46 20.1168 Q2277.54 22.7499 2277.54 27.4489 Z" fill="#000000" fill-rule="nonzero" fill-opacity="1" /><path clip-path="url(#clip960)" d="M2341.5 17.4837 Q2335.18 17.4837 2331.98 23.7221 Q2328.82 29.92 2328.82 42.3968 Q2328.82 54.833 2331.98 61.0714 Q2335.18 67.2693 2341.5 67.2693 Q2347.86 67.2693 2351.02 61.0714 Q2354.22 54.833 2354.22 42.3968 Q2354.22 29.92 2351.02 23.7221 Q2347.86 17.4837 2341.5 17.4837 M2341.5 11.0023 Q2351.67 11.0023 2357.02 19.0636 Q2362.41 27.0843 2362.41 42.3968 Q2362.41 57.6687 2357.02 65.73 Q2351.67 73.7508 2341.5 73.7508 Q2331.34 73.7508 2325.95 65.73 Q2320.6 57.6687 2320.6 42.3968 Q2320.6 27.0843 2325.95 19.0636 Q2331.34 11.0023 2341.5 11.0023 Z" fill="#000000" fill-rule="nonzero" fill-opacity="1" /><path clip-path="url(#clip960)" d="M2376.79 62.2867 L2385.33 62.2867 L2385.33 72.576 L2376.79 72.576 L2376.79 62.2867 Z" fill="#000000" fill-rule="nonzero" fill-opacity="1" /><path clip-path="url(#clip960)" d="M2420.66 17.4837 Q2414.34 17.4837 2411.14 23.7221 Q2407.98 29.92 2407.98 42.3968 Q2407.98 54.833 2411.14 61.0714 Q2414.34 67.2693 2420.66 67.2693 Q2427.02 67.2693 2430.18 61.0714 Q2433.38 54.833 2433.38 42.3968 Q2433.38 29.92 2430.18 23.7221 Q2427.02 17.4837 2420.66 17.4837 M2420.66 11.0023 Q2430.83 11.0023 2436.17 19.0636 Q2441.56 27.0843 2441.56 42.3968 Q2441.56 57.6687 2436.17 65.73 Q2430.83 73.7508 2420.66 73.7508 Q2410.49 73.7508 2405.1 65.73 Q2399.75 57.6687 2399.75 42.3968 Q2399.75 27.0843 2405.1 19.0636 Q2410.49 11.0023 2420.66 11.0023 Z" fill="#000000" fill-rule="nonzero" fill-opacity="1" /><path clip-path="url(#clip960)" d="M2489.77 18.8205 L2489.77 65.8515 L2499.65 65.8515 Q2512.17 65.8515 2517.96 60.1802 Q2523.79 54.509 2523.79 42.2752 Q2523.79 30.1225 2517.96 24.4918 Q2512.17 18.8205 2499.65 18.8205 L2489.77 18.8205 M2481.58 12.096 L2498.39 12.096 Q2515.98 12.096 2524.2 19.4281 Q2532.42 26.7198 2532.42 42.2752 Q2532.42 57.9117 2524.16 65.2439 Q2515.89 72.576 2498.39 72.576 L2481.58 72.576 L2481.58 12.096 Z" fill="#000000" fill-rule="nonzero" fill-opacity="1" /><path clip-path="url(#clip960)" d="M2583.95 48.0275 L2583.95 51.6733 L2549.68 51.6733 Q2550.17 59.3701 2554.3 63.421 Q2558.47 67.4314 2565.88 67.4314 Q2570.18 67.4314 2574.19 66.3781 Q2578.24 65.3249 2582.21 63.2184 L2582.21 70.267 Q2578.2 71.9684 2573.98 72.8596 Q2569.77 73.7508 2565.44 73.7508 Q2554.58 73.7508 2548.22 67.4314 Q2541.9 61.1119 2541.9 50.3365 Q2541.9 39.1965 2547.9 32.6746 Q2553.93 26.1121 2564.14 26.1121 Q2573.3 26.1121 2578.6 32.0264 Q2583.95 37.9003 2583.95 48.0275 M2576.5 45.84 Q2576.41 39.7232 2573.05 36.0774 Q2569.73 32.4315 2564.22 32.4315 Q2557.98 32.4315 2554.22 35.9558 Q2550.49 39.4801 2549.92 45.8805 L2576.5 45.84 Z" fill="#000000" fill-rule="nonzero" fill-opacity="1" /><path clip-path="url(#clip960)" d="M2631.51 35.9153 Q2634.3 30.8922 2638.19 28.5022 Q2642.08 26.1121 2647.35 26.1121 Q2654.44 26.1121 2658.28 31.0947 Q2662.13 36.0368 2662.13 45.1919 L2662.13 72.576 L2654.64 72.576 L2654.64 45.4349 Q2654.64 38.913 2652.33 35.7533 Q2650.02 32.5936 2645.28 32.5936 Q2639.49 32.5936 2636.13 36.4419 Q2632.76 40.2903 2632.76 46.9338 L2632.76 72.576 L2625.27 72.576 L2625.27 45.4349 Q2625.27 38.8725 2622.96 35.7533 Q2620.65 32.5936 2615.83 32.5936 Q2610.12 32.5936 2606.76 36.4824 Q2603.39 40.3308 2603.39 46.9338 L2603.39 72.576 L2595.9 72.576 L2595.9 27.2059 L2603.39 27.2059 L2603.39 34.2544 Q2605.95 30.082 2609.51 28.0971 Q2613.08 26.1121 2617.98 26.1121 Q2622.92 26.1121 2626.36 28.6237 Q2629.85 31.1352 2631.51 35.9153 Z" fill="#000000" fill-rule="nonzero" fill-opacity="1" /><path clip-path="url(#clip960)" d="M2697.62 49.7694 Q2688.58 49.7694 2685.1 51.8354 Q2681.62 53.9013 2681.62 58.8839 Q2681.62 62.8538 2684.21 65.2034 Q2686.84 67.5124 2691.34 67.5124 Q2697.54 67.5124 2701.26 63.1374 Q2705.03 58.7219 2705.03 51.4303 L2705.03 49.7694 L2697.62 49.7694 M2712.48 46.6907 L2712.48 72.576 L2705.03 72.576 L2705.03 65.6895 Q2702.48 69.8214 2698.67 71.8063 Q2694.86 73.7508 2689.35 73.7508 Q2682.39 73.7508 2678.25 69.8619 Q2674.16 65.9325 2674.16 59.3701 Q2674.16 51.7138 2679.27 47.825 Q2684.41 43.9361 2694.58 43.9361 L2705.03 43.9361 L2705.03 43.2069 Q2705.03 38.0623 2701.63 35.2672 Q2698.27 32.4315 2692.15 32.4315 Q2688.26 32.4315 2684.57 33.3632 Q2680.89 34.295 2677.48 36.1584 L2677.48 29.2718 Q2681.58 27.692 2685.42 26.9223 Q2689.27 26.1121 2692.92 26.1121 Q2702.76 26.1121 2707.62 31.2163 Q2712.48 36.3204 2712.48 46.6907 Z" fill="#000000" fill-rule="nonzero" fill-opacity="1" /><path clip-path="url(#clip960)" d="M2765.55 45.1919 L2765.55 72.576 L2758.1 72.576 L2758.1 45.4349 Q2758.1 38.994 2755.59 35.7938 Q2753.07 32.5936 2748.05 32.5936 Q2742.02 32.5936 2738.53 36.4419 Q2735.05 40.2903 2735.05 46.9338 L2735.05 72.576 L2727.55 72.576 L2727.55 27.2059 L2735.05 27.2059 L2735.05 34.2544 Q2737.72 30.163 2741.33 28.1376 Q2744.97 26.1121 2749.71 26.1121 Q2757.53 26.1121 2761.54 30.9732 Q2765.55 35.7938 2765.55 45.1919 Z" fill="#000000" fill-rule="nonzero" fill-opacity="1" /><path clip-path="url(#clip960)" d="M2810.27 34.0924 L2810.27 9.54393 L2817.73 9.54393 L2817.73 72.576 L2810.27 72.576 L2810.27 65.7705 Q2807.92 69.8214 2804.32 71.8063 Q2800.75 73.7508 2795.73 73.7508 Q2787.51 73.7508 2782.32 67.1883 Q2777.18 60.6258 2777.18 49.9314 Q2777.18 39.2371 2782.32 32.6746 Q2787.51 26.1121 2795.73 26.1121 Q2800.75 26.1121 2804.32 28.0971 Q2807.92 30.0415 2810.27 34.0924 M2784.87 49.9314 Q2784.87 58.1548 2788.24 62.8538 Q2791.64 67.5124 2797.55 67.5124 Q2803.47 67.5124 2806.87 62.8538 Q2810.27 58.1548 2810.27 49.9314 Q2810.27 41.7081 2806.87 37.0496 Q2803.47 32.3505 2797.55 32.3505 Q2791.64 32.3505 2788.24 37.0496 Q2784.87 41.7081 2784.87 49.9314 Z" fill="#000000" fill-rule="nonzero" fill-opacity="1" /><path clip-path="url(#clip960)" d="M2901.01 63.9476 L2901.01 47.7034 L2887.65 47.7034 L2887.65 40.9789 L2909.12 40.9789 L2909.12 66.9452 Q2904.38 70.3075 2898.66 72.0494 Q2892.95 73.7508 2886.47 73.7508 Q2872.29 73.7508 2864.27 65.4869 Q2856.29 57.1826 2856.29 42.3968 Q2856.29 27.5705 2864.27 19.3066 Q2872.29 11.0023 2886.47 11.0023 Q2892.39 11.0023 2897.69 12.4606 Q2903.04 13.9189 2907.54 16.7545 L2907.54 25.464 Q2903 21.6156 2897.89 19.6712 Q2892.79 17.7268 2887.16 17.7268 Q2876.06 17.7268 2870.47 23.9246 Q2864.92 30.1225 2864.92 42.3968 Q2864.92 54.6305 2870.47 60.8284 Q2876.06 67.0263 2887.16 67.0263 Q2891.49 67.0263 2894.9 66.2971 Q2898.3 65.5274 2901.01 63.9476 Z" fill="#000000" fill-rule="nonzero" fill-opacity="1" /><path clip-path="url(#clip960)" d="M2950.03 34.1734 Q2948.77 33.4443 2947.28 33.1202 Q2945.82 32.7556 2944.03 32.7556 Q2937.72 32.7556 2934.31 36.8875 Q2930.95 40.9789 2930.95 48.6757 L2930.95 72.576 L2923.46 72.576 L2923.46 27.2059 L2930.95 27.2059 L2930.95 34.2544 Q2933.3 30.1225 2937.07 28.1376 Q2940.83 26.1121 2946.22 26.1121 Q2946.99 26.1121 2947.92 26.2337 Q2948.86 26.3147 2949.99 26.5172 L2950.03 34.1734 Z" fill="#000000" fill-rule="nonzero" fill-opacity="1" /><path clip-path="url(#clip960)" d="M2973.61 32.4315 Q2967.61 32.4315 2964.13 37.1306 Q2960.64 41.7891 2960.64 49.9314 Q2960.64 58.0738 2964.09 62.7728 Q2967.57 67.4314 2973.61 67.4314 Q2979.56 67.4314 2983.04 62.7323 Q2986.53 58.0333 2986.53 49.9314 Q2986.53 41.8701 2983.04 37.1711 Q2979.56 32.4315 2973.61 32.4315 M2973.61 26.1121 Q2983.33 26.1121 2988.88 32.4315 Q2994.43 38.7509 2994.43 49.9314 Q2994.43 61.0714 2988.88 67.4314 Q2983.33 73.7508 2973.61 73.7508 Q2963.84 73.7508 2958.29 67.4314 Q2952.78 61.0714 2952.78 49.9314 Q2952.78 38.7509 2958.29 32.4315 Q2963.84 26.1121 2973.61 26.1121 Z" fill="#000000" fill-rule="nonzero" fill-opacity="1" /><path clip-path="url(#clip960)" d="M3002.45 27.2059 L3009.9 27.2059 L3019.22 62.6108 L3028.5 27.2059 L3037.29 27.2059 L3046.6 62.6108 L3055.88 27.2059 L3063.33 27.2059 L3051.46 72.576 L3042.67 72.576 L3032.91 35.3887 L3023.11 72.576 L3014.32 72.576 L3002.45 27.2059 Z" fill="#000000" fill-rule="nonzero" fill-opacity="1" /><path clip-path="url(#clip960)" d="M3082.01 14.324 L3082.01 27.2059 L3097.36 27.2059 L3097.36 32.9987 L3082.01 32.9987 L3082.01 57.6282 Q3082.01 63.1779 3083.51 64.7578 Q3085.05 66.3376 3089.7 66.3376 L3097.36 66.3376 L3097.36 72.576 L3089.7 72.576 Q3081.08 72.576 3077.8 69.3758 Q3074.51 66.1351 3074.51 57.6282 L3074.51 32.9987 L3069.05 32.9987 L3069.05 27.2059 L3074.51 27.2059 L3074.51 14.324 L3082.01 14.324 Z" fill="#000000" fill-rule="nonzero" fill-opacity="1" /><path clip-path="url(#clip960)" d="M3144.88 45.1919 L3144.88 72.576 L3137.42 72.576 L3137.42 45.4349 Q3137.42 38.994 3134.91 35.7938 Q3132.4 32.5936 3127.38 32.5936 Q3121.34 32.5936 3117.86 36.4419 Q3114.37 40.2903 3114.37 46.9338 L3114.37 72.576 L3106.88 72.576 L3106.88 9.54393 L3114.37 9.54393 L3114.37 34.2544 Q3117.05 30.163 3120.65 28.1376 Q3124.3 26.1121 3129.04 26.1121 Q3136.86 26.1121 3140.87 30.9732 Q3144.88 35.7938 3144.88 45.1919 Z" fill="#000000" fill-rule="nonzero" fill-opacity="1" /><polyline clip-path="url(#clip962)" style="stroke:#009af9; stroke-linecap:round; stroke-linejoin:round; stroke-width:4; stroke-opacity:1; fill:none" points="380.167,524.003 619.319,343.303 858.472,226.724 1097.62,205.572 1336.78,232.846 1575.93,322.446 1815.08,442.128 2054.23,594.701 2293.39,763.148 2532.54,948.954 2771.69,1143.14 3010.84,1346.48 "/>
<circle clip-path="url(#clip962)" cx="380.167" cy="524.003" r="14.4" fill="#009af9" fill-rule="evenodd" fill-opacity="1" stroke="#000000" stroke-opacity="1" stroke-width="3.2"/>
<circle clip-path="url(#clip962)" cx="619.319" cy="343.303" r="14.4" fill="#009af9" fill-rule="evenodd" fill-opacity="1" stroke="#000000" stroke-opacity="1" stroke-width="3.2"/>
<circle clip-path="url(#clip962)" cx="858.472" cy="226.724" r="14.4" fill="#009af9" fill-rule="evenodd" fill-opacity="1" stroke="#000000" stroke-opacity="1" stroke-width="3.2"/>
<circle clip-path="url(#clip962)" cx="1097.62" cy="205.572" r="14.4" fill="#009af9" fill-rule="evenodd" fill-opacity="1" stroke="#000000" stroke-opacity="1" stroke-width="3.2"/>
<circle clip-path="url(#clip962)" cx="1336.78" cy="232.846" r="14.4" fill="#009af9" fill-rule="evenodd" fill-opacity="1" stroke="#000000" stroke-opacity="1" stroke-width="3.2"/>
<circle clip-path="url(#clip962)" cx="1575.93" cy="322.446" r="14.4" fill="#009af9" fill-rule="evenodd" fill-opacity="1" stroke="#000000" stroke-opacity="1" stroke-width="3.2"/>
<circle clip-path="url(#clip962)" cx="1815.08" cy="442.128" r="14.4" fill="#009af9" fill-rule="evenodd" fill-opacity="1" stroke="#000000" stroke-opacity="1" stroke-width="3.2"/>
<circle clip-path="url(#clip962)" cx="2054.23" cy="594.701" r="14.4" fill="#009af9" fill-rule="evenodd" fill-opacity="1" stroke="#000000" stroke-opacity="1" stroke-width="3.2"/>
<circle clip-path="url(#clip962)" cx="2293.39" cy="763.148" r="14.4" fill="#009af9" fill-rule="evenodd" fill-opacity="1" stroke="#000000" stroke-opacity="1" stroke-width="3.2"/>
<circle clip-path="url(#clip962)" cx="2532.54" cy="948.954" r="14.4" fill="#009af9" fill-rule="evenodd" fill-opacity="1" stroke="#000000" stroke-opacity="1" stroke-width="3.2"/>
<circle clip-path="url(#clip962)" cx="2771.69" cy="1143.14" r="14.4" fill="#009af9" fill-rule="evenodd" fill-opacity="1" stroke="#000000" stroke-opacity="1" stroke-width="3.2"/>
<circle clip-path="url(#clip962)" cx="3010.84" cy="1346.48" r="14.4" fill="#009af9" fill-rule="evenodd" fill-opacity="1" stroke="#000000" stroke-opacity="1" stroke-width="3.2"/>
<polyline clip-path="url(#clip962)" style="stroke:#e26f46; stroke-linecap:round; stroke-linejoin:round; stroke-width:4; stroke-opacity:1; fill:none" points="-2487.27,793.768 5878.28,793.768 "/>
</svg>
