<?xml version="1.0" encoding="utf-8"?>
<svg xmlns="http://www.w3.org/2000/svg" xmlns:xlink="http://www.w3.org/1999/xlink" width="800" height="400" viewBox="0 0 3200 1600">
<defs>
  <clipPath id="clip820">
    <rect x="0" y="0" width="3200" height="1600"/>
  </clipPath>
</defs>
<path clip-path="url(#clip820)" d="M0 1600 L3200 1600 L3200 0 L0 0  Z" fill="#ffffff" fill-rule="evenodd" fill-opacity="1"/>
<defs>
  <clipPath id="clip821">
    <rect x="640" y="0" width="2241" height="1600"/>
  </clipPath>
</defs>
<path clip-path="url(#clip820)" d="M301.247 1380.71 L3089.76 1380.71 L3089.76 171.344 L301.247 171.344  Z" fill="#ffffff" fill-rule="evenodd" fill-opacity="1"/>
<defs>
  <clipPath id="clip822">
    <rect x="301" y="171" width="2790" height="1210"/>
  </clipPath>
</defs>
<polyline clip-path="url(#clip822)" style="stroke:#000000; stroke-linecap:round; stroke-linejoin:round; stroke-width:2; stroke-opacity:0.1; fill:none" points="380.167,1380.71 380.167,171.344 "/>
<polyline clip-path="url(#clip822)" style="stroke:#000000; stroke-linecap:round; stroke-linejoin:round; stroke-width:2; stroke-opacity:0.1; fill:none" points="643.235,1380.71 643.235,171.344 "/>
<polyline clip-path="url(#clip822)" style="stroke:#000000; stroke-linecap:round; stroke-linejoin:round; stroke-width:2; stroke-opacity:0.1; fill:none" points="906.302,1380.71 906.302,171.344 "/>
<polyline clip-path="url(#clip822)" style="stroke:#000000; stroke-linecap:round; stroke-linejoin:round; stroke-width:2; stroke-opacity:0.1; fill:none" points="1169.37,1380.71 1169.37,171.344 "/>
<polyline clip-path="url(#clip822)" style="stroke:#000000; stroke-linecap:round; stroke-linejoin:round; stroke-width:2; stroke-opacity:0.1; fill:none" points="1432.44,1380.71 1432.44,171.344 "/>
<polyline clip-path="url(#clip822)" style="stroke:#000000; stroke-linecap:round; stroke-linejoin:round; stroke-width:2; stroke-opacity:0.1; fill:none" points="1695.51,1380.71 1695.51,171.344 "/>
<polyline clip-path="url(#clip822)" style="stroke:#000000; stroke-linecap:round; stroke-linejoin:round; stroke-width:2; stroke-opacity:0.1; fill:none" points="1958.57,1380.71 1958.57,171.344 "/>
<polyline clip-path="url(#clip822)" style="stroke:#000000; stroke-linecap:round; stroke-linejoin:round; stroke-width:2; stroke-opacity:0.1; fill:none" points="2221.64,1380.71 2221.64,171.344 "/>
<polyline clip-path="url(#clip822)" style="stroke:#000000; stroke-linecap:round; stroke-linejoin:round; stroke-width:2; stroke-opacity:0.1; fill:none" points="2484.71,1380.71 2484.71,171.344 "/>
<polyline clip-path="url(#clip822)" style="stroke:#000000; stroke-linecap:round; stroke-linejoin:round; stroke-width:2; stroke-opacity:0.1; fill:none" points="2747.78,1380.71 2747.78,171.344 "/>
<polyline clip-path="url(#clip822)" style="stroke:#000000; stroke-linecap:round; stroke-linejoin:round; stroke-width:2; stroke-opacity:0.1; fill:none" points="3010.84,1380.71 3010.84,171.344 "/>
<polyline clip-path="url(#clip820)" style="stroke:#000000; stroke-linecap:round; stroke-linejoin:round; stroke-width:4; stroke-opacity:1; fill:none" points="301.247,1380.71 3089.76,1380.71 "/>
<polyline clip-path="url(#clip820)" style="stroke:#000000; stroke-linecap:round; stroke-linejoin:round; stroke-width:4; stroke-opacity:1; fill:none" points="380.167,1380.71 380.167,1361.81 "/>
<polyline clip-path="url(#clip820)" style="stroke:#000000; stroke-linecap:round; stroke-linejoin:round; stroke-width:4; stroke-opacity:1; fill:none" points="643.235,1380.71 643.235,1361.81 "/>
<polyline clip-path="url(#clip820)" style="stroke:#000000; stroke-linecap:round; stroke-linejoin:round; stroke-width:4; stroke-opacity:1; fill:none" points="906.302,1380.71 906.302,1361.81 "/>
<polyline clip-path="url(#clip820)" style="stroke:#000000; stroke-linecap:round; stroke-linejoin:round; stroke-width:4; stroke-opacity:1; fill:none" points="1169.37,1380.71 1169.37,1361.81 "/>
<polyline clip-path="url(#clip820)" style="stroke:#000000; stroke-linecap:round; stroke-linejoin:round; stroke-width:4; stroke-opacity:1; fill:none" points="1432.44,1380.71 1432.44,1361.81 "/>
<polyline clip-path="url(#clip820)" style="stroke:#000000; stroke-linecap:round; stroke-linejoin:round; stroke-width:4; stroke-opacity:1; fill:none" points="1695.51,1380.71 1695.51,1361.81 "/>
<polyline clip-path="url(#clip820)" style="stroke:#000000; stroke-linecap:round; stroke-linejoin:round; stroke-width:4; stroke-opacity:1; fill:none" points="1958.57,1380.71 1958.57,1361.81 "/>
<polyline clip-path="url(#clip820)" style="stroke:#000000; stroke-linecap:round; stroke-linejoin:round; stroke-width:4; stroke-opacity:1; fill:none" points="2221.64,1380.71 2221.64,1361.81 "/>
<polyline clip-path="url(#clip820)" style="stroke:#000000; stroke-linecap:round; stroke-linejoin:round; stroke-width:4; stroke-opacity:1; fill:none" points="2484.71,1380.71 2484.71,1361.81 "/>
<polyline clip-path="url(#clip820)" style="stroke:#000000; stroke-linecap:round; stroke-linejoin:round; stroke-width:4; stroke-opacity:1; fill:none" points="2747.78,1380.71 2747.78,1361.81 "/>
<polyline clip-path="url(#clip820)" style="stroke:#000000; stroke-linecap:round; stroke-linejoin:round; stroke-width:4; stroke-opacity:1; fill:none" points="3010.84,1380.71 3010.84,1361.81 "/>
<path clip-path="url(#clip820)" d="M374.82 1445.57 L391.139 1445.57 L391.139 1449.51 L369.195 1449.51 L369.195 1445.57 Q371.857 1442.82 376.44 1438.19 Q381.047 1433.54 382.227 1432.19 Q384.473 1429.67 385.352 1427.93 Q386.255 1426.17 386.255 1424.48 Q386.255 1421.73 384.311 1419.99 Q382.389 1418.26 379.287 1418.26 Q377.088 1418.26 374.635 1419.02 Q372.204 1419.79 369.426 1421.34 L369.426 1416.61 Q372.25 1415.48 374.704 1414.9 Q377.158 1414.32 379.195 1414.32 Q384.565 1414.32 387.76 1417.01 Q390.954 1419.69 390.954 1424.18 Q390.954 1426.31 390.144 1428.23 Q389.357 1430.13 387.25 1432.73 Q386.672 1433.4 383.57 1436.61 Q380.468 1439.81 374.82 1445.57 Z" fill="#000000" fill-rule="nonzero" fill-opacity="1" /><path clip-path="url(#clip820)" d="M647.482 1430.87 Q650.839 1431.59 652.714 1433.86 Q654.612 1436.13 654.612 1439.46 Q654.612 1444.58 651.093 1447.38 Q647.575 1450.18 641.094 1450.18 Q638.918 1450.18 636.603 1449.74 Q634.311 1449.32 631.857 1448.47 L631.857 1443.95 Q633.802 1445.09 636.117 1445.67 Q638.432 1446.24 640.955 1446.24 Q645.353 1446.24 647.644 1444.51 Q649.959 1442.77 649.959 1439.46 Q649.959 1436.41 647.806 1434.69 Q645.677 1432.96 641.857 1432.96 L637.83 1432.96 L637.83 1429.11 L642.043 1429.11 Q645.492 1429.11 647.32 1427.75 Q649.149 1426.36 649.149 1423.77 Q649.149 1421.11 647.251 1419.69 Q645.376 1418.26 641.857 1418.26 Q639.936 1418.26 637.737 1418.67 Q635.538 1419.09 632.899 1419.97 L632.899 1415.8 Q635.561 1415.06 637.876 1414.69 Q640.214 1414.32 642.274 1414.32 Q647.598 1414.32 650.7 1416.75 Q653.802 1419.16 653.802 1423.28 Q653.802 1426.15 652.158 1428.14 Q650.515 1430.11 647.482 1430.87 Z" fill="#000000" fill-rule="nonzero" fill-opacity="1" /><path clip-path="url(#clip820)" d="M909.312 1419.02 L897.506 1437.47 L909.312 1437.47 L909.312 1419.02 M908.085 1414.95 L913.964 1414.95 L913.964 1437.47 L918.895 1437.47 L918.895 1441.36 L913.964 1441.36 L913.964 1449.51 L909.312 1449.51 L909.312 1441.36 L893.71 1441.36 L893.71 1436.85 L908.085 1414.95 Z" fill="#000000" fill-rule="nonzero" fill-opacity="1" /><path clip-path="url(#clip820)" d="M1159.65 1414.95 L1178 1414.95 L1178 1418.88 L1163.93 1418.88 L1163.93 1427.36 Q1164.95 1427.01 1165.97 1426.85 Q1166.99 1426.66 1168 1426.66 Q1173.79 1426.66 1177.17 1429.83 Q1180.55 1433 1180.55 1438.42 Q1180.55 1444 1177.08 1447.1 Q1173.61 1450.18 1167.29 1450.18 Q1165.11 1450.18 1162.84 1449.81 Q1160.6 1449.44 1158.19 1448.7 L1158.19 1444 Q1160.27 1445.13 1162.5 1445.69 Q1164.72 1446.24 1167.19 1446.24 Q1171.2 1446.24 1173.54 1444.14 Q1175.87 1442.03 1175.87 1438.42 Q1175.87 1434.81 1173.54 1432.7 Q1171.2 1430.6 1167.19 1430.6 Q1165.32 1430.6 1163.44 1431.01 Q1161.59 1431.43 1159.65 1432.31 L1159.65 1414.95 Z" fill="#000000" fill-rule="nonzero" fill-opacity="1" /><path clip-path="url(#clip820)" d="M1432.84 1430.36 Q1429.69 1430.36 1427.84 1432.52 Q1426.01 1434.67 1426.01 1438.42 Q1426.01 1442.15 1427.84 1444.32 Q1429.69 1446.48 1432.84 1446.48 Q1435.99 1446.48 1437.82 1444.32 Q1439.67 1442.15 1439.67 1438.42 Q1439.67 1434.67 1437.82 1432.52 Q1435.99 1430.36 1432.84 1430.36 M1442.13 1415.71 L1442.13 1419.97 Q1440.37 1419.14 1438.56 1418.7 Q1436.78 1418.26 1435.02 1418.26 Q1430.39 1418.26 1427.94 1421.38 Q1425.5 1424.51 1425.16 1430.83 Q1426.52 1428.81 1428.58 1427.75 Q1430.64 1426.66 1433.12 1426.66 Q1438.33 1426.66 1441.34 1429.83 Q1444.37 1432.98 1444.37 1438.42 Q1444.37 1443.74 1441.22 1446.96 Q1438.07 1450.18 1432.84 1450.18 Q1426.85 1450.18 1423.68 1445.6 Q1420.5 1440.99 1420.5 1432.26 Q1420.5 1424.07 1424.39 1419.21 Q1428.28 1414.32 1434.83 1414.32 Q1436.59 1414.32 1438.38 1414.67 Q1440.18 1415.02 1442.13 1415.71 Z" fill="#000000" fill-rule="nonzero" fill-opacity="1" /><path clip-path="url(#clip820)" d="M1684.39 1414.95 L1706.62 1414.95 L1706.62 1416.94 L1694.07 1449.51 L1689.19 1449.51 L1700.99 1418.88 L1684.39 1418.88 L1684.39 1414.95 Z" fill="#000000" fill-rule="nonzero" fill-opacity="1" /><path clip-path="url(#clip820)" d="M1958.57 1433.1 Q1955.24 1433.1 1953.32 1434.88 Q1951.42 1436.66 1951.42 1439.79 Q1951.42 1442.91 1953.32 1444.69 Q1955.24 1446.48 1958.57 1446.48 Q1961.91 1446.48 1963.83 1444.69 Q1965.75 1442.89 1965.75 1439.79 Q1965.75 1436.66 1963.83 1434.88 Q1961.93 1433.1 1958.57 1433.1 M1953.9 1431.11 Q1950.89 1430.36 1949.2 1428.3 Q1947.53 1426.24 1947.53 1423.28 Q1947.53 1419.14 1950.47 1416.73 Q1953.43 1414.32 1958.57 1414.32 Q1963.73 1414.32 1966.67 1416.73 Q1969.61 1419.14 1969.61 1423.28 Q1969.61 1426.24 1967.92 1428.3 Q1966.26 1430.36 1963.27 1431.11 Q1966.65 1431.89 1968.53 1434.18 Q1970.42 1436.48 1970.42 1439.79 Q1970.42 1444.81 1967.35 1447.49 Q1964.29 1450.18 1958.57 1450.18 Q1952.86 1450.18 1949.78 1447.49 Q1946.72 1444.81 1946.72 1439.79 Q1946.72 1436.48 1948.62 1434.18 Q1950.52 1431.89 1953.9 1431.11 M1952.18 1423.72 Q1952.18 1426.41 1953.85 1427.91 Q1955.54 1429.42 1958.57 1429.42 Q1961.58 1429.42 1963.27 1427.91 Q1964.98 1426.41 1964.98 1423.72 Q1964.98 1421.04 1963.27 1419.53 Q1961.58 1418.03 1958.57 1418.03 Q1955.54 1418.03 1953.85 1419.53 Q1952.18 1421.04 1952.18 1423.72 Z" fill="#000000" fill-rule="nonzero" fill-opacity="1" /><path clip-path="url(#clip820)" d="M2211.94 1448.79 L2211.94 1444.53 Q2213.7 1445.36 2215.51 1445.8 Q2217.31 1446.24 2219.05 1446.24 Q2223.68 1446.24 2226.11 1443.14 Q2228.56 1440.02 2228.91 1433.67 Q2227.57 1435.67 2225.51 1436.73 Q2223.45 1437.79 2220.95 1437.79 Q2215.76 1437.79 2212.73 1434.67 Q2209.72 1431.52 2209.72 1426.08 Q2209.72 1420.76 2212.87 1417.54 Q2216.02 1414.32 2221.25 1414.32 Q2227.24 1414.32 2230.39 1418.93 Q2233.56 1423.51 2233.56 1432.26 Q2233.56 1440.43 2229.67 1445.32 Q2225.81 1450.18 2219.26 1450.18 Q2217.5 1450.18 2215.69 1449.83 Q2213.89 1449.48 2211.94 1448.79 M2221.25 1434.14 Q2224.4 1434.14 2226.22 1431.98 Q2228.08 1429.83 2228.08 1426.08 Q2228.08 1422.36 2226.22 1420.2 Q2224.4 1418.03 2221.25 1418.03 Q2218.1 1418.03 2216.25 1420.2 Q2214.42 1422.36 2214.42 1426.08 Q2214.42 1429.83 2216.25 1431.98 Q2218.1 1434.14 2221.25 1434.14 Z" fill="#000000" fill-rule="nonzero" fill-opacity="1" /><path clip-path="url(#clip820)" d="M2459.4 1445.57 L2467.03 1445.57 L2467.03 1419.21 L2458.72 1420.87 L2458.72 1416.61 L2466.99 1414.95 L2471.66 1414.95 L2471.66 1445.57 L2479.3 1445.57 L2479.3 1449.51 L2459.4 1449.51 L2459.4 1445.57 Z" fill="#000000" fill-rule="nonzero" fill-opacity="1" /><path clip-path="url(#clip820)" d="M2498.75 1418.03 Q2495.14 1418.03 2493.31 1421.59 Q2491.5 1425.13 2491.5 1432.26 Q2491.5 1439.37 2493.31 1442.93 Q2495.14 1446.48 2498.75 1446.48 Q2502.38 1446.48 2504.19 1442.93 Q2506.02 1439.37 2506.02 1432.26 Q2506.02 1425.13 2504.19 1421.59 Q2502.38 1418.03 2498.75 1418.03 M2498.75 1414.32 Q2504.56 1414.32 2507.61 1418.93 Q2510.69 1423.51 2510.69 1432.26 Q2510.69 1440.99 2507.61 1445.6 Q2504.56 1450.18 2498.75 1450.18 Q2492.94 1450.18 2489.86 1445.6 Q2486.8 1440.99 2486.8 1432.26 Q2486.8 1423.51 2489.86 1418.93 Q2492.94 1414.32 2498.75 1414.32 Z" fill="#000000" fill-rule="nonzero" fill-opacity="1" /><path clip-path="url(#clip820)" d="M2723.08 1445.57 L2730.72 1445.57 L2730.72 1419.21 L2722.41 1420.87 L2722.41 1416.61 L2730.67 1414.95 L2735.35 1414.95 L2735.35 1445.57 L2742.98 1445.57 L2742.98 1449.51 L2723.08 1449.51 L2723.08 1445.57 Z" fill="#000000" fill-rule="nonzero" fill-opacity="1" /><path clip-path="url(#clip820)" d="M2753.24 1445.57 L2760.88 1445.57 L2760.88 1419.21 L2752.57 1420.87 L2752.57 1416.61 L2760.83 1414.95 L2765.51 1414.95 L2765.51 1445.57 L2773.15 1445.57 L2773.15 1449.51 L2753.24 1449.51 L2753.24 1445.57 Z" fill="#000000" fill-rule="nonzero" fill-opacity="1" /><path clip-path="url(#clip820)" d="M2986.33 1445.57 L2993.97 1445.57 L2993.97 1419.21 L2985.66 1420.87 L2985.66 1416.61 L2993.92 1414.95 L2998.6 1414.95 L2998.6 1445.57 L3006.24 1445.57 L3006.24 1449.51 L2986.33 1449.51 L2986.33 1445.57 Z" fill="#000000" fill-rule="nonzero" fill-opacity="1" /><path clip-path="url(#clip820)" d="M3019.71 1445.57 L3036.03 1445.57 L3036.03 1449.51 L3014.08 1449.51 L3014.08 1445.57 Q3016.75 1442.82 3021.33 1438.19 Q3025.94 1433.54 3027.12 1432.19 Q3029.36 1429.67 3030.24 1427.93 Q3031.14 1426.17 3031.14 1424.48 Q3031.14 1421.73 3029.2 1419.99 Q3027.28 1418.26 3024.18 1418.26 Q3021.98 1418.26 3019.52 1419.02 Q3017.09 1419.79 3014.32 1421.34 L3014.32 1416.61 Q3017.14 1415.48 3019.59 1414.9 Q3022.05 1414.32 3024.08 1414.32 Q3029.45 1414.32 3032.65 1417.01 Q3035.84 1419.69 3035.84 1424.18 Q3035.84 1426.31 3035.03 1428.23 Q3034.25 1430.13 3032.14 1432.73 Q3031.56 1433.4 3028.46 1436.61 Q3025.36 1439.81 3019.71 1445.57 Z" fill="#000000" fill-rule="nonzero" fill-opacity="1" /><path clip-path="url(#clip820)" d="M1422.75 1490.05 L1431.41 1490.05 L1452.48 1529.81 L1452.48 1490.05 L1458.72 1490.05 L1458.72 1537.57 L1450.06 1537.57 L1428.99 1497.82 L1428.99 1537.57 L1422.75 1537.57 L1422.75 1490.05 Z" fill="#000000" fill-rule="nonzero" fill-opacity="1" /><path clip-path="url(#clip820)" d="M1470.65 1523.5 L1470.65 1501.92 L1476.51 1501.92 L1476.51 1523.28 Q1476.51 1528.34 1478.48 1530.89 Q1480.46 1533.4 1484.4 1533.4 Q1489.14 1533.4 1491.88 1530.38 Q1494.65 1527.35 1494.65 1522.13 L1494.65 1501.92 L1500.51 1501.92 L1500.51 1537.57 L1494.65 1537.57 L1494.65 1532.1 Q1492.52 1535.34 1489.69 1536.94 Q1486.89 1538.49 1483.16 1538.49 Q1477.02 1538.49 1473.84 1534.68 Q1470.65 1530.86 1470.65 1523.5 M1485.39 1501.06 L1485.39 1501.06 Z" fill="#000000" fill-rule="nonzero" fill-opacity="1" /><path clip-path="url(#clip820)" d="M1540.33 1508.77 Q1542.52 1504.82 1545.58 1502.94 Q1548.63 1501.06 1552.77 1501.06 Q1558.34 1501.06 1561.36 1504.98 Q1564.39 1508.86 1564.39 1516.06 L1564.39 1537.57 L1558.5 1537.57 L1558.5 1516.25 Q1558.5 1511.12 1556.69 1508.64 Q1554.87 1506.16 1551.15 1506.16 Q1546.6 1506.16 1543.95 1509.18 Q1541.31 1512.2 1541.31 1517.42 L1541.31 1537.57 L1535.42 1537.57 L1535.42 1516.25 Q1535.42 1511.09 1533.61 1508.64 Q1531.8 1506.16 1528.01 1506.16 Q1523.52 1506.16 1520.88 1509.21 Q1518.24 1512.24 1518.24 1517.42 L1518.24 1537.57 L1512.35 1537.57 L1512.35 1501.92 L1518.24 1501.92 L1518.24 1507.46 Q1520.24 1504.18 1523.04 1502.62 Q1525.84 1501.06 1529.69 1501.06 Q1533.58 1501.06 1536.28 1503.04 Q1539.02 1505.01 1540.33 1508.77 Z" fill="#000000" fill-rule="nonzero" fill-opacity="1" /><path clip-path="url(#clip820)" d="M1601.66 1519.78 Q1601.66 1513.32 1598.99 1509.66 Q1596.34 1505.97 1591.7 1505.97 Q1587.05 1505.97 1584.38 1509.66 Q1581.73 1513.32 1581.73 1519.78 Q1581.73 1526.24 1584.38 1529.93 Q1587.05 1533.59 1591.7 1533.59 Q1596.34 1533.59 1598.99 1529.93 Q1601.66 1526.24 1601.66 1519.78 M1581.73 1507.33 Q1583.58 1504.15 1586.38 1502.62 Q1589.21 1501.06 1593.13 1501.06 Q1599.62 1501.06 1603.66 1506.22 Q1607.74 1511.38 1607.74 1519.78 Q1607.74 1528.18 1603.66 1533.34 Q1599.62 1538.49 1593.13 1538.49 Q1589.21 1538.49 1586.38 1536.97 Q1583.58 1535.41 1581.73 1532.22 L1581.73 1537.57 L1575.85 1537.57 L1575.85 1488.05 L1581.73 1488.05 L1581.73 1507.33 Z" fill="#000000" fill-rule="nonzero" fill-opacity="1" /><path clip-path="url(#clip820)" d="M1647.94 1518.28 L1647.94 1521.15 L1621.01 1521.15 Q1621.39 1527.2 1624.64 1530.38 Q1627.92 1533.53 1633.74 1533.53 Q1637.12 1533.53 1640.27 1532.7 Q1643.45 1531.87 1646.57 1530.22 L1646.57 1535.76 Q1643.42 1537.09 1640.11 1537.79 Q1636.8 1538.49 1633.39 1538.49 Q1624.86 1538.49 1619.86 1533.53 Q1614.9 1528.56 1614.9 1520.1 Q1614.9 1511.35 1619.61 1506.22 Q1624.35 1501.06 1632.37 1501.06 Q1639.57 1501.06 1643.74 1505.71 Q1647.94 1510.33 1647.94 1518.28 M1642.08 1516.56 Q1642.02 1511.76 1639.38 1508.89 Q1636.77 1506.03 1632.44 1506.03 Q1627.54 1506.03 1624.58 1508.8 Q1621.65 1511.57 1621.2 1516.6 L1642.08 1516.56 Z" fill="#000000" fill-rule="nonzero" fill-opacity="1" /><path clip-path="url(#clip820)" d="M1678.21 1507.4 Q1677.22 1506.83 1676.04 1506.57 Q1674.9 1506.28 1673.5 1506.28 Q1668.53 1506.28 1665.86 1509.53 Q1663.22 1512.75 1663.22 1518.79 L1663.22 1537.57 L1657.33 1537.57 L1657.33 1501.92 L1663.22 1501.92 L1663.22 1507.46 Q1665.06 1504.22 1668.02 1502.66 Q1670.98 1501.06 1675.21 1501.06 Q1675.82 1501.06 1676.55 1501.16 Q1677.28 1501.22 1678.17 1501.38 L1678.21 1507.4 Z" fill="#000000" fill-rule="nonzero" fill-opacity="1" /><path clip-path="url(#clip820)" d="M1718.88 1506.03 Q1714.17 1506.03 1711.44 1509.72 Q1708.7 1513.38 1708.7 1519.78 Q1708.7 1526.18 1711.4 1529.87 Q1714.14 1533.53 1718.88 1533.53 Q1723.56 1533.53 1726.3 1529.84 Q1729.04 1526.15 1729.04 1519.78 Q1729.04 1513.45 1726.3 1509.75 Q1723.56 1506.03 1718.88 1506.03 M1718.88 1501.06 Q1726.52 1501.06 1730.88 1506.03 Q1735.24 1510.99 1735.24 1519.78 Q1735.24 1528.53 1730.88 1533.53 Q1726.52 1538.49 1718.88 1538.49 Q1711.21 1538.49 1706.85 1533.53 Q1702.52 1528.53 1702.52 1519.78 Q1702.52 1510.99 1706.85 1506.03 Q1711.21 1501.06 1718.88 1501.06 Z" fill="#000000" fill-rule="nonzero" fill-opacity="1" /><path clip-path="url(#clip820)" d="M1763 1488.05 L1763 1492.92 L1757.4 1492.92 Q1754.24 1492.92 1753 1494.19 Q1751.79 1495.46 1751.79 1498.77 L1751.79 1501.92 L1761.44 1501.92 L1761.44 1506.48 L1751.79 1506.48 L1751.79 1537.57 L1745.91 1537.57 L1745.91 1506.48 L1740.3 1506.48 L1740.3 1501.92 L1745.91 1501.92 L1745.91 1499.44 Q1745.91 1493.49 1748.67 1490.78 Q1751.44 1488.05 1757.46 1488.05 L1763 1488.05 Z" fill="#000000" fill-rule="nonzero" fill-opacity="1" /><path clip-path="url(#clip820)" d="M1788.62 1488.05 L1794.48 1488.05 L1794.48 1537.57 L1788.62 1537.57 L1788.62 1488.05 Z" fill="#000000" fill-rule="nonzero" fill-opacity="1" /><path clip-path="url(#clip820)" d="M1837.22 1518.28 L1837.22 1521.15 L1810.29 1521.15 Q1810.68 1527.2 1813.92 1530.38 Q1817.2 1533.53 1823.03 1533.53 Q1826.4 1533.53 1829.55 1532.7 Q1832.73 1531.87 1835.85 1530.22 L1835.85 1535.76 Q1832.7 1537.09 1829.39 1537.79 Q1826.08 1538.49 1822.68 1538.49 Q1814.15 1538.49 1809.15 1533.53 Q1804.18 1528.56 1804.18 1520.1 Q1804.18 1511.35 1808.89 1506.22 Q1813.64 1501.06 1821.66 1501.06 Q1828.85 1501.06 1833.02 1505.71 Q1837.22 1510.33 1837.22 1518.28 M1831.37 1516.56 Q1831.3 1511.76 1828.66 1508.89 Q1826.05 1506.03 1821.72 1506.03 Q1816.82 1506.03 1813.86 1508.8 Q1810.93 1511.57 1810.49 1516.6 L1831.37 1516.56 Z" fill="#000000" fill-rule="nonzero" fill-opacity="1" /><path clip-path="url(#clip820)" d="M1842.63 1501.92 L1848.84 1501.92 L1859.98 1531.84 L1871.12 1501.92 L1877.33 1501.92 L1863.96 1537.57 L1856 1537.57 L1842.63 1501.92 Z" fill="#000000" fill-rule="nonzero" fill-opacity="1" /><path clip-path="url(#clip820)" d="M1915.9 1518.28 L1915.9 1521.15 L1888.98 1521.15 Q1889.36 1527.2 1892.6 1530.38 Q1895.88 1533.53 1901.71 1533.53 Q1905.08 1533.53 1908.23 1532.7 Q1911.41 1531.87 1914.53 1530.22 L1914.53 1535.76 Q1911.38 1537.09 1908.07 1537.79 Q1904.76 1538.49 1901.36 1538.49 Q1892.83 1538.49 1887.83 1533.53 Q1882.86 1528.56 1882.86 1520.1 Q1882.86 1511.35 1887.57 1506.22 Q1892.32 1501.06 1900.34 1501.06 Q1907.53 1501.06 1911.7 1505.71 Q1915.9 1510.33 1915.9 1518.28 M1910.05 1516.56 Q1909.98 1511.76 1907.34 1508.89 Q1904.73 1506.03 1900.4 1506.03 Q1895.5 1506.03 1892.54 1508.8 Q1889.61 1511.57 1889.17 1516.6 L1910.05 1516.56 Z" fill="#000000" fill-rule="nonzero" fill-opacity="1" /><path clip-path="url(#clip820)" d="M1925.51 1488.05 L1931.37 1488.05 L1931.37 1537.57 L1925.51 1537.57 L1925.51 1488.05 Z" fill="#000000" fill-rule="nonzero" fill-opacity="1" /><path clip-path="url(#clip820)" d="M1966.35 1502.97 L1966.35 1508.51 Q1963.87 1507.24 1961.19 1506.6 Q1958.52 1505.97 1955.66 1505.97 Q1951.3 1505.97 1949.1 1507.3 Q1946.93 1508.64 1946.93 1511.31 Q1946.93 1513.35 1948.49 1514.53 Q1950.05 1515.67 1954.76 1516.72 L1956.77 1517.17 Q1963.01 1518.51 1965.62 1520.96 Q1968.26 1523.38 1968.26 1527.74 Q1968.26 1532.7 1964.31 1535.6 Q1960.4 1538.49 1953.52 1538.49 Q1950.66 1538.49 1947.54 1537.92 Q1944.45 1537.38 1941.01 1536.27 L1941.01 1530.22 Q1944.26 1531.91 1947.41 1532.77 Q1950.56 1533.59 1953.65 1533.59 Q1957.79 1533.59 1960.02 1532.19 Q1962.24 1530.76 1962.24 1528.18 Q1962.24 1525.8 1960.62 1524.52 Q1959.03 1523.25 1953.59 1522.07 L1951.55 1521.59 Q1946.11 1520.45 1943.69 1518.09 Q1941.27 1515.71 1941.27 1511.57 Q1941.27 1506.54 1944.83 1503.8 Q1948.4 1501.06 1954.96 1501.06 Q1958.2 1501.06 1961.07 1501.54 Q1963.93 1502.02 1966.35 1502.97 Z" fill="#000000" fill-rule="nonzero" fill-opacity="1" /><polyline clip-path="url(#clip822)" style="stroke:#000000; stroke-linecap:round; stroke-linejoin:round; stroke-width:2; stroke-opacity:0.1; fill:none" points="301.247,1273.16 3089.76,1273.16 "/>
<polyline clip-path="url(#clip822)" style="stroke:#000000; stroke-linecap:round; stroke-linejoin:round; stroke-width:2; stroke-opacity:0.1; fill:none" points="301.247,1095.05 3089.76,1095.05 "/>
<polyline clip-path="url(#clip822)" style="stroke:#000000; stroke-linecap:round; stroke-linejoin:round; stroke-width:2; stroke-opacity:0.1; fill:none" points="301.247,916.94 3089.76,916.94 "/>
<polyline clip-path="url(#clip822)" style="stroke:#000000; stroke-linecap:round; stroke-linejoin:round; stroke-width:2; stroke-opacity:0.1; fill:none" points="301.247,738.828 3089.76,738.828 "/>
<polyline clip-path="url(#clip822)" style="stroke:#000000; stroke-linecap:round; stroke-linejoin:round; stroke-width:2; stroke-opacity:0.1; fill:none" points="301.247,560.715 3089.76,560.715 "/>
<polyline clip-path="url(#clip822)" style="stroke:#000000; stroke-linecap:round; stroke-linejoin:round; stroke-width:2; stroke-opacity:0.1; fill:none" points="301.247,382.603 3089.76,382.603 "/>
<polyline clip-path="url(#clip822)" style="stroke:#000000; stroke-linecap:round; stroke-linejoin:round; stroke-width:2; stroke-opacity:0.1; fill:none" points="301.247,204.491 3089.76,204.491 "/>
<polyline clip-path="url(#clip820)" style="stroke:#000000; stroke-linecap:round; stroke-linejoin:round; stroke-width:4; stroke-opacity:1; fill:none" points="301.247,1380.71 301.247,171.344 "/>
<polyline clip-path="url(#clip820)" style="stroke:#000000; stroke-linecap:round; stroke-linejoin:round; stroke-width:4; stroke-opacity:1; fill:none" points="301.247,1273.16 320.144,1273.16 "/>
<polyline clip-path="url(#clip820)" style="stroke:#000000; stroke-linecap:round; stroke-linejoin:round; stroke-width:4; stroke-opacity:1; fill:none" points="301.247,1095.05 320.144,1095.05 "/>
<polyline clip-path="url(#clip820)" style="stroke:#000000; stroke-linecap:round; stroke-linejoin:round; stroke-width:4; stroke-opacity:1; fill:none" points="301.247,916.94 320.144,916.94 "/>
<polyline clip-path="url(#clip820)" style="stroke:#000000; stroke-linecap:round; stroke-linejoin:round; stroke-width:4; stroke-opacity:1; fill:none" points="301.247,738.828 320.144,738.828 "/>
<polyline clip-path="url(#clip820)" style="stroke:#000000; stroke-linecap:round; stroke-linejoin:round; stroke-width:4; stroke-opacity:1; fill:none" points="301.247,560.715 320.144,560.715 "/>
<polyline clip-path="url(#clip820)" style="stroke:#000000; stroke-linecap:round; stroke-linejoin:round; stroke-width:4; stroke-opacity:1; fill:none" points="301.247,382.603 320.144,382.603 "/>
<polyline clip-path="url(#clip820)" style="stroke:#000000; stroke-linecap:round; stroke-linejoin:round; stroke-width:4; stroke-opacity:1; fill:none" points="301.247,204.491 320.144,204.491 "/>
<path clip-path="url(#clip820)" d="M162.368 1273.62 L192.043 1273.62 L192.043 1277.55 L162.368 1277.55 L162.368 1273.62 Z" fill="#000000" fill-rule="nonzero" fill-opacity="1" /><path clip-path="url(#clip820)" d="M206.164 1286.51 L222.483 1286.51 L222.483 1290.44 L200.539 1290.44 L200.539 1286.51 Q203.201 1283.75 207.784 1279.12 Q212.391 1274.47 213.571 1273.13 Q215.816 1270.61 216.696 1268.87 Q217.599 1267.11 217.599 1265.42 Q217.599 1262.67 215.654 1260.93 Q213.733 1259.19 210.631 1259.19 Q208.432 1259.19 205.979 1259.96 Q203.548 1260.72 200.77 1262.27 L200.77 1257.55 Q203.594 1256.42 206.048 1255.84 Q208.502 1255.26 210.539 1255.26 Q215.909 1255.26 219.103 1257.94 Q222.298 1260.63 222.298 1265.12 Q222.298 1267.25 221.488 1269.17 Q220.701 1271.07 218.594 1273.66 Q218.015 1274.33 214.914 1277.55 Q211.812 1280.74 206.164 1286.51 Z" fill="#000000" fill-rule="nonzero" fill-opacity="1" /><path clip-path="url(#clip820)" d="M232.344 1255.88 L250.701 1255.88 L250.701 1259.82 L236.627 1259.82 L236.627 1268.29 Q237.645 1267.94 238.664 1267.78 Q239.682 1267.6 240.701 1267.6 Q246.488 1267.6 249.867 1270.77 Q253.247 1273.94 253.247 1279.36 Q253.247 1284.93 249.775 1288.04 Q246.302 1291.12 239.983 1291.12 Q237.807 1291.12 235.539 1290.74 Q233.293 1290.37 230.886 1289.63 L230.886 1284.93 Q232.969 1286.07 235.191 1286.62 Q237.414 1287.18 239.89 1287.18 Q243.895 1287.18 246.233 1285.07 Q248.571 1282.97 248.571 1279.36 Q248.571 1275.74 246.233 1273.64 Q243.895 1271.53 239.89 1271.53 Q238.015 1271.53 236.14 1271.95 Q234.289 1272.37 232.344 1273.24 L232.344 1255.88 Z" fill="#000000" fill-rule="nonzero" fill-opacity="1" /><path clip-path="url(#clip820)" d="M161.372 1095.5 L191.048 1095.5 L191.048 1099.44 L161.372 1099.44 L161.372 1095.5 Z" fill="#000000" fill-rule="nonzero" fill-opacity="1" /><path clip-path="url(#clip820)" d="M205.168 1108.4 L221.488 1108.4 L221.488 1112.33 L199.543 1112.33 L199.543 1108.4 Q202.205 1105.64 206.789 1101.01 Q211.395 1096.36 212.576 1095.02 Q214.821 1092.49 215.701 1090.76 Q216.603 1089 216.603 1087.31 Q216.603 1084.55 214.659 1082.82 Q212.738 1081.08 209.636 1081.08 Q207.437 1081.08 204.983 1081.85 Q202.553 1082.61 199.775 1084.16 L199.775 1079.44 Q202.599 1078.3 205.053 1077.73 Q207.506 1077.15 209.543 1077.15 Q214.914 1077.15 218.108 1079.83 Q221.303 1082.52 221.303 1087.01 Q221.303 1089.14 220.492 1091.06 Q219.705 1092.96 217.599 1095.55 Q217.02 1096.22 213.918 1099.44 Q210.816 1102.63 205.168 1108.4 Z" fill="#000000" fill-rule="nonzero" fill-opacity="1" /><path clip-path="url(#clip820)" d="M241.302 1080.85 Q237.691 1080.85 235.863 1084.42 Q234.057 1087.96 234.057 1095.09 Q234.057 1102.19 235.863 1105.76 Q237.691 1109.3 241.302 1109.3 Q244.937 1109.3 246.742 1105.76 Q248.571 1102.19 248.571 1095.09 Q248.571 1087.96 246.742 1084.42 Q244.937 1080.85 241.302 1080.85 M241.302 1077.15 Q247.113 1077.15 250.168 1081.75 Q253.247 1086.34 253.247 1095.09 Q253.247 1103.81 250.168 1108.42 Q247.113 1113 241.302 1113 Q235.492 1113 232.414 1108.42 Q229.358 1103.81 229.358 1095.09 Q229.358 1086.34 232.414 1081.75 Q235.492 1077.15 241.302 1077.15 Z" fill="#000000" fill-rule="nonzero" fill-opacity="1" /><path clip-path="url(#clip820)" d="M162.368 917.391 L192.043 917.391 L192.043 921.326 L162.368 921.326 L162.368 917.391 Z" fill="#000000" fill-rule="nonzero" fill-opacity="1" /><path clip-path="url(#clip820)" d="M202.946 930.284 L210.585 930.284 L210.585 903.919 L202.275 905.586 L202.275 901.326 L210.539 899.66 L215.215 899.66 L215.215 930.284 L222.853 930.284 L222.853 934.22 L202.946 934.22 L202.946 930.284 Z" fill="#000000" fill-rule="nonzero" fill-opacity="1" /><path clip-path="url(#clip820)" d="M232.344 899.66 L250.701 899.66 L250.701 903.595 L236.627 903.595 L236.627 912.067 Q237.645 911.72 238.664 911.558 Q239.682 911.373 240.701 911.373 Q246.488 911.373 249.867 914.544 Q253.247 917.715 253.247 923.132 Q253.247 928.71 249.775 931.812 Q246.302 934.891 239.983 934.891 Q237.807 934.891 235.539 934.521 Q233.293 934.15 230.886 933.409 L230.886 928.71 Q232.969 929.845 235.191 930.4 Q237.414 930.956 239.89 930.956 Q243.895 930.956 246.233 928.849 Q248.571 926.743 248.571 923.132 Q248.571 919.521 246.233 917.414 Q243.895 915.308 239.89 915.308 Q238.015 915.308 236.14 915.724 Q234.289 916.141 232.344 917.021 L232.344 899.66 Z" fill="#000000" fill-rule="nonzero" fill-opacity="1" /><path clip-path="url(#clip820)" d="M161.372 739.279 L191.048 739.279 L191.048 743.214 L161.372 743.214 L161.372 739.279 Z" fill="#000000" fill-rule="nonzero" fill-opacity="1" /><path clip-path="url(#clip820)" d="M201.951 752.172 L209.59 752.172 L209.59 725.807 L201.279 727.473 L201.279 723.214 L209.543 721.548 L214.219 721.548 L214.219 752.172 L221.858 752.172 L221.858 756.108 L201.951 756.108 L201.951 752.172 Z" fill="#000000" fill-rule="nonzero" fill-opacity="1" /><path clip-path="url(#clip820)" d="M241.302 724.626 Q237.691 724.626 235.863 728.191 Q234.057 731.733 234.057 738.862 Q234.057 745.969 235.863 749.534 Q237.691 753.075 241.302 753.075 Q244.937 753.075 246.742 749.534 Q248.571 745.969 248.571 738.862 Q248.571 731.733 246.742 728.191 Q244.937 724.626 241.302 724.626 M241.302 720.923 Q247.113 720.923 250.168 725.529 Q253.247 730.112 253.247 738.862 Q253.247 747.589 250.168 752.196 Q247.113 756.779 241.302 756.779 Q235.492 756.779 232.414 752.196 Q229.358 747.589 229.358 738.862 Q229.358 730.112 232.414 725.529 Q235.492 720.923 241.302 720.923 Z" fill="#000000" fill-rule="nonzero" fill-opacity="1" /><path clip-path="url(#clip820)" d="M192.53 561.167 L222.205 561.167 L222.205 565.102 L192.53 565.102 L192.53 561.167 Z" fill="#000000" fill-rule="nonzero" fill-opacity="1" /><path clip-path="url(#clip820)" d="M232.344 543.435 L250.701 543.435 L250.701 547.371 L236.627 547.371 L236.627 555.843 Q237.645 555.496 238.664 555.334 Q239.682 555.148 240.701 555.148 Q246.488 555.148 249.867 558.32 Q253.247 561.491 253.247 566.908 Q253.247 572.486 249.775 575.588 Q246.302 578.667 239.983 578.667 Q237.807 578.667 235.539 578.296 Q233.293 577.926 230.886 577.185 L230.886 572.486 Q232.969 573.62 235.191 574.176 Q237.414 574.732 239.89 574.732 Q243.895 574.732 246.233 572.625 Q248.571 570.519 248.571 566.908 Q248.571 563.296 246.233 561.19 Q243.895 559.084 239.89 559.084 Q238.015 559.084 236.14 559.5 Q234.289 559.917 232.344 560.796 L232.344 543.435 Z" fill="#000000" fill-rule="nonzero" fill-opacity="1" /><path clip-path="url(#clip820)" d="M241.302 368.402 Q237.691 368.402 235.863 371.967 Q234.057 375.508 234.057 382.638 Q234.057 389.744 235.863 393.309 Q237.691 396.851 241.302 396.851 Q244.937 396.851 246.742 393.309 Q248.571 389.744 248.571 382.638 Q248.571 375.508 246.742 371.967 Q244.937 368.402 241.302 368.402 M241.302 364.698 Q247.113 364.698 250.168 369.305 Q253.247 373.888 253.247 382.638 Q253.247 391.365 250.168 395.971 Q247.113 400.555 241.302 400.555 Q235.492 400.555 232.414 395.971 Q229.358 391.365 229.358 382.638 Q229.358 373.888 232.414 369.305 Q235.492 364.698 241.302 364.698 Z" fill="#000000" fill-rule="nonzero" fill-opacity="1" /><path clip-path="url(#clip820)" d="M232.344 187.211 L250.701 187.211 L250.701 191.146 L236.627 191.146 L236.627 199.619 Q237.645 199.271 238.664 199.109 Q239.682 198.924 240.701 198.924 Q246.488 198.924 249.867 202.095 Q253.247 205.267 253.247 210.683 Q253.247 216.262 249.775 219.364 Q246.302 222.443 239.983 222.443 Q237.807 222.443 235.539 222.072 Q233.293 221.702 230.886 220.961 L230.886 216.262 Q232.969 217.396 235.191 217.952 Q237.414 218.507 239.89 218.507 Q243.895 218.507 246.233 216.401 Q248.571 214.294 248.571 210.683 Q248.571 207.072 246.233 204.966 Q243.895 202.859 239.89 202.859 Q238.015 202.859 236.14 203.276 Q234.289 203.693 232.344 204.572 L232.344 187.211 Z" fill="#000000" fill-rule="nonzero" fill-opacity="1" /><path clip-path="url(#clip820)" d="M51.5963 1169.44 L51.5963 1160.79 L91.3501 1139.71 L51.5963 1139.71 L51.5963 1133.48 L99.1163 1133.48 L99.1163 1142.13 L59.3624 1163.2 L99.1163 1163.2 L99.1163 1169.44 L51.5963 1169.44 Z" fill="#000000" fill-rule="nonzero" fill-opacity="1" /><path clip-path="url(#clip820)" d="M56.8798 1114.25 L74.7356 1114.25 L74.7356 1106.17 Q74.7356 1101.68 72.4121 1099.23 Q70.0887 1096.78 65.7918 1096.78 Q61.5268 1096.78 59.2033 1099.23 Q56.8798 1101.68 56.8798 1106.17 L56.8798 1114.25 M51.5963 1120.68 L51.5963 1106.17 Q51.5963 1098.18 55.2247 1094.1 Q58.8214 1090 65.7918 1090 Q72.8259 1090 76.4225 1094.1 Q80.0192 1098.18 80.0192 1106.17 L80.0192 1114.25 L99.1163 1114.25 L99.1163 1120.68 L51.5963 1120.68 Z" fill="#000000" fill-rule="nonzero" fill-opacity="1" /><path clip-path="url(#clip820)" d="M99.1163 1069.12 L51.5963 1087.26 L51.5963 1080.55 L91.6047 1065.49 L51.5963 1050.4 L51.5963 1043.72 L99.1163 1061.83 L99.1163 1069.12 Z" fill="#000000" fill-rule="nonzero" fill-opacity="1" /><path clip-path="url(#clip820)" d="M56.8798 1009.63 L74.7356 1009.63 L74.7356 1001.55 Q74.7356 997.059 72.4121 994.608 Q70.0887 992.158 65.7918 992.158 Q61.5268 992.158 59.2033 994.608 Q56.8798 997.059 56.8798 1001.55 L56.8798 1009.63 M51.5963 1016.06 L51.5963 1001.55 Q51.5963 993.558 55.2247 989.484 Q58.8214 985.378 65.7918 985.378 Q72.8259 985.378 76.4225 989.484 Q80.0192 993.558 80.0192 1001.55 L80.0192 1009.63 L99.1163 1009.63 L99.1163 1016.06 L51.5963 1016.06 Z" fill="#000000" fill-rule="nonzero" fill-opacity="1" /><path clip-path="url(#clip820)" d="M68.9428 957.496 Q68.3699 958.483 68.1153 959.661 Q67.8288 960.807 67.8288 962.207 Q67.8288 967.172 71.0753 969.846 Q74.29 972.488 80.3374 972.488 L99.1163 972.488 L99.1163 978.376 L63.4683 978.376 L63.4683 972.488 L69.0065 972.488 Q65.76 970.642 64.2004 967.681 Q62.609 964.721 62.609 960.488 Q62.609 959.884 62.7044 959.151 Q62.7681 958.419 62.9272 957.528 L68.9428 957.496 Z" fill="#000000" fill-rule="nonzero" fill-opacity="1" /><path clip-path="url(#clip820)" d="M67.5742 938.972 Q67.5742 943.683 71.2663 946.42 Q74.9266 949.157 81.3241 949.157 Q87.7217 949.157 91.4138 946.452 Q95.0741 943.715 95.0741 938.972 Q95.0741 934.293 91.3819 931.556 Q87.6898 928.819 81.3241 928.819 Q74.9903 928.819 71.2981 931.556 Q67.5742 934.293 67.5742 938.972 M62.609 938.972 Q62.609 931.333 67.5742 926.973 Q72.5395 922.612 81.3241 922.612 Q90.077 922.612 95.0741 926.973 Q100.039 931.333 100.039 938.972 Q100.039 946.643 95.0741 951.003 Q90.077 955.332 81.3241 955.332 Q72.5395 955.332 67.5742 951.003 Q62.609 946.643 62.609 938.972 Z" fill="#000000" fill-rule="nonzero" fill-opacity="1" /><path clip-path="url(#clip820)" d="M49.5911 894.858 L54.4609 894.858 L54.4609 900.46 Q54.4609 903.611 55.734 904.852 Q57.0071 906.061 60.3173 906.061 L63.4683 906.061 L63.4683 896.417 L68.0198 896.417 L68.0198 906.061 L99.1163 906.061 L99.1163 911.95 L68.0198 911.95 L68.0198 917.552 L63.4683 917.552 L63.4683 911.95 L60.9857 911.95 Q55.0338 911.95 52.3283 909.181 Q49.5911 906.412 49.5911 900.396 L49.5911 894.858 Z" fill="#000000" fill-rule="nonzero" fill-opacity="1" /><path clip-path="url(#clip820)" d="M63.4683 889.956 L63.4683 884.1 L99.1163 884.1 L99.1163 889.956 L63.4683 889.956 M49.5911 889.956 L49.5911 884.1 L57.0071 884.1 L57.0071 889.956 L49.5911 889.956 Z" fill="#000000" fill-rule="nonzero" fill-opacity="1" /><path clip-path="url(#clip820)" d="M53.3469 866.053 L63.4683 866.053 L63.4683 853.99 L68.0198 853.99 L68.0198 866.053 L87.3716 866.053 Q91.7321 866.053 92.9734 864.875 Q94.2147 863.666 94.2147 860.006 L94.2147 853.99 L99.1163 853.99 L99.1163 860.006 Q99.1163 866.785 96.6018 869.363 Q94.0555 871.941 87.3716 871.941 L68.0198 871.941 L68.0198 876.238 L63.4683 876.238 L63.4683 871.941 L53.3469 871.941 L53.3469 866.053 Z" fill="#000000" fill-rule="nonzero" fill-opacity="1" /><path clip-path="url(#clip820)" d="M64.5187 823.562 L70.0568 823.562 Q68.7837 826.045 68.1471 828.718 Q67.5106 831.392 67.5106 834.256 Q67.5106 838.617 68.8473 840.813 Q70.1841 842.977 72.8577 842.977 Q74.8948 842.977 76.0724 841.418 Q77.2183 839.858 78.2686 835.147 L78.7142 833.142 Q80.051 826.904 82.5018 824.294 Q84.9208 821.652 89.2813 821.652 Q94.2465 821.652 97.1429 825.599 Q100.039 829.514 100.039 836.389 Q100.039 839.253 99.4664 842.373 Q98.9253 845.46 97.8113 848.897 L91.7639 848.897 Q93.4508 845.651 94.3102 842.5 Q95.1377 839.349 95.1377 836.261 Q95.1377 832.124 93.7373 829.896 Q92.305 827.668 89.7269 827.668 Q87.3397 827.668 86.0666 829.291 Q84.7934 830.882 83.6158 836.325 L83.1384 838.362 Q81.9925 843.805 79.6372 846.224 Q77.2501 848.643 73.1124 848.643 Q68.0835 848.643 65.3462 845.078 Q62.609 841.513 62.609 834.957 Q62.609 831.71 63.0864 828.845 Q63.5638 825.981 64.5187 823.562 Z" fill="#000000" fill-rule="nonzero" fill-opacity="1" /><path clip-path="url(#clip820)" d="M49.5911 792.147 L49.5911 778.652 L54.1426 778.652 L54.1426 786.291 L103.159 786.291 L103.159 778.652 L107.71 778.652 L107.71 792.147 L49.5911 792.147 Z" fill="#000000" fill-rule="nonzero" fill-opacity="1" /><path clip-path="url(#clip820)" d="M51.5963 765.92 L51.5963 756.34 L83.9341 744.213 L51.5963 732.023 L51.5963 722.443 L99.1163 722.443 L99.1163 728.713 L57.3891 728.713 L89.9815 740.967 L89.9815 747.428 L57.3891 759.682 L99.1163 759.682 L99.1163 765.92 L51.5963 765.92 Z" fill="#000000" fill-rule="nonzero" fill-opacity="1" /><path clip-path="url(#clip820)" d="M63.4683 709.934 L63.4683 704.078 L99.1163 704.078 L99.1163 709.934 L63.4683 709.934 M49.5911 709.934 L49.5911 704.078 L57.0071 704.078 L57.0071 709.934 L49.5911 709.934 Z" fill="#000000" fill-rule="nonzero" fill-opacity="1" /><path clip-path="url(#clip820)" d="M49.5911 691.824 L49.5911 685.967 L99.1163 685.967 L99.1163 691.824 L49.5911 691.824 Z" fill="#000000" fill-rule="nonzero" fill-opacity="1" /><path clip-path="url(#clip820)" d="M49.5911 673.713 L49.5911 667.857 L99.1163 667.857 L99.1163 673.713 L49.5911 673.713 Z" fill="#000000" fill-rule="nonzero" fill-opacity="1" /><path clip-path="url(#clip820)" d="M63.4683 655.603 L63.4683 649.746 L99.1163 649.746 L99.1163 655.603 L63.4683 655.603 M49.5911 655.603 L49.5911 649.746 L57.0071 649.746 L57.0071 655.603 L49.5911 655.603 Z" fill="#000000" fill-rule="nonzero" fill-opacity="1" /><path clip-path="url(#clip820)" d="M67.5742 623.679 Q67.5742 628.389 71.2663 631.127 Q74.9266 633.864 81.3241 633.864 Q87.7217 633.864 91.4138 631.158 Q95.0741 628.421 95.0741 623.679 Q95.0741 619 91.3819 616.263 Q87.6898 613.525 81.3241 613.525 Q74.9903 613.525 71.2981 616.263 Q67.5742 619 67.5742 623.679 M62.609 623.679 Q62.609 616.04 67.5742 611.679 Q72.5395 607.319 81.3241 607.319 Q90.077 607.319 95.0741 611.679 Q100.039 616.04 100.039 623.679 Q100.039 631.349 95.0741 635.71 Q90.077 640.039 81.3241 640.039 Q72.5395 640.039 67.5742 635.71 Q62.609 631.349 62.609 623.679 Z" fill="#000000" fill-rule="nonzero" fill-opacity="1" /><path clip-path="url(#clip820)" d="M77.6002 567.979 L99.1163 567.979 L99.1163 573.835 L77.7912 573.835 Q72.7304 573.835 70.216 575.809 Q67.7015 577.782 67.7015 581.729 Q67.7015 586.471 70.7252 589.208 Q73.7489 591.946 78.9688 591.946 L99.1163 591.946 L99.1163 597.834 L63.4683 597.834 L63.4683 591.946 L69.0065 591.946 Q65.7918 589.845 64.2004 587.012 Q62.609 584.148 62.609 580.424 Q62.609 574.281 66.4284 571.13 Q70.216 567.979 77.6002 567.979 Z" fill="#000000" fill-rule="nonzero" fill-opacity="1" /><path clip-path="url(#clip820)" d="M51.5963 536.055 L51.5963 529.594 L80.4648 529.594 Q88.1036 529.594 91.4774 526.824 Q94.8194 524.055 94.8194 517.849 Q94.8194 511.674 91.4774 508.905 Q88.1036 506.136 80.4648 506.136 L51.5963 506.136 L51.5963 499.675 L81.2605 499.675 Q90.5544 499.675 95.2969 504.29 Q100.039 508.873 100.039 517.849 Q100.039 526.856 95.2969 531.471 Q90.5544 536.055 81.2605 536.055 L51.5963 536.055 Z" fill="#000000" fill-rule="nonzero" fill-opacity="1" /><path clip-path="url(#clip820)" d="M53.1559 459.125 L59.4261 459.125 Q57.6755 462.785 56.8162 466.032 Q55.9568 469.278 55.9568 472.302 Q55.9568 477.554 57.9938 480.418 Q60.0308 483.251 63.7866 483.251 Q66.9376 483.251 68.5609 481.373 Q70.1523 479.464 71.139 474.18 L71.9347 470.297 Q73.3033 463.104 76.7727 459.698 Q80.2101 456.261 86.0029 456.261 Q92.9097 456.261 96.4745 460.908 Q100.039 465.523 100.039 474.467 Q100.039 477.84 99.2754 481.66 Q98.5115 485.447 97.0156 489.521 L90.3953 489.521 Q92.5914 485.607 93.7054 481.851 Q94.8194 478.095 94.8194 474.467 Q94.8194 468.96 92.6551 465.968 Q90.4908 462.976 86.4804 462.976 Q82.9792 462.976 81.0058 465.141 Q79.0325 467.273 78.0458 472.175 L77.2819 476.09 Q75.8496 483.283 72.7941 486.498 Q69.7385 489.712 64.2959 489.712 Q57.9938 489.712 54.3654 485.288 Q50.7369 480.832 50.7369 473.034 Q50.7369 469.692 51.3417 466.223 Q51.9464 462.754 53.1559 459.125 Z" fill="#000000" fill-rule="nonzero" fill-opacity="1" /><path clip-path="url(#clip820)" d="M56.8798 439.805 L93.8327 439.805 L93.8327 432.039 Q93.8327 422.204 89.3768 417.653 Q84.9208 413.069 75.3085 413.069 Q65.76 413.069 61.3358 417.653 Q56.8798 422.204 56.8798 432.039 L56.8798 439.805 M51.5963 446.235 L51.5963 433.026 Q51.5963 419.212 57.3572 412.751 Q63.0864 406.29 75.3085 406.29 Q87.5944 406.29 93.3553 412.783 Q99.1163 419.276 99.1163 433.026 L99.1163 446.235 L51.5963 446.235 Z" fill="#000000" fill-rule="nonzero" fill-opacity="1" /><path clip-path="url(#clip820)" d="M49.5911 382.609 L107.71 382.609 L107.71 396.105 L103.159 396.105 L103.159 388.498 L54.1426 388.498 L54.1426 396.105 L49.5911 396.105 L49.5911 382.609 Z" fill="#000000" fill-rule="nonzero" fill-opacity="1" /><path clip-path="url(#clip820)" d="M601.154 65.6895 L629.712 65.6895 L629.712 72.576 L591.31 72.576 L591.31 65.6895 Q595.968 60.8689 603.989 52.7671 Q612.05 44.6248 614.116 42.2752 Q618.046 37.8598 619.585 34.8216 Q621.165 31.7429 621.165 28.7857 Q621.165 23.9651 617.762 20.927 Q614.4 17.8888 608.972 17.8888 Q605.123 17.8888 600.829 19.2256 Q596.576 20.5624 591.715 23.2765 L591.715 15.0127 Q596.657 13.0277 600.951 12.015 Q605.245 11.0023 608.81 11.0023 Q618.208 11.0023 623.798 15.7013 Q629.388 20.4004 629.388 28.2591 Q629.388 31.9859 627.97 35.3482 Q626.593 38.6699 622.907 43.2069 Q621.894 44.3817 616.466 50.0125 Q611.038 55.6027 601.154 65.6895 Z" fill="#000000" fill-rule="nonzero" fill-opacity="1" /><path clip-path="url(#clip820)" d="M664.388 17.4837 Q658.069 17.4837 654.869 23.7221 Q651.709 29.92 651.709 42.3968 Q651.709 54.833 654.869 61.0714 Q658.069 67.2693 664.388 67.2693 Q670.748 67.2693 673.908 61.0714 Q677.108 54.833 677.108 42.3968 Q677.108 29.92 673.908 23.7221 Q670.748 17.4837 664.388 17.4837 M664.388 11.0023 Q674.556 11.0023 679.903 19.0636 Q685.291 27.0843 685.291 42.3968 Q685.291 57.6687 679.903 65.73 Q674.556 73.7508 664.388 73.7508 Q654.22 73.7508 648.833 65.73 Q643.485 57.6687 643.485 42.3968 Q643.485 27.0843 648.833 19.0636 Q654.22 11.0023 664.388 11.0023 Z" fill="#000000" fill-rule="nonzero" fill-opacity="1" /><path clip-path="url(#clip820)" d="M717.009 12.096 L725.8 12.096 L742.571 36.9686 L759.22 12.096 L768.01 12.096 L746.621 43.7741 L746.621 72.576 L738.398 72.576 L738.398 43.7741 L717.009 12.096 Z" fill="#000000" fill-rule="nonzero" fill-opacity="1" /><path clip-path="url(#clip820)" d="M803.456 48.0275 L803.456 51.6733 L769.185 51.6733 Q769.671 59.3701 773.803 63.421 Q777.975 67.4314 785.389 67.4314 Q789.683 67.4314 793.693 66.3781 Q797.744 65.3249 801.714 63.2184 L801.714 70.267 Q797.703 71.9684 793.49 72.8596 Q789.278 73.7508 784.943 73.7508 Q774.087 73.7508 767.727 67.4314 Q761.407 61.1119 761.407 50.3365 Q761.407 39.1965 767.403 32.6746 Q773.438 26.1121 783.647 26.1121 Q792.802 26.1121 798.108 32.0264 Q803.456 37.9003 803.456 48.0275 M796.002 45.84 Q795.921 39.7232 792.559 36.0774 Q789.237 32.4315 783.728 32.4315 Q777.489 32.4315 773.722 35.9558 Q769.995 39.4801 769.428 45.8805 L796.002 45.84 Z" fill="#000000" fill-rule="nonzero" fill-opacity="1" /><path clip-path="url(#clip820)" d="M836.309 49.7694 Q827.275 49.7694 823.791 51.8354 Q820.307 53.9013 820.307 58.8839 Q820.307 62.8538 822.9 65.2034 Q825.533 67.5124 830.03 67.5124 Q836.227 67.5124 839.954 63.1374 Q843.722 58.7219 843.722 51.4303 L843.722 49.7694 L836.309 49.7694 M851.175 46.6907 L851.175 72.576 L843.722 72.576 L843.722 65.6895 Q841.17 69.8214 837.362 71.8063 Q833.554 73.7508 828.045 73.7508 Q821.077 73.7508 816.945 69.8619 Q812.854 65.9325 812.854 59.3701 Q812.854 51.7138 817.958 47.825 Q823.103 43.9361 833.27 43.9361 L843.722 43.9361 L843.722 43.2069 Q843.722 38.0623 840.319 35.2672 Q836.957 32.4315 830.84 32.4315 Q826.951 32.4315 823.265 33.3632 Q819.578 34.295 816.176 36.1584 L816.176 29.2718 Q820.267 27.692 824.115 26.9223 Q827.964 26.1121 831.609 26.1121 Q841.453 26.1121 846.314 31.2163 Q851.175 36.3204 851.175 46.6907 Z" fill="#000000" fill-rule="nonzero" fill-opacity="1" /><path clip-path="url(#clip820)" d="M892.819 34.1734 Q891.563 33.4443 890.064 33.1202 Q888.606 32.7556 886.823 32.7556 Q880.504 32.7556 877.101 36.8875 Q873.739 40.9789 873.739 48.6757 L873.739 72.576 L866.245 72.576 L866.245 27.2059 L873.739 27.2059 L873.739 34.2544 Q876.088 30.1225 879.856 28.1376 Q883.623 26.1121 889.011 26.1121 Q889.78 26.1121 890.712 26.2337 Q891.644 26.3147 892.778 26.5172 L892.819 34.1734 Z" fill="#000000" fill-rule="nonzero" fill-opacity="1" /><path clip-path="url(#clip820)" d="M927.332 12.096 L935.515 12.096 L935.515 36.8875 L965.249 36.8875 L965.249 12.096 L973.432 12.096 L973.432 72.576 L965.249 72.576 L965.249 43.7741 L935.515 43.7741 L935.515 72.576 L927.332 72.576 L927.332 12.096 Z" fill="#000000" fill-rule="nonzero" fill-opacity="1" /><path clip-path="url(#clip820)" d="M1006.97 32.4315 Q1000.98 32.4315 997.494 37.1306 Q994.01 41.7891 994.01 49.9314 Q994.01 58.0738 997.453 62.7728 Q1000.94 67.4314 1006.97 67.4314 Q1012.93 67.4314 1016.41 62.7323 Q1019.9 58.0333 1019.9 49.9314 Q1019.9 41.8701 1016.41 37.1711 Q1012.93 32.4315 1006.97 32.4315 M1006.97 26.1121 Q1016.7 26.1121 1022.25 32.4315 Q1027.79 38.7509 1027.79 49.9314 Q1027.79 61.0714 1022.25 67.4314 Q1016.7 73.7508 1006.97 73.7508 Q997.21 73.7508 991.661 67.4314 Q986.151 61.0714 986.151 49.9314 Q986.151 38.7509 991.661 32.4315 Q997.21 26.1121 1006.97 26.1121 Z" fill="#000000" fill-rule="nonzero" fill-opacity="1" /><path clip-path="url(#clip820)" d="M1066.44 34.1734 Q1065.18 33.4443 1063.69 33.1202 Q1062.23 32.7556 1060.45 32.7556 Q1054.13 32.7556 1050.72 36.8875 Q1047.36 40.9789 1047.36 48.6757 L1047.36 72.576 L1039.87 72.576 L1039.87 27.2059 L1047.36 27.2059 L1047.36 34.2544 Q1049.71 30.1225 1053.48 28.1376 Q1057.24 26.1121 1062.63 26.1121 Q1063.4 26.1121 1064.33 26.2337 Q1065.27 26.3147 1066.4 26.5172 L1066.44 34.1734 Z" fill="#000000" fill-rule="nonzero" fill-opacity="1" /><path clip-path="url(#clip820)" d="M1074.26 27.2059 L1081.71 27.2059 L1081.71 72.576 L1074.26 72.576 L1074.26 27.2059 M1074.26 9.54393 L1081.71 9.54393 L1081.71 18.9825 L1074.26 18.9825 L1074.26 9.54393 Z" fill="#000000" fill-rule="nonzero" fill-opacity="1" /><path clip-path="url(#clip820)" d="M1094.07 27.2059 L1129.47 27.2059 L1129.47 34.0114 L1101.44 66.6212 L1129.47 66.6212 L1129.47 72.576 L1093.05 72.576 L1093.05 65.7705 L1121.09 33.1607 L1094.07 33.1607 L1094.07 27.2059 Z" fill="#000000" fill-rule="nonzero" fill-opacity="1" /><path clip-path="url(#clip820)" d="M1158.44 32.4315 Q1152.44 32.4315 1148.96 37.1306 Q1145.47 41.7891 1145.47 49.9314 Q1145.47 58.0738 1148.92 62.7728 Q1152.4 67.4314 1158.44 67.4314 Q1164.39 67.4314 1167.88 62.7323 Q1171.36 58.0333 1171.36 49.9314 Q1171.36 41.8701 1167.88 37.1711 Q1164.39 32.4315 1158.44 32.4315 M1158.44 26.1121 Q1168.16 26.1121 1173.71 32.4315 Q1179.26 38.7509 1179.26 49.9314 Q1179.26 61.0714 1173.71 67.4314 Q1168.16 73.7508 1158.44 73.7508 Q1148.67 73.7508 1143.12 67.4314 Q1137.61 61.0714 1137.61 49.9314 Q1137.61 38.7509 1143.12 32.4315 Q1148.67 26.1121 1158.44 26.1121 Z" fill="#000000" fill-rule="nonzero" fill-opacity="1" /><path clip-path="url(#clip820)" d="M1229.33 45.1919 L1229.33 72.576 L1221.87 72.576 L1221.87 45.4349 Q1221.87 38.994 1219.36 35.7938 Q1216.85 32.5936 1211.83 32.5936 Q1205.79 32.5936 1202.31 36.4419 Q1198.82 40.2903 1198.82 46.9338 L1198.82 72.576 L1191.33 72.576 L1191.33 27.2059 L1198.82 27.2059 L1198.82 34.2544 Q1201.5 30.163 1205.1 28.1376 Q1208.75 26.1121 1213.49 26.1121 Q1221.31 26.1121 1225.32 30.9732 Q1229.33 35.7938 1229.33 45.1919 Z" fill="#000000" fill-rule="nonzero" fill-opacity="1" /><path clip-path="url(#clip820)" d="M1246.1 62.2867 L1254.65 62.2867 L1254.65 69.2543 L1248 82.2172 L1242.78 82.2172 L1246.1 69.2543 L1246.1 62.2867 Z" fill="#000000" fill-rule="nonzero" fill-opacity="1" /><path clip-path="url(#clip820)" d="M1315.49 17.4837 Q1309.17 17.4837 1305.97 23.7221 Q1302.81 29.92 1302.81 42.3968 Q1302.81 54.833 1305.97 61.0714 Q1309.17 67.2693 1315.49 67.2693 Q1321.85 67.2693 1325.01 61.0714 Q1328.21 54.833 1328.21 42.3968 Q1328.21 29.92 1325.01 23.7221 Q1321.85 17.4837 1315.49 17.4837 M1315.49 11.0023 Q1325.66 11.0023 1331 19.0636 Q1336.39 27.0843 1336.39 42.3968 Q1336.39 57.6687 1331 65.73 Q1325.66 73.7508 1315.49 73.7508 Q1305.32 73.7508 1299.93 65.73 Q1294.59 57.6687 1294.59 42.3968 Q1294.59 27.0843 1299.93 19.0636 Q1305.32 11.0023 1315.49 11.0023 Z" fill="#000000" fill-rule="nonzero" fill-opacity="1" /><path clip-path="url(#clip820)" d="M1350.77 62.2867 L1359.32 62.2867 L1359.32 72.576 L1350.77 72.576 L1350.77 62.2867 Z" fill="#000000" fill-rule="nonzero" fill-opacity="1" /><path clip-path="url(#clip820)" d="M1378.56 65.6895 L1391.93 65.6895 L1391.93 19.5497 L1377.39 22.4663 L1377.39 15.0127 L1391.85 12.096 L1400.03 12.096 L1400.03 65.6895 L1413.4 65.6895 L1413.4 72.576 L1378.56 72.576 L1378.56 65.6895 Z" fill="#000000" fill-rule="nonzero" fill-opacity="1" /><path clip-path="url(#clip820)" d="M1436.98 65.6895 L1465.54 65.6895 L1465.54 72.576 L1427.13 72.576 L1427.13 65.6895 Q1431.79 60.8689 1439.81 52.7671 Q1447.87 44.6248 1449.94 42.2752 Q1453.87 37.8598 1455.41 34.8216 Q1456.99 31.7429 1456.99 28.7857 Q1456.99 23.9651 1453.59 20.927 Q1450.22 17.8888 1444.79 17.8888 Q1440.95 17.8888 1436.65 19.2256 Q1432.4 20.5624 1427.54 23.2765 L1427.54 15.0127 Q1432.48 13.0277 1436.77 12.015 Q1441.07 11.0023 1444.63 11.0023 Q1454.03 11.0023 1459.62 15.7013 Q1465.21 20.4004 1465.21 28.2591 Q1465.21 31.9859 1463.79 35.3482 Q1462.42 38.6699 1458.73 43.2069 Q1457.72 44.3817 1452.29 50.0125 Q1446.86 55.6027 1436.98 65.6895 Z" fill="#000000" fill-rule="nonzero" fill-opacity="1" /><path clip-path="url(#clip820)" d="M1516.54 18.8205 L1516.54 65.8515 L1526.42 65.8515 Q1538.94 65.8515 1544.73 60.1802 Q1550.56 54.509 1550.56 42.2752 Q1550.56 30.1225 1544.73 24.4918 Q1538.94 18.8205 1526.42 18.8205 L1516.54 18.8205 M1508.35 12.096 L1525.16 12.096 Q1542.75 12.096 1550.97 19.4281 Q1559.19 26.7198 1559.19 42.2752 Q1559.19 57.9117 1550.93 65.2439 Q1542.66 72.576 1525.16 72.576 L1508.35 72.576 L1508.35 12.096 Z" fill="#000000" fill-rule="nonzero" fill-opacity="1" /><path clip-path="url(#clip820)" d="M1571.91 27.2059 L1579.37 27.2059 L1579.37 72.576 L1571.91 72.576 L1571.91 27.2059 M1571.91 9.54393 L1579.37 9.54393 L1579.37 18.9825 L1571.91 18.9825 L1571.91 9.54393 Z" fill="#000000" fill-rule="nonzero" fill-opacity="1" /><path clip-path="url(#clip820)" d="M1623.89 28.5427 L1623.89 35.5912 Q1620.73 33.9709 1617.32 33.1607 Q1613.92 32.3505 1610.27 32.3505 Q1604.72 32.3505 1601.93 34.0519 Q1599.17 35.7533 1599.17 39.156 Q1599.17 41.7486 1601.16 43.2475 Q1603.14 44.7058 1609.14 46.0426 L1611.69 46.6097 Q1619.63 48.3111 1622.95 51.4303 Q1626.32 54.509 1626.32 60.0587 Q1626.32 66.3781 1621.29 70.0644 Q1616.31 73.7508 1607.56 73.7508 Q1603.91 73.7508 1599.94 73.0216 Q1596.02 72.3329 1591.64 70.9151 L1591.64 63.2184 Q1595.77 65.3654 1599.78 66.4591 Q1603.79 67.5124 1607.72 67.5124 Q1612.99 67.5124 1615.82 65.73 Q1618.66 63.9071 1618.66 60.6258 Q1618.66 57.5877 1616.59 55.9673 Q1614.57 54.3469 1607.64 52.8481 L1605.05 52.2405 Q1598.12 50.7821 1595.04 47.7845 Q1591.96 44.7463 1591.96 39.4801 Q1591.96 33.0797 1596.5 29.5959 Q1601.04 26.1121 1609.38 26.1121 Q1613.51 26.1121 1617.16 26.7198 Q1620.81 27.3274 1623.89 28.5427 Z" fill="#000000" fill-rule="nonzero" fill-opacity="1" /><path clip-path="url(#clip820)" d="M1670.84 28.9478 L1670.84 35.9153 Q1667.68 34.1734 1664.48 33.3227 Q1661.32 32.4315 1658.07 32.4315 Q1650.82 32.4315 1646.81 37.0496 Q1642.8 41.6271 1642.8 49.9314 Q1642.8 58.2358 1646.81 62.8538 Q1650.82 67.4314 1658.07 67.4314 Q1661.32 67.4314 1664.48 66.5807 Q1667.68 65.6895 1670.84 63.9476 L1670.84 70.8341 Q1667.72 72.2924 1664.35 73.0216 Q1661.03 73.7508 1657.26 73.7508 Q1647.02 73.7508 1640.98 67.3098 Q1634.94 60.8689 1634.94 49.9314 Q1634.94 38.832 1641.02 32.472 Q1647.14 26.1121 1657.75 26.1121 Q1661.19 26.1121 1664.48 26.8413 Q1667.76 27.5299 1670.84 28.9478 Z" fill="#000000" fill-rule="nonzero" fill-opacity="1" /><path clip-path="url(#clip820)" d="M1701.38 32.4315 Q1695.38 32.4315 1691.9 37.1306 Q1688.42 41.7891 1688.42 49.9314 Q1688.42 58.0738 1691.86 62.7728 Q1695.34 67.4314 1701.38 67.4314 Q1707.33 67.4314 1710.82 62.7323 Q1714.3 58.0333 1714.3 49.9314 Q1714.3 41.8701 1710.82 37.1711 Q1707.33 32.4315 1701.38 32.4315 M1701.38 26.1121 Q1711.1 26.1121 1716.65 32.4315 Q1722.2 38.7509 1722.2 49.9314 Q1722.2 61.0714 1716.65 67.4314 Q1711.1 73.7508 1701.38 73.7508 Q1691.62 73.7508 1686.07 67.4314 Q1680.56 61.0714 1680.56 49.9314 Q1680.56 38.7509 1686.07 32.4315 Q1691.62 26.1121 1701.38 26.1121 Z" fill="#000000" fill-rule="nonzero" fill-opacity="1" /><path clip-path="url(#clip820)" d="M1733.79 54.671 L1733.79 27.2059 L1741.24 27.2059 L1741.24 54.3874 Q1741.24 60.8284 1743.75 64.0691 Q1746.26 67.2693 1751.29 67.2693 Q1757.32 67.2693 1760.81 63.421 Q1764.33 59.5726 1764.33 52.9291 L1764.33 27.2059 L1771.78 27.2059 L1771.78 72.576 L1764.33 72.576 L1764.33 65.6084 Q1761.62 69.7404 1758.01 71.7658 Q1754.45 73.7508 1749.71 73.7508 Q1741.89 73.7508 1737.84 68.8897 Q1733.79 64.0286 1733.79 54.671 M1752.54 26.1121 L1752.54 26.1121 Z" fill="#000000" fill-rule="nonzero" fill-opacity="1" /><path clip-path="url(#clip820)" d="M1824.85 45.1919 L1824.85 72.576 L1817.4 72.576 L1817.4 45.4349 Q1817.4 38.994 1814.89 35.7938 Q1812.37 32.5936 1807.35 32.5936 Q1801.31 32.5936 1797.83 36.4419 Q1794.35 40.2903 1794.35 46.9338 L1794.35 72.576 L1786.85 72.576 L1786.85 27.2059 L1794.35 27.2059 L1794.35 34.2544 Q1797.02 30.163 1800.63 28.1376 Q1804.27 26.1121 1809.01 26.1121 Q1816.83 26.1121 1820.84 30.9732 Q1824.85 35.7938 1824.85 45.1919 Z" fill="#000000" fill-rule="nonzero" fill-opacity="1" /><path clip-path="url(#clip820)" d="M1847.09 14.324 L1847.09 27.2059 L1862.44 27.2059 L1862.44 32.9987 L1847.09 32.9987 L1847.09 57.6282 Q1847.09 63.1779 1848.59 64.7578 Q1850.13 66.3376 1854.79 66.3376 L1862.44 66.3376 L1862.44 72.576 L1854.79 72.576 Q1846.16 72.576 1842.88 69.3758 Q1839.6 66.1351 1839.6 57.6282 L1839.6 32.9987 L1834.13 32.9987 L1834.13 27.2059 L1839.6 27.2059 L1839.6 14.324 L1847.09 14.324 Z" fill="#000000" fill-rule="nonzero" fill-opacity="1" /><path clip-path="url(#clip820)" d="M1874.15 62.2867 L1882.7 62.2867 L1882.7 69.2543 L1876.05 82.2172 L1870.83 82.2172 L1874.15 69.2543 L1874.15 62.2867 Z" fill="#000000" fill-rule="nonzero" fill-opacity="1" /><path clip-path="url(#clip820)" d="M1943.54 43.8551 Q1937.71 43.8551 1934.35 46.9743 Q1931.02 50.0935 1931.02 55.5622 Q1931.02 61.0309 1934.35 64.1501 Q1937.71 67.2693 1943.54 67.2693 Q1949.38 67.2693 1952.74 64.1501 Q1956.1 60.9904 1956.1 55.5622 Q1956.1 50.0935 1952.74 46.9743 Q1949.42 43.8551 1943.54 43.8551 M1935.36 40.3713 Q1930.09 39.075 1927.14 35.4697 Q1924.22 31.8644 1924.22 26.6793 Q1924.22 19.4281 1929.36 15.2152 Q1934.55 11.0023 1943.54 11.0023 Q1952.58 11.0023 1957.72 15.2152 Q1962.86 19.4281 1962.86 26.6793 Q1962.86 31.8644 1959.91 35.4697 Q1956.99 39.075 1951.77 40.3713 Q1957.68 41.7486 1960.96 45.759 Q1964.28 49.7694 1964.28 55.5622 Q1964.28 64.3527 1958.9 69.0517 Q1953.55 73.7508 1943.54 73.7508 Q1933.54 73.7508 1928.15 69.0517 Q1922.8 64.3527 1922.8 55.5622 Q1922.8 49.7694 1926.12 45.759 Q1929.45 41.7486 1935.36 40.3713 M1932.36 27.4489 Q1932.36 32.148 1935.28 34.7811 Q1938.24 37.4142 1943.54 37.4142 Q1948.81 37.4142 1951.77 34.7811 Q1954.76 32.148 1954.76 27.4489 Q1954.76 22.7499 1951.77 20.1168 Q1948.81 17.4837 1943.54 17.4837 Q1938.24 17.4837 1935.28 20.1168 Q1932.36 22.7499 1932.36 27.4489 Z" fill="#000000" fill-rule="nonzero" fill-opacity="1" /><path clip-path="url(#clip820)" d="M1996.33 17.4837 Q1990.01 17.4837 1986.81 23.7221 Q1983.65 29.92 1983.65 42.3968 Q1983.65 54.833 1986.81 61.0714 Q1990.01 67.2693 1996.33 67.2693 Q2002.69 67.2693 2005.85 61.0714 Q2009.05 54.833 2009.05 42.3968 Q2009.05 29.92 2005.85 23.7221 Q2002.69 17.4837 1996.33 17.4837 M1996.33 11.0023 Q2006.49 11.0023 2011.84 19.0636 Q2017.23 27.0843 2017.23 42.3968 Q2017.23 57.6687 2011.84 65.73 Q2006.49 73.7508 1996.33 73.7508 Q1986.16 73.7508 1980.77 65.73 Q1975.42 57.6687 1975.42 42.3968 Q1975.42 27.0843 1980.77 19.0636 Q1986.16 11.0023 1996.33 11.0023 Z" fill="#000000" fill-rule="nonzero" fill-opacity="1" /><path clip-path="url(#clip820)" d="M2031.61 62.2867 L2040.16 62.2867 L2040.16 72.576 L2031.61 72.576 L2031.61 62.2867 Z" fill="#000000" fill-rule="nonzero" fill-opacity="1" /><path clip-path="url(#clip820)" d="M2075.48 17.4837 Q2069.16 17.4837 2065.96 23.7221 Q2062.8 29.92 2062.8 42.3968 Q2062.8 54.833 2065.96 61.0714 Q2069.16 67.2693 2075.48 67.2693 Q2081.84 67.2693 2085 61.0714 Q2088.2 54.833 2088.2 42.3968 Q2088.2 29.92 2085 23.7221 Q2081.84 17.4837 2075.48 17.4837 M2075.48 11.0023 Q2085.65 11.0023 2091 19.0636 Q2096.38 27.0843 2096.38 42.3968 Q2096.38 57.6687 2091 65.73 Q2085.65 73.7508 2075.48 73.7508 Q2065.31 73.7508 2059.92 65.73 Q2054.58 57.6687 2054.58 42.3968 Q2054.58 27.0843 2059.92 19.0636 Q2065.31 11.0023 2075.48 11.0023 Z" fill="#000000" fill-rule="nonzero" fill-opacity="1" /><path clip-path="url(#clip820)" d="M2144.59 18.8205 L2144.59 65.8515 L2154.47 65.8515 Q2166.99 65.8515 2172.78 60.1802 Q2178.62 54.509 2178.62 42.2752 Q2178.62 30.1225 2172.78 24.4918 Q2166.99 18.8205 2154.47 18.8205 L2144.59 18.8205 M2136.41 12.096 L2153.22 12.096 Q2170.8 12.096 2179.02 19.4281 Q2187.24 26.7198 2187.24 42.2752 Q2187.24 57.9117 2178.98 65.2439 Q2170.72 72.576 2153.22 72.576 L2136.41 72.576 L2136.41 12.096 Z" fill="#000000" fill-rule="nonzero" fill-opacity="1" /><path clip-path="url(#clip820)" d="M2238.77 48.0275 L2238.77 51.6733 L2204.5 51.6733 Q2204.99 59.3701 2209.12 63.421 Q2213.29 67.4314 2220.71 67.4314 Q2225 67.4314 2229.01 66.3781 Q2233.06 65.3249 2237.03 63.2184 L2237.03 70.267 Q2233.02 71.9684 2228.81 72.8596 Q2224.59 73.7508 2220.26 73.7508 Q2209.4 73.7508 2203.04 67.4314 Q2196.72 61.1119 2196.72 50.3365 Q2196.72 39.1965 2202.72 32.6746 Q2208.75 26.1121 2218.96 26.1121 Q2228.12 26.1121 2233.42 32.0264 Q2238.77 37.9003 2238.77 48.0275 M2231.32 45.84 Q2231.24 39.7232 2227.88 36.0774 Q2224.55 32.4315 2219.04 32.4315 Q2212.81 32.4315 2209.04 35.9558 Q2205.31 39.4801 2204.74 45.8805 L2231.32 45.84 Z" fill="#000000" fill-rule="nonzero" fill-opacity="1" /><path clip-path="url(#clip820)" d="M2286.33 35.9153 Q2289.12 30.8922 2293.01 28.5022 Q2296.9 26.1121 2302.17 26.1121 Q2309.26 26.1121 2313.11 31.0947 Q2316.95 36.0368 2316.95 45.1919 L2316.95 72.576 L2309.46 72.576 L2309.46 45.4349 Q2309.46 38.913 2307.15 35.7533 Q2304.84 32.5936 2300.1 32.5936 Q2294.31 32.5936 2290.95 36.4419 Q2287.59 40.2903 2287.59 46.9338 L2287.59 72.576 L2280.09 72.576 L2280.09 45.4349 Q2280.09 38.8725 2277.78 35.7533 Q2275.47 32.5936 2270.65 32.5936 Q2264.94 32.5936 2261.58 36.4824 Q2258.22 40.3308 2258.22 46.9338 L2258.22 72.576 L2250.72 72.576 L2250.72 27.2059 L2258.22 27.2059 L2258.22 34.2544 Q2260.77 30.082 2264.33 28.0971 Q2267.9 26.1121 2272.8 26.1121 Q2277.74 26.1121 2281.19 28.6237 Q2284.67 31.1352 2286.33 35.9153 Z" fill="#000000" fill-rule="nonzero" fill-opacity="1" /><path clip-path="url(#clip820)" d="M2352.44 49.7694 Q2343.41 49.7694 2339.92 51.8354 Q2336.44 53.9013 2336.44 58.8839 Q2336.44 62.8538 2339.03 65.2034 Q2341.67 67.5124 2346.16 67.5124 Q2352.36 67.5124 2356.09 63.1374 Q2359.85 58.7219 2359.85 51.4303 L2359.85 49.7694 L2352.44 49.7694 M2367.31 46.6907 L2367.31 72.576 L2359.85 72.576 L2359.85 65.6895 Q2357.3 69.8214 2353.49 71.8063 Q2349.69 73.7508 2344.18 73.7508 Q2337.21 73.7508 2333.08 69.8619 Q2328.99 65.9325 2328.99 59.3701 Q2328.99 51.7138 2334.09 47.825 Q2339.23 43.9361 2349.4 43.9361 L2359.85 43.9361 L2359.85 43.2069 Q2359.85 38.0623 2356.45 35.2672 Q2353.09 32.4315 2346.97 32.4315 Q2343.08 32.4315 2339.4 33.3632 Q2335.71 34.295 2332.31 36.1584 L2332.31 29.2718 Q2336.4 27.692 2340.25 26.9223 Q2344.1 26.1121 2347.74 26.1121 Q2357.59 26.1121 2362.45 31.2163 Q2367.31 36.3204 2367.31 46.6907 Z" fill="#000000" fill-rule="nonzero" fill-opacity="1" /><path clip-path="url(#clip820)" d="M2420.37 45.1919 L2420.37 72.576 L2412.92 72.576 L2412.92 45.4349 Q2412.92 38.994 2410.41 35.7938 Q2407.9 32.5936 2402.87 32.5936 Q2396.84 32.5936 2393.35 36.4419 Q2389.87 40.2903 2389.87 46.9338 L2389.87 72.576 L2382.38 72.576 L2382.38 27.2059 L2389.87 27.2059 L2389.87 34.2544 Q2392.54 30.163 2396.15 28.1376 Q2399.8 26.1121 2404.54 26.1121 Q2412.35 26.1121 2416.36 30.9732 Q2420.37 35.7938 2420.37 45.1919 Z" fill="#000000" fill-rule="nonzero" fill-opacity="1" /><path clip-path="url(#clip820)" d="M2465.1 34.0924 L2465.1 9.54393 L2472.55 9.54393 L2472.55 72.576 L2465.1 72.576 L2465.1 65.7705 Q2462.75 69.8214 2459.14 71.8063 Q2455.58 73.7508 2450.55 73.7508 Q2442.33 73.7508 2437.14 67.1883 Q2432 60.6258 2432 49.9314 Q2432 39.2371 2437.14 32.6746 Q2442.33 26.1121 2450.55 26.1121 Q2455.58 26.1121 2459.14 28.0971 Q2462.75 30.0415 2465.1 34.0924 M2439.7 49.9314 Q2439.7 58.1548 2443.06 62.8538 Q2446.46 67.5124 2452.38 67.5124 Q2458.29 67.5124 2461.69 62.8538 Q2465.1 58.1548 2465.1 49.9314 Q2465.1 41.7081 2461.69 37.0496 Q2458.29 32.3505 2452.38 32.3505 Q2446.46 32.3505 2443.06 37.0496 Q2439.7 41.7081 2439.7 49.9314 Z" fill="#000000" fill-rule="nonzero" fill-opacity="1" /><path clip-path="url(#clip820)" d="M2555.84 63.9476 L2555.84 47.7034 L2542.47 47.7034 L2542.47 40.9789 L2563.94 40.9789 L2563.94 66.9452 Q2559.2 70.3075 2553.49 72.0494 Q2547.78 73.7508 2541.29 73.7508 Q2527.12 73.7508 2519.09 65.4869 Q2511.11 57.1826 2511.11 42.3968 Q2511.11 27.5705 2519.09 19.3066 Q2527.12 11.0023 2541.29 11.0023 Q2547.21 11.0023 2552.51 12.4606 Q2557.86 13.9189 2562.36 16.7545 L2562.36 25.464 Q2557.82 21.6156 2552.72 19.6712 Q2547.61 17.7268 2541.98 17.7268 Q2530.88 17.7268 2525.29 23.9246 Q2519.74 30.1225 2519.74 42.3968 Q2519.74 54.6305 2525.29 60.8284 Q2530.88 67.0263 2541.98 67.0263 Q2546.32 67.0263 2549.72 66.2971 Q2553.12 65.5274 2555.84 63.9476 Z" fill="#000000" fill-rule="nonzero" fill-opacity="1" /><path clip-path="url(#clip820)" d="M2604.85 34.1734 Q2603.6 33.4443 2602.1 33.1202 Q2600.64 32.7556 2598.86 32.7556 Q2592.54 32.7556 2589.13 36.8875 Q2585.77 40.9789 2585.77 48.6757 L2585.77 72.576 L2578.28 72.576 L2578.28 27.2059 L2585.77 27.2059 L2585.77 34.2544 Q2588.12 30.1225 2591.89 28.1376 Q2595.66 26.1121 2601.04 26.1121 Q2601.81 26.1121 2602.75 26.2337 Q2603.68 26.3147 2604.81 26.5172 L2604.85 34.1734 Z" fill="#000000" fill-rule="nonzero" fill-opacity="1" /><path clip-path="url(#clip820)" d="M2628.43 32.4315 Q2622.43 32.4315 2618.95 37.1306 Q2615.47 41.7891 2615.47 49.9314 Q2615.47 58.0738 2618.91 62.7728 Q2622.39 67.4314 2628.43 67.4314 Q2634.38 67.4314 2637.87 62.7323 Q2641.35 58.0333 2641.35 49.9314 Q2641.35 41.8701 2637.87 37.1711 Q2634.38 32.4315 2628.43 32.4315 M2628.43 26.1121 Q2638.15 26.1121 2643.7 32.4315 Q2649.25 38.7509 2649.25 49.9314 Q2649.25 61.0714 2643.7 67.4314 Q2638.15 73.7508 2628.43 73.7508 Q2618.67 73.7508 2613.12 67.4314 Q2607.61 61.0714 2607.61 49.9314 Q2607.61 38.7509 2613.12 32.4315 Q2618.67 26.1121 2628.43 26.1121 Z" fill="#000000" fill-rule="nonzero" fill-opacity="1" /><path clip-path="url(#clip820)" d="M2657.27 27.2059 L2664.72 27.2059 L2674.04 62.6108 L2683.32 27.2059 L2692.11 27.2059 L2701.43 62.6108 L2710.7 27.2059 L2718.16 27.2059 L2706.29 72.576 L2697.5 72.576 L2687.73 35.3887 L2677.93 72.576 L2669.14 72.576 L2657.27 27.2059 Z" fill="#000000" fill-rule="nonzero" fill-opacity="1" /><path clip-path="url(#clip820)" d="M2736.83 14.324 L2736.83 27.2059 L2752.18 27.2059 L2752.18 32.9987 L2736.83 32.9987 L2736.83 57.6282 Q2736.83 63.1779 2738.33 64.7578 Q2739.87 66.3376 2744.53 66.3376 L2752.18 66.3376 L2752.18 72.576 L2744.53 72.576 Q2735.9 72.576 2732.62 69.3758 Q2729.34 66.1351 2729.34 57.6282 L2729.34 32.9987 L2723.87 32.9987 L2723.87 27.2059 L2729.34 27.2059 L2729.34 14.324 L2736.83 14.324 Z" fill="#000000" fill-rule="nonzero" fill-opacity="1" /><path clip-path="url(#clip820)" d="M2799.7 45.1919 L2799.7 72.576 L2792.25 72.576 L2792.25 45.4349 Q2792.25 38.994 2789.74 35.7938 Q2787.22 32.5936 2782.2 32.5936 Q2776.17 32.5936 2772.68 36.4419 Q2769.2 40.2903 2769.2 46.9338 L2769.2 72.576 L2761.7 72.576 L2761.7 9.54393 L2769.2 9.54393 L2769.2 34.2544 Q2771.87 30.163 2775.48 28.1376 Q2779.12 26.1121 2783.86 26.1121 Q2791.68 26.1121 2795.69 30.9732 Q2799.7 35.7938 2799.7 45.1919 Z" fill="#000000" fill-rule="nonzero" fill-opacity="1" /><polyline clip-path="url(#clip822)" style="stroke:#009af9; stroke-linecap:round; stroke-linejoin:round; stroke-width:4; stroke-opacity:1; fill:none" points="380.167,1346.48 643.235,941.214 906.302,555.54 1169.37,317.243 1432.44,214.295 1695.51,205.572 1958.57,268.276 2221.64,380.705 2484.71,530.83 2747.78,707.196 3010.84,901.935 "/>
<circle clip-path="url(#clip822)" cx="380.167" cy="1346.48" r="14.4" fill="#009af9" fill-rule="evenodd" fill-opacity="1" stroke="#000000" stroke-opacity="1" stroke-width="3.2"/>
<circle clip-path="url(#clip822)" cx="643.235" cy="941.214" r="14.4" fill="#009af9" fill-rule="evenodd" fill-opacity="1" stroke="#000000" stroke-opacity="1" stroke-width="3.2"/>
<circle clip-path="url(#clip822)" cx="906.302" cy="555.54" r="14.4" fill="#009af9" fill-rule="evenodd" fill-opacity="1" stroke="#000000" stroke-opacity="1" stroke-width="3.2"/>
<circle clip-path="url(#clip822)" cx="1169.37" cy="317.243" r="14.4" fill="#009af9" fill-rule="evenodd" fill-opacity="1" stroke="#000000" stroke-opacity="1" stroke-width="3.2"/>
<circle clip-path="url(#clip822)" cx="1432.44" cy="214.295" r="14.4" fill="#009af9" fill-rule="evenodd" fill-opacity="1" stroke="#000000" stroke-opacity="1" stroke-width="3.2"/>
<circle clip-path="url(#clip822)" cx="1695.51" cy="205.572" r="14.4" fill="#009af9" fill-rule="evenodd" fill-opacity="1" stroke="#000000" stroke-opacity="1" stroke-width="3.2"/>
<circle clip-path="url(#clip822)" cx="1958.57" cy="268.276" r="14.4" fill="#009af9" fill-rule="evenodd" fill-opacity="1" stroke="#000000" stroke-opacity="1" stroke-width="3.2"/>
<circle clip-path="url(#clip822)" cx="2221.64" cy="380.705" r="14.4" fill="#009af9" fill-rule="evenodd" fill-opacity="1" stroke="#000000" stroke-opacity="1" stroke-width="3.2"/>
<circle clip-path="url(#clip822)" cx="2484.71" cy="530.83" r="14.4" fill="#009af9" fill-rule="evenodd" fill-opacity="1" stroke="#000000" stroke-opacity="1" stroke-width="3.2"/>
<circle clip-path="url(#clip822)" cx="2747.78" cy="707.196" r="14.4" fill="#009af9" fill-rule="evenodd" fill-opacity="1" stroke="#000000" stroke-opacity="1" stroke-width="3.2"/>
<circle clip-path="url(#clip822)" cx="3010.84" cy="901.935" r="14.4" fill="#009af9" fill-rule="evenodd" fill-opacity="1" stroke="#000000" stroke-opacity="1" stroke-width="3.2"/>
<polyline clip-path="url(#clip822)" style="stroke:#e26f46; stroke-linecap:round; stroke-linejoin:round; stroke-width:4; stroke-opacity:1; fill:none" points="-2487.27,382.603 5878.28,382.603 "/>
</svg>
